%TF.GenerationSoftware,KiCad,Pcbnew,(5.1.10)-1*%
%TF.CreationDate,2021-12-01T23:12:09+02:00*%
%TF.ProjectId,gaisa-sargs-side-pcb-2,67616973-612d-4736-9172-67732d736964,rev?*%
%TF.SameCoordinates,Original*%
%TF.FileFunction,Profile,NP*%
%FSLAX46Y46*%
G04 Gerber Fmt 4.6, Leading zero omitted, Abs format (unit mm)*
G04 Created by KiCad (PCBNEW (5.1.10)-1) date 2021-12-01 23:12:09*
%MOMM*%
%LPD*%
G01*
G04 APERTURE LIST*
%TA.AperFunction,Profile*%
%ADD10C,0.050000*%
%TD*%
G04 APERTURE END LIST*
D10*
X126031615Y-90034139D02*
X123587506Y-89508466D01*
X131919148Y-62660119D02*
X126031615Y-90034139D01*
X129475040Y-62134446D02*
X131919148Y-62660119D01*
X134272524Y-51718127D02*
G75*
G02*
X135250168Y-50928396I977644J-210269D01*
G01*
X130736654Y-56268585D02*
X129475040Y-62134446D01*
X133180763Y-56794258D02*
X130736654Y-56268585D01*
X151905792Y-50928396D02*
X135250168Y-50928396D01*
X143896117Y-118081184D02*
G75*
G03*
X143896117Y-118081184I-9000000J0D01*
G01*
X134272524Y-51718127D02*
X133180763Y-56794258D01*
X162316468Y-127391875D02*
X159533115Y-127635387D01*
X123587506Y-89508466D02*
X122325891Y-95374327D01*
X151905793Y-50928396D02*
G75*
G02*
X152901987Y-51841241I-1J-1000000D01*
G01*
X156656976Y-94760963D02*
X153867992Y-62882733D01*
X159147463Y-94543074D02*
X156656976Y-94760963D01*
X153345058Y-56905565D02*
X155677922Y-56701465D01*
X159670397Y-100520242D02*
X157179910Y-100738131D01*
X161033341Y-144783046D02*
G75*
G02*
X160037146Y-145870202I-996195J-87156D01*
G01*
X117491977Y-129739083D02*
X114282839Y-144659933D01*
X122325891Y-95374327D02*
X124770000Y-95900000D01*
X160037146Y-145870202D02*
X115260482Y-145870202D01*
X115260482Y-145870201D02*
G75*
G02*
X114282839Y-144659933I0J999999D01*
G01*
X116309482Y-123347550D02*
X115047868Y-129213411D01*
X161793534Y-121414707D02*
X162316468Y-127391875D01*
X115047868Y-129213411D02*
X117491977Y-129739083D01*
X156200857Y-62678634D02*
X153867992Y-62882733D01*
X159010181Y-121658219D02*
X161793534Y-121414707D01*
X159147463Y-94543074D02*
X159670397Y-100520242D01*
X159010181Y-121658219D02*
X157179910Y-100738131D01*
X153345058Y-56905565D02*
X152901987Y-51841241D01*
X161033341Y-144783046D02*
X159533115Y-127635387D01*
X155677922Y-56701465D02*
X156200857Y-62678634D01*
X118753591Y-123873222D02*
X116309482Y-123347550D01*
X124770000Y-95900000D02*
X118753591Y-123873222D01*
M02*
