%TF.GenerationSoftware,KiCad,Pcbnew,(5.1.10)-1*%
%TF.CreationDate,2021-12-01T23:12:09+02:00*%
%TF.ProjectId,gaisa-sargs-side-pcb-2,67616973-612d-4736-9172-67732d736964,rev?*%
%TF.SameCoordinates,Original*%
%TF.FileFunction,Soldermask,Top*%
%TF.FilePolarity,Negative*%
%FSLAX46Y46*%
G04 Gerber Fmt 4.6, Leading zero omitted, Abs format (unit mm)*
G04 Created by KiCad (PCBNEW (5.1.10)-1) date 2021-12-01 23:12:09*
%MOMM*%
%LPD*%
G01*
G04 APERTURE LIST*
%ADD10C,0.010000*%
G04 APERTURE END LIST*
D10*
%TO.C,Ref\u002A\u002A*%
G36*
X118878466Y-123746402D02*
G01*
X118934261Y-123763278D01*
X119007004Y-123787126D01*
X119015167Y-123789895D01*
X119299430Y-123908627D01*
X119563855Y-124063636D01*
X119806949Y-124253048D01*
X120027221Y-124474988D01*
X120223179Y-124727583D01*
X120393332Y-125008958D01*
X120536188Y-125317239D01*
X120650256Y-125650553D01*
X120719118Y-125930750D01*
X120744151Y-126086774D01*
X120762571Y-126272610D01*
X120774075Y-126476206D01*
X120778360Y-126685515D01*
X120775125Y-126888486D01*
X120764065Y-127073070D01*
X120750750Y-127190166D01*
X120676088Y-127580471D01*
X120568703Y-127953328D01*
X120430205Y-128306301D01*
X120262207Y-128636953D01*
X120066318Y-128942845D01*
X119844150Y-129221540D01*
X119597312Y-129470601D01*
X119327417Y-129687591D01*
X119036075Y-129870071D01*
X118949915Y-129915131D01*
X118702627Y-130021968D01*
X118445119Y-130101599D01*
X118186226Y-130152291D01*
X117934780Y-130172310D01*
X117701250Y-130160135D01*
X117642687Y-130151135D01*
X117565759Y-130137535D01*
X117526629Y-130130057D01*
X117415509Y-130108167D01*
X117499307Y-130008787D01*
X117525636Y-129976681D01*
X117547053Y-129946194D01*
X117565367Y-129911511D01*
X117582388Y-129866819D01*
X117599924Y-129806305D01*
X117619785Y-129724156D01*
X117643779Y-129614559D01*
X117673716Y-129471701D01*
X117688214Y-129401745D01*
X117706374Y-129314242D01*
X117732518Y-129188569D01*
X117765966Y-129027994D01*
X117806034Y-128835784D01*
X117852041Y-128615206D01*
X117903305Y-128369527D01*
X117959144Y-128102015D01*
X118018876Y-127815936D01*
X118081820Y-127514558D01*
X118147293Y-127201148D01*
X118214613Y-126878973D01*
X118283099Y-126551301D01*
X118313494Y-126405899D01*
X118380100Y-126086568D01*
X118444230Y-125777677D01*
X118505350Y-125481878D01*
X118562925Y-125201821D01*
X118616419Y-124940159D01*
X118665296Y-124699544D01*
X118709023Y-124482627D01*
X118747062Y-124292060D01*
X118778880Y-124130495D01*
X118803941Y-124000583D01*
X118821710Y-123904976D01*
X118831651Y-123846327D01*
X118833666Y-123828857D01*
X118837369Y-123774300D01*
X118846668Y-123742953D01*
X118851125Y-123740000D01*
X118878466Y-123746402D01*
G37*
X118878466Y-123746402D02*
X118934261Y-123763278D01*
X119007004Y-123787126D01*
X119015167Y-123789895D01*
X119299430Y-123908627D01*
X119563855Y-124063636D01*
X119806949Y-124253048D01*
X120027221Y-124474988D01*
X120223179Y-124727583D01*
X120393332Y-125008958D01*
X120536188Y-125317239D01*
X120650256Y-125650553D01*
X120719118Y-125930750D01*
X120744151Y-126086774D01*
X120762571Y-126272610D01*
X120774075Y-126476206D01*
X120778360Y-126685515D01*
X120775125Y-126888486D01*
X120764065Y-127073070D01*
X120750750Y-127190166D01*
X120676088Y-127580471D01*
X120568703Y-127953328D01*
X120430205Y-128306301D01*
X120262207Y-128636953D01*
X120066318Y-128942845D01*
X119844150Y-129221540D01*
X119597312Y-129470601D01*
X119327417Y-129687591D01*
X119036075Y-129870071D01*
X118949915Y-129915131D01*
X118702627Y-130021968D01*
X118445119Y-130101599D01*
X118186226Y-130152291D01*
X117934780Y-130172310D01*
X117701250Y-130160135D01*
X117642687Y-130151135D01*
X117565759Y-130137535D01*
X117526629Y-130130057D01*
X117415509Y-130108167D01*
X117499307Y-130008787D01*
X117525636Y-129976681D01*
X117547053Y-129946194D01*
X117565367Y-129911511D01*
X117582388Y-129866819D01*
X117599924Y-129806305D01*
X117619785Y-129724156D01*
X117643779Y-129614559D01*
X117673716Y-129471701D01*
X117688214Y-129401745D01*
X117706374Y-129314242D01*
X117732518Y-129188569D01*
X117765966Y-129027994D01*
X117806034Y-128835784D01*
X117852041Y-128615206D01*
X117903305Y-128369527D01*
X117959144Y-128102015D01*
X118018876Y-127815936D01*
X118081820Y-127514558D01*
X118147293Y-127201148D01*
X118214613Y-126878973D01*
X118283099Y-126551301D01*
X118313494Y-126405899D01*
X118380100Y-126086568D01*
X118444230Y-125777677D01*
X118505350Y-125481878D01*
X118562925Y-125201821D01*
X118616419Y-124940159D01*
X118665296Y-124699544D01*
X118709023Y-124482627D01*
X118747062Y-124292060D01*
X118778880Y-124130495D01*
X118803941Y-124000583D01*
X118821710Y-123904976D01*
X118831651Y-123846327D01*
X118833666Y-123828857D01*
X118837369Y-123774300D01*
X118846668Y-123742953D01*
X118851125Y-123740000D01*
X118878466Y-123746402D01*
G36*
X158795098Y-121733718D02*
G01*
X158796333Y-121752396D01*
X158798341Y-121778791D01*
X158804200Y-121844738D01*
X158813664Y-121947651D01*
X158826488Y-122084947D01*
X158842426Y-122254043D01*
X158861230Y-122452354D01*
X158882655Y-122677296D01*
X158906456Y-122926287D01*
X158932385Y-123196741D01*
X158960197Y-123486075D01*
X158989646Y-123791706D01*
X159020486Y-124111049D01*
X159050878Y-124425091D01*
X159083282Y-124759905D01*
X159114838Y-125086606D01*
X159145271Y-125402316D01*
X159174308Y-125704160D01*
X159201672Y-125989263D01*
X159227090Y-126254747D01*
X159250287Y-126497738D01*
X159270989Y-126715360D01*
X159288920Y-126904737D01*
X159303806Y-127062993D01*
X159315373Y-127187252D01*
X159323346Y-127274639D01*
X159327037Y-127317099D01*
X159340164Y-127450857D01*
X159355150Y-127548405D01*
X159373121Y-127615860D01*
X159388233Y-127648705D01*
X159411014Y-127695394D01*
X159416918Y-127725355D01*
X159415464Y-127728146D01*
X159386079Y-127735482D01*
X159323846Y-127737857D01*
X159237922Y-127735544D01*
X159137467Y-127728817D01*
X159031641Y-127717949D01*
X159018583Y-127716324D01*
X158735994Y-127659453D01*
X158458919Y-127562502D01*
X158190917Y-127427680D01*
X157935545Y-127257193D01*
X157696362Y-127053250D01*
X157476926Y-126818059D01*
X157386108Y-126703333D01*
X157305455Y-126585129D01*
X157218096Y-126438700D01*
X157130264Y-126276130D01*
X157048190Y-126109503D01*
X156978107Y-125950901D01*
X156926246Y-125812409D01*
X156925603Y-125810437D01*
X156860414Y-125573622D01*
X156808200Y-125309615D01*
X156770017Y-125029971D01*
X156746923Y-124746249D01*
X156739975Y-124470003D01*
X156750231Y-124212791D01*
X156765991Y-124065792D01*
X156832482Y-123725666D01*
X156934720Y-123395917D01*
X157070231Y-123081636D01*
X157236543Y-122787914D01*
X157431182Y-122519844D01*
X157615243Y-122317735D01*
X157828670Y-122129910D01*
X158054968Y-121976908D01*
X158300566Y-121855308D01*
X158571896Y-121761685D01*
X158738125Y-121720059D01*
X158780121Y-121715734D01*
X158795098Y-121733718D01*
G37*
X158795098Y-121733718D02*
X158796333Y-121752396D01*
X158798341Y-121778791D01*
X158804200Y-121844738D01*
X158813664Y-121947651D01*
X158826488Y-122084947D01*
X158842426Y-122254043D01*
X158861230Y-122452354D01*
X158882655Y-122677296D01*
X158906456Y-122926287D01*
X158932385Y-123196741D01*
X158960197Y-123486075D01*
X158989646Y-123791706D01*
X159020486Y-124111049D01*
X159050878Y-124425091D01*
X159083282Y-124759905D01*
X159114838Y-125086606D01*
X159145271Y-125402316D01*
X159174308Y-125704160D01*
X159201672Y-125989263D01*
X159227090Y-126254747D01*
X159250287Y-126497738D01*
X159270989Y-126715360D01*
X159288920Y-126904737D01*
X159303806Y-127062993D01*
X159315373Y-127187252D01*
X159323346Y-127274639D01*
X159327037Y-127317099D01*
X159340164Y-127450857D01*
X159355150Y-127548405D01*
X159373121Y-127615860D01*
X159388233Y-127648705D01*
X159411014Y-127695394D01*
X159416918Y-127725355D01*
X159415464Y-127728146D01*
X159386079Y-127735482D01*
X159323846Y-127737857D01*
X159237922Y-127735544D01*
X159137467Y-127728817D01*
X159031641Y-127717949D01*
X159018583Y-127716324D01*
X158735994Y-127659453D01*
X158458919Y-127562502D01*
X158190917Y-127427680D01*
X157935545Y-127257193D01*
X157696362Y-127053250D01*
X157476926Y-126818059D01*
X157386108Y-126703333D01*
X157305455Y-126585129D01*
X157218096Y-126438700D01*
X157130264Y-126276130D01*
X157048190Y-126109503D01*
X156978107Y-125950901D01*
X156926246Y-125812409D01*
X156925603Y-125810437D01*
X156860414Y-125573622D01*
X156808200Y-125309615D01*
X156770017Y-125029971D01*
X156746923Y-124746249D01*
X156739975Y-124470003D01*
X156750231Y-124212791D01*
X156765991Y-124065792D01*
X156832482Y-123725666D01*
X156934720Y-123395917D01*
X157070231Y-123081636D01*
X157236543Y-122787914D01*
X157431182Y-122519844D01*
X157615243Y-122317735D01*
X157828670Y-122129910D01*
X158054968Y-121976908D01*
X158300566Y-121855308D01*
X158571896Y-121761685D01*
X158738125Y-121720059D01*
X158780121Y-121715734D01*
X158795098Y-121733718D01*
G36*
X156487955Y-94914798D02*
G01*
X156506787Y-94934687D01*
X156510333Y-94983807D01*
X156510333Y-94983835D01*
X156512378Y-95013817D01*
X156518343Y-95083287D01*
X156527977Y-95189604D01*
X156541025Y-95330128D01*
X156557237Y-95502219D01*
X156576357Y-95703238D01*
X156598135Y-95930544D01*
X156622317Y-96181498D01*
X156648650Y-96453459D01*
X156676881Y-96743788D01*
X156706758Y-97049844D01*
X156738028Y-97368988D01*
X156765215Y-97645543D01*
X156797835Y-97977329D01*
X156829536Y-98300651D01*
X156860040Y-98612643D01*
X156889071Y-98910439D01*
X156916354Y-99191174D01*
X156941611Y-99451984D01*
X156964565Y-99690003D01*
X156984941Y-99902366D01*
X157002462Y-100086207D01*
X157016851Y-100238662D01*
X157027833Y-100356865D01*
X157035129Y-100437951D01*
X157038015Y-100472644D01*
X157051712Y-100609980D01*
X157069044Y-100706948D01*
X157089848Y-100762632D01*
X157090049Y-100762941D01*
X157114531Y-100803763D01*
X157124166Y-100826338D01*
X157104727Y-100832471D01*
X157053006Y-100835231D01*
X156978894Y-100834896D01*
X156892287Y-100831742D01*
X156803076Y-100826047D01*
X156721156Y-100818086D01*
X156692043Y-100814243D01*
X156396482Y-100749941D01*
X156112669Y-100645047D01*
X155840916Y-100499723D01*
X155581535Y-100314137D01*
X155345969Y-100099779D01*
X155124529Y-99853122D01*
X154937192Y-99594588D01*
X154782351Y-99320384D01*
X154658394Y-99026713D01*
X154563714Y-98709783D01*
X154496700Y-98365798D01*
X154456639Y-98003114D01*
X154446039Y-97625044D01*
X154470953Y-97258483D01*
X154530467Y-96906220D01*
X154623668Y-96571044D01*
X154749645Y-96255744D01*
X154907484Y-95963108D01*
X155096273Y-95695926D01*
X155277911Y-95493400D01*
X155429173Y-95356393D01*
X155596838Y-95228891D01*
X155767610Y-95120282D01*
X155907083Y-95049035D01*
X156001455Y-95012551D01*
X156113334Y-94977190D01*
X156229523Y-94946357D01*
X156336826Y-94923458D01*
X156422047Y-94911897D01*
X156441541Y-94911148D01*
X156487955Y-94914798D01*
G37*
X156487955Y-94914798D02*
X156506787Y-94934687D01*
X156510333Y-94983807D01*
X156510333Y-94983835D01*
X156512378Y-95013817D01*
X156518343Y-95083287D01*
X156527977Y-95189604D01*
X156541025Y-95330128D01*
X156557237Y-95502219D01*
X156576357Y-95703238D01*
X156598135Y-95930544D01*
X156622317Y-96181498D01*
X156648650Y-96453459D01*
X156676881Y-96743788D01*
X156706758Y-97049844D01*
X156738028Y-97368988D01*
X156765215Y-97645543D01*
X156797835Y-97977329D01*
X156829536Y-98300651D01*
X156860040Y-98612643D01*
X156889071Y-98910439D01*
X156916354Y-99191174D01*
X156941611Y-99451984D01*
X156964565Y-99690003D01*
X156984941Y-99902366D01*
X157002462Y-100086207D01*
X157016851Y-100238662D01*
X157027833Y-100356865D01*
X157035129Y-100437951D01*
X157038015Y-100472644D01*
X157051712Y-100609980D01*
X157069044Y-100706948D01*
X157089848Y-100762632D01*
X157090049Y-100762941D01*
X157114531Y-100803763D01*
X157124166Y-100826338D01*
X157104727Y-100832471D01*
X157053006Y-100835231D01*
X156978894Y-100834896D01*
X156892287Y-100831742D01*
X156803076Y-100826047D01*
X156721156Y-100818086D01*
X156692043Y-100814243D01*
X156396482Y-100749941D01*
X156112669Y-100645047D01*
X155840916Y-100499723D01*
X155581535Y-100314137D01*
X155345969Y-100099779D01*
X155124529Y-99853122D01*
X154937192Y-99594588D01*
X154782351Y-99320384D01*
X154658394Y-99026713D01*
X154563714Y-98709783D01*
X154496700Y-98365798D01*
X154456639Y-98003114D01*
X154446039Y-97625044D01*
X154470953Y-97258483D01*
X154530467Y-96906220D01*
X154623668Y-96571044D01*
X154749645Y-96255744D01*
X154907484Y-95963108D01*
X155096273Y-95695926D01*
X155277911Y-95493400D01*
X155429173Y-95356393D01*
X155596838Y-95228891D01*
X155767610Y-95120282D01*
X155907083Y-95049035D01*
X156001455Y-95012551D01*
X156113334Y-94977190D01*
X156229523Y-94946357D01*
X156336826Y-94923458D01*
X156422047Y-94911897D01*
X156441541Y-94911148D01*
X156487955Y-94914798D01*
G36*
X126013191Y-89963565D02*
G01*
X126071019Y-89978455D01*
X126148795Y-89999956D01*
X126187701Y-90011109D01*
X126459447Y-90111615D01*
X126714156Y-90249908D01*
X126950067Y-90424295D01*
X127165420Y-90633083D01*
X127358455Y-90874578D01*
X127527409Y-91147086D01*
X127662525Y-91429598D01*
X127783301Y-91772044D01*
X127868046Y-92131032D01*
X127917221Y-92501650D01*
X127931287Y-92878982D01*
X127910706Y-93258115D01*
X127855937Y-93634135D01*
X127767444Y-94002127D01*
X127645686Y-94357177D01*
X127491125Y-94694372D01*
X127330319Y-94969404D01*
X127115090Y-95266546D01*
X126879258Y-95530602D01*
X126624914Y-95760508D01*
X126354147Y-95955195D01*
X126069050Y-96113599D01*
X125771712Y-96234652D01*
X125464225Y-96317289D01*
X125148680Y-96360442D01*
X124827166Y-96363047D01*
X124633333Y-96344845D01*
X124553616Y-96333848D01*
X124510060Y-96325200D01*
X124496838Y-96315876D01*
X124508121Y-96302849D01*
X124527500Y-96289894D01*
X124599912Y-96234987D01*
X124663878Y-96171697D01*
X124709359Y-96111009D01*
X124725418Y-96073239D01*
X124730892Y-96046817D01*
X124744603Y-95981364D01*
X124766048Y-95879269D01*
X124794723Y-95742920D01*
X124830126Y-95574708D01*
X124871752Y-95377022D01*
X124919099Y-95152251D01*
X124971663Y-94902785D01*
X125028940Y-94631012D01*
X125090427Y-94339324D01*
X125155621Y-94030107D01*
X125224019Y-93705754D01*
X125295117Y-93368652D01*
X125351522Y-93101250D01*
X125434223Y-92708407D01*
X125512361Y-92335626D01*
X125585575Y-91984690D01*
X125653503Y-91657380D01*
X125715782Y-91355476D01*
X125772051Y-91080762D01*
X125821948Y-90835017D01*
X125865112Y-90620025D01*
X125901181Y-90437566D01*
X125929793Y-90289421D01*
X125950586Y-90177373D01*
X125963198Y-90103203D01*
X125967273Y-90069125D01*
X125970256Y-90007039D01*
X125978392Y-89966705D01*
X125985632Y-89958000D01*
X126013191Y-89963565D01*
G37*
X126013191Y-89963565D02*
X126071019Y-89978455D01*
X126148795Y-89999956D01*
X126187701Y-90011109D01*
X126459447Y-90111615D01*
X126714156Y-90249908D01*
X126950067Y-90424295D01*
X127165420Y-90633083D01*
X127358455Y-90874578D01*
X127527409Y-91147086D01*
X127662525Y-91429598D01*
X127783301Y-91772044D01*
X127868046Y-92131032D01*
X127917221Y-92501650D01*
X127931287Y-92878982D01*
X127910706Y-93258115D01*
X127855937Y-93634135D01*
X127767444Y-94002127D01*
X127645686Y-94357177D01*
X127491125Y-94694372D01*
X127330319Y-94969404D01*
X127115090Y-95266546D01*
X126879258Y-95530602D01*
X126624914Y-95760508D01*
X126354147Y-95955195D01*
X126069050Y-96113599D01*
X125771712Y-96234652D01*
X125464225Y-96317289D01*
X125148680Y-96360442D01*
X124827166Y-96363047D01*
X124633333Y-96344845D01*
X124553616Y-96333848D01*
X124510060Y-96325200D01*
X124496838Y-96315876D01*
X124508121Y-96302849D01*
X124527500Y-96289894D01*
X124599912Y-96234987D01*
X124663878Y-96171697D01*
X124709359Y-96111009D01*
X124725418Y-96073239D01*
X124730892Y-96046817D01*
X124744603Y-95981364D01*
X124766048Y-95879269D01*
X124794723Y-95742920D01*
X124830126Y-95574708D01*
X124871752Y-95377022D01*
X124919099Y-95152251D01*
X124971663Y-94902785D01*
X125028940Y-94631012D01*
X125090427Y-94339324D01*
X125155621Y-94030107D01*
X125224019Y-93705754D01*
X125295117Y-93368652D01*
X125351522Y-93101250D01*
X125434223Y-92708407D01*
X125512361Y-92335626D01*
X125585575Y-91984690D01*
X125653503Y-91657380D01*
X125715782Y-91355476D01*
X125772051Y-91080762D01*
X125821948Y-90835017D01*
X125865112Y-90620025D01*
X125901181Y-90437566D01*
X125929793Y-90289421D01*
X125950586Y-90177373D01*
X125963198Y-90103203D01*
X125967273Y-90069125D01*
X125970256Y-90007039D01*
X125978392Y-89966705D01*
X125985632Y-89958000D01*
X126013191Y-89963565D01*
G36*
X153251005Y-57078436D02*
G01*
X153253064Y-57111788D01*
X153258997Y-57184710D01*
X153268564Y-57294641D01*
X153281527Y-57439017D01*
X153297644Y-57615277D01*
X153316676Y-57820857D01*
X153338384Y-58053196D01*
X153362527Y-58309730D01*
X153388866Y-58587898D01*
X153417161Y-58885137D01*
X153447173Y-59198885D01*
X153478661Y-59526579D01*
X153511387Y-59865656D01*
X153523626Y-59992104D01*
X153563101Y-60399048D01*
X153598812Y-60765888D01*
X153630980Y-61094667D01*
X153659828Y-61387427D01*
X153685578Y-61646208D01*
X153708452Y-61873053D01*
X153728670Y-62070003D01*
X153746456Y-62239101D01*
X153762031Y-62382389D01*
X153775618Y-62501907D01*
X153787437Y-62599698D01*
X153797711Y-62677804D01*
X153806662Y-62738266D01*
X153814511Y-62783127D01*
X153821481Y-62814428D01*
X153827794Y-62834210D01*
X153833602Y-62844442D01*
X153857016Y-62879475D01*
X153857924Y-62899464D01*
X153828863Y-62907962D01*
X153767576Y-62914179D01*
X153684117Y-62917990D01*
X153588539Y-62919274D01*
X153490896Y-62917907D01*
X153401240Y-62913765D01*
X153329625Y-62906725D01*
X153324750Y-62905998D01*
X153043284Y-62841490D01*
X152773165Y-62738138D01*
X152516695Y-62598454D01*
X152276179Y-62424950D01*
X152053919Y-62220137D01*
X151852218Y-61986527D01*
X151673380Y-61726632D01*
X151519707Y-61442964D01*
X151393503Y-61138034D01*
X151297071Y-60814356D01*
X151262835Y-60657230D01*
X151204265Y-60260158D01*
X151182483Y-59869880D01*
X151197144Y-59489552D01*
X151247904Y-59122329D01*
X151334419Y-58771367D01*
X151456342Y-58439822D01*
X151519950Y-58303250D01*
X151673221Y-58031417D01*
X151848514Y-57785184D01*
X152042789Y-57567029D01*
X152253010Y-57379428D01*
X152476137Y-57224859D01*
X152709132Y-57105801D01*
X152948957Y-57024731D01*
X153129713Y-56990567D01*
X153250666Y-56975455D01*
X153251005Y-57078436D01*
G37*
X153251005Y-57078436D02*
X153253064Y-57111788D01*
X153258997Y-57184710D01*
X153268564Y-57294641D01*
X153281527Y-57439017D01*
X153297644Y-57615277D01*
X153316676Y-57820857D01*
X153338384Y-58053196D01*
X153362527Y-58309730D01*
X153388866Y-58587898D01*
X153417161Y-58885137D01*
X153447173Y-59198885D01*
X153478661Y-59526579D01*
X153511387Y-59865656D01*
X153523626Y-59992104D01*
X153563101Y-60399048D01*
X153598812Y-60765888D01*
X153630980Y-61094667D01*
X153659828Y-61387427D01*
X153685578Y-61646208D01*
X153708452Y-61873053D01*
X153728670Y-62070003D01*
X153746456Y-62239101D01*
X153762031Y-62382389D01*
X153775618Y-62501907D01*
X153787437Y-62599698D01*
X153797711Y-62677804D01*
X153806662Y-62738266D01*
X153814511Y-62783127D01*
X153821481Y-62814428D01*
X153827794Y-62834210D01*
X153833602Y-62844442D01*
X153857016Y-62879475D01*
X153857924Y-62899464D01*
X153828863Y-62907962D01*
X153767576Y-62914179D01*
X153684117Y-62917990D01*
X153588539Y-62919274D01*
X153490896Y-62917907D01*
X153401240Y-62913765D01*
X153329625Y-62906725D01*
X153324750Y-62905998D01*
X153043284Y-62841490D01*
X152773165Y-62738138D01*
X152516695Y-62598454D01*
X152276179Y-62424950D01*
X152053919Y-62220137D01*
X151852218Y-61986527D01*
X151673380Y-61726632D01*
X151519707Y-61442964D01*
X151393503Y-61138034D01*
X151297071Y-60814356D01*
X151262835Y-60657230D01*
X151204265Y-60260158D01*
X151182483Y-59869880D01*
X151197144Y-59489552D01*
X151247904Y-59122329D01*
X151334419Y-58771367D01*
X151456342Y-58439822D01*
X151519950Y-58303250D01*
X151673221Y-58031417D01*
X151848514Y-57785184D01*
X152042789Y-57567029D01*
X152253010Y-57379428D01*
X152476137Y-57224859D01*
X152709132Y-57105801D01*
X152948957Y-57024731D01*
X153129713Y-56990567D01*
X153250666Y-56975455D01*
X153251005Y-57078436D01*
G36*
X133098741Y-56726957D02*
G01*
X133146089Y-56739607D01*
X133431600Y-56845156D01*
X133700278Y-56988144D01*
X133949829Y-57166251D01*
X134177962Y-57377156D01*
X134382383Y-57618542D01*
X134560798Y-57888087D01*
X134710916Y-58183472D01*
X134801302Y-58414047D01*
X134890827Y-58727708D01*
X134950550Y-59060307D01*
X134980236Y-59402953D01*
X134979652Y-59746755D01*
X134948565Y-60082819D01*
X134886740Y-60402256D01*
X134856443Y-60513055D01*
X134735244Y-60861111D01*
X134584200Y-61193616D01*
X134406143Y-61506773D01*
X134203903Y-61796786D01*
X133980310Y-62059858D01*
X133738195Y-62292193D01*
X133480388Y-62489995D01*
X133298898Y-62602090D01*
X133068302Y-62711547D01*
X132817953Y-62795520D01*
X132558053Y-62852009D01*
X132298802Y-62879013D01*
X132050401Y-62874534D01*
X131961627Y-62864257D01*
X131880887Y-62851886D01*
X131804389Y-62839211D01*
X131776651Y-62834232D01*
X131703463Y-62820501D01*
X131788006Y-62713546D01*
X131834119Y-62650237D01*
X131868720Y-62593543D01*
X131882629Y-62561004D01*
X131888042Y-62535039D01*
X131901452Y-62470071D01*
X131922349Y-62368569D01*
X131950228Y-62233002D01*
X131984582Y-62065837D01*
X132024904Y-61869543D01*
X132070688Y-61646588D01*
X132121425Y-61399440D01*
X132176610Y-61130569D01*
X132235735Y-60842441D01*
X132298294Y-60537526D01*
X132363781Y-60218291D01*
X132431687Y-59887206D01*
X132454835Y-59774333D01*
X132547149Y-59325050D01*
X132631434Y-58916680D01*
X132707823Y-58548595D01*
X132776451Y-58220171D01*
X132837452Y-57930780D01*
X132890961Y-57679797D01*
X132937112Y-57466596D01*
X132976041Y-57290549D01*
X133007880Y-57151032D01*
X133032766Y-57047418D01*
X133050832Y-56979080D01*
X133062212Y-56945392D01*
X133062538Y-56944740D01*
X133089371Y-56887098D01*
X133096135Y-56848032D01*
X133084703Y-56809915D01*
X133078278Y-56796574D01*
X133055037Y-56750050D01*
X133040957Y-56721770D01*
X133040935Y-56721726D01*
X133054886Y-56718800D01*
X133098741Y-56726957D01*
G37*
X133098741Y-56726957D02*
X133146089Y-56739607D01*
X133431600Y-56845156D01*
X133700278Y-56988144D01*
X133949829Y-57166251D01*
X134177962Y-57377156D01*
X134382383Y-57618542D01*
X134560798Y-57888087D01*
X134710916Y-58183472D01*
X134801302Y-58414047D01*
X134890827Y-58727708D01*
X134950550Y-59060307D01*
X134980236Y-59402953D01*
X134979652Y-59746755D01*
X134948565Y-60082819D01*
X134886740Y-60402256D01*
X134856443Y-60513055D01*
X134735244Y-60861111D01*
X134584200Y-61193616D01*
X134406143Y-61506773D01*
X134203903Y-61796786D01*
X133980310Y-62059858D01*
X133738195Y-62292193D01*
X133480388Y-62489995D01*
X133298898Y-62602090D01*
X133068302Y-62711547D01*
X132817953Y-62795520D01*
X132558053Y-62852009D01*
X132298802Y-62879013D01*
X132050401Y-62874534D01*
X131961627Y-62864257D01*
X131880887Y-62851886D01*
X131804389Y-62839211D01*
X131776651Y-62834232D01*
X131703463Y-62820501D01*
X131788006Y-62713546D01*
X131834119Y-62650237D01*
X131868720Y-62593543D01*
X131882629Y-62561004D01*
X131888042Y-62535039D01*
X131901452Y-62470071D01*
X131922349Y-62368569D01*
X131950228Y-62233002D01*
X131984582Y-62065837D01*
X132024904Y-61869543D01*
X132070688Y-61646588D01*
X132121425Y-61399440D01*
X132176610Y-61130569D01*
X132235735Y-60842441D01*
X132298294Y-60537526D01*
X132363781Y-60218291D01*
X132431687Y-59887206D01*
X132454835Y-59774333D01*
X132547149Y-59325050D01*
X132631434Y-58916680D01*
X132707823Y-58548595D01*
X132776451Y-58220171D01*
X132837452Y-57930780D01*
X132890961Y-57679797D01*
X132937112Y-57466596D01*
X132976041Y-57290549D01*
X133007880Y-57151032D01*
X133032766Y-57047418D01*
X133050832Y-56979080D01*
X133062212Y-56945392D01*
X133062538Y-56944740D01*
X133089371Y-56887098D01*
X133096135Y-56848032D01*
X133084703Y-56809915D01*
X133078278Y-56796574D01*
X133055037Y-56750050D01*
X133040957Y-56721770D01*
X133040935Y-56721726D01*
X133054886Y-56718800D01*
X133098741Y-56726957D01*
%TD*%
M02*
