<?xml version="1.0" encoding="UTF-8" standalone="no"?>
<!-- Created with Inkscape (http://www.inkscape.org/) -->

<svg
   xmlns:dc="http://purl.org/dc/elements/1.1/"
   xmlns:cc="http://creativecommons.org/ns#"
   xmlns:rdf="http://www.w3.org/1999/02/22-rdf-syntax-ns#"
   xmlns:svg="http://www.w3.org/2000/svg"
   xmlns="http://www.w3.org/2000/svg"
   xmlns:sodipodi="http://sodipodi.sourceforge.net/DTD/sodipodi-0.dtd"
   xmlns:inkscape="http://www.inkscape.org/namespaces/inkscape"
   width="142.49319mm"
   height="178.50635mm"
   viewBox="0 0 142.49319 178.50635"
   version="1.1"
   id="svg6191"
   inkscape:version="0.92.5 (2060ec1f9f, 2020-04-08)"
   sodipodi:docname="drawing-1.svg">
  <defs
     id="defs6185" />
  <sodipodi:namedview
     id="base"
     pagecolor="#ffffff"
     bordercolor="#666666"
     borderopacity="1.0"
     inkscape:pageopacity="0.0"
     inkscape:pageshadow="2"
     inkscape:zoom="0.7"
     inkscape:cx="10.638973"
     inkscape:cy="256.97387"
     inkscape:document-units="mm"
     inkscape:current-layer="layer1"
     showgrid="false"
     inkscape:window-width="2560"
     inkscape:window-height="1416"
     inkscape:window-x="0"
     inkscape:window-y="0"
     inkscape:window-maximized="0"
     fit-margin-top="0"
     fit-margin-left="0"
     fit-margin-right="0"
     fit-margin-bottom="0" />
  <metadata
     id="metadata6188">
    <rdf:RDF>
      <cc:Work
         rdf:about="">
        <dc:format>image/svg+xml</dc:format>
        <dc:type
           rdf:resource="http://purl.org/dc/dcmitype/StillImage" />
        <dc:title></dc:title>
      </cc:Work>
    </rdf:RDF>
  </metadata>
  <g
     inkscape:label="Layer 1"
     inkscape:groupmode="layer"
     id="layer1"
     transform="translate(-37.83197,-42.612601)">
    <g
       id="g5509"
       transform="matrix(1.7212233,0,0,-1.7212233,-39.422556,467.87507)">
      <g
         transform="translate(125.7305,168.3809)"
         id="g654">
        <path
           inkscape:connector-curvature="0"
           id="path656"
           style="fill:#231f20;fill-opacity:1;fill-rule:nonzero;stroke:none"
           d="M 0,0 -1.83,7.106 V 41.75 c 0,2.112 -1.718,3.831 -3.83,3.831 -0.083,0 -0.167,-0.003 -0.251,-0.009 -1.318,-0.085 -2.446,-0.851 -3.068,-1.948 -0.621,1.097 -1.75,1.863 -3.067,1.948 -0.084,0.006 -0.168,0.009 -0.252,0.009 -0.778,0 -1.519,-0.234 -2.148,-0.663 0.273,0.586 0.497,1.183 0.66,1.79 1.014,-0.711 2.223,-1.118 3.48,-1.15 0.053,-10e-4 0.105,-0.002 0.157,-0.002 3.368,0 6.262,2.79 6.356,6.169 0.05,1.733 -0.589,3.369 -1.794,4.609 -1.207,1.241 -2.823,1.924 -4.554,1.924 -2.156,0 -4.12,-1.086 -5.279,-2.819 -0.881,1.295 -2.046,2.512 -3.445,3.621 1.669,0.545 2.885,2.09 2.885,3.943 0,2.31 -1.874,4.182 -4.183,4.182 -0.761,0 -1.465,-0.219 -2.079,-0.574 -0.489,1.767 -2.092,3.071 -4.014,3.071 -1.163,0 -2.213,-0.475 -2.971,-1.241 -0.577,1.62 -2.108,2.787 -3.926,2.787 -1.243,0 -2.333,-0.564 -3.099,-1.425 -0.764,1.004 -1.959,1.663 -3.318,1.663 -0.04,0 -0.08,-0.007 -0.12,-0.008 -0.041,0.001 -0.081,0.008 -0.122,0.008 -1.359,0 -2.554,-0.659 -3.318,-1.663 -0.765,0.861 -1.856,1.425 -3.099,1.425 -1.818,0 -3.349,-1.167 -3.925,-2.787 -0.758,0.766 -1.809,1.241 -2.971,1.241 -1.922,0 -3.525,-1.304 -4.014,-3.071 -0.615,0.355 -1.319,0.574 -2.08,0.574 -2.309,0 -4.181,-1.872 -4.181,-4.182 0,-1.613 0.923,-2.992 2.261,-3.687 -1.587,-1.206 -2.902,-2.541 -3.86,-3.978 -1.171,1.813 -3.227,2.951 -5.46,2.919 -3.344,-0.06 -6.139,-2.828 -6.231,-6.171 -0.048,-1.731 0.589,-3.367 1.794,-4.607 1.208,-1.241 2.824,-1.923 4.553,-1.923 1.375,0 2.683,0.436 3.759,1.229 1.168,-4.501 5.422,-8.472 11.786,-10.962 -0.24,-0.405 -0.375,-0.874 -0.375,-1.366 0,-0.726 0.25,-1.414 0.686,-1.962 -0.431,-0.481 -0.686,-1.112 -0.686,-1.783 0,-0.45 0.096,-0.884 0.272,-1.279 h -9.451 c -4.875,0 -9.039,-3.32 -10.125,-8.072 l -4.657,-20.36 0.245,76 H 0.249 Z m -53.543,27.745 h 0.616 5.626 V -5.734 h -6.242 z m 13.079,0 h 2.754 c -1.095,-1.915 -0.846,-4.395 0.787,-6.028 l 2.702,-2.739 V -5.734 h -6.243 z m -13.02,6.712 c 0,0.306 0.143,0.585 0.375,0.769 1.329,-0.39 6.048,-1.619 12.696,-1.619 3.263,0 6.995,0.306 11.011,1.146 v -1.48 h -23.457 c -0.384,0.273 -0.625,0.706 -0.625,1.184 m 0.556,-2.872 h 23.526 v -2.152 h -1.19 c -0.813,0.546 -1.777,0.843 -2.786,0.843 -1.007,0 -1.968,-0.295 -2.785,-0.843 h -16.542 c -0.473,0.254 -0.779,0.736 -0.779,1.279 0,0.376 0.222,0.709 0.556,0.873 m 45.126,-3.394 v 13.486 c 0,1.141 0.862,2.137 1.999,2.211 0.048,0.003 0.096,0.005 0.143,0.005 1.183,0 2.142,-0.959 2.142,-2.143 V 6.858 h -0.079 c 0,-3.709 -5.876,-6.842 -12.829,-6.842 -5.969,0 -11.13,2.31 -12.476,5.309 0.002,5.319 0.001,10.592 -0.005,10.667 l -6.822,6.919 c -1.299,1.298 -1.299,3.404 0,4.703 0.049,0.05 0.107,0.085 0.16,0.131 0.311,0.276 0.662,0.485 1.031,0.627 0.021,0.008 0.044,0.012 0.065,0.019 0.163,0.059 0.328,0.108 0.497,0.14 0.198,0.036 0.398,0.057 0.598,0.057 0.2,0 0.4,-0.021 0.598,-0.057 0.169,-0.032 0.334,-0.081 0.497,-0.14 0.021,-0.007 0.044,-0.011 0.065,-0.019 0.369,-0.142 0.719,-0.351 1.031,-0.627 0.052,-0.046 0.111,-0.081 0.161,-0.131 l 3.25,-3.188 0.003,-0.014 c 0.001,0 0.009,0.001 0.01,0.001 l 0.048,-0.047 v 0.054 c 0.623,0.096 9.898,1.406 13.816,-4.737 l 1.449,0.925 c -4.254,6.669 -13.386,5.807 -15.265,5.55 v 1.587 1.688 12.317 c 0,1.184 0.959,2.143 2.142,2.143 0.048,0 0.094,-0.002 0.143,-0.005 1.138,-0.074 1.999,-1.07 1.999,-2.211 V 28.191 h 2.354 V 41.75 c 0,1.184 0.959,2.143 2.141,2.143 0.048,0 0.095,-0.002 0.143,-0.005 1.139,-0.074 2,-1.07 2,-2.211 V 28.191 h 2.354 V 41.75 c 0,1.184 0.959,2.143 2.141,2.143 0.048,0 0.095,-0.002 0.143,-0.005 1.138,-0.074 1.999,-1.07 1.999,-2.211 V 28.191 Z M -55.8,53.068 c 0.411,-3.826 3.656,-6.815 7.589,-6.815 1.93,0 3.69,0.725 5.034,1.909 l -0.175,-0.58 c -0.294,-1.381 0.283,-2.838 1.5,-3.552 0.493,-0.288 1.066,-0.453 1.678,-0.453 0.611,0 1.185,0.165 1.677,0.453 1.219,0.714 1.794,2.171 1.501,3.552 l -0.176,0.58 c 1.346,-1.184 3.105,-1.909 5.034,-1.909 3.866,0 7.06,2.888 7.559,6.618 l 10.022,0.534 c 0.643,1.893 2.417,3.165 4.416,3.165 1.271,0 2.457,-0.502 3.344,-1.412 0.885,-0.911 1.354,-2.113 1.318,-3.386 -0.073,-2.518 -2.271,-4.574 -4.783,-4.526 -1.321,0.033 -2.572,0.632 -3.431,1.642 l -1.483,-0.456 c -0.138,-1.296 -0.592,-2.557 -1.309,-3.758 -0.603,0.514 -1.363,0.844 -2.199,0.898 -0.084,0.006 -0.168,0.009 -0.252,0.009 -1.022,0 -1.984,-0.399 -2.708,-1.122 -0.246,-0.246 -0.454,-0.52 -0.622,-0.814 -0.624,1.086 -1.747,1.843 -3.055,1.927 -0.084,0.006 -0.168,0.009 -0.252,0.009 -1.023,0 -1.985,-0.399 -2.708,-1.122 -0.723,-0.724 -1.121,-1.686 -1.121,-2.709 v -5.275 c -13.075,-2.811 -23.311,0.391 -23.541,0.465 -7.23,2.489 -11.806,6.833 -12.245,11.623 l -1.5,0.448 c -0.892,-1.123 -2.223,-1.767 -3.655,-1.767 -1.269,0 -2.456,0.502 -3.343,1.412 -0.884,0.91 -1.353,2.112 -1.318,3.384 0.069,2.453 2.121,4.485 4.575,4.529 2.045,0.032 3.945,-1.32 4.547,-3.299 z m 13.114,0.819 c 0,-3.046 -2.478,-5.525 -5.525,-5.525 -3.046,0 -5.524,2.479 -5.524,5.525 0,3.046 2.478,5.525 5.524,5.525 3.047,0 5.525,-2.479 5.525,-5.525 m 16.073,0 c 0,-3.046 -2.479,-5.525 -5.525,-5.525 -2.816,0 -5.121,2.127 -5.457,4.853 v 1.344 c 0.336,2.727 2.641,4.853 5.457,4.853 3.046,0 5.525,-2.479 5.525,-5.525 m -5.525,7.634 c -3.94,0 -7.191,-3 -7.591,-6.835 h -0.889 c -0.401,3.835 -3.653,6.835 -7.593,6.835 -3.916,0 -7.147,-2.963 -7.581,-6.765 l -7.418,0.182 c 2.23,2.99 6.189,5.51 11.192,7.065 12.188,3.186 23.555,0.038 23.651,0.01 4.835,-1.501 8.7,-3.896 10.973,-6.739 l -7.197,-0.292 c -0.534,3.692 -3.71,6.539 -7.547,6.539 M -66.563,-5.734 v 33.198 c 0.708,0.183 1.449,0.281 2.211,0.281 h 3.971 V -5.734 Z m -12.38,0 5.483,23.974 V -5.734 Z M -0.021,-23.333 H -79.157 V -7.422 H -0.021 Z M 1.096,78.689 h -80.825 l -0.845,-0.841 -0.273,-84.424 0.002,-0.001 -0.002,-0.001 v -17.598 l 0.845,-0.844 H 0.823 l 0.844,0.844 v 17.595 l 0.272,84.423 z" />
      </g>
      <g
         transform="translate(92.7979,153.2251)"
         id="g658">
        <path
           inkscape:connector-curvature="0"
           id="path660"
           style="fill:#231f20;fill-opacity:1;fill-rule:nonzero;stroke:none"
           d="m 0,0 h -2.564 c -0.303,0 -0.55,0.248 -0.55,0.55 v 1.273 c 0,0.302 0.247,0.55 0.55,0.55 h 2.051 c 0.201,0 0.367,0.165 0.367,0.366 0,0.202 -0.166,0.358 -0.367,0.358 h -2.776 c -0.302,0 -0.55,-0.239 -0.55,-0.541 v -2.739 c 0,-0.302 0.248,-0.541 0.55,-0.541 l 1.274,-0.009 c 0.302,0 0.549,-0.238 0.549,-0.54 v -1.659 c 0,-0.302 -0.247,-0.54 -0.549,-0.54 h -1.457 c -0.201,0 -0.366,-0.165 -0.366,-0.366 0,-0.202 0.165,-0.367 0.366,-0.367 H 0 c 0.303,0 0.541,0.247 0.541,0.55 v 3.106 C 0.541,-0.247 0.303,0 0,0" />
      </g>
      <g
         transform="translate(97.0859,153.2349)"
         id="g662">
        <path
           inkscape:connector-curvature="0"
           id="path664"
           style="fill:#231f20;fill-opacity:1;fill-rule:nonzero;stroke:none"
           d="m 0,0 h -1.2 c -0.312,0 -0.55,0.247 -0.55,0.549 v 1.457 c 0,0.202 0.165,0.367 0.366,0.367 h 0.138 c 0.128,0 0.238,-0.065 0.303,-0.165 L 0.247,0.403 C 0.266,0.366 0.274,0.32 0.275,0.274 0.274,0.128 0.146,0 0,0 M -0.513,2.876 C -0.604,3.023 -0.77,3.114 -0.962,3.114 h -0.971 c -0.302,0 -0.549,-0.247 -0.549,-0.55 v -6.229 c 0,-0.302 0.247,-0.549 0.549,-0.549 H -1.2 c 0.303,0 0.55,0.247 0.55,0.549 v 0.916 c 0,0.303 -0.55,0.55 -0.55,0.55 -0.303,0 -0.55,0.247 -0.55,0.55 V -1.1 c 0,0.202 0.165,0.367 0.366,0.367 h 2.162 c 0.138,0 0.248,-0.074 0.322,-0.184 0,0 0.008,-0.018 0.595,-0.888 0.018,-0.037 0.028,-0.083 0.028,-0.119 0,-0.156 -0.129,-0.275 -0.276,-0.275 h -1.09 c -0.302,0 -0.549,-0.247 -0.549,-0.55 v -0.916 c 0,-0.302 0.247,-0.549 0.549,-0.549 h 1.741 c 0.302,0 0.549,0.247 0.549,0.549 v 1.438 c 0,0.147 -0.027,0.284 -0.073,0.413 -3.059,4.653 -3.087,4.69 -3.087,4.69" />
      </g>
      <g
         transform="translate(104.1035,153.7656)"
         id="g666">
        <path
           inkscape:connector-curvature="0"
           id="path668"
           style="fill:#231f20;fill-opacity:1;fill-rule:nonzero;stroke:none"
           d="m 0,0 c 0,-0.302 -0.247,-0.55 -0.55,-0.55 h -1.273 c -0.302,0 -0.55,0.248 -0.55,0.55 v 1.283 c 0,0.302 0.248,0.54 0.55,0.54 H -0.55 C -0.247,1.823 0,1.585 0,1.283 Z M 0.889,-0.339 C 0.788,-0.238 0.724,-0.101 0.724,0.046 v 1.96 c 0,0.303 -0.239,0.55 -0.54,0.55 h -2.74 c -0.302,0 -0.549,-0.247 -0.549,-0.55 v -6.202 c 0,-0.302 0.247,-0.549 0.549,-0.549 h 0.733 c 0.302,0 0.541,0.247 0.541,0.549 v 2.373 c 0,0.302 0.247,0.55 0.55,0.55 h 1.099 c 0.302,0 0.54,-0.248 0.54,-0.55 v -2.556 c 0,-0.201 0.366,-0.366 0.366,-0.366 0.202,0 0.367,0.165 0.367,0.366 v 3.06 c 0,0.147 -0.064,0.284 -0.165,0.385 z" />
      </g>
      <g
         transform="translate(110.9932,156.3491)"
         id="g670">
        <path
           inkscape:connector-curvature="0"
           id="path672"
           style="fill:#231f20;fill-opacity:1;fill-rule:nonzero;stroke:none"
           d="m 0,0 h -3.481 c -0.302,0 -0.55,-0.247 -0.55,-0.55 v -6.229 c 0,-0.303 0.248,-0.55 0.55,-0.55 H 0 c 0.202,0 0.366,0.165 0.366,0.367 v 3.307 c 0,0.302 -0.247,0.55 -0.55,0.55 h -1.667 c -0.201,0 -0.366,-0.166 -0.366,-0.367 v -1.282 c 0,-0.202 0.165,-0.367 0.366,-0.367 h 0.935 c 0.303,0 0.55,-0.248 0.55,-0.55 v -0.375 c 0,-0.303 -0.247,-0.54 -0.55,-0.55 h -1.832 c -0.303,0 -0.55,0.247 -0.55,0.55 v 3.481 c 0,0.302 0.247,0.55 0.55,0.55 H 0 c 0.202,0 0.366,0.164 0.366,0.366 v 1.283 C 0.366,-0.165 0.202,0 0,0" />
      </g>
      <g
         transform="translate(116.4629,153.2251)"
         id="g674">
        <path
           inkscape:connector-curvature="0"
           id="path676"
           style="fill:#231f20;fill-opacity:1;fill-rule:nonzero;stroke:none"
           d="m 0,0 h -2.565 c -0.302,0 -0.55,0.248 -0.55,0.55 v 1.273 c 0,0.302 0.248,0.55 0.55,0.55 h 2.051 c 0.202,0 0.368,0.165 0.368,0.366 0,0.202 -0.166,0.358 -0.368,0.358 h -2.775 c -0.303,0 -0.55,-0.239 -0.55,-0.541 v -2.739 c 0,-0.302 0.247,-0.541 0.55,-0.541 l 1.273,-0.009 c 0.303,0 0.55,-0.238 0.55,-0.54 v -1.658 c 0,-0.303 -0.247,-0.541 -0.55,-0.541 h -1.457 c -0.201,0 -0.366,-0.165 -0.366,-0.366 0,-0.202 0.165,-0.367 0.366,-0.367 H 0 c 0.303,0 0.54,0.247 0.54,0.55 v 3.106 C 0.54,-0.247 0.302,0 0,0" />
      </g>
      <g
         transform="translate(59.4043,156.3496)"
         id="g678">
        <path
           inkscape:connector-curvature="0"
           id="path680"
           style="fill:#231f20;fill-opacity:1;fill-rule:nonzero;stroke:none"
           d="m 0,0 h -3.48 c -0.303,0 -0.55,-0.248 -0.55,-0.55 v -6.23 c 0,-0.302 0.247,-0.549 0.55,-0.549 H 0 c 0.202,0 0.367,0.164 0.367,0.366 v 3.307 c 0,0.303 -0.248,0.55 -0.55,0.55 h -1.668 c -0.201,0 -0.366,-0.165 -0.366,-0.366 v -1.283 c 0,-0.202 0.165,-0.367 0.366,-0.367 h 0.935 c 0.303,0 0.55,-0.247 0.55,-0.549 v -0.375 c 0,-0.303 -0.247,-0.541 -0.55,-0.551 h -1.832 c -0.303,0 -0.55,0.248 -0.55,0.551 v 3.481 c 0,0.302 0.247,0.549 0.55,0.549 H 0 c 0.202,0 0.367,0.165 0.367,0.367 v 1.282 C 0.367,-0.165 0.202,0 0,0" />
      </g>
      <g
         transform="translate(63.5186,153.2344)"
         id="g682">
        <path
           inkscape:connector-curvature="0"
           id="path684"
           style="fill:#231f20;fill-opacity:1;fill-rule:nonzero;stroke:none"
           d="m 0,0 h -1.2 c -0.312,0 -0.55,0.248 -0.55,0.55 v 1.456 c 0,0.202 0.165,0.367 0.366,0.367 h 0.138 c 0.128,0 0.238,-0.064 0.302,-0.165 L 0.247,0.403 C 0.266,0.367 0.274,0.321 0.274,0.275 0.274,0.128 0.146,0 0,0 M -0.514,2.876 C -0.605,3.023 -0.77,3.115 -0.962,3.115 h -0.972 c -0.301,0 -0.548,-0.247 -0.548,-0.55 v -6.23 c 0,-0.302 0.247,-0.549 0.548,-0.549 H -1.2 c 0.303,0 0.55,0.247 0.55,0.549 v 0.916 c 0,0.303 -0.55,0.55 -0.55,0.55 -0.303,0 -0.55,0.248 -0.55,0.55 V -1.1 c 0,0.202 0.165,0.367 0.366,0.367 h 2.162 c 0.138,0 0.247,-0.073 0.321,-0.183 0,0 0.009,-0.019 0.595,-0.889 0.019,-0.036 0.028,-0.082 0.028,-0.119 0,-0.156 -0.128,-0.275 -0.275,-0.275 h -1.09 c -0.302,0 -0.549,-0.247 -0.549,-0.55 v -0.916 c 0,-0.302 0.247,-0.549 0.549,-0.549 h 1.741 c 0.302,0 0.549,0.247 0.549,0.549 v 1.439 c 0,0.146 -0.027,0.284 -0.073,0.412 -3.059,4.654 -3.088,4.69 -3.088,4.69" />
      </g>
      <g
         transform="translate(70.1328,151.0356)"
         id="g686">
        <path
           inkscape:connector-curvature="0"
           id="path688"
           style="fill:#231f20;fill-opacity:1;fill-rule:nonzero;stroke:none"
           d="m 0,0 h -0.165 c -0.302,0 -0.55,0.248 -0.55,0.55 v 4.397 c 0,0.202 -0.366,0.367 -0.366,0.367 -0.201,0 -0.366,-0.165 -0.366,-0.367 V 0.55 C -1.447,0.248 -1.694,0 -1.997,0 h -0.156 c -0.302,0 -0.549,-0.247 -0.549,-0.55 v -0.916 c 0,-0.302 0.247,-0.549 0.549,-0.549 H 0 c 0.303,0 0.55,0.247 0.55,0.549 V -0.55 C 0.55,-0.247 0.303,0 0,0" />
      </g>
      <g
         transform="translate(75.7852,153.2256)"
         id="g690">
        <path
           inkscape:connector-curvature="0"
           id="path692"
           style="fill:#231f20;fill-opacity:1;fill-rule:nonzero;stroke:none"
           d="m 0,0 h -2.564 c -0.303,0 -0.55,0.247 -0.55,0.549 v 1.274 c 0,0.302 0.247,0.55 0.55,0.55 h 2.051 c 0.202,0 0.367,0.164 0.367,0.366 0,0.201 -0.165,0.357 -0.367,0.357 h -2.775 c -0.303,0 -0.55,-0.238 -0.55,-0.54 v -2.74 c 0,-0.302 0.247,-0.54 0.55,-0.54 l 1.272,-0.009 c 0.303,0 0.55,-0.238 0.55,-0.54 v -1.659 c 0,-0.302 -0.247,-0.541 -0.55,-0.541 h -1.456 c -0.201,0 -0.366,-0.164 -0.366,-0.366 0,-0.202 0.165,-0.366 0.366,-0.366 H 0 c 0.303,0 0.541,0.247 0.541,0.549 V -0.55 C 0.541,-0.248 0.303,0 0,0" />
      </g>
      <g
         transform="translate(80.0732,153.2344)"
         id="g694">
        <path
           inkscape:connector-curvature="0"
           id="path696"
           style="fill:#231f20;fill-opacity:1;fill-rule:nonzero;stroke:none"
           d="m 0,0 h -1.2 c -0.312,0 -0.55,0.248 -0.55,0.55 v 1.456 c 0,0.202 0.165,0.367 0.366,0.367 h 0.138 c 0.128,0 0.238,-0.064 0.303,-0.165 L 0.247,0.403 C 0.266,0.367 0.274,0.321 0.274,0.275 0.274,0.128 0.146,0 0,0 M -0.513,2.876 C -0.604,3.023 -0.77,3.115 -0.962,3.115 h -0.971 c -0.302,0 -0.549,-0.247 -0.549,-0.55 v -6.23 c 0,-0.302 0.247,-0.549 0.549,-0.549 H -1.2 c 0.303,0 0.55,0.247 0.55,0.549 v 0.916 c 0,0.303 -0.55,0.55 -0.55,0.55 -0.302,0 -0.55,0.248 -0.55,0.55 V -1.1 c 0,0.202 0.165,0.367 0.366,0.367 h 2.162 c 0.138,0 0.248,-0.073 0.322,-0.183 0,0 0.008,-0.019 0.594,-0.889 0.019,-0.036 0.029,-0.082 0.029,-0.119 0,-0.156 -0.129,-0.275 -0.276,-0.275 h -1.09 c -0.302,0 -0.549,-0.247 -0.549,-0.55 v -0.916 c 0,-0.302 0.247,-0.549 0.549,-0.549 h 1.741 c 0.302,0 0.549,0.247 0.549,0.549 v 1.439 c 0,0.146 -0.027,0.284 -0.073,0.412 -3.059,4.654 -3.087,4.69 -3.087,4.69" />
      </g>
      <g
         transform="translate(51.0293,204.5249)"
         id="g698">
        <path
           inkscape:connector-curvature="0"
           id="path700"
           style="fill:#231f20;fill-opacity:1;fill-rule:nonzero;stroke:none"
           d="m 0,0 c 1.786,-0.797 2.631,-2.656 2.991,-3.777 0.069,-0.213 0.399,-0.213 0.467,0 0.36,1.121 1.205,2.98 2.991,3.777 0.191,0.085 0.191,0.321 0,0.406 C 4.663,1.203 3.818,3.062 3.458,4.183 3.39,4.396 3.06,4.396 2.991,4.183 2.631,3.062 1.786,1.203 0,0.406 -0.19,0.321 -0.19,0.085 0,0" />
      </g>
      <g
         transform="translate(113.9307,235.084)"
         id="g702">
        <path
           inkscape:connector-curvature="0"
           id="path704"
           style="fill:#231f20;fill-opacity:1;fill-rule:nonzero;stroke:none"
           d="m 0,0 c 1.787,-0.797 2.632,-2.656 2.991,-3.778 0.069,-0.212 0.4,-0.212 0.467,0 0.36,1.122 1.205,2.981 2.991,3.778 0.191,0.084 0.191,0.321 0,0.406 C 4.663,1.203 3.818,3.062 3.458,4.183 3.391,4.396 3.06,4.396 2.991,4.183 2.632,3.062 1.787,1.203 0,0.406 -0.19,0.321 -0.19,0.084 0,0" />
      </g>
      <g
         transform="translate(117.874,219.1118)"
         id="g706">
        <path
           inkscape:connector-curvature="0"
           id="path708"
           style="fill:#231f20;fill-opacity:1;fill-rule:nonzero;stroke:none"
           d="M 0,0 -2.305,1.153 0,2.305 -0.754,3.815 -4.569,1.908 v -1.51 l 3.815,-1.907 z" />
      </g>
      <g
         transform="translate(52.7783,221.417)"
         id="g710">
        <path
           inkscape:connector-curvature="0"
           id="path712"
           style="fill:#231f20;fill-opacity:1;fill-rule:nonzero;stroke:none"
           d="M 0,0 2.305,-1.152 0,-2.305 0.754,-3.814 4.569,-1.907 v 1.51 L 0.754,1.51 Z" />
      </g>
      <g
         transform="translate(85.5557,207.0029)"
         id="g714">
        <path
           inkscape:connector-curvature="0"
           id="path716"
           style="fill:#231f20;fill-opacity:1;fill-rule:nonzero;stroke:none"
           d="M 0,0 C 4.167,0 7.558,2.797 7.558,6.235 H 5.447 C 5.447,3.96 3.004,2.11 0,2.11 c -3.003,0 -5.446,1.85 -5.446,4.125 h -2.11 C -7.556,2.797 -4.166,0 0,0" />
      </g>
      <g
         transform="translate(92.4424,223.96)"
         id="g718">
        <path
           inkscape:connector-curvature="0"
           id="path720"
           style="fill:#231f20;fill-opacity:1;fill-rule:nonzero;stroke:none"
           d="m 0,0 c -1.007,0 -1.823,-0.816 -1.823,-1.823 0,-1.007 0.816,-1.823 1.823,-1.823 1.007,0 1.822,0.816 1.822,1.823 C 1.822,-0.816 1.007,0 0,0" />
      </g>
      <g
         transform="translate(76.4941,222.1372)"
         id="g722">
        <path
           inkscape:connector-curvature="0"
           id="path724"
           style="fill:#231f20;fill-opacity:1;fill-rule:nonzero;stroke:none"
           d="M 0,0 C 0,-1.007 0.816,-1.823 1.823,-1.823 2.83,-1.823 3.646,-1.007 3.646,0 3.646,1.006 2.83,1.823 1.823,1.823 0.816,1.823 0,1.006 0,0" />
      </g>
    </g>
  </g>
</svg>
