G04 #@! TF.GenerationSoftware,KiCad,Pcbnew,(5.1.10)-1*
G04 #@! TF.CreationDate,2021-11-11T13:48:34+02:00*
G04 #@! TF.ProjectId,airguard_v1,61697267-7561-4726-945f-76312e6b6963,rev?*
G04 #@! TF.SameCoordinates,Original*
G04 #@! TF.FileFunction,Profile,NP*
%FSLAX46Y46*%
G04 Gerber Fmt 4.6, Leading zero omitted, Abs format (unit mm)*
G04 Created by KiCad (PCBNEW (5.1.10)-1) date 2021-11-11 13:48:34*
%MOMM*%
%LPD*%
G01*
G04 APERTURE LIST*
G04 #@! TA.AperFunction,Profile*
%ADD10C,0.050000*%
G04 #@! TD*
G04 #@! TA.AperFunction,Profile*
%ADD11C,0.200000*%
G04 #@! TD*
G04 APERTURE END LIST*
D10*
X49015170Y-148343158D02*
X90695313Y-108149918D01*
D11*
X93519499Y-262339335D02*
X92921063Y-262296030D01*
X94473029Y-256091900D02*
X94054281Y-261876738D01*
X96509427Y-221034529D02*
X95910993Y-220991210D01*
X128389289Y-231190833D02*
G75*
G02*
X128889289Y-231690833I0J-500000D01*
G01*
X94010433Y-255557106D02*
G75*
G02*
X94473029Y-256091900I-36099J-498695D01*
G01*
X92877205Y-255976383D02*
G75*
G02*
X93411999Y-255513787I498695J-36099D01*
G01*
X128889289Y-232190833D02*
X128889289Y-231690833D01*
X123389289Y-231690833D02*
G75*
G02*
X123889289Y-231190833I500000J0D01*
G01*
X123389289Y-232190833D02*
X123389289Y-231690833D01*
X92921064Y-262296031D02*
G75*
G02*
X92458455Y-261761235I36087J498697D01*
G01*
X128889289Y-232190833D02*
G75*
G02*
X128389289Y-232690833I-500000J0D01*
G01*
X94010433Y-255557106D02*
X93411999Y-255513787D01*
X148786513Y-107455215D02*
X160442649Y-107455215D01*
X160442649Y-107455215D02*
X160537142Y-107259448D01*
X160537142Y-107259448D02*
X160638271Y-107066226D01*
X160638271Y-107066226D02*
X160746042Y-106875715D01*
X160746042Y-106875715D02*
X160860459Y-106688080D01*
X160860459Y-106688080D02*
X160981527Y-106503485D01*
X160981527Y-106503485D02*
X161109253Y-106322096D01*
X161109253Y-106322096D02*
X161243640Y-106144079D01*
X161243640Y-106144079D02*
X161384694Y-105969598D01*
X161384694Y-105969598D02*
X161532420Y-105798818D01*
X161532420Y-105798818D02*
X161686823Y-105631906D01*
X161686823Y-105631906D02*
X161793471Y-105522861D01*
X123889289Y-232690833D02*
X128389289Y-232690833D01*
X95376199Y-221453806D02*
X94957449Y-227238658D01*
X96018492Y-227816758D02*
X95420057Y-227773453D01*
X94054282Y-261876737D02*
G75*
G02*
X93519499Y-262339335I-498696J36099D01*
G01*
X92877205Y-255976383D02*
X92458455Y-261761235D01*
X95420057Y-227773453D02*
G75*
G02*
X94957449Y-227238658I36087J498696D01*
G01*
X96553275Y-227354162D02*
G75*
G02*
X96018492Y-227816758I-498695J36100D01*
G01*
X96972023Y-221569323D02*
X96553275Y-227354161D01*
X96509427Y-221034529D02*
G75*
G02*
X96972023Y-221569323I-36099J-498695D01*
G01*
X95376199Y-221453806D02*
G75*
G02*
X95910993Y-220991210I498695J-36099D01*
G01*
X123889289Y-231190833D02*
X128389289Y-231190833D01*
X123889289Y-232690833D02*
G75*
G02*
X123389289Y-232190833I0J500000D01*
G01*
X156427474Y-220991199D02*
G75*
G02*
X156962075Y-221451680I36064J-498698D01*
G01*
X56210596Y-245403901D02*
X55993897Y-245579677D01*
X55993897Y-245579677D02*
X55787522Y-245767155D01*
X55787522Y-245767155D02*
X55591974Y-245965826D01*
X55591974Y-245965826D02*
X55407759Y-246175182D01*
X55407759Y-246175182D02*
X55235381Y-246394716D01*
X55235381Y-246394716D02*
X55075345Y-246623920D01*
X55075345Y-246623920D02*
X54928155Y-246862287D01*
X54928155Y-246862287D02*
X54794317Y-247109309D01*
X54794317Y-247109309D02*
X54674334Y-247364477D01*
X54674334Y-247364477D02*
X54568711Y-247627285D01*
X54568711Y-247627285D02*
X54477954Y-247897225D01*
X54477954Y-247897225D02*
X54402566Y-248173789D01*
X54402566Y-248173789D02*
X54343053Y-248456470D01*
X54343053Y-248456470D02*
X54299919Y-248744759D01*
X54299919Y-248744759D02*
X54273668Y-249038149D01*
X54273668Y-249038149D02*
X54264806Y-249336133D01*
X88487007Y-184066732D02*
X88730692Y-183810884D01*
X88730692Y-183810884D02*
X88960097Y-183545180D01*
X88960097Y-183545180D02*
X89175023Y-183270100D01*
X89175023Y-183270100D02*
X89375270Y-182986123D01*
X89375270Y-182986123D02*
X89560641Y-182693729D01*
X89560641Y-182693729D02*
X89730935Y-182393396D01*
X89730935Y-182393396D02*
X89885954Y-182085604D01*
X89885954Y-182085604D02*
X90025500Y-181770834D01*
X90025500Y-181770834D02*
X90149373Y-181449563D01*
X90149373Y-181449563D02*
X90257375Y-181122271D01*
X90257375Y-181122271D02*
X90349306Y-180789439D01*
X90349306Y-180789439D02*
X90424969Y-180451545D01*
X90424969Y-180451545D02*
X90484164Y-180109069D01*
X90484164Y-180109069D02*
X90526692Y-179762489D01*
X90526692Y-179762489D02*
X90552355Y-179412287D01*
X90552355Y-179412287D02*
X90560954Y-179058941D01*
X88893873Y-174500390D02*
X89691412Y-173093413D01*
X90558543Y-179010709D02*
X91578291Y-178521506D01*
X78478315Y-184074311D02*
X78734009Y-184317238D01*
X78734009Y-184317238D02*
X78999512Y-184545919D01*
X78999512Y-184545919D02*
X79274347Y-184760156D01*
X79274347Y-184760156D02*
X79558034Y-184959754D01*
X79558034Y-184959754D02*
X79850097Y-185144515D01*
X79850097Y-185144515D02*
X80150057Y-185314242D01*
X80150057Y-185314242D02*
X80457437Y-185468739D01*
X80457437Y-185468739D02*
X80771758Y-185607809D01*
X80771758Y-185607809D02*
X81092542Y-185731254D01*
X81092542Y-185731254D02*
X81419313Y-185838879D01*
X81419313Y-185838879D02*
X81751591Y-185930486D01*
X81751591Y-185930486D02*
X82088899Y-186005878D01*
X82088899Y-186005878D02*
X82430758Y-186064860D01*
X82430758Y-186064860D02*
X82776692Y-186107233D01*
X82776692Y-186107233D02*
X83126222Y-186132801D01*
X83126222Y-186132801D02*
X83478871Y-186141368D01*
X155393185Y-221567331D02*
G75*
G02*
X155855817Y-221032540I498696J36093D01*
G01*
X87138596Y-165750537D02*
X87138596Y-162458404D01*
X154507767Y-187540378D02*
X154951091Y-193323430D01*
X77941914Y-202205848D02*
X77941914Y-183548589D01*
X153973164Y-187079897D02*
G75*
G02*
X154507767Y-187540378I36065J-498699D01*
G01*
X152938877Y-187656029D02*
G75*
G02*
X153401509Y-187121238I498696J36093D01*
G01*
X152938877Y-187656029D02*
X153357553Y-193440898D01*
X89272489Y-236520377D02*
X59216098Y-236520377D01*
X87138596Y-162458404D02*
X82078440Y-167552322D01*
X156962075Y-221451680D02*
X157405400Y-227234732D01*
X54264806Y-241471669D02*
X54273668Y-241769644D01*
X54273668Y-241769644D02*
X54299919Y-242063014D01*
X54299919Y-242063014D02*
X54343053Y-242351272D01*
X54343053Y-242351272D02*
X54402566Y-242633914D01*
X54402566Y-242633914D02*
X54477954Y-242910436D01*
X54477954Y-242910436D02*
X54568711Y-243180333D01*
X54568711Y-243180333D02*
X54674334Y-243443101D01*
X54674334Y-243443101D02*
X54794317Y-243698234D01*
X54794317Y-243698234D02*
X54928155Y-243945227D01*
X54928155Y-243945227D02*
X55075345Y-244183578D01*
X55075345Y-244183578D02*
X55235381Y-244412779D01*
X55235381Y-244412779D02*
X55407759Y-244632328D01*
X55407759Y-244632328D02*
X55591974Y-244841719D01*
X55591974Y-244841719D02*
X55787522Y-245040448D01*
X55787522Y-245040448D02*
X55993897Y-245228010D01*
X55993897Y-245228010D02*
X56210596Y-245403901D01*
X123919289Y-207210833D02*
X128419289Y-207210833D01*
X123419289Y-206210833D02*
G75*
G02*
X123919289Y-205710833I500000J0D01*
G01*
X56210596Y-261132140D02*
X55993954Y-261308030D01*
X55993954Y-261308030D02*
X55787621Y-261495592D01*
X55787621Y-261495592D02*
X55592102Y-261694320D01*
X55592102Y-261694320D02*
X55407905Y-261903712D01*
X55407905Y-261903712D02*
X55235534Y-262123260D01*
X55235534Y-262123260D02*
X55075497Y-262352462D01*
X55075497Y-262352462D02*
X54928298Y-262590812D01*
X54928298Y-262590812D02*
X54794446Y-262837806D01*
X54794446Y-262837806D02*
X54674445Y-263092939D01*
X54674445Y-263092939D02*
X54568802Y-263355706D01*
X54568802Y-263355706D02*
X54478023Y-263625603D01*
X54478023Y-263625603D02*
X54402615Y-263902125D01*
X54402615Y-263902125D02*
X54343082Y-264184768D01*
X54343082Y-264184768D02*
X54299933Y-264473026D01*
X54299933Y-264473026D02*
X54273672Y-264766396D01*
X54273672Y-264766396D02*
X54264806Y-265064372D01*
X90560954Y-179058941D02*
X90558543Y-179010709D01*
X88498031Y-174062174D02*
X88638903Y-174209401D01*
X88638903Y-174209401D02*
X88774210Y-174360505D01*
X88774210Y-174360505D02*
X88893873Y-174500390D01*
X128919289Y-206710833D02*
X128919289Y-206210833D01*
X91578291Y-178521506D02*
X93144776Y-183026313D01*
X77941914Y-183548589D02*
X78478315Y-184074311D01*
X128419289Y-205710833D02*
G75*
G02*
X128919289Y-206210833I0J-500000D01*
G01*
X156346650Y-227814803D02*
G75*
G02*
X155811862Y-227352199I-36092J498696D01*
G01*
X82078440Y-167552322D02*
X88498031Y-174062174D01*
X59216098Y-236520377D02*
X58961712Y-236526830D01*
X58961712Y-236526830D02*
X58710620Y-236545983D01*
X58710620Y-236545983D02*
X58463134Y-236577521D01*
X58463134Y-236577521D02*
X58219569Y-236621131D01*
X58219569Y-236621131D02*
X57980237Y-236676500D01*
X57980237Y-236676500D02*
X57745454Y-236743314D01*
X57745454Y-236743314D02*
X57515531Y-236821261D01*
X57515531Y-236821261D02*
X57290784Y-236910028D01*
X57290784Y-236910028D02*
X57071525Y-237009300D01*
X57071525Y-237009300D02*
X56858069Y-237118764D01*
X56858069Y-237118764D02*
X56650728Y-237238108D01*
X56650728Y-237238108D02*
X56449817Y-237367018D01*
X56449817Y-237367018D02*
X56255649Y-237505181D01*
X56255649Y-237505181D02*
X56068538Y-237652284D01*
X56068538Y-237652284D02*
X55888798Y-237808012D01*
X55888798Y-237808012D02*
X55716741Y-237972054D01*
X55716741Y-237972054D02*
X55552682Y-238144095D01*
X55552682Y-238144095D02*
X55396935Y-238323823D01*
X55396935Y-238323823D02*
X55249813Y-238510924D01*
X55249813Y-238510924D02*
X55111629Y-238705086D01*
X55111629Y-238705086D02*
X54982698Y-238905993D01*
X54982698Y-238905993D02*
X54863332Y-239113335D01*
X54863332Y-239113335D02*
X54753846Y-239326796D01*
X54753846Y-239326796D02*
X54654554Y-239546064D01*
X54654554Y-239546064D02*
X54565768Y-239770826D01*
X54565768Y-239770826D02*
X54487802Y-240000769D01*
X54487802Y-240000769D02*
X54420971Y-240235578D01*
X54420971Y-240235578D02*
X54365588Y-240474942D01*
X54365588Y-240474942D02*
X54321966Y-240718546D01*
X54321966Y-240718546D02*
X54290419Y-240966077D01*
X54290419Y-240966077D02*
X54271261Y-241217222D01*
X54271261Y-241217222D02*
X54264806Y-241471669D01*
X83478871Y-186141368D02*
X83832157Y-186132761D01*
X83832157Y-186132761D02*
X84182307Y-186107077D01*
X84182307Y-186107077D02*
X84528844Y-186064514D01*
X84528844Y-186064514D02*
X84871287Y-186005276D01*
X84871287Y-186005276D02*
X85209158Y-185929561D01*
X85209158Y-185929561D02*
X85541978Y-185837571D01*
X85541978Y-185837571D02*
X85869268Y-185729507D01*
X85869268Y-185729507D02*
X86190549Y-185605569D01*
X86190549Y-185605569D02*
X86505342Y-185465959D01*
X86505342Y-185465959D02*
X86813168Y-185310878D01*
X86813168Y-185310878D02*
X87113549Y-185140525D01*
X87113549Y-185140525D02*
X87406005Y-184955103D01*
X87406005Y-184955103D02*
X87690058Y-184754812D01*
X87690058Y-184754812D02*
X87965229Y-184539852D01*
X87965229Y-184539852D02*
X88231038Y-184310425D01*
X88231038Y-184310425D02*
X88487007Y-184066732D01*
X156427474Y-220991200D02*
X155855817Y-221032540D01*
X154488647Y-193860344D02*
X153892342Y-193903501D01*
X155393186Y-221567330D02*
X155811862Y-227352199D01*
X156942955Y-227771645D02*
X156346650Y-227814802D01*
X154951091Y-193323430D02*
G75*
G02*
X154488647Y-193860344I-498537J-38218D01*
G01*
X89691412Y-173093413D02*
X87138596Y-165750537D01*
X93144776Y-183026313D02*
X89272489Y-236520377D01*
X153973165Y-187079898D02*
X153401509Y-187121238D01*
X128919289Y-206710833D02*
G75*
G02*
X128419289Y-207210833I-500000J0D01*
G01*
X54264806Y-257200597D02*
X54273672Y-257498572D01*
X54273672Y-257498572D02*
X54299933Y-257791940D01*
X54299933Y-257791940D02*
X54343082Y-258080195D01*
X54343082Y-258080195D02*
X54402615Y-258362831D01*
X54402615Y-258362831D02*
X54478023Y-258639343D01*
X54478023Y-258639343D02*
X54568802Y-258909225D01*
X54568802Y-258909225D02*
X54674445Y-259171971D01*
X54674445Y-259171971D02*
X54794446Y-259427075D01*
X54794446Y-259427075D02*
X54928298Y-259674032D01*
X54928298Y-259674032D02*
X55075497Y-259912337D01*
X55075497Y-259912337D02*
X55235534Y-260141483D01*
X55235534Y-260141483D02*
X55407905Y-260360965D01*
X55407905Y-260360965D02*
X55592102Y-260570278D01*
X55592102Y-260570278D02*
X55787621Y-260768914D01*
X55787621Y-260768914D02*
X55993954Y-260956370D01*
X55993954Y-260956370D02*
X56210596Y-261132140D01*
X56210596Y-253267676D02*
X55993897Y-253443566D01*
X55993897Y-253443566D02*
X55787522Y-253631129D01*
X55787522Y-253631129D02*
X55591974Y-253829861D01*
X55591974Y-253829861D02*
X55407759Y-254039258D01*
X55407759Y-254039258D02*
X55235381Y-254258817D01*
X55235381Y-254258817D02*
X55075345Y-254488034D01*
X55075345Y-254488034D02*
X54928155Y-254726406D01*
X54928155Y-254726406D02*
X54794317Y-254973428D01*
X54794317Y-254973428D02*
X54674334Y-255228597D01*
X54674334Y-255228597D02*
X54568711Y-255491410D01*
X54568711Y-255491410D02*
X54477954Y-255761363D01*
X54477954Y-255761363D02*
X54402566Y-256037952D01*
X54402566Y-256037952D02*
X54343053Y-256320673D01*
X54343053Y-256320673D02*
X54299919Y-256609024D01*
X54299919Y-256609024D02*
X54273668Y-256902499D01*
X54273668Y-256902499D02*
X54264806Y-257200597D01*
X54264806Y-249336133D02*
X54273668Y-249633995D01*
X54273668Y-249633995D02*
X54299919Y-249927278D01*
X54299919Y-249927278D02*
X54343053Y-250215475D01*
X54343053Y-250215475D02*
X54402566Y-250498077D01*
X54402566Y-250498077D02*
X54477954Y-250774574D01*
X54477954Y-250774574D02*
X54568711Y-251044458D01*
X54568711Y-251044458D02*
X54674334Y-251307221D01*
X54674334Y-251307221D02*
X54794317Y-251562353D01*
X54794317Y-251562353D02*
X54928155Y-251809346D01*
X54928155Y-251809346D02*
X55075345Y-252047691D01*
X55075345Y-252047691D02*
X55235381Y-252276880D01*
X55235381Y-252276880D02*
X55407759Y-252496404D01*
X55407759Y-252496404D02*
X55591974Y-252705754D01*
X55591974Y-252705754D02*
X55787522Y-252904422D01*
X55787522Y-252904422D02*
X55993897Y-253091899D01*
X55993897Y-253091899D02*
X56210596Y-253267676D01*
X123419289Y-206710833D02*
X123419289Y-206210833D01*
X123919289Y-207210833D02*
G75*
G02*
X123419289Y-206710833I0J500000D01*
G01*
X123919289Y-205710833D02*
X128419289Y-205710833D01*
X157405400Y-227234732D02*
G75*
G02*
X156942955Y-227771645I-498537J-38217D01*
G01*
X72347768Y-53584085D02*
X70581468Y-55909007D01*
X101237994Y-28936839D02*
X105424474Y-48008714D01*
X151100928Y-28936839D02*
X148743105Y-26005407D01*
X176736917Y-83601546D02*
X176571897Y-83603958D01*
X179343477Y-63339045D02*
X181757110Y-60925411D01*
X161606058Y-69490607D02*
X161468596Y-69319151D01*
X161468596Y-69319151D02*
X161328935Y-69148436D01*
X161328935Y-69148436D02*
X161187077Y-68978465D01*
X161187077Y-68978465D02*
X161043027Y-68809242D01*
X161043027Y-68809242D02*
X160896786Y-68640769D01*
X160896786Y-68640769D02*
X160748358Y-68473050D01*
X160748358Y-68473050D02*
X160597746Y-68306089D01*
X160597746Y-68306089D02*
X160444953Y-68139890D01*
X160444953Y-68139890D02*
X160289981Y-67974455D01*
X160289981Y-67974455D02*
X160132835Y-67809788D01*
X160132835Y-67809788D02*
X159973517Y-67645894D01*
X159973517Y-67645894D02*
X159812029Y-67482774D01*
X159812029Y-67482774D02*
X159648376Y-67320434D01*
X159648376Y-67320434D02*
X159482560Y-67158876D01*
X159482560Y-67158876D02*
X159314584Y-66998103D01*
X159314584Y-66998103D02*
X159144451Y-66838120D01*
X159144451Y-66838120D02*
X158972164Y-66678930D01*
X158972164Y-66678930D02*
X158797726Y-66520536D01*
X158797726Y-66520536D02*
X158621140Y-66362942D01*
X158621140Y-66362942D02*
X158442410Y-66206151D01*
X158442410Y-66206151D02*
X158261538Y-66050167D01*
X158261538Y-66050167D02*
X158078527Y-65894993D01*
X158078527Y-65894993D02*
X157893381Y-65740633D01*
X157893381Y-65740633D02*
X157706102Y-65587090D01*
X157706102Y-65587090D02*
X157516693Y-65434368D01*
X157516693Y-65434368D02*
X157325158Y-65282471D01*
X157325158Y-65282471D02*
X157131499Y-65131401D01*
X157131499Y-65131401D02*
X156935719Y-64981163D01*
X156935719Y-64981163D02*
X156737822Y-64831759D01*
X156737822Y-64831759D02*
X156537811Y-64683194D01*
X156537811Y-64683194D02*
X156335688Y-64535471D01*
X156335688Y-64535471D02*
X156131457Y-64388593D01*
X181757110Y-55909007D02*
X179989776Y-53583740D01*
X44566173Y-207626362D02*
X44934206Y-207614003D01*
X44934206Y-207614003D02*
X45295705Y-207577461D01*
X45295705Y-207577461D02*
X45649874Y-207517534D01*
X45649874Y-207517534D02*
X45995920Y-207435019D01*
X45995920Y-207435019D02*
X46333047Y-207330715D01*
X46333047Y-207330715D02*
X46660461Y-207205420D01*
X46660461Y-207205420D02*
X46977369Y-207059934D01*
X46977369Y-207059934D02*
X47282975Y-206895054D01*
X47282975Y-206895054D02*
X47576486Y-206711578D01*
X47576486Y-206711578D02*
X47857107Y-206510305D01*
X47857107Y-206510305D02*
X48124044Y-206292033D01*
X48124044Y-206292033D02*
X48376502Y-206057562D01*
X48376502Y-206057562D02*
X48613688Y-205807688D01*
X48613688Y-205807688D02*
X48834806Y-205543210D01*
X48834806Y-205543210D02*
X49039063Y-205264927D01*
X49039063Y-205264927D02*
X49225665Y-204973638D01*
X103517958Y-106831997D02*
X103522068Y-107047747D01*
X103522068Y-107047747D02*
X103534231Y-107262020D01*
X103534231Y-107262020D02*
X103552065Y-107455215D01*
X87721851Y-85691513D02*
X87935533Y-86242559D01*
X87935533Y-86242559D02*
X88169444Y-86789089D01*
X88169444Y-86789089D02*
X88423398Y-87330921D01*
X88423398Y-87330921D02*
X88697215Y-87867874D01*
X88697215Y-87867874D02*
X88990710Y-88399767D01*
X88990710Y-88399767D02*
X89303702Y-88926420D01*
X89303702Y-88926420D02*
X89636007Y-89447651D01*
X89636007Y-89447651D02*
X89987442Y-89963280D01*
X89987442Y-89963280D02*
X90357825Y-90473126D01*
X90357825Y-90473126D02*
X90746973Y-90977008D01*
X90746973Y-90977008D02*
X91154703Y-91474744D01*
X91154703Y-91474744D02*
X91580833Y-91966154D01*
X91580833Y-91966154D02*
X92025178Y-92451057D01*
X92025178Y-92451057D02*
X92487558Y-92929272D01*
X92487558Y-92929272D02*
X92967788Y-93400619D01*
X92967788Y-93400619D02*
X93465686Y-93864916D01*
X93465686Y-93864916D02*
X93981069Y-94321982D01*
X93981069Y-94321982D02*
X94513755Y-94771636D01*
X94513755Y-94771636D02*
X95063561Y-95213698D01*
X95063561Y-95213698D02*
X95630303Y-95647987D01*
X95630303Y-95647987D02*
X96213799Y-96074321D01*
X96213799Y-96074321D02*
X96813866Y-96492520D01*
X96813866Y-96492520D02*
X97430322Y-96902403D01*
X97430322Y-96902403D02*
X98062983Y-97303788D01*
X98062983Y-97303788D02*
X98711667Y-97696496D01*
X98711667Y-97696496D02*
X99376191Y-98080345D01*
X99376191Y-98080345D02*
X100056372Y-98455154D01*
X100056372Y-98455154D02*
X100752027Y-98820742D01*
X100752027Y-98820742D02*
X101462974Y-99176928D01*
X101462974Y-99176928D02*
X102189029Y-99523532D01*
X102189029Y-99523532D02*
X102930010Y-99860373D01*
X102930010Y-99860373D02*
X103685735Y-100187269D01*
X72747744Y-76528593D02*
X72761156Y-77057169D01*
X72761156Y-77057169D02*
X72800958Y-77578899D01*
X72800958Y-77578899D02*
X72866498Y-78093131D01*
X72866498Y-78093131D02*
X72957126Y-78599214D01*
X72957126Y-78599214D02*
X73072189Y-79096495D01*
X73072189Y-79096495D02*
X73211037Y-79584325D01*
X73211037Y-79584325D02*
X73373018Y-80062050D01*
X73373018Y-80062050D02*
X73557481Y-80529021D01*
X73557481Y-80529021D02*
X73763774Y-80984585D01*
X73763774Y-80984585D02*
X73991245Y-81428090D01*
X73991245Y-81428090D02*
X74239245Y-81858886D01*
X74239245Y-81858886D02*
X74507120Y-82276321D01*
X74507120Y-82276321D02*
X74794220Y-82679744D01*
X74794220Y-82679744D02*
X75099893Y-83068503D01*
X75099893Y-83068503D02*
X75423489Y-83441946D01*
X75423489Y-83441946D02*
X75764355Y-83799423D01*
X75764355Y-83799423D02*
X76121840Y-84140281D01*
X76121840Y-84140281D02*
X76495293Y-84463870D01*
X76495293Y-84463870D02*
X76884063Y-84769538D01*
X76884063Y-84769538D02*
X77287497Y-85056633D01*
X77287497Y-85056633D02*
X77704946Y-85324504D01*
X77704946Y-85324504D02*
X78135756Y-85572500D01*
X78135756Y-85572500D02*
X78579278Y-85799969D01*
X78579278Y-85799969D02*
X79034859Y-86006259D01*
X79034859Y-86006259D02*
X79501849Y-86190720D01*
X79501849Y-86190720D02*
X79979595Y-86352700D01*
X79979595Y-86352700D02*
X80467446Y-86491547D01*
X80467446Y-86491547D02*
X80964752Y-86606610D01*
X80964752Y-86606610D02*
X81470860Y-86697237D01*
X81470860Y-86697237D02*
X81985120Y-86762777D01*
X81985120Y-86762777D02*
X82506879Y-86802579D01*
X82506879Y-86802579D02*
X83035488Y-86815992D01*
X176571897Y-83603958D02*
X176734074Y-83429089D01*
X176734074Y-83429089D02*
X176892217Y-83250505D01*
X176892217Y-83250505D02*
X177046254Y-83068280D01*
X177046254Y-83068280D02*
X177196111Y-82882487D01*
X177196111Y-82882487D02*
X177341715Y-82693198D01*
X177341715Y-82693198D02*
X177482993Y-82500488D01*
X177482993Y-82500488D02*
X177619871Y-82304428D01*
X177619871Y-82304428D02*
X177752278Y-82105093D01*
X177752278Y-82105093D02*
X177880139Y-81902555D01*
X177880139Y-81902555D02*
X178003381Y-81696888D01*
X178003381Y-81696888D02*
X178121932Y-81488165D01*
X178121932Y-81488165D02*
X178235718Y-81276459D01*
X178235718Y-81276459D02*
X178344667Y-81061842D01*
X178344667Y-81061842D02*
X178448704Y-80844390D01*
X178448704Y-80844390D02*
X178547757Y-80624174D01*
X178547757Y-80624174D02*
X178641753Y-80401267D01*
X178641753Y-80401267D02*
X178730619Y-80175743D01*
X178730619Y-80175743D02*
X178814281Y-79947676D01*
X178814281Y-79947676D02*
X178892667Y-79717137D01*
X178892667Y-79717137D02*
X178965703Y-79484201D01*
X178965703Y-79484201D02*
X179033317Y-79248941D01*
X179033317Y-79248941D02*
X179095434Y-79011429D01*
X179095434Y-79011429D02*
X179151983Y-78771740D01*
X179151983Y-78771740D02*
X179202890Y-78529945D01*
X179202890Y-78529945D02*
X179248081Y-78286119D01*
X179248081Y-78286119D02*
X179287484Y-78040334D01*
X179287484Y-78040334D02*
X179321026Y-77792664D01*
X179321026Y-77792664D02*
X179348633Y-77543181D01*
X179348633Y-77543181D02*
X179370232Y-77291960D01*
X179370232Y-77291960D02*
X179385751Y-77039072D01*
X179385751Y-77039072D02*
X179395116Y-76784592D01*
X179395116Y-76784592D02*
X179398254Y-76528593D01*
X70581468Y-60925411D02*
X72995101Y-63339045D01*
X177078326Y-83612743D02*
X176875552Y-83603461D01*
X176875552Y-83603461D02*
X176736917Y-83601546D01*
X83035488Y-66241021D02*
X82506879Y-66254432D01*
X82506879Y-66254432D02*
X81985120Y-66294233D01*
X81985120Y-66294233D02*
X81470860Y-66359771D01*
X81470860Y-66359771D02*
X80964752Y-66450396D01*
X80964752Y-66450396D02*
X80467446Y-66565455D01*
X80467446Y-66565455D02*
X79979595Y-66704298D01*
X79979595Y-66704298D02*
X79501849Y-66866274D01*
X79501849Y-66866274D02*
X79034859Y-67050731D01*
X79034859Y-67050731D02*
X78579278Y-67257018D01*
X78579278Y-67257018D02*
X78135756Y-67484483D01*
X78135756Y-67484483D02*
X77704946Y-67732475D01*
X77704946Y-67732475D02*
X77287497Y-68000343D01*
X77287497Y-68000343D02*
X76884063Y-68287435D01*
X76884063Y-68287435D02*
X76495293Y-68593101D01*
X76495293Y-68593101D02*
X76121840Y-68916688D01*
X76121840Y-68916688D02*
X75764355Y-69257546D01*
X75764355Y-69257546D02*
X75423489Y-69615023D01*
X75423489Y-69615023D02*
X75099893Y-69988469D01*
X75099893Y-69988469D02*
X74794220Y-70377230D01*
X74794220Y-70377230D02*
X74507120Y-70780657D01*
X74507120Y-70780657D02*
X74239245Y-71198098D01*
X74239245Y-71198098D02*
X73991245Y-71628902D01*
X73991245Y-71628902D02*
X73763774Y-72072417D01*
X73763774Y-72072417D02*
X73557481Y-72527992D01*
X73557481Y-72527992D02*
X73373018Y-72994975D01*
X73373018Y-72994975D02*
X73211037Y-73472716D01*
X73211037Y-73472716D02*
X73072189Y-73960563D01*
X73072189Y-73960563D02*
X72957126Y-74457865D01*
X72957126Y-74457865D02*
X72866498Y-74963970D01*
X72866498Y-74963970D02*
X72800958Y-75478227D01*
X72800958Y-75478227D02*
X72761156Y-75999985D01*
X72761156Y-75999985D02*
X72747744Y-76528593D01*
X97766027Y-63339045D02*
X97548019Y-63478482D01*
X97548019Y-63478482D02*
X97331702Y-63619039D01*
X97331702Y-63619039D02*
X97117090Y-63760718D01*
X97117090Y-63760718D02*
X96904193Y-63903523D01*
X96904193Y-63903523D02*
X96693024Y-64047459D01*
X96693024Y-64047459D02*
X96483595Y-64192529D01*
X96483595Y-64192529D02*
X96275918Y-64338737D01*
X96275918Y-64338737D02*
X96070006Y-64486089D01*
X181757110Y-60925411D02*
X181757110Y-55909007D01*
X179398254Y-76528593D02*
X179384842Y-75999985D01*
X179384842Y-75999985D02*
X179345043Y-75478227D01*
X179345043Y-75478227D02*
X179279507Y-74963970D01*
X179279507Y-74963970D02*
X179188885Y-74457865D01*
X179188885Y-74457865D02*
X179073829Y-73960563D01*
X179073829Y-73960563D02*
X178934989Y-73472716D01*
X178934989Y-73472716D02*
X178773017Y-72994975D01*
X178773017Y-72994975D02*
X178588564Y-72527992D01*
X178588564Y-72527992D02*
X178382282Y-72072417D01*
X178382282Y-72072417D02*
X178154821Y-71628902D01*
X178154821Y-71628902D02*
X177906832Y-71198098D01*
X177906832Y-71198098D02*
X177638968Y-70780657D01*
X177638968Y-70780657D02*
X177351878Y-70377230D01*
X177351878Y-70377230D02*
X177046214Y-69988469D01*
X177046214Y-69988469D02*
X176722628Y-69615023D01*
X176722628Y-69615023D02*
X176381771Y-69257546D01*
X176381771Y-69257546D02*
X176024293Y-68916688D01*
X176024293Y-68916688D02*
X175650846Y-68593101D01*
X175650846Y-68593101D02*
X175262081Y-68287435D01*
X175262081Y-68287435D02*
X174858650Y-68000343D01*
X174858650Y-68000343D02*
X174441203Y-67732475D01*
X174441203Y-67732475D02*
X174010392Y-67484483D01*
X174010392Y-67484483D02*
X173566868Y-67257018D01*
X173566868Y-67257018D02*
X173111282Y-67050731D01*
X173111282Y-67050731D02*
X172644285Y-66866274D01*
X172644285Y-66866274D02*
X172166529Y-66704298D01*
X172166529Y-66704298D02*
X171678664Y-66565455D01*
X171678664Y-66565455D02*
X171181343Y-66450396D01*
X171181343Y-66450396D02*
X170675215Y-66359771D01*
X170675215Y-66359771D02*
X170160933Y-66294233D01*
X170160933Y-66294233D02*
X169639147Y-66254432D01*
X169639147Y-66254432D02*
X169110509Y-66241021D01*
X72521745Y-207626362D02*
X72800208Y-207619295D01*
X72800208Y-207619295D02*
X73075068Y-207598324D01*
X73075068Y-207598324D02*
X73345981Y-207563793D01*
X73345981Y-207563793D02*
X73612604Y-207516043D01*
X73612604Y-207516043D02*
X73874594Y-207455419D01*
X73874594Y-207455419D02*
X74131606Y-207382263D01*
X74131606Y-207382263D02*
X74383297Y-207296919D01*
X74383297Y-207296919D02*
X74629325Y-207199729D01*
X74629325Y-207199729D02*
X74869345Y-207091038D01*
X74869345Y-207091038D02*
X75103014Y-206971188D01*
X75103014Y-206971188D02*
X75329990Y-206840522D01*
X75329990Y-206840522D02*
X75549927Y-206699383D01*
X75549927Y-206699383D02*
X75762484Y-206548115D01*
X75762484Y-206548115D02*
X75967316Y-206387061D01*
X75967316Y-206387061D02*
X76164080Y-206216564D01*
X76164080Y-206216564D02*
X76352433Y-206036966D01*
X76352433Y-206036966D02*
X76532031Y-205848612D01*
X76532031Y-205848612D02*
X76702531Y-205651845D01*
X76702531Y-205651845D02*
X76863589Y-205447007D01*
X76863589Y-205447007D02*
X77014862Y-205234442D01*
X77014862Y-205234442D02*
X77156008Y-205014493D01*
X77156008Y-205014493D02*
X77286681Y-204787503D01*
X77286681Y-204787503D02*
X77406539Y-204553815D01*
X77406539Y-204553815D02*
X77515238Y-204313772D01*
X77515238Y-204313772D02*
X77612436Y-204067719D01*
X77612436Y-204067719D02*
X77697788Y-203815996D01*
X77697788Y-203815996D02*
X77770951Y-203558949D01*
X77770951Y-203558949D02*
X77831582Y-203296920D01*
X77831582Y-203296920D02*
X77879337Y-203030252D01*
X77879337Y-203030252D02*
X77913873Y-202759289D01*
X77913873Y-202759289D02*
X77934846Y-202484373D01*
X77934846Y-202484373D02*
X77941914Y-202205848D01*
X72995101Y-63339045D02*
X97766027Y-63339045D01*
X67862598Y-204974327D02*
X68049081Y-205265608D01*
X68049081Y-205265608D02*
X68253243Y-205543869D01*
X68253243Y-205543869D02*
X68474286Y-205808313D01*
X68474286Y-205808313D02*
X68711415Y-206058143D01*
X68711415Y-206058143D02*
X68963833Y-206292563D01*
X68963833Y-206292563D02*
X69230743Y-206510776D01*
X69230743Y-206510776D02*
X69511350Y-206711987D01*
X69511350Y-206711987D02*
X69804856Y-206895398D01*
X69804856Y-206895398D02*
X70110466Y-207060214D01*
X70110466Y-207060214D02*
X70427383Y-207205638D01*
X70427383Y-207205638D02*
X70754812Y-207330875D01*
X70754812Y-207330875D02*
X71091954Y-207435126D01*
X71091954Y-207435126D02*
X71438015Y-207517597D01*
X71438015Y-207517597D02*
X71792198Y-207577491D01*
X71792198Y-207577491D02*
X72153707Y-207614011D01*
X72153707Y-207614011D02*
X72521745Y-207626362D01*
X169110509Y-66241021D02*
X168838530Y-66244583D01*
X168838530Y-66244583D02*
X168567917Y-66255220D01*
X168567917Y-66255220D02*
X168298774Y-66272856D01*
X168298774Y-66272856D02*
X168031206Y-66297417D01*
X168031206Y-66297417D02*
X167765318Y-66328826D01*
X167765318Y-66328826D02*
X167501217Y-66367009D01*
X167501217Y-66367009D02*
X167239006Y-66411890D01*
X167239006Y-66411890D02*
X166978791Y-66463393D01*
X166978791Y-66463393D02*
X166720678Y-66521445D01*
X166720678Y-66521445D02*
X166464771Y-66585968D01*
X166464771Y-66585968D02*
X166211176Y-66656889D01*
X166211176Y-66656889D02*
X165959998Y-66734132D01*
X165959998Y-66734132D02*
X165711343Y-66817621D01*
X165711343Y-66817621D02*
X165465315Y-66907281D01*
X165465315Y-66907281D02*
X165222019Y-67003037D01*
X165222019Y-67003037D02*
X164981562Y-67104814D01*
X164981562Y-67104814D02*
X164744047Y-67212536D01*
X164744047Y-67212536D02*
X164509581Y-67326128D01*
X164509581Y-67326128D02*
X164278269Y-67445514D01*
X164278269Y-67445514D02*
X164050215Y-67570620D01*
X164050215Y-67570620D02*
X163825526Y-67701371D01*
X163825526Y-67701371D02*
X163604305Y-67837690D01*
X163604305Y-67837690D02*
X163386659Y-67979503D01*
X163386659Y-67979503D02*
X163172693Y-68126734D01*
X163172693Y-68126734D02*
X162962512Y-68279308D01*
X162962512Y-68279308D02*
X162756220Y-68437150D01*
X162756220Y-68437150D02*
X162553924Y-68600184D01*
X162553924Y-68600184D02*
X162355729Y-68768335D01*
X162355729Y-68768335D02*
X162161739Y-68941529D01*
X162161739Y-68941529D02*
X161972061Y-69119688D01*
X161972061Y-69119688D02*
X161786798Y-69302739D01*
X161786798Y-69302739D02*
X161606058Y-69490607D01*
X49225665Y-204973638D02*
X49412209Y-205264927D01*
X49412209Y-205264927D02*
X49616423Y-205543210D01*
X49616423Y-205543210D02*
X49837511Y-205807688D01*
X49837511Y-205807688D02*
X50074676Y-206057562D01*
X50074676Y-206057562D02*
X50327122Y-206292033D01*
X50327122Y-206292033D02*
X50594053Y-206510305D01*
X50594053Y-206510305D02*
X50874671Y-206711578D01*
X50874671Y-206711578D02*
X51168182Y-206895054D01*
X51168182Y-206895054D02*
X51473788Y-207059934D01*
X51473788Y-207059934D02*
X51790693Y-207205420D01*
X51790693Y-207205420D02*
X52118101Y-207330715D01*
X52118101Y-207330715D02*
X52455216Y-207435019D01*
X52455216Y-207435019D02*
X52801240Y-207517534D01*
X52801240Y-207517534D02*
X53155379Y-207577461D01*
X53155379Y-207577461D02*
X53516834Y-207614003D01*
X53516834Y-207614003D02*
X53884812Y-207626362D01*
X92390300Y-107455215D02*
X90695313Y-108149918D01*
X105424474Y-48008714D02*
X103608179Y-48187908D01*
X103608179Y-48187908D02*
X101831925Y-48376118D01*
X101831925Y-48376118D02*
X100096757Y-48572409D01*
X100096757Y-48572409D02*
X98403720Y-48775848D01*
X98403720Y-48775848D02*
X96753860Y-48985502D01*
X96753860Y-48985502D02*
X95148222Y-49200437D01*
X95148222Y-49200437D02*
X93587851Y-49419719D01*
X93587851Y-49419719D02*
X92073792Y-49642416D01*
X92073792Y-49642416D02*
X90607091Y-49867592D01*
X90607091Y-49867592D02*
X89188793Y-50094316D01*
X89188793Y-50094316D02*
X87819942Y-50321652D01*
X87819942Y-50321652D02*
X86501586Y-50548669D01*
X86501586Y-50548669D02*
X85234767Y-50774432D01*
X85234767Y-50774432D02*
X84020533Y-50998007D01*
X84020533Y-50998007D02*
X82859928Y-51218461D01*
X82859928Y-51218461D02*
X81753998Y-51434861D01*
X81753998Y-51434861D02*
X80703787Y-51646273D01*
X80703787Y-51646273D02*
X79710341Y-51851764D01*
X79710341Y-51851764D02*
X78774705Y-52050399D01*
X78774705Y-52050399D02*
X77897925Y-52241246D01*
X77897925Y-52241246D02*
X77081046Y-52423370D01*
X77081046Y-52423370D02*
X76325113Y-52595839D01*
X76325113Y-52595839D02*
X75631170Y-52757719D01*
X75631170Y-52757719D02*
X75000265Y-52908076D01*
X75000265Y-52908076D02*
X74433441Y-53045976D01*
X74433441Y-53045976D02*
X73931744Y-53170487D01*
X73931744Y-53170487D02*
X73496220Y-53280674D01*
X73496220Y-53280674D02*
X73127913Y-53375604D01*
X73127913Y-53375604D02*
X72827869Y-53454344D01*
X72827869Y-53454344D02*
X72597134Y-53515960D01*
X72597134Y-53515960D02*
X72347768Y-53584085D01*
X146976460Y-47724322D02*
X151100928Y-28936839D01*
X39145660Y-202205848D02*
X39152727Y-202484373D01*
X39152727Y-202484373D02*
X39173700Y-202759289D01*
X39173700Y-202759289D02*
X39208237Y-203030252D01*
X39208237Y-203030252D02*
X39255992Y-203296920D01*
X39255992Y-203296920D02*
X39316623Y-203558949D01*
X39316623Y-203558949D02*
X39389788Y-203815996D01*
X39389788Y-203815996D02*
X39475141Y-204067719D01*
X39475141Y-204067719D02*
X39572340Y-204313772D01*
X39572340Y-204313772D02*
X39681042Y-204553815D01*
X39681042Y-204553815D02*
X39800903Y-204787503D01*
X39800903Y-204787503D02*
X39931579Y-205014493D01*
X39931579Y-205014493D02*
X40072729Y-205234442D01*
X40072729Y-205234442D02*
X40224007Y-205447007D01*
X40224007Y-205447007D02*
X40385071Y-205651845D01*
X40385071Y-205651845D02*
X40555578Y-205848612D01*
X40555578Y-205848612D02*
X40735184Y-206036966D01*
X40735184Y-206036966D02*
X40923545Y-206216564D01*
X40923545Y-206216564D02*
X41120319Y-206387061D01*
X41120319Y-206387061D02*
X41325161Y-206548115D01*
X41325161Y-206548115D02*
X41537730Y-206699383D01*
X41537730Y-206699383D02*
X41757681Y-206840522D01*
X41757681Y-206840522D02*
X41984670Y-206971188D01*
X41984670Y-206971188D02*
X42218356Y-207091038D01*
X42218356Y-207091038D02*
X42458393Y-207199729D01*
X42458393Y-207199729D02*
X42704440Y-207296919D01*
X42704440Y-207296919D02*
X42956152Y-207382263D01*
X42956152Y-207382263D02*
X43213186Y-207455419D01*
X43213186Y-207455419D02*
X43475199Y-207516043D01*
X43475199Y-207516043D02*
X43741848Y-207563793D01*
X43741848Y-207563793D02*
X44012788Y-207598324D01*
X44012788Y-207598324D02*
X44287678Y-207619295D01*
X44287678Y-207619295D02*
X44566173Y-207626362D01*
X103552065Y-107455215D02*
X92390300Y-107455215D01*
X103517958Y-101479008D02*
X103524649Y-101755931D01*
X103524649Y-101755931D02*
X103544566Y-102030467D01*
X103544566Y-102030467D02*
X103577472Y-102302228D01*
X103577472Y-102302228D02*
X103623129Y-102570826D01*
X103623129Y-102570826D02*
X103681302Y-102835872D01*
X103681302Y-102835872D02*
X103751753Y-103096977D01*
X103751753Y-103096977D02*
X103834246Y-103353755D01*
X103834246Y-103353755D02*
X103928543Y-103605816D01*
X103928543Y-103605816D02*
X104034409Y-103852771D01*
X104034409Y-103852771D02*
X104151606Y-104094233D01*
X104151606Y-104094233D02*
X104235916Y-104251965D01*
X148743105Y-26005407D02*
X103595473Y-26005407D01*
X154570828Y-63339045D02*
X179343477Y-63339045D01*
X70581468Y-55909007D02*
X70581468Y-60925411D01*
X90649838Y-69591549D02*
X90469369Y-69397799D01*
X90469369Y-69397799D02*
X90284148Y-69209022D01*
X90284148Y-69209022D02*
X90094279Y-69025293D01*
X90094279Y-69025293D02*
X89899866Y-68846690D01*
X89899866Y-68846690D02*
X89701015Y-68673291D01*
X89701015Y-68673291D02*
X89497828Y-68505173D01*
X89497828Y-68505173D02*
X89290411Y-68342413D01*
X89290411Y-68342413D02*
X89078869Y-68185088D01*
X89078869Y-68185088D02*
X88863304Y-68033276D01*
X88863304Y-68033276D02*
X88643822Y-67887054D01*
X88643822Y-67887054D02*
X88420528Y-67746500D01*
X88420528Y-67746500D02*
X88193525Y-67611691D01*
X88193525Y-67611691D02*
X87962919Y-67482704D01*
X87962919Y-67482704D02*
X87728812Y-67359616D01*
X87728812Y-67359616D02*
X87491311Y-67242505D01*
X87491311Y-67242505D02*
X87250519Y-67131449D01*
X87250519Y-67131449D02*
X87006540Y-67026523D01*
X87006540Y-67026523D02*
X86759479Y-66927807D01*
X86759479Y-66927807D02*
X86509441Y-66835377D01*
X86509441Y-66835377D02*
X86256530Y-66749311D01*
X86256530Y-66749311D02*
X86000850Y-66669685D01*
X86000850Y-66669685D02*
X85742505Y-66596578D01*
X85742505Y-66596578D02*
X85481601Y-66530066D01*
X85481601Y-66530066D02*
X85218240Y-66470227D01*
X85218240Y-66470227D02*
X84952529Y-66417138D01*
X84952529Y-66417138D02*
X84684571Y-66370877D01*
X84684571Y-66370877D02*
X84414471Y-66331521D01*
X84414471Y-66331521D02*
X84142333Y-66299147D01*
X84142333Y-66299147D02*
X83868261Y-66273833D01*
X83868261Y-66273833D02*
X83592360Y-66255655D01*
X83592360Y-66255655D02*
X83314734Y-66244692D01*
X83314734Y-66244692D02*
X83035488Y-66241021D01*
X96070006Y-64486089D02*
X95867486Y-64633314D01*
X95867486Y-64633314D02*
X95667075Y-64781368D01*
X95667075Y-64781368D02*
X95468775Y-64930249D01*
X95468775Y-64930249D02*
X95272589Y-65079951D01*
X95272589Y-65079951D02*
X95078521Y-65230473D01*
X95078521Y-65230473D02*
X94886573Y-65381810D01*
X94886573Y-65381810D02*
X94696748Y-65533959D01*
X94696748Y-65533959D02*
X94509049Y-65686917D01*
X94509049Y-65686917D02*
X94323480Y-65840680D01*
X94323480Y-65840680D02*
X94140042Y-65995245D01*
X94140042Y-65995245D02*
X93958740Y-66150608D01*
X93958740Y-66150608D02*
X93779575Y-66306765D01*
X93779575Y-66306765D02*
X93602552Y-66463715D01*
X93602552Y-66463715D02*
X93427672Y-66621452D01*
X93427672Y-66621452D02*
X93254940Y-66779974D01*
X93254940Y-66779974D02*
X93084357Y-66939277D01*
X93084357Y-66939277D02*
X92915927Y-67099357D01*
X92915927Y-67099357D02*
X92749653Y-67260212D01*
X92749653Y-67260212D02*
X92585538Y-67421838D01*
X92585538Y-67421838D02*
X92423585Y-67584231D01*
X92423585Y-67584231D02*
X92263796Y-67747387D01*
X92263796Y-67747387D02*
X92106175Y-67911305D01*
X92106175Y-67911305D02*
X91950724Y-68075979D01*
X91950724Y-68075979D02*
X91797447Y-68241407D01*
X91797447Y-68241407D02*
X91646347Y-68407585D01*
X91646347Y-68407585D02*
X91497426Y-68574510D01*
X91497426Y-68574510D02*
X91350688Y-68742179D01*
X91350688Y-68742179D02*
X91206135Y-68910587D01*
X91206135Y-68910587D02*
X91063771Y-69079731D01*
X91063771Y-69079731D02*
X90923598Y-69249608D01*
X90923598Y-69249608D02*
X90785619Y-69420215D01*
X90785619Y-69420215D02*
X90649838Y-69591549D01*
X179989776Y-53583740D02*
X179016939Y-53316404D01*
X179016939Y-53316404D02*
X178039815Y-53054422D01*
X178039815Y-53054422D02*
X177058453Y-52797801D01*
X177058453Y-52797801D02*
X176072903Y-52546550D01*
X176072903Y-52546550D02*
X175083214Y-52300677D01*
X175083214Y-52300677D02*
X174089434Y-52060189D01*
X174089434Y-52060189D02*
X173091613Y-51825095D01*
X173091613Y-51825095D02*
X172089800Y-51595403D01*
X172089800Y-51595403D02*
X171084044Y-51371120D01*
X171084044Y-51371120D02*
X170074395Y-51152256D01*
X170074395Y-51152256D02*
X169060901Y-50938817D01*
X169060901Y-50938817D02*
X168043612Y-50730813D01*
X168043612Y-50730813D02*
X167022576Y-50528251D01*
X167022576Y-50528251D02*
X165997843Y-50331139D01*
X165997843Y-50331139D02*
X164969462Y-50139485D01*
X164969462Y-50139485D02*
X163937483Y-49953298D01*
X163937483Y-49953298D02*
X162901953Y-49772585D01*
X162901953Y-49772585D02*
X161862923Y-49597355D01*
X161862923Y-49597355D02*
X160820442Y-49427616D01*
X160820442Y-49427616D02*
X159774558Y-49263375D01*
X159774558Y-49263375D02*
X158725321Y-49104641D01*
X158725321Y-49104641D02*
X157672780Y-48951421D01*
X157672780Y-48951421D02*
X156616984Y-48803725D01*
X156616984Y-48803725D02*
X155557982Y-48661560D01*
X155557982Y-48661560D02*
X154495824Y-48524933D01*
X154495824Y-48524933D02*
X153430558Y-48393854D01*
X153430558Y-48393854D02*
X152362234Y-48268330D01*
X152362234Y-48268330D02*
X151290901Y-48148370D01*
X151290901Y-48148370D02*
X150216608Y-48033980D01*
X150216608Y-48033980D02*
X149139404Y-47925171D01*
X149139404Y-47925171D02*
X148059338Y-47821948D01*
X148059338Y-47821948D02*
X146976460Y-47724322D01*
X103595473Y-26005407D02*
X101237994Y-28936839D01*
X156131457Y-64388593D02*
X155941267Y-64254008D01*
X155941267Y-64254008D02*
X155749729Y-64120392D01*
X155749729Y-64120392D02*
X155556818Y-63987745D01*
X155556818Y-63987745D02*
X155362511Y-63856067D01*
X155362511Y-63856067D02*
X155166782Y-63725358D01*
X155166782Y-63725358D02*
X154969608Y-63595618D01*
X154969608Y-63595618D02*
X154770965Y-63466847D01*
X154770965Y-63466847D02*
X154570828Y-63339045D01*
X83035488Y-86815992D02*
X83345842Y-86811406D01*
X83345842Y-86811406D02*
X83654616Y-86797701D01*
X83654616Y-86797701D02*
X83961649Y-86774953D01*
X83961649Y-86774953D02*
X84266781Y-86743241D01*
X84266781Y-86743241D02*
X84569851Y-86702640D01*
X84569851Y-86702640D02*
X84870701Y-86653229D01*
X84870701Y-86653229D02*
X85169170Y-86595084D01*
X85169170Y-86595084D02*
X85465098Y-86528283D01*
X85465098Y-86528283D02*
X85758325Y-86452903D01*
X85758325Y-86452903D02*
X86048691Y-86369021D01*
X86048691Y-86369021D02*
X86336036Y-86276714D01*
X86336036Y-86276714D02*
X86620201Y-86176060D01*
X86620201Y-86176060D02*
X86901024Y-86067135D01*
X86901024Y-86067135D02*
X87178347Y-85950018D01*
X87178347Y-85950018D02*
X87452009Y-85824784D01*
X87452009Y-85824784D02*
X87721851Y-85691513D01*
X63203107Y-207626362D02*
X63571084Y-207614011D01*
X63571084Y-207614011D02*
X63932540Y-207577491D01*
X63932540Y-207577491D02*
X64286680Y-207517597D01*
X64286680Y-207517597D02*
X64632708Y-207435126D01*
X64632708Y-207435126D02*
X64969828Y-207330875D01*
X64969828Y-207330875D02*
X65297243Y-207205638D01*
X65297243Y-207205638D02*
X65614159Y-207060214D01*
X65614159Y-207060214D02*
X65919779Y-206895398D01*
X65919779Y-206895398D02*
X66213308Y-206711987D01*
X66213308Y-206711987D02*
X66493949Y-206510776D01*
X66493949Y-206510776D02*
X66760908Y-206292563D01*
X66760908Y-206292563D02*
X67013387Y-206058143D01*
X67013387Y-206058143D02*
X67250591Y-205808313D01*
X67250591Y-205808313D02*
X67471725Y-205543869D01*
X67471725Y-205543869D02*
X67675993Y-205265608D01*
X67675993Y-205265608D02*
X67862598Y-204974327D01*
X58543959Y-204974327D02*
X58730560Y-205265608D01*
X58730560Y-205265608D02*
X58934816Y-205543869D01*
X58934816Y-205543869D02*
X59155933Y-205808313D01*
X59155933Y-205808313D02*
X59393116Y-206058143D01*
X59393116Y-206058143D02*
X59645569Y-206292563D01*
X59645569Y-206292563D02*
X59912498Y-206510776D01*
X59912498Y-206510776D02*
X60193109Y-206711987D01*
X60193109Y-206711987D02*
X60486605Y-206895398D01*
X60486605Y-206895398D02*
X60792193Y-207060214D01*
X60792193Y-207060214D02*
X61109078Y-207205638D01*
X61109078Y-207205638D02*
X61436465Y-207330875D01*
X61436465Y-207330875D02*
X61773558Y-207435126D01*
X61773558Y-207435126D02*
X62119564Y-207517597D01*
X62119564Y-207517597D02*
X62473687Y-207577491D01*
X62473687Y-207577491D02*
X62835133Y-207614011D01*
X62835133Y-207614011D02*
X63203107Y-207626362D01*
X39158063Y-165128353D02*
X39145660Y-165368820D01*
X53884812Y-207626362D02*
X54252789Y-207614011D01*
X54252789Y-207614011D02*
X54614245Y-207577491D01*
X54614245Y-207577491D02*
X54968383Y-207517597D01*
X54968383Y-207517597D02*
X55314408Y-207435126D01*
X55314408Y-207435126D02*
X55651523Y-207330875D01*
X55651523Y-207330875D02*
X55978931Y-207205638D01*
X55978931Y-207205638D02*
X56295836Y-207060214D01*
X56295836Y-207060214D02*
X56601442Y-206895398D01*
X56601442Y-206895398D02*
X56894953Y-206711987D01*
X56894953Y-206711987D02*
X57175571Y-206510776D01*
X57175571Y-206510776D02*
X57442502Y-206292563D01*
X57442502Y-206292563D02*
X57694947Y-206058143D01*
X57694947Y-206058143D02*
X57932112Y-205808313D01*
X57932112Y-205808313D02*
X58153200Y-205543869D01*
X58153200Y-205543869D02*
X58357414Y-205265608D01*
X58357414Y-205265608D02*
X58543959Y-204974327D01*
X39145660Y-165368820D02*
X39145660Y-202205848D01*
X49015170Y-148343158D02*
X48518704Y-148821132D01*
X48518704Y-148821132D02*
X48031264Y-149299475D01*
X48031264Y-149299475D02*
X47553163Y-149778449D01*
X47553163Y-149778449D02*
X47084713Y-150258320D01*
X47084713Y-150258320D02*
X46626228Y-150739350D01*
X46626228Y-150739350D02*
X46178021Y-151221802D01*
X46178021Y-151221802D02*
X45740406Y-151705941D01*
X45740406Y-151705941D02*
X45313694Y-152192029D01*
X45313694Y-152192029D02*
X44898200Y-152680331D01*
X44898200Y-152680331D02*
X44494237Y-153171110D01*
X44494237Y-153171110D02*
X44102117Y-153664630D01*
X44102117Y-153664630D02*
X43722154Y-154161153D01*
X43722154Y-154161153D02*
X43354662Y-154660944D01*
X43354662Y-154660944D02*
X42999952Y-155164267D01*
X42999952Y-155164267D02*
X42658338Y-155671384D01*
X42658338Y-155671384D02*
X42330134Y-156182559D01*
X42330134Y-156182559D02*
X42015652Y-156698056D01*
X42015652Y-156698056D02*
X41715206Y-157218139D01*
X41715206Y-157218139D02*
X41429109Y-157743070D01*
X41429109Y-157743070D02*
X41157674Y-158273114D01*
X41157674Y-158273114D02*
X40901214Y-158808535D01*
X40901214Y-158808535D02*
X40660042Y-159349594D01*
X40660042Y-159349594D02*
X40434471Y-159896557D01*
X40434471Y-159896557D02*
X40224815Y-160449687D01*
X40224815Y-160449687D02*
X40031386Y-161009247D01*
X40031386Y-161009247D02*
X39854498Y-161575500D01*
X39854498Y-161575500D02*
X39694464Y-162148712D01*
X39694464Y-162148712D02*
X39551597Y-162729144D01*
X39551597Y-162729144D02*
X39426211Y-163317060D01*
X39426211Y-163317060D02*
X39318617Y-163912725D01*
X39318617Y-163912725D02*
X39229130Y-164516401D01*
X39229130Y-164516401D02*
X39158063Y-165128353D01*
X104235916Y-104251965D02*
X104112091Y-104470198D01*
X104112091Y-104470198D02*
X103999129Y-104694514D01*
X103999129Y-104694514D02*
X103897315Y-104924501D01*
X103897315Y-104924501D02*
X103806939Y-105159746D01*
X103806939Y-105159746D02*
X103728287Y-105399837D01*
X103728287Y-105399837D02*
X103661648Y-105644362D01*
X103661648Y-105644362D02*
X103607309Y-105892909D01*
X103607309Y-105892909D02*
X103565559Y-106145066D01*
X103565559Y-106145066D02*
X103536685Y-106400420D01*
X103536685Y-106400420D02*
X103520975Y-106658560D01*
X103520975Y-106658560D02*
X103517958Y-106831997D01*
X103685735Y-100187269D02*
X103638167Y-100383110D01*
X103638167Y-100383110D02*
X103598276Y-100581472D01*
X103598276Y-100581472D02*
X103566220Y-100782149D01*
X103566220Y-100782149D02*
X103542157Y-100984936D01*
X103542157Y-100984936D02*
X103526244Y-101189628D01*
X103526244Y-101189628D02*
X103518638Y-101396020D01*
X103518638Y-101396020D02*
X103517958Y-101479008D01*
X170440316Y-167772808D02*
X170638559Y-168583104D01*
X170638559Y-168583104D02*
X170869970Y-169378230D01*
X170869970Y-169378230D02*
X171133718Y-170157495D01*
X171133718Y-170157495D02*
X171428975Y-170920206D01*
X171428975Y-170920206D02*
X171754913Y-171665671D01*
X171754913Y-171665671D02*
X172110701Y-172393198D01*
X172110701Y-172393198D02*
X172495512Y-173102095D01*
X172495512Y-173102095D02*
X172908517Y-173791669D01*
X172908517Y-173791669D02*
X173348886Y-174461229D01*
X173348886Y-174461229D02*
X173815791Y-175110082D01*
X173815791Y-175110082D02*
X174308404Y-175737536D01*
X174308404Y-175737536D02*
X174825895Y-176342900D01*
X174825895Y-176342900D02*
X175367435Y-176925480D01*
X175367435Y-176925480D02*
X175932196Y-177484585D01*
X175932196Y-177484585D02*
X176519349Y-178019523D01*
X176519349Y-178019523D02*
X177128064Y-178529602D01*
X177128064Y-178529602D02*
X177757514Y-179014128D01*
X177757514Y-179014128D02*
X178406869Y-179472411D01*
X178406869Y-179472411D02*
X179075301Y-179903759D01*
X179075301Y-179903759D02*
X179761981Y-180307478D01*
X179761981Y-180307478D02*
X180466079Y-180682877D01*
X180466079Y-180682877D02*
X181186767Y-181029264D01*
X181186767Y-181029264D02*
X181923216Y-181345947D01*
X181923216Y-181345947D02*
X182674598Y-181632233D01*
X182674598Y-181632233D02*
X183440083Y-181887430D01*
X183440083Y-181887430D02*
X184218843Y-182110847D01*
X184218843Y-182110847D02*
X185010049Y-182301791D01*
X185010049Y-182301791D02*
X185812872Y-182459570D01*
X185812872Y-182459570D02*
X186626483Y-182583492D01*
X186626483Y-182583492D02*
X187450054Y-182672864D01*
X187450054Y-182672864D02*
X188282755Y-182726995D01*
X188282755Y-182726995D02*
X189123758Y-182745193D01*
X196127982Y-245403901D02*
X196344684Y-245228010D01*
X196344684Y-245228010D02*
X196551070Y-245040448D01*
X196551070Y-245040448D02*
X196746634Y-244841719D01*
X196746634Y-244841719D02*
X196930871Y-244632328D01*
X196930871Y-244632328D02*
X197103275Y-244412779D01*
X197103275Y-244412779D02*
X197263341Y-244183578D01*
X197263341Y-244183578D02*
X197410561Y-243945227D01*
X197410561Y-243945227D02*
X197544432Y-243698234D01*
X197544432Y-243698234D02*
X197664447Y-243443101D01*
X197664447Y-243443101D02*
X197770101Y-243180333D01*
X197770101Y-243180333D02*
X197860887Y-242910436D01*
X197860887Y-242910436D02*
X197936301Y-242633914D01*
X197936301Y-242633914D02*
X197995836Y-242351272D01*
X197995836Y-242351272D02*
X198038988Y-242063014D01*
X198038988Y-242063014D02*
X198065249Y-241769644D01*
X198065249Y-241769644D02*
X198074116Y-241471669D01*
X54308214Y-265721696D02*
X54335884Y-265927242D01*
X54335884Y-265927242D02*
X54363554Y-266132789D01*
X54363554Y-266132789D02*
X54376325Y-266227657D01*
X190356758Y-85126173D02*
X190197375Y-85292563D01*
X190197375Y-85292563D02*
X190046234Y-85464671D01*
X190046234Y-85464671D02*
X189903463Y-85642282D01*
X189903463Y-85642282D02*
X189769192Y-85825178D01*
X189769192Y-85825178D02*
X189696333Y-85931981D01*
X202346724Y-83612743D02*
X202037009Y-83642256D01*
X202037009Y-83642256D02*
X201732979Y-83689984D01*
X201732979Y-83689984D02*
X201435151Y-83755366D01*
X201435151Y-83755366D02*
X201144040Y-83837839D01*
X201144040Y-83837839D02*
X200860164Y-83936841D01*
X200860164Y-83936841D02*
X200584040Y-84051811D01*
X200584040Y-84051811D02*
X200316184Y-84182187D01*
X200316184Y-84182187D02*
X200057112Y-84327406D01*
X200057112Y-84327406D02*
X199807343Y-84486907D01*
X199807343Y-84486907D02*
X199567392Y-84660127D01*
X199567392Y-84660127D02*
X199337776Y-84846505D01*
X199337776Y-84846505D02*
X199119013Y-85045480D01*
X199119013Y-85045480D02*
X198911618Y-85256488D01*
X198911618Y-85256488D02*
X198716109Y-85478968D01*
X198716109Y-85478968D02*
X198533002Y-85712358D01*
X198533002Y-85712358D02*
X198362815Y-85956097D01*
X207892983Y-88806741D02*
X207886196Y-88539292D01*
X207886196Y-88539292D02*
X207866058Y-88275310D01*
X207866058Y-88275310D02*
X207832896Y-88015125D01*
X207832896Y-88015125D02*
X207787041Y-87759066D01*
X207787041Y-87759066D02*
X207728822Y-87507462D01*
X207728822Y-87507462D02*
X207658570Y-87260642D01*
X207658570Y-87260642D02*
X207576612Y-87018937D01*
X207576612Y-87018937D02*
X207483280Y-86782674D01*
X207483280Y-86782674D02*
X207378902Y-86552184D01*
X207378902Y-86552184D02*
X207263809Y-86327796D01*
X207263809Y-86327796D02*
X207138329Y-86109839D01*
X207138329Y-86109839D02*
X207002793Y-85898642D01*
X207002793Y-85898642D02*
X206857530Y-85694535D01*
X206857530Y-85694535D02*
X206702870Y-85497847D01*
X206702870Y-85497847D02*
X206539142Y-85308908D01*
X206539142Y-85308908D02*
X206366676Y-85128046D01*
X206366676Y-85128046D02*
X206185801Y-84955591D01*
X206185801Y-84955591D02*
X205996848Y-84791873D01*
X205996848Y-84791873D02*
X205800145Y-84637220D01*
X205800145Y-84637220D02*
X205596022Y-84491962D01*
X205596022Y-84491962D02*
X205384809Y-84356428D01*
X205384809Y-84356428D02*
X205166836Y-84230948D01*
X205166836Y-84230948D02*
X204942432Y-84115851D01*
X204942432Y-84115851D02*
X204711926Y-84011466D01*
X204711926Y-84011466D02*
X204475649Y-83918123D01*
X204475649Y-83918123D02*
X204233930Y-83836150D01*
X204233930Y-83836150D02*
X203987098Y-83765878D01*
X203987098Y-83765878D02*
X203735483Y-83707635D01*
X203735483Y-83707635D02*
X203479415Y-83661751D01*
X203479415Y-83661751D02*
X203219224Y-83628556D01*
X203219224Y-83628556D02*
X202955238Y-83608377D01*
X202955238Y-83608377D02*
X202687788Y-83601546D01*
X163065745Y-236520377D02*
X159194147Y-183026313D01*
X198074116Y-241471669D02*
X198067659Y-241217222D01*
X198067659Y-241217222D02*
X198048498Y-240966077D01*
X198048498Y-240966077D02*
X198016946Y-240718546D01*
X198016946Y-240718546D02*
X197973318Y-240474942D01*
X197973318Y-240474942D02*
X197917926Y-240235578D01*
X197917926Y-240235578D02*
X197851085Y-240000769D01*
X197851085Y-240000769D02*
X197773107Y-239770826D01*
X197773107Y-239770826D02*
X197684308Y-239546064D01*
X197684308Y-239546064D02*
X197585001Y-239326796D01*
X197585001Y-239326796D02*
X197475499Y-239113335D01*
X197475499Y-239113335D02*
X197356115Y-238905993D01*
X197356115Y-238905993D02*
X197227165Y-238705086D01*
X197227165Y-238705086D02*
X197088961Y-238510924D01*
X197088961Y-238510924D02*
X196941817Y-238323823D01*
X196941817Y-238323823D02*
X196786047Y-238144095D01*
X196786047Y-238144095D02*
X196621965Y-237972054D01*
X196621965Y-237972054D02*
X196449884Y-237808012D01*
X196449884Y-237808012D02*
X196270117Y-237652284D01*
X196270117Y-237652284D02*
X196082980Y-237505181D01*
X196082980Y-237505181D02*
X195888785Y-237367018D01*
X195888785Y-237367018D02*
X195687845Y-237238108D01*
X195687845Y-237238108D02*
X195480476Y-237118764D01*
X195480476Y-237118764D02*
X195266990Y-237009300D01*
X195266990Y-237009300D02*
X195047702Y-236910028D01*
X195047702Y-236910028D02*
X194822924Y-236821261D01*
X194822924Y-236821261D02*
X194592971Y-236743314D01*
X194592971Y-236743314D02*
X194358156Y-236676500D01*
X194358156Y-236676500D02*
X194118793Y-236621131D01*
X194118793Y-236621131D02*
X193875196Y-236577521D01*
X193875196Y-236577521D02*
X193627678Y-236545983D01*
X193627678Y-236545983D02*
X193376553Y-236526830D01*
X193376553Y-236526830D02*
X193122136Y-236520377D01*
X161793471Y-105522861D02*
X162037255Y-105290659D01*
X162037255Y-105290659D02*
X162290424Y-105072060D01*
X162290424Y-105072060D02*
X162552522Y-104867252D01*
X162552522Y-104867252D02*
X162823091Y-104676427D01*
X162823091Y-104676427D02*
X163101674Y-104499775D01*
X163101674Y-104499775D02*
X163387814Y-104337486D01*
X163387814Y-104337486D02*
X163681053Y-104189750D01*
X163681053Y-104189750D02*
X163980934Y-104056757D01*
X163980934Y-104056757D02*
X164287000Y-103938698D01*
X164287000Y-103938698D02*
X164598794Y-103835763D01*
X164598794Y-103835763D02*
X164915859Y-103748142D01*
X164915859Y-103748142D02*
X165237737Y-103676026D01*
X165237737Y-103676026D02*
X165563971Y-103619604D01*
X165563971Y-103619604D02*
X165894104Y-103579067D01*
X165894104Y-103579067D02*
X166227679Y-103554606D01*
X166227679Y-103554606D02*
X166564239Y-103546410D01*
X166564239Y-103546410D02*
X166900278Y-103554575D01*
X166900278Y-103554575D02*
X167233329Y-103578947D01*
X167233329Y-103578947D02*
X167562940Y-103619335D01*
X167562940Y-103619335D02*
X167888657Y-103675549D01*
X167888657Y-103675549D02*
X168210028Y-103747401D01*
X168210028Y-103747401D02*
X168526601Y-103834700D01*
X168526601Y-103834700D02*
X168837922Y-103937258D01*
X168837922Y-103937258D02*
X169143539Y-104054884D01*
X169143539Y-104054884D02*
X169442999Y-104187389D01*
X169442999Y-104187389D02*
X169735850Y-104334584D01*
X169735850Y-104334584D02*
X170021638Y-104496279D01*
X170021638Y-104496279D02*
X170299912Y-104672285D01*
X170299912Y-104672285D02*
X170570218Y-104862412D01*
X170570218Y-104862412D02*
X170832104Y-105066471D01*
X170832104Y-105066471D02*
X171085118Y-105284272D01*
X171085118Y-105284272D02*
X171328806Y-105515626D01*
X197963824Y-266224536D02*
X197990995Y-266020256D01*
X197990995Y-266020256D02*
X198018167Y-265815978D01*
X198018167Y-265815978D02*
X198030708Y-265721696D01*
X195981285Y-267960833D02*
X56358446Y-267960833D01*
X54264806Y-265064372D02*
X54269045Y-265272144D01*
X54269045Y-265272144D02*
X54281762Y-265477924D01*
X54281762Y-265477924D02*
X54302957Y-265681332D01*
X54302957Y-265681332D02*
X54308214Y-265721696D01*
X165200326Y-162498367D02*
X170440316Y-167772808D01*
X172139093Y-86361240D02*
X171868193Y-86440758D01*
X171868193Y-86440758D02*
X171594293Y-86512970D01*
X171594293Y-86512970D02*
X171317497Y-86577762D01*
X171317497Y-86577762D02*
X171037912Y-86635023D01*
X171037912Y-86635023D02*
X170755642Y-86684640D01*
X170755642Y-86684640D02*
X170470794Y-86726501D01*
X170470794Y-86726501D02*
X170183473Y-86760493D01*
X170183473Y-86760493D02*
X169893784Y-86786504D01*
X169893784Y-86786504D02*
X169601833Y-86804421D01*
X169601833Y-86804421D02*
X169307726Y-86814132D01*
X169307726Y-86814132D02*
X169110509Y-86815992D01*
X148820620Y-101479008D02*
X148813936Y-101755931D01*
X148813936Y-101755931D02*
X148794043Y-102030467D01*
X148794043Y-102030467D02*
X148761172Y-102302228D01*
X148761172Y-102302228D02*
X148715557Y-102570826D01*
X148715557Y-102570826D02*
X148657431Y-102835872D01*
X148657431Y-102835872D02*
X148587028Y-103096977D01*
X148587028Y-103096977D02*
X148504581Y-103353755D01*
X148504581Y-103353755D02*
X148410324Y-103605816D01*
X148410324Y-103605816D02*
X148304490Y-103852771D01*
X148304490Y-103852771D02*
X148187311Y-104094233D01*
X148187311Y-104094233D02*
X148103006Y-104251965D01*
X181045698Y-85931981D02*
X180875298Y-85690632D01*
X180875298Y-85690632D02*
X180692195Y-85459562D01*
X180692195Y-85459562D02*
X180496894Y-85239321D01*
X180496894Y-85239321D02*
X180289903Y-85030461D01*
X180289903Y-85030461D02*
X180071726Y-84833534D01*
X180071726Y-84833534D02*
X179842870Y-84649092D01*
X179842870Y-84649092D02*
X179603841Y-84477686D01*
X179603841Y-84477686D02*
X179355146Y-84319870D01*
X179355146Y-84319870D02*
X179097290Y-84176193D01*
X179097290Y-84176193D02*
X178830780Y-84047209D01*
X178830780Y-84047209D02*
X178556122Y-83933469D01*
X178556122Y-83933469D02*
X178273822Y-83835524D01*
X178273822Y-83835524D02*
X177984386Y-83753928D01*
X177984386Y-83753928D02*
X177688321Y-83689231D01*
X177688321Y-83689231D02*
X177386132Y-83641985D01*
X177386132Y-83641985D02*
X177078326Y-83612743D01*
X181706467Y-85126173D02*
X181547081Y-85292563D01*
X181547081Y-85292563D02*
X181395914Y-85464671D01*
X181395914Y-85464671D02*
X181253075Y-85642282D01*
X181253075Y-85642282D02*
X181118671Y-85825178D01*
X181118671Y-85825178D02*
X181045698Y-85931981D01*
X198362815Y-85956097D02*
X198192627Y-85712358D01*
X198192627Y-85712358D02*
X198009520Y-85478968D01*
X198009520Y-85478968D02*
X197814011Y-85256488D01*
X197814011Y-85256488D02*
X197606616Y-85045480D01*
X197606616Y-85045480D02*
X197387853Y-84846505D01*
X197387853Y-84846505D02*
X197158237Y-84660127D01*
X197158237Y-84660127D02*
X196918286Y-84486907D01*
X196918286Y-84486907D02*
X196668517Y-84327406D01*
X196668517Y-84327406D02*
X196409446Y-84182187D01*
X196409446Y-84182187D02*
X196141589Y-84051811D01*
X196141589Y-84051811D02*
X195865465Y-83936841D01*
X195865465Y-83936841D02*
X195581589Y-83837839D01*
X195581589Y-83837839D02*
X195290479Y-83755366D01*
X195290479Y-83755366D02*
X194992650Y-83689984D01*
X194992650Y-83689984D02*
X194688621Y-83642256D01*
X194688621Y-83642256D02*
X194378907Y-83612743D01*
X159194147Y-183026313D02*
X165200326Y-164402127D01*
X193122136Y-236520377D02*
X163065745Y-236520377D01*
X198074116Y-249336133D02*
X198065249Y-249038149D01*
X198065249Y-249038149D02*
X198038988Y-248744759D01*
X198038988Y-248744759D02*
X197995836Y-248456470D01*
X197995836Y-248456470D02*
X197936301Y-248173789D01*
X197936301Y-248173789D02*
X197860887Y-247897225D01*
X197860887Y-247897225D02*
X197770101Y-247627285D01*
X197770101Y-247627285D02*
X197664447Y-247364477D01*
X197664447Y-247364477D02*
X197544432Y-247109309D01*
X197544432Y-247109309D02*
X197410561Y-246862287D01*
X197410561Y-246862287D02*
X197263341Y-246623920D01*
X197263341Y-246623920D02*
X197103275Y-246394716D01*
X197103275Y-246394716D02*
X196930871Y-246175182D01*
X196930871Y-246175182D02*
X196746634Y-245965826D01*
X196746634Y-245965826D02*
X196551070Y-245767155D01*
X196551070Y-245767155D02*
X196344684Y-245579677D01*
X196344684Y-245579677D02*
X196127982Y-245403901D01*
X196127982Y-253267676D02*
X196344684Y-253091899D01*
X196344684Y-253091899D02*
X196551070Y-252904422D01*
X196551070Y-252904422D02*
X196746634Y-252705754D01*
X196746634Y-252705754D02*
X196930871Y-252496404D01*
X196930871Y-252496404D02*
X197103275Y-252276880D01*
X197103275Y-252276880D02*
X197263341Y-252047691D01*
X197263341Y-252047691D02*
X197410561Y-251809346D01*
X197410561Y-251809346D02*
X197544432Y-251562353D01*
X197544432Y-251562353D02*
X197664447Y-251307221D01*
X197664447Y-251307221D02*
X197770101Y-251044458D01*
X197770101Y-251044458D02*
X197860887Y-250774574D01*
X197860887Y-250774574D02*
X197936301Y-250498077D01*
X197936301Y-250498077D02*
X197995836Y-250215475D01*
X197995836Y-250215475D02*
X198038988Y-249927278D01*
X198038988Y-249927278D02*
X198065249Y-249633995D01*
X198065249Y-249633995D02*
X198074116Y-249336133D01*
X171532067Y-88806741D02*
X171537580Y-88563770D01*
X171537580Y-88563770D02*
X171554047Y-88322812D01*
X171554047Y-88322812D02*
X171581356Y-88084149D01*
X171581356Y-88084149D02*
X171619398Y-87848069D01*
X171619398Y-87848069D02*
X171668060Y-87614855D01*
X171668060Y-87614855D02*
X171727233Y-87384794D01*
X171727233Y-87384794D02*
X171796806Y-87158171D01*
X171796806Y-87158171D02*
X171876668Y-86935270D01*
X171876668Y-86935270D02*
X171966708Y-86716378D01*
X171966708Y-86716378D02*
X172066815Y-86501779D01*
X172066815Y-86501779D02*
X172139093Y-86361240D01*
X198030708Y-265721696D02*
X198053446Y-265518807D01*
X198053446Y-265518807D02*
X198067920Y-265313472D01*
X198067920Y-265313472D02*
X198073942Y-265106067D01*
X198073942Y-265106067D02*
X198074116Y-265064372D01*
X56358446Y-267960833D02*
G75*
G02*
X54376325Y-266227657I0J2000000D01*
G01*
X198074116Y-265064372D02*
X198065245Y-264766396D01*
X198065245Y-264766396D02*
X198038974Y-264473026D01*
X198038974Y-264473026D02*
X197995807Y-264184768D01*
X197995807Y-264184768D02*
X197936253Y-263902125D01*
X197936253Y-263902125D02*
X197860818Y-263625603D01*
X197860818Y-263625603D02*
X197770010Y-263355706D01*
X197770010Y-263355706D02*
X197664336Y-263092939D01*
X197664336Y-263092939D02*
X197544303Y-262837806D01*
X197544303Y-262837806D02*
X197410418Y-262590812D01*
X197410418Y-262590812D02*
X197263189Y-262352462D01*
X197263189Y-262352462D02*
X197103123Y-262123260D01*
X197103123Y-262123260D02*
X196930726Y-261903712D01*
X196930726Y-261903712D02*
X196746507Y-261694320D01*
X196746507Y-261694320D02*
X196550971Y-261495592D01*
X196550971Y-261495592D02*
X196344627Y-261308030D01*
X196344627Y-261308030D02*
X196127982Y-261132140D01*
X198074116Y-257200597D02*
X198065249Y-256902499D01*
X198065249Y-256902499D02*
X198038988Y-256609024D01*
X198038988Y-256609024D02*
X197995836Y-256320673D01*
X197995836Y-256320673D02*
X197936301Y-256037952D01*
X197936301Y-256037952D02*
X197860887Y-255761363D01*
X197860887Y-255761363D02*
X197770101Y-255491410D01*
X197770101Y-255491410D02*
X197664447Y-255228597D01*
X197664447Y-255228597D02*
X197544432Y-254973428D01*
X197544432Y-254973428D02*
X197410561Y-254726406D01*
X197410561Y-254726406D02*
X197263341Y-254488034D01*
X197263341Y-254488034D02*
X197103275Y-254258817D01*
X197103275Y-254258817D02*
X196930871Y-254039258D01*
X196930871Y-254039258D02*
X196746634Y-253829861D01*
X196746634Y-253829861D02*
X196551070Y-253631129D01*
X196551070Y-253631129D02*
X196344684Y-253443566D01*
X196344684Y-253443566D02*
X196127982Y-253267676D01*
X169110509Y-86815992D02*
X168813145Y-86811714D01*
X168813145Y-86811714D02*
X168516987Y-86798930D01*
X168516987Y-86798930D02*
X168222192Y-86777711D01*
X168222192Y-86777711D02*
X167928916Y-86748131D01*
X167928916Y-86748131D02*
X167637316Y-86710262D01*
X167637316Y-86710262D02*
X167347547Y-86664175D01*
X167347547Y-86664175D02*
X167059767Y-86609944D01*
X167059767Y-86609944D02*
X166774131Y-86547640D01*
X166774131Y-86547640D02*
X166490797Y-86477337D01*
X166490797Y-86477337D02*
X166209920Y-86399107D01*
X166209920Y-86399107D02*
X165931658Y-86313021D01*
X165931658Y-86313021D02*
X165656166Y-86219153D01*
X165656166Y-86219153D02*
X165383601Y-86117575D01*
X165383601Y-86117575D02*
X165114119Y-86008359D01*
X165114119Y-86008359D02*
X164847877Y-85891578D01*
X164847877Y-85891578D02*
X164585032Y-85767305D01*
X208269187Y-163599419D02*
X207892983Y-88806741D01*
X148820620Y-106831997D02*
X148816589Y-107047743D01*
X148816589Y-107047743D02*
X148804499Y-107261902D01*
X148804499Y-107261902D02*
X148786513Y-107455215D01*
X196127982Y-261132140D02*
X196344627Y-260956370D01*
X196344627Y-260956370D02*
X196550971Y-260768914D01*
X196550971Y-260768914D02*
X196746507Y-260570278D01*
X196746507Y-260570278D02*
X196930726Y-260360965D01*
X196930726Y-260360965D02*
X197103123Y-260141483D01*
X197103123Y-260141483D02*
X197263189Y-259912337D01*
X197263189Y-259912337D02*
X197410418Y-259674032D01*
X197410418Y-259674032D02*
X197544303Y-259427075D01*
X197544303Y-259427075D02*
X197664336Y-259171971D01*
X197664336Y-259171971D02*
X197770010Y-258909225D01*
X197770010Y-258909225D02*
X197860818Y-258639343D01*
X197860818Y-258639343D02*
X197936253Y-258362831D01*
X197936253Y-258362831D02*
X197995807Y-258080195D01*
X197995807Y-258080195D02*
X198038974Y-257791940D01*
X198038974Y-257791940D02*
X198065245Y-257498572D01*
X198065245Y-257498572D02*
X198074116Y-257200597D01*
X164585032Y-85767305D02*
X164369269Y-86315258D01*
X164369269Y-86315258D02*
X164133449Y-86858744D01*
X164133449Y-86858744D02*
X163877758Y-87397579D01*
X163877758Y-87397579D02*
X163602382Y-87931584D01*
X163602382Y-87931584D02*
X163307505Y-88460577D01*
X163307505Y-88460577D02*
X162993314Y-88984377D01*
X162993314Y-88984377D02*
X162659995Y-89502802D01*
X162659995Y-89502802D02*
X162307732Y-90015672D01*
X162307732Y-90015672D02*
X161936712Y-90522806D01*
X161936712Y-90522806D02*
X161547120Y-91024023D01*
X161547120Y-91024023D02*
X161139141Y-91519140D01*
X161139141Y-91519140D02*
X160712963Y-92007979D01*
X160712963Y-92007979D02*
X160268769Y-92490356D01*
X160268769Y-92490356D02*
X159806747Y-92966091D01*
X159806747Y-92966091D02*
X159327081Y-93435003D01*
X159327081Y-93435003D02*
X158829957Y-93896912D01*
X158829957Y-93896912D02*
X158315560Y-94351635D01*
X158315560Y-94351635D02*
X157784077Y-94798991D01*
X157784077Y-94798991D02*
X157235693Y-95238800D01*
X157235693Y-95238800D02*
X156670594Y-95670881D01*
X156670594Y-95670881D02*
X156088965Y-96095052D01*
X156088965Y-96095052D02*
X155490993Y-96511132D01*
X155490993Y-96511132D02*
X154876862Y-96918940D01*
X154876862Y-96918940D02*
X154246758Y-97318295D01*
X154246758Y-97318295D02*
X153600867Y-97709016D01*
X153600867Y-97709016D02*
X152939374Y-98090922D01*
X152939374Y-98090922D02*
X152262466Y-98463832D01*
X152262466Y-98463832D02*
X151570328Y-98827564D01*
X151570328Y-98827564D02*
X150863146Y-99181938D01*
X150863146Y-99181938D02*
X150141104Y-99526772D01*
X150141104Y-99526772D02*
X149404390Y-99861885D01*
X149404390Y-99861885D02*
X148653188Y-100187097D01*
X148653188Y-100187097D02*
X148700617Y-100382871D01*
X148700617Y-100382871D02*
X148740413Y-100581195D01*
X148740413Y-100581195D02*
X148772408Y-100781866D01*
X148772408Y-100781866D02*
X148796438Y-100984685D01*
X148796438Y-100984685D02*
X148812337Y-101189450D01*
X148812337Y-101189450D02*
X148819939Y-101395960D01*
X148819939Y-101395960D02*
X148820620Y-101479008D01*
X185728961Y-83612743D02*
X185525966Y-83603461D01*
X185525966Y-83603461D02*
X185387208Y-83601546D01*
X194037498Y-83601546D02*
X193777826Y-83607864D01*
X193777826Y-83607864D02*
X193520460Y-83626722D01*
X193520460Y-83626722D02*
X193265753Y-83657975D01*
X193265753Y-83657975D02*
X193014056Y-83701478D01*
X193014056Y-83701478D02*
X192765723Y-83757085D01*
X192765723Y-83757085D02*
X192521105Y-83824652D01*
X192521105Y-83824652D02*
X192280554Y-83904033D01*
X192280554Y-83904033D02*
X192044423Y-83995083D01*
X192044423Y-83995083D02*
X191813065Y-84097658D01*
X191813065Y-84097658D02*
X191586830Y-84211612D01*
X191586830Y-84211612D02*
X191366072Y-84336800D01*
X191366072Y-84336800D02*
X191151143Y-84473077D01*
X191151143Y-84473077D02*
X190942394Y-84620298D01*
X190942394Y-84620298D02*
X190740179Y-84778317D01*
X190740179Y-84778317D02*
X190544849Y-84946991D01*
X190544849Y-84946991D02*
X190356758Y-85126173D01*
X165200326Y-164402127D02*
X165200326Y-162498367D01*
X197963824Y-266224536D02*
G75*
G02*
X195981285Y-267960833I-1982539J263703D01*
G01*
X185387208Y-83601546D02*
X185127479Y-83607864D01*
X185127479Y-83607864D02*
X184870071Y-83626722D01*
X184870071Y-83626722D02*
X184615335Y-83657975D01*
X184615335Y-83657975D02*
X184363621Y-83701478D01*
X184363621Y-83701478D02*
X184115280Y-83757085D01*
X184115280Y-83757085D02*
X183870663Y-83824652D01*
X183870663Y-83824652D02*
X183630121Y-83904033D01*
X183630121Y-83904033D02*
X183394004Y-83995083D01*
X183394004Y-83995083D02*
X183162663Y-84097658D01*
X183162663Y-84097658D02*
X182936449Y-84211612D01*
X182936449Y-84211612D02*
X182715712Y-84336800D01*
X182715712Y-84336800D02*
X182500804Y-84473077D01*
X182500804Y-84473077D02*
X182292074Y-84620298D01*
X182292074Y-84620298D02*
X182089874Y-84778317D01*
X182089874Y-84778317D02*
X181894555Y-84946991D01*
X181894555Y-84946991D02*
X181706467Y-85126173D01*
X189696333Y-85931981D02*
X189525876Y-85690632D01*
X189525876Y-85690632D02*
X189342731Y-85459562D01*
X189342731Y-85459562D02*
X189147402Y-85239321D01*
X189147402Y-85239321D02*
X188940393Y-85030461D01*
X188940393Y-85030461D02*
X188722208Y-84833534D01*
X188722208Y-84833534D02*
X188493354Y-84649092D01*
X188493354Y-84649092D02*
X188254333Y-84477686D01*
X188254333Y-84477686D02*
X188005652Y-84319870D01*
X188005652Y-84319870D02*
X187747814Y-84176193D01*
X187747814Y-84176193D02*
X187481325Y-84047209D01*
X187481325Y-84047209D02*
X187206688Y-83933469D01*
X187206688Y-83933469D02*
X186924409Y-83835524D01*
X186924409Y-83835524D02*
X186634992Y-83753928D01*
X186634992Y-83753928D02*
X186338942Y-83689231D01*
X186338942Y-83689231D02*
X186036763Y-83641985D01*
X186036763Y-83641985D02*
X185728961Y-83612743D01*
X194378907Y-83612743D02*
X194176280Y-83603461D01*
X194176280Y-83603461D02*
X194037498Y-83601546D01*
X202687788Y-83601546D02*
X202485335Y-83605592D01*
X202485335Y-83605592D02*
X202346724Y-83612743D01*
X189123758Y-182745193D02*
X190107490Y-182720233D01*
X190107490Y-182720233D02*
X191078478Y-182646161D01*
X191078478Y-182646161D02*
X192035509Y-182524189D01*
X192035509Y-182524189D02*
X192977371Y-182355531D01*
X192977371Y-182355531D02*
X193902851Y-182141397D01*
X193902851Y-182141397D02*
X194810738Y-181882999D01*
X194810738Y-181882999D02*
X195699820Y-181581551D01*
X195699820Y-181581551D02*
X196568883Y-181238265D01*
X196568883Y-181238265D02*
X197416717Y-180854351D01*
X197416717Y-180854351D02*
X198242107Y-180431024D01*
X198242107Y-180431024D02*
X199043843Y-179969494D01*
X199043843Y-179969494D02*
X199820712Y-179470974D01*
X199820712Y-179470974D02*
X200571502Y-178936676D01*
X200571502Y-178936676D02*
X201295001Y-178367812D01*
X201295001Y-178367812D02*
X201989995Y-177765595D01*
X201989995Y-177765595D02*
X202655274Y-177131237D01*
X202655274Y-177131237D02*
X203289625Y-176465950D01*
X203289625Y-176465950D02*
X203891835Y-175770945D01*
X203891835Y-175770945D02*
X204460693Y-175047436D01*
X204460693Y-175047436D02*
X204994986Y-174296634D01*
X204994986Y-174296634D02*
X205493502Y-173519752D01*
X205493502Y-173519752D02*
X205955028Y-172718001D01*
X205955028Y-172718001D02*
X206378353Y-171892594D01*
X206378353Y-171892594D02*
X206762264Y-171044744D01*
X206762264Y-171044744D02*
X207105549Y-170175661D01*
X207105549Y-170175661D02*
X207406996Y-169286559D01*
X207406996Y-169286559D02*
X207665392Y-168378650D01*
X207665392Y-168378650D02*
X207879525Y-167453146D01*
X207879525Y-167453146D02*
X208048184Y-166511258D01*
X208048184Y-166511258D02*
X208170155Y-165554199D01*
X208170155Y-165554199D02*
X208244227Y-164583182D01*
X208244227Y-164583182D02*
X208269187Y-163599419D01*
X171328806Y-105515626D02*
X171532067Y-105714580D01*
X171532067Y-105714580D02*
X171532067Y-88806741D01*
X148103006Y-104251965D02*
X148226662Y-104470198D01*
X148226662Y-104470198D02*
X148339505Y-104694514D01*
X148339505Y-104694514D02*
X148441239Y-104924501D01*
X148441239Y-104924501D02*
X148531571Y-105159746D01*
X148531571Y-105159746D02*
X148610205Y-105399837D01*
X148610205Y-105399837D02*
X148676847Y-105644362D01*
X148676847Y-105644362D02*
X148731201Y-105892909D01*
X148731201Y-105892909D02*
X148772975Y-106145066D01*
X148772975Y-106145066D02*
X148801872Y-106400420D01*
X148801872Y-106400420D02*
X148817598Y-106658560D01*
X148817598Y-106658560D02*
X148820620Y-106831997D01*
X159904053Y-261757324D02*
G75*
G02*
X159441610Y-262294246I-498536J-38227D01*
G01*
X158926016Y-255513819D02*
G75*
G02*
X159460627Y-255974289I36074J-498697D01*
G01*
X123439289Y-228590833D02*
G75*
G02*
X123939289Y-228090833I500000J0D01*
G01*
X99008018Y-193442892D02*
G75*
G02*
X98473235Y-193905488I-498695J36100D01*
G01*
X123419289Y-263710833D02*
X123419289Y-263210833D01*
X123439289Y-229090833D02*
X123439289Y-228590833D01*
X97874800Y-193862183D02*
G75*
G02*
X97412192Y-193327388I36087J498696D01*
G01*
X123939289Y-229590833D02*
G75*
G02*
X123439289Y-229090833I0J500000D01*
G01*
X128939289Y-229090833D02*
X128939289Y-228590833D01*
X97830942Y-187542536D02*
X97412192Y-193327388D01*
X128439289Y-228090833D02*
G75*
G02*
X128939289Y-228590833I0J-500000D01*
G01*
X158926017Y-255513819D02*
X158354474Y-255555161D01*
X128939289Y-229090833D02*
G75*
G02*
X128439289Y-229590833I-500000J0D01*
G01*
X159460627Y-255974289D02*
X159904054Y-261757324D01*
X153892342Y-193903501D02*
G75*
G02*
X153357553Y-193440898I-36093J498696D01*
G01*
X98473235Y-193905488D02*
X97874800Y-193862183D01*
X128419289Y-262710833D02*
G75*
G02*
X128919289Y-263210833I0J-500000D01*
G01*
X158845314Y-262337402D02*
G75*
G02*
X158310526Y-261874800I-36093J498695D01*
G01*
X123919289Y-264210833D02*
X128419289Y-264210833D01*
X128919289Y-263710833D02*
X128919289Y-263210833D01*
X123919289Y-262710833D02*
X128419289Y-262710833D01*
X128919289Y-263710833D02*
G75*
G02*
X128419289Y-264210833I-500000J0D01*
G01*
X97830942Y-187542536D02*
G75*
G02*
X98365736Y-187079940I498695J-36099D01*
G01*
X98964170Y-187123259D02*
X98365736Y-187079940D01*
X157891851Y-256089951D02*
X158310526Y-261874800D01*
X123419289Y-263210833D02*
G75*
G02*
X123919289Y-262710833I500000J0D01*
G01*
X98964170Y-187123259D02*
G75*
G02*
X99426766Y-187658053I-36099J-498695D01*
G01*
X99426766Y-187658053D02*
X99008018Y-193442891D01*
X123919289Y-264210833D02*
G75*
G02*
X123419289Y-263710833I0J500000D01*
G01*
X157891851Y-256089951D02*
G75*
G02*
X158354474Y-255555161I498696J36093D01*
G01*
X123939289Y-229590833D02*
X128439289Y-229590833D01*
X159441610Y-262294246D02*
X158845314Y-262337403D01*
X123939289Y-228090833D02*
X128439289Y-228090833D01*
M02*
