G04 #@! TF.GenerationSoftware,KiCad,Pcbnew,(5.1.10)-1*
G04 #@! TF.CreationDate,2021-11-11T13:48:34+02:00*
G04 #@! TF.ProjectId,airguard_v1,61697267-7561-4726-945f-76312e6b6963,rev?*
G04 #@! TF.SameCoordinates,Original*
G04 #@! TF.FileFunction,Soldermask,Bot*
G04 #@! TF.FilePolarity,Negative*
%FSLAX46Y46*%
G04 Gerber Fmt 4.6, Leading zero omitted, Abs format (unit mm)*
G04 Created by KiCad (PCBNEW (5.1.10)-1) date 2021-11-11 13:48:34*
%MOMM*%
%LPD*%
G01*
G04 APERTURE LIST*
%ADD10C,0.010000*%
%ADD11C,2.400000*%
%ADD12C,1.900000*%
%ADD13C,2.200000*%
%ADD14O,2.000000X2.000000*%
%ADD15C,2.000000*%
%ADD16C,1.920000*%
%ADD17O,2.000000X2.400000*%
%ADD18C,2.899360*%
G04 APERTURE END LIST*
D10*
G04 #@! TO.C,G\u002A\u002A\u002A*
G36*
X148533731Y-31524291D02*
G01*
X148528315Y-31549603D01*
X148514209Y-31614891D01*
X148491715Y-31718763D01*
X148461136Y-31859827D01*
X148422773Y-32036692D01*
X148376929Y-32247967D01*
X148323906Y-32492259D01*
X148264007Y-32768178D01*
X148197533Y-33074332D01*
X148124787Y-33409328D01*
X148046071Y-33771776D01*
X147961688Y-34160285D01*
X147871939Y-34573461D01*
X147777127Y-35009915D01*
X147677554Y-35468253D01*
X147573522Y-35947086D01*
X147465334Y-36445021D01*
X147353292Y-36960666D01*
X147237698Y-37492631D01*
X147118855Y-38039522D01*
X146997064Y-38599950D01*
X146872627Y-39172522D01*
X146745848Y-39755847D01*
X146700499Y-39964500D01*
X146564615Y-40589757D01*
X146427235Y-41222021D01*
X146288854Y-41859013D01*
X146149965Y-42498456D01*
X146011063Y-43138074D01*
X145872640Y-43775589D01*
X145735192Y-44408725D01*
X145599212Y-45035203D01*
X145465194Y-45652748D01*
X145333632Y-46259082D01*
X145205020Y-46851928D01*
X145079852Y-47429009D01*
X144958621Y-47988048D01*
X144841822Y-48526768D01*
X144729949Y-49042891D01*
X144623495Y-49534141D01*
X144522955Y-49998241D01*
X144428822Y-50432913D01*
X144341591Y-50835880D01*
X144261754Y-51204867D01*
X144189807Y-51537594D01*
X144126243Y-51831786D01*
X144112117Y-51897208D01*
X143343239Y-55458500D01*
X144566869Y-55458500D01*
X144790101Y-55458411D01*
X145000208Y-55458155D01*
X145193462Y-55457748D01*
X145366135Y-55457207D01*
X145514497Y-55456547D01*
X145634822Y-55455784D01*
X145723379Y-55454935D01*
X145776441Y-55454016D01*
X145790854Y-55453208D01*
X145795503Y-55432324D01*
X145809012Y-55372494D01*
X145830850Y-55276051D01*
X145860488Y-55145328D01*
X145897397Y-54982656D01*
X145941046Y-54790370D01*
X145990906Y-54570801D01*
X146046447Y-54326283D01*
X146107139Y-54059148D01*
X146172452Y-53771730D01*
X146241857Y-53466360D01*
X146314823Y-53145372D01*
X146390821Y-52811099D01*
X146452929Y-52537959D01*
X147114649Y-49628002D01*
X147209283Y-49634040D01*
X147249791Y-49637124D01*
X147327694Y-49643520D01*
X147438217Y-49652823D01*
X147576587Y-49664621D01*
X147738029Y-49678508D01*
X147917768Y-49694075D01*
X148111030Y-49710912D01*
X148256416Y-49723641D01*
X150887540Y-49972520D01*
X153493411Y-50255297D01*
X156074167Y-50571996D01*
X158629947Y-50922641D01*
X161160888Y-51307257D01*
X163667127Y-51725866D01*
X166148803Y-52178494D01*
X168606053Y-52665164D01*
X171039015Y-53185900D01*
X173447827Y-53740726D01*
X175832627Y-54329666D01*
X178080250Y-54921915D01*
X178241689Y-54965921D01*
X178419981Y-55014772D01*
X178609893Y-55067015D01*
X178806196Y-55121194D01*
X179003658Y-55175856D01*
X179197048Y-55229546D01*
X179381134Y-55280809D01*
X179550686Y-55328191D01*
X179700473Y-55370237D01*
X179825263Y-55405493D01*
X179919826Y-55432505D01*
X179978930Y-55449817D01*
X179979958Y-55450128D01*
X179985546Y-55453499D01*
X179990543Y-55461534D01*
X179994983Y-55476472D01*
X179998898Y-55500553D01*
X180002322Y-55536017D01*
X180005286Y-55585103D01*
X180007825Y-55650052D01*
X180009970Y-55733102D01*
X180011754Y-55836494D01*
X180013210Y-55962467D01*
X180014372Y-56113261D01*
X180015271Y-56291116D01*
X180015941Y-56498271D01*
X180016415Y-56736967D01*
X180016724Y-57009442D01*
X180016903Y-57317936D01*
X180016984Y-57664690D01*
X180017000Y-57978759D01*
X180017000Y-60496166D01*
X73379333Y-60496166D01*
X73379333Y-55461503D01*
X73490458Y-55429813D01*
X73625008Y-55392425D01*
X73796312Y-55346416D01*
X73999924Y-55292897D01*
X74231398Y-55232975D01*
X74486289Y-55167762D01*
X74760149Y-55098365D01*
X75048534Y-55025896D01*
X75346996Y-54951463D01*
X75651091Y-54876175D01*
X75956373Y-54801142D01*
X76258394Y-54727474D01*
X76552710Y-54656280D01*
X76834874Y-54588670D01*
X77100440Y-54525752D01*
X77305750Y-54477732D01*
X79147450Y-54060337D01*
X81026717Y-53654854D01*
X82940342Y-53261819D01*
X84885116Y-52881768D01*
X86857829Y-52515237D01*
X88855273Y-52162761D01*
X90874239Y-51824876D01*
X92911517Y-51502119D01*
X94963898Y-51195025D01*
X97028173Y-50904130D01*
X99101134Y-50629971D01*
X101179570Y-50373082D01*
X103260273Y-50134001D01*
X103425416Y-50115804D01*
X103727801Y-50082768D01*
X104028577Y-50050246D01*
X104324794Y-50018537D01*
X104613503Y-49987941D01*
X104891754Y-49958755D01*
X105156596Y-49931279D01*
X105405081Y-49905811D01*
X105634258Y-49882650D01*
X105841178Y-49862095D01*
X106022891Y-49844445D01*
X106176446Y-49829998D01*
X106298895Y-49819053D01*
X106387287Y-49811908D01*
X106438672Y-49808863D01*
X106451100Y-49809378D01*
X106456348Y-49830407D01*
X106470001Y-49889895D01*
X106491422Y-49984944D01*
X106519975Y-50112657D01*
X106555022Y-50270138D01*
X106595928Y-50454487D01*
X106642055Y-50662808D01*
X106692767Y-50892203D01*
X106747428Y-51139774D01*
X106805400Y-51402625D01*
X106866047Y-51677858D01*
X106928732Y-51962575D01*
X106992819Y-52253879D01*
X107057671Y-52548872D01*
X107122651Y-52844657D01*
X107187123Y-53138336D01*
X107250450Y-53427012D01*
X107311996Y-53707788D01*
X107371123Y-53977765D01*
X107427195Y-54234047D01*
X107479576Y-54473736D01*
X107527628Y-54693935D01*
X107570716Y-54891745D01*
X107608202Y-55064270D01*
X107639449Y-55208612D01*
X107663822Y-55321873D01*
X107680684Y-55401157D01*
X107689397Y-55443565D01*
X107690500Y-55450021D01*
X107711032Y-55451599D01*
X107770094Y-55453081D01*
X107863882Y-55454441D01*
X107988591Y-55455650D01*
X108140419Y-55456681D01*
X108315560Y-55457508D01*
X108510211Y-55458101D01*
X108720569Y-55458435D01*
X108865250Y-55458500D01*
X109125782Y-55458333D01*
X109346857Y-55457791D01*
X109531349Y-55456804D01*
X109682131Y-55455306D01*
X109802079Y-55453229D01*
X109894067Y-55450507D01*
X109960969Y-55447072D01*
X110005659Y-55442857D01*
X110031012Y-55437795D01*
X110039902Y-55431818D01*
X110040000Y-55431032D01*
X110035469Y-55401229D01*
X110022090Y-55331560D01*
X110000185Y-55223488D01*
X109970072Y-55078474D01*
X109932074Y-54897983D01*
X109886509Y-54683475D01*
X109833699Y-54436414D01*
X109773963Y-54158263D01*
X109707623Y-53850484D01*
X109634999Y-53514539D01*
X109556412Y-53151892D01*
X109472180Y-52764004D01*
X109382626Y-52352338D01*
X109288070Y-51918358D01*
X109188831Y-51463524D01*
X109085231Y-50989301D01*
X108977590Y-50497151D01*
X108866228Y-49988535D01*
X108751466Y-49464918D01*
X108633624Y-48927761D01*
X108513023Y-48378526D01*
X108389983Y-47818678D01*
X108264824Y-47249677D01*
X108137868Y-46672987D01*
X108009433Y-46090070D01*
X107879842Y-45502389D01*
X107749414Y-44911407D01*
X107618469Y-44318585D01*
X107487329Y-43725387D01*
X107356313Y-43133275D01*
X107225742Y-42543712D01*
X107095937Y-41958160D01*
X106967218Y-41378082D01*
X106839904Y-40804941D01*
X106714318Y-40240198D01*
X106590779Y-39685317D01*
X106559140Y-39543322D01*
X106431262Y-38969425D01*
X106305744Y-38405979D01*
X106182900Y-37854393D01*
X106063043Y-37316078D01*
X105946486Y-36792443D01*
X105833542Y-36284897D01*
X105724523Y-35794850D01*
X105619743Y-35323711D01*
X105519515Y-34872890D01*
X105424152Y-34443797D01*
X105333967Y-34037841D01*
X105249273Y-33656431D01*
X105170382Y-33300977D01*
X105097608Y-32972889D01*
X105031264Y-32673576D01*
X104971663Y-32404448D01*
X104919118Y-32166913D01*
X104873941Y-31962383D01*
X104836447Y-31792265D01*
X104806947Y-31657970D01*
X104785755Y-31560908D01*
X104773184Y-31502487D01*
X104769500Y-31484114D01*
X104774618Y-31482571D01*
X104790444Y-31481083D01*
X104817681Y-31479648D01*
X104857034Y-31478266D01*
X104909207Y-31476936D01*
X104974904Y-31475656D01*
X105054831Y-31474426D01*
X105149691Y-31473245D01*
X105260188Y-31472112D01*
X105387027Y-31471026D01*
X105530913Y-31469986D01*
X105692550Y-31468992D01*
X105872641Y-31468041D01*
X106071892Y-31467134D01*
X106291008Y-31466270D01*
X106530691Y-31465447D01*
X106791647Y-31464664D01*
X107074580Y-31463921D01*
X107380195Y-31463218D01*
X107709195Y-31462551D01*
X108062286Y-31461922D01*
X108440171Y-31461329D01*
X108843555Y-31460771D01*
X109273142Y-31460247D01*
X109729637Y-31459756D01*
X110213744Y-31459298D01*
X110726167Y-31458871D01*
X111267612Y-31458474D01*
X111838781Y-31458107D01*
X112440380Y-31457769D01*
X113073113Y-31457459D01*
X113737685Y-31457175D01*
X114434799Y-31456917D01*
X115165160Y-31456684D01*
X115929472Y-31456475D01*
X116728441Y-31456289D01*
X117562769Y-31456126D01*
X118433162Y-31455983D01*
X119340324Y-31455861D01*
X120284960Y-31455759D01*
X121267773Y-31455675D01*
X122289468Y-31455608D01*
X123350750Y-31455558D01*
X124452322Y-31455524D01*
X125594890Y-31455505D01*
X126658479Y-31455500D01*
X148547458Y-31455500D01*
X148533731Y-31524291D01*
G37*
X148533731Y-31524291D02*
X148528315Y-31549603D01*
X148514209Y-31614891D01*
X148491715Y-31718763D01*
X148461136Y-31859827D01*
X148422773Y-32036692D01*
X148376929Y-32247967D01*
X148323906Y-32492259D01*
X148264007Y-32768178D01*
X148197533Y-33074332D01*
X148124787Y-33409328D01*
X148046071Y-33771776D01*
X147961688Y-34160285D01*
X147871939Y-34573461D01*
X147777127Y-35009915D01*
X147677554Y-35468253D01*
X147573522Y-35947086D01*
X147465334Y-36445021D01*
X147353292Y-36960666D01*
X147237698Y-37492631D01*
X147118855Y-38039522D01*
X146997064Y-38599950D01*
X146872627Y-39172522D01*
X146745848Y-39755847D01*
X146700499Y-39964500D01*
X146564615Y-40589757D01*
X146427235Y-41222021D01*
X146288854Y-41859013D01*
X146149965Y-42498456D01*
X146011063Y-43138074D01*
X145872640Y-43775589D01*
X145735192Y-44408725D01*
X145599212Y-45035203D01*
X145465194Y-45652748D01*
X145333632Y-46259082D01*
X145205020Y-46851928D01*
X145079852Y-47429009D01*
X144958621Y-47988048D01*
X144841822Y-48526768D01*
X144729949Y-49042891D01*
X144623495Y-49534141D01*
X144522955Y-49998241D01*
X144428822Y-50432913D01*
X144341591Y-50835880D01*
X144261754Y-51204867D01*
X144189807Y-51537594D01*
X144126243Y-51831786D01*
X144112117Y-51897208D01*
X143343239Y-55458500D01*
X144566869Y-55458500D01*
X144790101Y-55458411D01*
X145000208Y-55458155D01*
X145193462Y-55457748D01*
X145366135Y-55457207D01*
X145514497Y-55456547D01*
X145634822Y-55455784D01*
X145723379Y-55454935D01*
X145776441Y-55454016D01*
X145790854Y-55453208D01*
X145795503Y-55432324D01*
X145809012Y-55372494D01*
X145830850Y-55276051D01*
X145860488Y-55145328D01*
X145897397Y-54982656D01*
X145941046Y-54790370D01*
X145990906Y-54570801D01*
X146046447Y-54326283D01*
X146107139Y-54059148D01*
X146172452Y-53771730D01*
X146241857Y-53466360D01*
X146314823Y-53145372D01*
X146390821Y-52811099D01*
X146452929Y-52537959D01*
X147114649Y-49628002D01*
X147209283Y-49634040D01*
X147249791Y-49637124D01*
X147327694Y-49643520D01*
X147438217Y-49652823D01*
X147576587Y-49664621D01*
X147738029Y-49678508D01*
X147917768Y-49694075D01*
X148111030Y-49710912D01*
X148256416Y-49723641D01*
X150887540Y-49972520D01*
X153493411Y-50255297D01*
X156074167Y-50571996D01*
X158629947Y-50922641D01*
X161160888Y-51307257D01*
X163667127Y-51725866D01*
X166148803Y-52178494D01*
X168606053Y-52665164D01*
X171039015Y-53185900D01*
X173447827Y-53740726D01*
X175832627Y-54329666D01*
X178080250Y-54921915D01*
X178241689Y-54965921D01*
X178419981Y-55014772D01*
X178609893Y-55067015D01*
X178806196Y-55121194D01*
X179003658Y-55175856D01*
X179197048Y-55229546D01*
X179381134Y-55280809D01*
X179550686Y-55328191D01*
X179700473Y-55370237D01*
X179825263Y-55405493D01*
X179919826Y-55432505D01*
X179978930Y-55449817D01*
X179979958Y-55450128D01*
X179985546Y-55453499D01*
X179990543Y-55461534D01*
X179994983Y-55476472D01*
X179998898Y-55500553D01*
X180002322Y-55536017D01*
X180005286Y-55585103D01*
X180007825Y-55650052D01*
X180009970Y-55733102D01*
X180011754Y-55836494D01*
X180013210Y-55962467D01*
X180014372Y-56113261D01*
X180015271Y-56291116D01*
X180015941Y-56498271D01*
X180016415Y-56736967D01*
X180016724Y-57009442D01*
X180016903Y-57317936D01*
X180016984Y-57664690D01*
X180017000Y-57978759D01*
X180017000Y-60496166D01*
X73379333Y-60496166D01*
X73379333Y-55461503D01*
X73490458Y-55429813D01*
X73625008Y-55392425D01*
X73796312Y-55346416D01*
X73999924Y-55292897D01*
X74231398Y-55232975D01*
X74486289Y-55167762D01*
X74760149Y-55098365D01*
X75048534Y-55025896D01*
X75346996Y-54951463D01*
X75651091Y-54876175D01*
X75956373Y-54801142D01*
X76258394Y-54727474D01*
X76552710Y-54656280D01*
X76834874Y-54588670D01*
X77100440Y-54525752D01*
X77305750Y-54477732D01*
X79147450Y-54060337D01*
X81026717Y-53654854D01*
X82940342Y-53261819D01*
X84885116Y-52881768D01*
X86857829Y-52515237D01*
X88855273Y-52162761D01*
X90874239Y-51824876D01*
X92911517Y-51502119D01*
X94963898Y-51195025D01*
X97028173Y-50904130D01*
X99101134Y-50629971D01*
X101179570Y-50373082D01*
X103260273Y-50134001D01*
X103425416Y-50115804D01*
X103727801Y-50082768D01*
X104028577Y-50050246D01*
X104324794Y-50018537D01*
X104613503Y-49987941D01*
X104891754Y-49958755D01*
X105156596Y-49931279D01*
X105405081Y-49905811D01*
X105634258Y-49882650D01*
X105841178Y-49862095D01*
X106022891Y-49844445D01*
X106176446Y-49829998D01*
X106298895Y-49819053D01*
X106387287Y-49811908D01*
X106438672Y-49808863D01*
X106451100Y-49809378D01*
X106456348Y-49830407D01*
X106470001Y-49889895D01*
X106491422Y-49984944D01*
X106519975Y-50112657D01*
X106555022Y-50270138D01*
X106595928Y-50454487D01*
X106642055Y-50662808D01*
X106692767Y-50892203D01*
X106747428Y-51139774D01*
X106805400Y-51402625D01*
X106866047Y-51677858D01*
X106928732Y-51962575D01*
X106992819Y-52253879D01*
X107057671Y-52548872D01*
X107122651Y-52844657D01*
X107187123Y-53138336D01*
X107250450Y-53427012D01*
X107311996Y-53707788D01*
X107371123Y-53977765D01*
X107427195Y-54234047D01*
X107479576Y-54473736D01*
X107527628Y-54693935D01*
X107570716Y-54891745D01*
X107608202Y-55064270D01*
X107639449Y-55208612D01*
X107663822Y-55321873D01*
X107680684Y-55401157D01*
X107689397Y-55443565D01*
X107690500Y-55450021D01*
X107711032Y-55451599D01*
X107770094Y-55453081D01*
X107863882Y-55454441D01*
X107988591Y-55455650D01*
X108140419Y-55456681D01*
X108315560Y-55457508D01*
X108510211Y-55458101D01*
X108720569Y-55458435D01*
X108865250Y-55458500D01*
X109125782Y-55458333D01*
X109346857Y-55457791D01*
X109531349Y-55456804D01*
X109682131Y-55455306D01*
X109802079Y-55453229D01*
X109894067Y-55450507D01*
X109960969Y-55447072D01*
X110005659Y-55442857D01*
X110031012Y-55437795D01*
X110039902Y-55431818D01*
X110040000Y-55431032D01*
X110035469Y-55401229D01*
X110022090Y-55331560D01*
X110000185Y-55223488D01*
X109970072Y-55078474D01*
X109932074Y-54897983D01*
X109886509Y-54683475D01*
X109833699Y-54436414D01*
X109773963Y-54158263D01*
X109707623Y-53850484D01*
X109634999Y-53514539D01*
X109556412Y-53151892D01*
X109472180Y-52764004D01*
X109382626Y-52352338D01*
X109288070Y-51918358D01*
X109188831Y-51463524D01*
X109085231Y-50989301D01*
X108977590Y-50497151D01*
X108866228Y-49988535D01*
X108751466Y-49464918D01*
X108633624Y-48927761D01*
X108513023Y-48378526D01*
X108389983Y-47818678D01*
X108264824Y-47249677D01*
X108137868Y-46672987D01*
X108009433Y-46090070D01*
X107879842Y-45502389D01*
X107749414Y-44911407D01*
X107618469Y-44318585D01*
X107487329Y-43725387D01*
X107356313Y-43133275D01*
X107225742Y-42543712D01*
X107095937Y-41958160D01*
X106967218Y-41378082D01*
X106839904Y-40804941D01*
X106714318Y-40240198D01*
X106590779Y-39685317D01*
X106559140Y-39543322D01*
X106431262Y-38969425D01*
X106305744Y-38405979D01*
X106182900Y-37854393D01*
X106063043Y-37316078D01*
X105946486Y-36792443D01*
X105833542Y-36284897D01*
X105724523Y-35794850D01*
X105619743Y-35323711D01*
X105519515Y-34872890D01*
X105424152Y-34443797D01*
X105333967Y-34037841D01*
X105249273Y-33656431D01*
X105170382Y-33300977D01*
X105097608Y-32972889D01*
X105031264Y-32673576D01*
X104971663Y-32404448D01*
X104919118Y-32166913D01*
X104873941Y-31962383D01*
X104836447Y-31792265D01*
X104806947Y-31657970D01*
X104785755Y-31560908D01*
X104773184Y-31502487D01*
X104769500Y-31484114D01*
X104774618Y-31482571D01*
X104790444Y-31481083D01*
X104817681Y-31479648D01*
X104857034Y-31478266D01*
X104909207Y-31476936D01*
X104974904Y-31475656D01*
X105054831Y-31474426D01*
X105149691Y-31473245D01*
X105260188Y-31472112D01*
X105387027Y-31471026D01*
X105530913Y-31469986D01*
X105692550Y-31468992D01*
X105872641Y-31468041D01*
X106071892Y-31467134D01*
X106291008Y-31466270D01*
X106530691Y-31465447D01*
X106791647Y-31464664D01*
X107074580Y-31463921D01*
X107380195Y-31463218D01*
X107709195Y-31462551D01*
X108062286Y-31461922D01*
X108440171Y-31461329D01*
X108843555Y-31460771D01*
X109273142Y-31460247D01*
X109729637Y-31459756D01*
X110213744Y-31459298D01*
X110726167Y-31458871D01*
X111267612Y-31458474D01*
X111838781Y-31458107D01*
X112440380Y-31457769D01*
X113073113Y-31457459D01*
X113737685Y-31457175D01*
X114434799Y-31456917D01*
X115165160Y-31456684D01*
X115929472Y-31456475D01*
X116728441Y-31456289D01*
X117562769Y-31456126D01*
X118433162Y-31455983D01*
X119340324Y-31455861D01*
X120284960Y-31455759D01*
X121267773Y-31455675D01*
X122289468Y-31455608D01*
X123350750Y-31455558D01*
X124452322Y-31455524D01*
X125594890Y-31455505D01*
X126658479Y-31455500D01*
X148547458Y-31455500D01*
X148533731Y-31524291D01*
G36*
X107888996Y-98587289D02*
G01*
X107962686Y-98617798D01*
X107968230Y-98620192D01*
X107974655Y-98622493D01*
X107982786Y-98624703D01*
X107993451Y-98626823D01*
X108007477Y-98628856D01*
X108025690Y-98630804D01*
X108048916Y-98632667D01*
X108077984Y-98634449D01*
X108113720Y-98636150D01*
X108156950Y-98637773D01*
X108208501Y-98639320D01*
X108269201Y-98640792D01*
X108339876Y-98642191D01*
X108421352Y-98643519D01*
X108514457Y-98644778D01*
X108620017Y-98645970D01*
X108738860Y-98647097D01*
X108871812Y-98648160D01*
X109019699Y-98649162D01*
X109183349Y-98650103D01*
X109363589Y-98650987D01*
X109561245Y-98651814D01*
X109777144Y-98652587D01*
X110012113Y-98653308D01*
X110266978Y-98653978D01*
X110542568Y-98654599D01*
X110839707Y-98655173D01*
X111159224Y-98655702D01*
X111501944Y-98656188D01*
X111868696Y-98656633D01*
X112260305Y-98657037D01*
X112677598Y-98657405D01*
X113121403Y-98657736D01*
X113592546Y-98658033D01*
X114091853Y-98658298D01*
X114620153Y-98658533D01*
X115178270Y-98658739D01*
X115767033Y-98658919D01*
X116387268Y-98659073D01*
X117039802Y-98659205D01*
X117725462Y-98659316D01*
X118445074Y-98659407D01*
X119199466Y-98659481D01*
X119989463Y-98659539D01*
X120815894Y-98659584D01*
X121679585Y-98659617D01*
X122581362Y-98659639D01*
X123522052Y-98659654D01*
X124502483Y-98659662D01*
X125523480Y-98659665D01*
X126585872Y-98659666D01*
X145412865Y-98659666D01*
X145603670Y-98754477D01*
X145886072Y-98917937D01*
X146142523Y-99113689D01*
X146371010Y-99339112D01*
X146569516Y-99591581D01*
X146736028Y-99868472D01*
X146868531Y-100167163D01*
X146965009Y-100485029D01*
X146978572Y-100544905D01*
X147011897Y-100757200D01*
X147028054Y-100994778D01*
X147027158Y-101244276D01*
X147009324Y-101492331D01*
X146974668Y-101725582D01*
X146968120Y-101758015D01*
X146870263Y-102126714D01*
X146735597Y-102476876D01*
X146565289Y-102806258D01*
X146360507Y-103112615D01*
X146122418Y-103393702D01*
X146111113Y-103405541D01*
X145985721Y-103528633D01*
X145846403Y-103652678D01*
X145703291Y-103769430D01*
X145566515Y-103870644D01*
X145446208Y-103948076D01*
X145440312Y-103951457D01*
X145354708Y-104000180D01*
X145542868Y-104094373D01*
X145813893Y-104252982D01*
X146067793Y-104447022D01*
X146300465Y-104671642D01*
X146507802Y-104921991D01*
X146685700Y-105193219D01*
X146830053Y-105480474D01*
X146919366Y-105720915D01*
X146994879Y-106031123D01*
X147031735Y-106353447D01*
X147030337Y-106683684D01*
X146991088Y-107017630D01*
X146914391Y-107351078D01*
X146800650Y-107679826D01*
X146712527Y-107877750D01*
X146534065Y-108199071D01*
X146321796Y-108496361D01*
X146075100Y-108770251D01*
X145793359Y-109021374D01*
X145475955Y-109250363D01*
X145219650Y-109404877D01*
X144998050Y-109528750D01*
X108434932Y-109539406D01*
X108205591Y-109424362D01*
X107867430Y-109233388D01*
X107560715Y-109015895D01*
X107286420Y-108772959D01*
X107045521Y-108505657D01*
X106838992Y-108215064D01*
X106667809Y-107902258D01*
X106538309Y-107584034D01*
X106453736Y-107287978D01*
X106396112Y-106975272D01*
X106366277Y-106656522D01*
X106365068Y-106342335D01*
X106393323Y-106043320D01*
X106409244Y-105949842D01*
X106489058Y-105638337D01*
X106605585Y-105339104D01*
X106755858Y-105056190D01*
X106936908Y-104793644D01*
X107145769Y-104555514D01*
X107379474Y-104345847D01*
X107635055Y-104168693D01*
X107769779Y-104093749D01*
X107867910Y-104040835D01*
X107926597Y-104002973D01*
X107945806Y-103980187D01*
X107925508Y-103972500D01*
X107925166Y-103972500D01*
X107901054Y-103960594D01*
X107851258Y-103928452D01*
X107783810Y-103881437D01*
X107729374Y-103841792D01*
X107464608Y-103622481D01*
X107226583Y-103378498D01*
X107015963Y-103113195D01*
X106833408Y-102829922D01*
X106679582Y-102532028D01*
X106555148Y-102222864D01*
X106460768Y-101905780D01*
X106397104Y-101584127D01*
X106364819Y-101261253D01*
X106364575Y-100940511D01*
X106397036Y-100625249D01*
X106462863Y-100318818D01*
X106562720Y-100024567D01*
X106697268Y-99745849D01*
X106867170Y-99486011D01*
X106867807Y-99485166D01*
X107069614Y-99251025D01*
X107298896Y-99045691D01*
X107550437Y-98873513D01*
X107695791Y-98794815D01*
X107788183Y-98746428D01*
X107843641Y-98710835D01*
X107861282Y-98688739D01*
X107840225Y-98680843D01*
X107838666Y-98680833D01*
X107822755Y-98662719D01*
X107817500Y-98627916D01*
X107823141Y-98591791D01*
X107844671Y-98578409D01*
X107888996Y-98587289D01*
G37*
X107888996Y-98587289D02*
X107962686Y-98617798D01*
X107968230Y-98620192D01*
X107974655Y-98622493D01*
X107982786Y-98624703D01*
X107993451Y-98626823D01*
X108007477Y-98628856D01*
X108025690Y-98630804D01*
X108048916Y-98632667D01*
X108077984Y-98634449D01*
X108113720Y-98636150D01*
X108156950Y-98637773D01*
X108208501Y-98639320D01*
X108269201Y-98640792D01*
X108339876Y-98642191D01*
X108421352Y-98643519D01*
X108514457Y-98644778D01*
X108620017Y-98645970D01*
X108738860Y-98647097D01*
X108871812Y-98648160D01*
X109019699Y-98649162D01*
X109183349Y-98650103D01*
X109363589Y-98650987D01*
X109561245Y-98651814D01*
X109777144Y-98652587D01*
X110012113Y-98653308D01*
X110266978Y-98653978D01*
X110542568Y-98654599D01*
X110839707Y-98655173D01*
X111159224Y-98655702D01*
X111501944Y-98656188D01*
X111868696Y-98656633D01*
X112260305Y-98657037D01*
X112677598Y-98657405D01*
X113121403Y-98657736D01*
X113592546Y-98658033D01*
X114091853Y-98658298D01*
X114620153Y-98658533D01*
X115178270Y-98658739D01*
X115767033Y-98658919D01*
X116387268Y-98659073D01*
X117039802Y-98659205D01*
X117725462Y-98659316D01*
X118445074Y-98659407D01*
X119199466Y-98659481D01*
X119989463Y-98659539D01*
X120815894Y-98659584D01*
X121679585Y-98659617D01*
X122581362Y-98659639D01*
X123522052Y-98659654D01*
X124502483Y-98659662D01*
X125523480Y-98659665D01*
X126585872Y-98659666D01*
X145412865Y-98659666D01*
X145603670Y-98754477D01*
X145886072Y-98917937D01*
X146142523Y-99113689D01*
X146371010Y-99339112D01*
X146569516Y-99591581D01*
X146736028Y-99868472D01*
X146868531Y-100167163D01*
X146965009Y-100485029D01*
X146978572Y-100544905D01*
X147011897Y-100757200D01*
X147028054Y-100994778D01*
X147027158Y-101244276D01*
X147009324Y-101492331D01*
X146974668Y-101725582D01*
X146968120Y-101758015D01*
X146870263Y-102126714D01*
X146735597Y-102476876D01*
X146565289Y-102806258D01*
X146360507Y-103112615D01*
X146122418Y-103393702D01*
X146111113Y-103405541D01*
X145985721Y-103528633D01*
X145846403Y-103652678D01*
X145703291Y-103769430D01*
X145566515Y-103870644D01*
X145446208Y-103948076D01*
X145440312Y-103951457D01*
X145354708Y-104000180D01*
X145542868Y-104094373D01*
X145813893Y-104252982D01*
X146067793Y-104447022D01*
X146300465Y-104671642D01*
X146507802Y-104921991D01*
X146685700Y-105193219D01*
X146830053Y-105480474D01*
X146919366Y-105720915D01*
X146994879Y-106031123D01*
X147031735Y-106353447D01*
X147030337Y-106683684D01*
X146991088Y-107017630D01*
X146914391Y-107351078D01*
X146800650Y-107679826D01*
X146712527Y-107877750D01*
X146534065Y-108199071D01*
X146321796Y-108496361D01*
X146075100Y-108770251D01*
X145793359Y-109021374D01*
X145475955Y-109250363D01*
X145219650Y-109404877D01*
X144998050Y-109528750D01*
X108434932Y-109539406D01*
X108205591Y-109424362D01*
X107867430Y-109233388D01*
X107560715Y-109015895D01*
X107286420Y-108772959D01*
X107045521Y-108505657D01*
X106838992Y-108215064D01*
X106667809Y-107902258D01*
X106538309Y-107584034D01*
X106453736Y-107287978D01*
X106396112Y-106975272D01*
X106366277Y-106656522D01*
X106365068Y-106342335D01*
X106393323Y-106043320D01*
X106409244Y-105949842D01*
X106489058Y-105638337D01*
X106605585Y-105339104D01*
X106755858Y-105056190D01*
X106936908Y-104793644D01*
X107145769Y-104555514D01*
X107379474Y-104345847D01*
X107635055Y-104168693D01*
X107769779Y-104093749D01*
X107867910Y-104040835D01*
X107926597Y-104002973D01*
X107945806Y-103980187D01*
X107925508Y-103972500D01*
X107925166Y-103972500D01*
X107901054Y-103960594D01*
X107851258Y-103928452D01*
X107783810Y-103881437D01*
X107729374Y-103841792D01*
X107464608Y-103622481D01*
X107226583Y-103378498D01*
X107015963Y-103113195D01*
X106833408Y-102829922D01*
X106679582Y-102532028D01*
X106555148Y-102222864D01*
X106460768Y-101905780D01*
X106397104Y-101584127D01*
X106364819Y-101261253D01*
X106364575Y-100940511D01*
X106397036Y-100625249D01*
X106462863Y-100318818D01*
X106562720Y-100024567D01*
X106697268Y-99745849D01*
X106867170Y-99486011D01*
X106867807Y-99485166D01*
X107069614Y-99251025D01*
X107298896Y-99045691D01*
X107550437Y-98873513D01*
X107695791Y-98794815D01*
X107788183Y-98746428D01*
X107843641Y-98710835D01*
X107861282Y-98688739D01*
X107840225Y-98680843D01*
X107838666Y-98680833D01*
X107822755Y-98662719D01*
X107817500Y-98627916D01*
X107823141Y-98591791D01*
X107844671Y-98578409D01*
X107888996Y-98587289D01*
G36*
X97732124Y-187024476D02*
G01*
X97712334Y-187097633D01*
X97684931Y-187165621D01*
X97684042Y-187167351D01*
X97678597Y-187184921D01*
X97672289Y-187219286D01*
X97664970Y-187272196D01*
X97656493Y-187345404D01*
X97646712Y-187440662D01*
X97635479Y-187559721D01*
X97622648Y-187704333D01*
X97608070Y-187876249D01*
X97591600Y-188077222D01*
X97573089Y-188309002D01*
X97552391Y-188573342D01*
X97529359Y-188871994D01*
X97503845Y-189206709D01*
X97475704Y-189579238D01*
X97444786Y-189991334D01*
X97427604Y-190221301D01*
X97204493Y-193211020D01*
X97250420Y-193305552D01*
X97293811Y-193379919D01*
X97349801Y-193457455D01*
X97373553Y-193485542D01*
X97450759Y-193571000D01*
X97263088Y-193569317D01*
X97158081Y-193565091D01*
X97050801Y-193555440D01*
X96961612Y-193542289D01*
X96948416Y-193539559D01*
X96669308Y-193458899D01*
X96406512Y-193343147D01*
X96156822Y-193190419D01*
X95917032Y-192998834D01*
X95747214Y-192834213D01*
X95525739Y-192573539D01*
X95331648Y-192283781D01*
X95166074Y-191969069D01*
X95030154Y-191633532D01*
X94925020Y-191281300D01*
X94851808Y-190916501D01*
X94811651Y-190543265D01*
X94805686Y-190165721D01*
X94835044Y-189787998D01*
X94861557Y-189610491D01*
X94938457Y-189266176D01*
X95046097Y-188936578D01*
X95182138Y-188624019D01*
X95344242Y-188330820D01*
X95530069Y-188059304D01*
X95737282Y-187811791D01*
X95963542Y-187590604D01*
X96206509Y-187398064D01*
X96463847Y-187236492D01*
X96733215Y-187108209D01*
X97012275Y-187015539D01*
X97298690Y-186960801D01*
X97545777Y-186945833D01*
X97746877Y-186945833D01*
X97732124Y-187024476D01*
G37*
X97732124Y-187024476D02*
X97712334Y-187097633D01*
X97684931Y-187165621D01*
X97684042Y-187167351D01*
X97678597Y-187184921D01*
X97672289Y-187219286D01*
X97664970Y-187272196D01*
X97656493Y-187345404D01*
X97646712Y-187440662D01*
X97635479Y-187559721D01*
X97622648Y-187704333D01*
X97608070Y-187876249D01*
X97591600Y-188077222D01*
X97573089Y-188309002D01*
X97552391Y-188573342D01*
X97529359Y-188871994D01*
X97503845Y-189206709D01*
X97475704Y-189579238D01*
X97444786Y-189991334D01*
X97427604Y-190221301D01*
X97204493Y-193211020D01*
X97250420Y-193305552D01*
X97293811Y-193379919D01*
X97349801Y-193457455D01*
X97373553Y-193485542D01*
X97450759Y-193571000D01*
X97263088Y-193569317D01*
X97158081Y-193565091D01*
X97050801Y-193555440D01*
X96961612Y-193542289D01*
X96948416Y-193539559D01*
X96669308Y-193458899D01*
X96406512Y-193343147D01*
X96156822Y-193190419D01*
X95917032Y-192998834D01*
X95747214Y-192834213D01*
X95525739Y-192573539D01*
X95331648Y-192283781D01*
X95166074Y-191969069D01*
X95030154Y-191633532D01*
X94925020Y-191281300D01*
X94851808Y-190916501D01*
X94811651Y-190543265D01*
X94805686Y-190165721D01*
X94835044Y-189787998D01*
X94861557Y-189610491D01*
X94938457Y-189266176D01*
X95046097Y-188936578D01*
X95182138Y-188624019D01*
X95344242Y-188330820D01*
X95530069Y-188059304D01*
X95737282Y-187811791D01*
X95963542Y-187590604D01*
X96206509Y-187398064D01*
X96463847Y-187236492D01*
X96733215Y-187108209D01*
X97012275Y-187015539D01*
X97298690Y-186960801D01*
X97545777Y-186945833D01*
X97746877Y-186945833D01*
X97732124Y-187024476D01*
G36*
X155064216Y-187051276D02*
G01*
X155349751Y-187112343D01*
X155627415Y-187211806D01*
X155895040Y-187347768D01*
X156150460Y-187518336D01*
X156391508Y-187721614D01*
X156616016Y-187955707D01*
X156821817Y-188218720D01*
X157006744Y-188508757D01*
X157168630Y-188823925D01*
X157305309Y-189162328D01*
X157344704Y-189279377D01*
X157449076Y-189670032D01*
X157511241Y-190059353D01*
X157531238Y-190448646D01*
X157509111Y-190839218D01*
X157444901Y-191232375D01*
X157412138Y-191372242D01*
X157307409Y-191717962D01*
X157174135Y-192042816D01*
X157014408Y-192344550D01*
X156830323Y-192620907D01*
X156623972Y-192869634D01*
X156397451Y-193088477D01*
X156152852Y-193275180D01*
X155892269Y-193427490D01*
X155617796Y-193543152D01*
X155331526Y-193619911D01*
X155323390Y-193621473D01*
X155202714Y-193642450D01*
X155092771Y-193657962D01*
X155000468Y-193667381D01*
X154932710Y-193670079D01*
X154896404Y-193665429D01*
X154892166Y-193660677D01*
X154906171Y-193635651D01*
X154941009Y-193595992D01*
X154953150Y-193583993D01*
X155014800Y-193510758D01*
X155056462Y-193432746D01*
X155073662Y-193360871D01*
X155064993Y-193311341D01*
X155061273Y-193286408D01*
X155054704Y-193222127D01*
X155045504Y-193121371D01*
X155033890Y-192987015D01*
X155020081Y-192821932D01*
X155004295Y-192628996D01*
X154986747Y-192411081D01*
X154967657Y-192171061D01*
X154947242Y-191911809D01*
X154925720Y-191636200D01*
X154903307Y-191347107D01*
X154880223Y-191047404D01*
X154856684Y-190739964D01*
X154832909Y-190427663D01*
X154809114Y-190113373D01*
X154785517Y-189799968D01*
X154762337Y-189490323D01*
X154739791Y-189187311D01*
X154718095Y-188893806D01*
X154697469Y-188612681D01*
X154678130Y-188346811D01*
X154660295Y-188099070D01*
X154644182Y-187872331D01*
X154630009Y-187669468D01*
X154617993Y-187493354D01*
X154608352Y-187346865D01*
X154601303Y-187232873D01*
X154597065Y-187154253D01*
X154595833Y-187116517D01*
X154595833Y-187030500D01*
X154772977Y-187030500D01*
X155064216Y-187051276D01*
G37*
X155064216Y-187051276D02*
X155349751Y-187112343D01*
X155627415Y-187211806D01*
X155895040Y-187347768D01*
X156150460Y-187518336D01*
X156391508Y-187721614D01*
X156616016Y-187955707D01*
X156821817Y-188218720D01*
X157006744Y-188508757D01*
X157168630Y-188823925D01*
X157305309Y-189162328D01*
X157344704Y-189279377D01*
X157449076Y-189670032D01*
X157511241Y-190059353D01*
X157531238Y-190448646D01*
X157509111Y-190839218D01*
X157444901Y-191232375D01*
X157412138Y-191372242D01*
X157307409Y-191717962D01*
X157174135Y-192042816D01*
X157014408Y-192344550D01*
X156830323Y-192620907D01*
X156623972Y-192869634D01*
X156397451Y-193088477D01*
X156152852Y-193275180D01*
X155892269Y-193427490D01*
X155617796Y-193543152D01*
X155331526Y-193619911D01*
X155323390Y-193621473D01*
X155202714Y-193642450D01*
X155092771Y-193657962D01*
X155000468Y-193667381D01*
X154932710Y-193670079D01*
X154896404Y-193665429D01*
X154892166Y-193660677D01*
X154906171Y-193635651D01*
X154941009Y-193595992D01*
X154953150Y-193583993D01*
X155014800Y-193510758D01*
X155056462Y-193432746D01*
X155073662Y-193360871D01*
X155064993Y-193311341D01*
X155061273Y-193286408D01*
X155054704Y-193222127D01*
X155045504Y-193121371D01*
X155033890Y-192987015D01*
X155020081Y-192821932D01*
X155004295Y-192628996D01*
X154986747Y-192411081D01*
X154967657Y-192171061D01*
X154947242Y-191911809D01*
X154925720Y-191636200D01*
X154903307Y-191347107D01*
X154880223Y-191047404D01*
X154856684Y-190739964D01*
X154832909Y-190427663D01*
X154809114Y-190113373D01*
X154785517Y-189799968D01*
X154762337Y-189490323D01*
X154739791Y-189187311D01*
X154718095Y-188893806D01*
X154697469Y-188612681D01*
X154678130Y-188346811D01*
X154660295Y-188099070D01*
X154644182Y-187872331D01*
X154630009Y-187669468D01*
X154617993Y-187493354D01*
X154608352Y-187346865D01*
X154601303Y-187232873D01*
X154597065Y-187154253D01*
X154595833Y-187116517D01*
X154595833Y-187030500D01*
X154772977Y-187030500D01*
X155064216Y-187051276D01*
G36*
X95376404Y-220901172D02*
G01*
X95410711Y-220905346D01*
X95413833Y-220907557D01*
X95400732Y-220931245D01*
X95367177Y-220974268D01*
X95339750Y-221005787D01*
X95297217Y-221059567D01*
X95270340Y-221106430D01*
X95265495Y-221124769D01*
X95263922Y-221149915D01*
X95259364Y-221214849D01*
X95252001Y-221317142D01*
X95242011Y-221454367D01*
X95229575Y-221624096D01*
X95214871Y-221823901D01*
X95198080Y-222051355D01*
X95179380Y-222304031D01*
X95158950Y-222579499D01*
X95136971Y-222875333D01*
X95113622Y-223189106D01*
X95089081Y-223518388D01*
X95063529Y-223860754D01*
X95044286Y-224118271D01*
X95008945Y-224593050D01*
X94977039Y-225026011D01*
X94948545Y-225417528D01*
X94923438Y-225767974D01*
X94901691Y-226077723D01*
X94883281Y-226347149D01*
X94868182Y-226576625D01*
X94856369Y-226766525D01*
X94847817Y-226917222D01*
X94842502Y-227029090D01*
X94840397Y-227102503D01*
X94841479Y-227137835D01*
X94841902Y-227139832D01*
X94860949Y-227189074D01*
X94894682Y-227261178D01*
X94936573Y-227342371D01*
X94946694Y-227360916D01*
X94986046Y-227433678D01*
X95015960Y-227491800D01*
X95031615Y-227525801D01*
X95032833Y-227530230D01*
X95013542Y-227539542D01*
X94961714Y-227541575D01*
X94886415Y-227536874D01*
X94796711Y-227525986D01*
X94707405Y-227510609D01*
X94411219Y-227432559D01*
X94131984Y-227318783D01*
X93866756Y-227167649D01*
X93612591Y-226977527D01*
X93412183Y-226793207D01*
X93169990Y-226521498D01*
X92959987Y-226222506D01*
X92782443Y-225896760D01*
X92637633Y-225544787D01*
X92525827Y-225167117D01*
X92488578Y-224999981D01*
X92472832Y-224917713D01*
X92460856Y-224841612D01*
X92452152Y-224763868D01*
X92446219Y-224676670D01*
X92442557Y-224572206D01*
X92440667Y-224442665D01*
X92440048Y-224280235D01*
X92440033Y-224241500D01*
X92440446Y-224071362D01*
X92442021Y-223935728D01*
X92445259Y-223826775D01*
X92450665Y-223736677D01*
X92458739Y-223657612D01*
X92469986Y-223581754D01*
X92484907Y-223501280D01*
X92488846Y-223481617D01*
X92583118Y-223105895D01*
X92708831Y-222751802D01*
X92864488Y-222421409D01*
X93048596Y-222116787D01*
X93259659Y-221840008D01*
X93496183Y-221593143D01*
X93756673Y-221378264D01*
X94039634Y-221197441D01*
X94194926Y-221117669D01*
X94415900Y-221025715D01*
X94636717Y-220961177D01*
X94870410Y-220921003D01*
X95112208Y-220902774D01*
X95219660Y-220899767D01*
X95310223Y-220899273D01*
X95376404Y-220901172D01*
G37*
X95376404Y-220901172D02*
X95410711Y-220905346D01*
X95413833Y-220907557D01*
X95400732Y-220931245D01*
X95367177Y-220974268D01*
X95339750Y-221005787D01*
X95297217Y-221059567D01*
X95270340Y-221106430D01*
X95265495Y-221124769D01*
X95263922Y-221149915D01*
X95259364Y-221214849D01*
X95252001Y-221317142D01*
X95242011Y-221454367D01*
X95229575Y-221624096D01*
X95214871Y-221823901D01*
X95198080Y-222051355D01*
X95179380Y-222304031D01*
X95158950Y-222579499D01*
X95136971Y-222875333D01*
X95113622Y-223189106D01*
X95089081Y-223518388D01*
X95063529Y-223860754D01*
X95044286Y-224118271D01*
X95008945Y-224593050D01*
X94977039Y-225026011D01*
X94948545Y-225417528D01*
X94923438Y-225767974D01*
X94901691Y-226077723D01*
X94883281Y-226347149D01*
X94868182Y-226576625D01*
X94856369Y-226766525D01*
X94847817Y-226917222D01*
X94842502Y-227029090D01*
X94840397Y-227102503D01*
X94841479Y-227137835D01*
X94841902Y-227139832D01*
X94860949Y-227189074D01*
X94894682Y-227261178D01*
X94936573Y-227342371D01*
X94946694Y-227360916D01*
X94986046Y-227433678D01*
X95015960Y-227491800D01*
X95031615Y-227525801D01*
X95032833Y-227530230D01*
X95013542Y-227539542D01*
X94961714Y-227541575D01*
X94886415Y-227536874D01*
X94796711Y-227525986D01*
X94707405Y-227510609D01*
X94411219Y-227432559D01*
X94131984Y-227318783D01*
X93866756Y-227167649D01*
X93612591Y-226977527D01*
X93412183Y-226793207D01*
X93169990Y-226521498D01*
X92959987Y-226222506D01*
X92782443Y-225896760D01*
X92637633Y-225544787D01*
X92525827Y-225167117D01*
X92488578Y-224999981D01*
X92472832Y-224917713D01*
X92460856Y-224841612D01*
X92452152Y-224763868D01*
X92446219Y-224676670D01*
X92442557Y-224572206D01*
X92440667Y-224442665D01*
X92440048Y-224280235D01*
X92440033Y-224241500D01*
X92440446Y-224071362D01*
X92442021Y-223935728D01*
X92445259Y-223826775D01*
X92450665Y-223736677D01*
X92458739Y-223657612D01*
X92469986Y-223581754D01*
X92484907Y-223501280D01*
X92488846Y-223481617D01*
X92583118Y-223105895D01*
X92708831Y-222751802D01*
X92864488Y-222421409D01*
X93048596Y-222116787D01*
X93259659Y-221840008D01*
X93496183Y-221593143D01*
X93756673Y-221378264D01*
X94039634Y-221197441D01*
X94194926Y-221117669D01*
X94415900Y-221025715D01*
X94636717Y-220961177D01*
X94870410Y-220921003D01*
X95112208Y-220902774D01*
X95219660Y-220899767D01*
X95310223Y-220899273D01*
X95376404Y-220901172D01*
G36*
X157535355Y-221003443D02*
G01*
X157833922Y-221063999D01*
X158127337Y-221161672D01*
X158409126Y-221294216D01*
X158672819Y-221459385D01*
X158726378Y-221498830D01*
X158976743Y-221713859D01*
X159207960Y-221963213D01*
X159417725Y-222242378D01*
X159603731Y-222546839D01*
X159763672Y-222872084D01*
X159895244Y-223213597D01*
X159996139Y-223566865D01*
X160064053Y-223927373D01*
X160089756Y-224168000D01*
X160093925Y-224306601D01*
X160089406Y-224473817D01*
X160077200Y-224657054D01*
X160058309Y-224843719D01*
X160033734Y-225021215D01*
X160012623Y-225138535D01*
X159923565Y-225493138D01*
X159805028Y-225828468D01*
X159659001Y-226142233D01*
X159487474Y-226432138D01*
X159292434Y-226695888D01*
X159075872Y-226931190D01*
X158839777Y-227135751D01*
X158586138Y-227307276D01*
X158316943Y-227443471D01*
X158034182Y-227542043D01*
X157900765Y-227573984D01*
X157808043Y-227590947D01*
X157710745Y-227605272D01*
X157617788Y-227616097D01*
X157538086Y-227622559D01*
X157480554Y-227623799D01*
X157454108Y-227618952D01*
X157453333Y-227617234D01*
X157466143Y-227593406D01*
X157498414Y-227551244D01*
X157515402Y-227531312D01*
X157570422Y-227441732D01*
X157590900Y-227369768D01*
X157590987Y-227337669D01*
X157587988Y-227265630D01*
X157582059Y-227155921D01*
X157573354Y-227010810D01*
X157562028Y-226832568D01*
X157548235Y-226623464D01*
X157532131Y-226385766D01*
X157513870Y-226121744D01*
X157493606Y-225833668D01*
X157471494Y-225523807D01*
X157447690Y-225194429D01*
X157422347Y-224847806D01*
X157395620Y-224486205D01*
X157380542Y-224283833D01*
X157354188Y-223930708D01*
X157328718Y-223588615D01*
X157304311Y-223259990D01*
X157281144Y-222947264D01*
X157259396Y-222652874D01*
X157239245Y-222379253D01*
X157220870Y-222128834D01*
X157204449Y-221904053D01*
X157190160Y-221707342D01*
X157178181Y-221541137D01*
X157168691Y-221407870D01*
X157161868Y-221309977D01*
X157157891Y-221249891D01*
X157156877Y-221230602D01*
X157139086Y-221169225D01*
X157088639Y-221096908D01*
X157082606Y-221090111D01*
X157044749Y-221044863D01*
X157030575Y-221014282D01*
X157044132Y-220995562D01*
X157089466Y-220985896D01*
X157170624Y-220982475D01*
X157238106Y-220982252D01*
X157535355Y-221003443D01*
G37*
X157535355Y-221003443D02*
X157833922Y-221063999D01*
X158127337Y-221161672D01*
X158409126Y-221294216D01*
X158672819Y-221459385D01*
X158726378Y-221498830D01*
X158976743Y-221713859D01*
X159207960Y-221963213D01*
X159417725Y-222242378D01*
X159603731Y-222546839D01*
X159763672Y-222872084D01*
X159895244Y-223213597D01*
X159996139Y-223566865D01*
X160064053Y-223927373D01*
X160089756Y-224168000D01*
X160093925Y-224306601D01*
X160089406Y-224473817D01*
X160077200Y-224657054D01*
X160058309Y-224843719D01*
X160033734Y-225021215D01*
X160012623Y-225138535D01*
X159923565Y-225493138D01*
X159805028Y-225828468D01*
X159659001Y-226142233D01*
X159487474Y-226432138D01*
X159292434Y-226695888D01*
X159075872Y-226931190D01*
X158839777Y-227135751D01*
X158586138Y-227307276D01*
X158316943Y-227443471D01*
X158034182Y-227542043D01*
X157900765Y-227573984D01*
X157808043Y-227590947D01*
X157710745Y-227605272D01*
X157617788Y-227616097D01*
X157538086Y-227622559D01*
X157480554Y-227623799D01*
X157454108Y-227618952D01*
X157453333Y-227617234D01*
X157466143Y-227593406D01*
X157498414Y-227551244D01*
X157515402Y-227531312D01*
X157570422Y-227441732D01*
X157590900Y-227369768D01*
X157590987Y-227337669D01*
X157587988Y-227265630D01*
X157582059Y-227155921D01*
X157573354Y-227010810D01*
X157562028Y-226832568D01*
X157548235Y-226623464D01*
X157532131Y-226385766D01*
X157513870Y-226121744D01*
X157493606Y-225833668D01*
X157471494Y-225523807D01*
X157447690Y-225194429D01*
X157422347Y-224847806D01*
X157395620Y-224486205D01*
X157380542Y-224283833D01*
X157354188Y-223930708D01*
X157328718Y-223588615D01*
X157304311Y-223259990D01*
X157281144Y-222947264D01*
X157259396Y-222652874D01*
X157239245Y-222379253D01*
X157220870Y-222128834D01*
X157204449Y-221904053D01*
X157190160Y-221707342D01*
X157178181Y-221541137D01*
X157168691Y-221407870D01*
X157161868Y-221309977D01*
X157157891Y-221249891D01*
X157156877Y-221230602D01*
X157139086Y-221169225D01*
X157088639Y-221096908D01*
X157082606Y-221090111D01*
X157044749Y-221044863D01*
X157030575Y-221014282D01*
X157044132Y-220995562D01*
X157089466Y-220985896D01*
X157170624Y-220982475D01*
X157238106Y-220982252D01*
X157535355Y-221003443D01*
G36*
X92782982Y-255379759D02*
G01*
X92833404Y-255389293D01*
X92851858Y-255411155D01*
X92843489Y-255450230D01*
X92821047Y-255496955D01*
X92799993Y-255559233D01*
X92789543Y-255633047D01*
X92789297Y-255643901D01*
X92787724Y-255675201D01*
X92783160Y-255746176D01*
X92775790Y-255854287D01*
X92765797Y-255996995D01*
X92753366Y-256171760D01*
X92738681Y-256376043D01*
X92721927Y-256607305D01*
X92703287Y-256863007D01*
X92682945Y-257140609D01*
X92661087Y-257437573D01*
X92637895Y-257751359D01*
X92613555Y-258079428D01*
X92588251Y-258419241D01*
X92577500Y-258563250D01*
X92551758Y-258909175D01*
X92526922Y-259245676D01*
X92503175Y-259570103D01*
X92480704Y-259879803D01*
X92459694Y-260172125D01*
X92440332Y-260444417D01*
X92422803Y-260694026D01*
X92407293Y-260918303D01*
X92393987Y-261114594D01*
X92383072Y-261280248D01*
X92374732Y-261412613D01*
X92369155Y-261509038D01*
X92366524Y-261566870D01*
X92366335Y-261577848D01*
X92369970Y-261687556D01*
X92382233Y-261773403D01*
X92406224Y-261853496D01*
X92419154Y-261886416D01*
X92445929Y-261952130D01*
X92464826Y-261999875D01*
X92471568Y-262018708D01*
X92452050Y-262023056D01*
X92397236Y-262019162D01*
X92313224Y-262007668D01*
X92225739Y-261992826D01*
X91916270Y-261915423D01*
X91619072Y-261798828D01*
X91336668Y-261645047D01*
X91071582Y-261456084D01*
X90826337Y-261233944D01*
X90603456Y-260980631D01*
X90405464Y-260698152D01*
X90253257Y-260425901D01*
X90098523Y-260069018D01*
X89983259Y-259699276D01*
X89907650Y-259319585D01*
X89871879Y-258932853D01*
X89876131Y-258541991D01*
X89920588Y-258149907D01*
X90005436Y-257759511D01*
X90071043Y-257541559D01*
X90203987Y-257195843D01*
X90364108Y-256874782D01*
X90549329Y-256580092D01*
X90757568Y-256313488D01*
X90986747Y-256076684D01*
X91234786Y-255871394D01*
X91499604Y-255699335D01*
X91779123Y-255562220D01*
X92071262Y-255461764D01*
X92373943Y-255399682D01*
X92685084Y-255377689D01*
X92695448Y-255377666D01*
X92782982Y-255379759D01*
G37*
X92782982Y-255379759D02*
X92833404Y-255389293D01*
X92851858Y-255411155D01*
X92843489Y-255450230D01*
X92821047Y-255496955D01*
X92799993Y-255559233D01*
X92789543Y-255633047D01*
X92789297Y-255643901D01*
X92787724Y-255675201D01*
X92783160Y-255746176D01*
X92775790Y-255854287D01*
X92765797Y-255996995D01*
X92753366Y-256171760D01*
X92738681Y-256376043D01*
X92721927Y-256607305D01*
X92703287Y-256863007D01*
X92682945Y-257140609D01*
X92661087Y-257437573D01*
X92637895Y-257751359D01*
X92613555Y-258079428D01*
X92588251Y-258419241D01*
X92577500Y-258563250D01*
X92551758Y-258909175D01*
X92526922Y-259245676D01*
X92503175Y-259570103D01*
X92480704Y-259879803D01*
X92459694Y-260172125D01*
X92440332Y-260444417D01*
X92422803Y-260694026D01*
X92407293Y-260918303D01*
X92393987Y-261114594D01*
X92383072Y-261280248D01*
X92374732Y-261412613D01*
X92369155Y-261509038D01*
X92366524Y-261566870D01*
X92366335Y-261577848D01*
X92369970Y-261687556D01*
X92382233Y-261773403D01*
X92406224Y-261853496D01*
X92419154Y-261886416D01*
X92445929Y-261952130D01*
X92464826Y-261999875D01*
X92471568Y-262018708D01*
X92452050Y-262023056D01*
X92397236Y-262019162D01*
X92313224Y-262007668D01*
X92225739Y-261992826D01*
X91916270Y-261915423D01*
X91619072Y-261798828D01*
X91336668Y-261645047D01*
X91071582Y-261456084D01*
X90826337Y-261233944D01*
X90603456Y-260980631D01*
X90405464Y-260698152D01*
X90253257Y-260425901D01*
X90098523Y-260069018D01*
X89983259Y-259699276D01*
X89907650Y-259319585D01*
X89871879Y-258932853D01*
X89876131Y-258541991D01*
X89920588Y-258149907D01*
X90005436Y-257759511D01*
X90071043Y-257541559D01*
X90203987Y-257195843D01*
X90364108Y-256874782D01*
X90549329Y-256580092D01*
X90757568Y-256313488D01*
X90986747Y-256076684D01*
X91234786Y-255871394D01*
X91499604Y-255699335D01*
X91779123Y-255562220D01*
X92071262Y-255461764D01*
X92373943Y-255399682D01*
X92685084Y-255377689D01*
X92695448Y-255377666D01*
X92782982Y-255379759D01*
G36*
X160103921Y-255483248D02*
G01*
X160410576Y-255544407D01*
X160712222Y-255644207D01*
X161003577Y-255780986D01*
X161214312Y-255908272D01*
X161333533Y-255997520D01*
X161466743Y-256113338D01*
X161605056Y-256246676D01*
X161739588Y-256388481D01*
X161861455Y-256529701D01*
X161961772Y-256661286D01*
X161980835Y-256689195D01*
X162176627Y-257018043D01*
X162340528Y-257366209D01*
X162471017Y-257728145D01*
X162566575Y-258098302D01*
X162625679Y-258471133D01*
X162646810Y-258841089D01*
X162638630Y-259089337D01*
X162593539Y-259472073D01*
X162515059Y-259838005D01*
X162404680Y-260184956D01*
X162263889Y-260510750D01*
X162094175Y-260813208D01*
X161897028Y-261090153D01*
X161673935Y-261339408D01*
X161426386Y-261558794D01*
X161155869Y-261746136D01*
X160863873Y-261899254D01*
X160662648Y-261979615D01*
X160561531Y-262011616D01*
X160444702Y-262042895D01*
X160324175Y-262070807D01*
X160211964Y-262092708D01*
X160120083Y-262105952D01*
X160076417Y-262108666D01*
X160054302Y-262106110D01*
X160049456Y-262091634D01*
X160062057Y-262055029D01*
X160077991Y-262018365D01*
X160090677Y-261990211D01*
X160102135Y-261964335D01*
X160112276Y-261938614D01*
X160121012Y-261910920D01*
X160128257Y-261879129D01*
X160133921Y-261841114D01*
X160137918Y-261794751D01*
X160140159Y-261737913D01*
X160140557Y-261668475D01*
X160139024Y-261584311D01*
X160135473Y-261483296D01*
X160129815Y-261363304D01*
X160121962Y-261222209D01*
X160111828Y-261057886D01*
X160099324Y-260868210D01*
X160084362Y-260651054D01*
X160066855Y-260404293D01*
X160046715Y-260125801D01*
X160023854Y-259813453D01*
X159998185Y-259465123D01*
X159969619Y-259078686D01*
X159940188Y-258680684D01*
X159913810Y-258325382D01*
X159888040Y-257981371D01*
X159863070Y-257651044D01*
X159839088Y-257336795D01*
X159816286Y-257041017D01*
X159794854Y-256766106D01*
X159774982Y-256514455D01*
X159756860Y-256288458D01*
X159740679Y-256090510D01*
X159726629Y-255923003D01*
X159714900Y-255788333D01*
X159705683Y-255688894D01*
X159699168Y-255627079D01*
X159695724Y-255605495D01*
X159679892Y-255555154D01*
X159675833Y-255515537D01*
X159678640Y-255485576D01*
X159693827Y-255469686D01*
X159731540Y-255463436D01*
X159797541Y-255462392D01*
X160103921Y-255483248D01*
G37*
X160103921Y-255483248D02*
X160410576Y-255544407D01*
X160712222Y-255644207D01*
X161003577Y-255780986D01*
X161214312Y-255908272D01*
X161333533Y-255997520D01*
X161466743Y-256113338D01*
X161605056Y-256246676D01*
X161739588Y-256388481D01*
X161861455Y-256529701D01*
X161961772Y-256661286D01*
X161980835Y-256689195D01*
X162176627Y-257018043D01*
X162340528Y-257366209D01*
X162471017Y-257728145D01*
X162566575Y-258098302D01*
X162625679Y-258471133D01*
X162646810Y-258841089D01*
X162638630Y-259089337D01*
X162593539Y-259472073D01*
X162515059Y-259838005D01*
X162404680Y-260184956D01*
X162263889Y-260510750D01*
X162094175Y-260813208D01*
X161897028Y-261090153D01*
X161673935Y-261339408D01*
X161426386Y-261558794D01*
X161155869Y-261746136D01*
X160863873Y-261899254D01*
X160662648Y-261979615D01*
X160561531Y-262011616D01*
X160444702Y-262042895D01*
X160324175Y-262070807D01*
X160211964Y-262092708D01*
X160120083Y-262105952D01*
X160076417Y-262108666D01*
X160054302Y-262106110D01*
X160049456Y-262091634D01*
X160062057Y-262055029D01*
X160077991Y-262018365D01*
X160090677Y-261990211D01*
X160102135Y-261964335D01*
X160112276Y-261938614D01*
X160121012Y-261910920D01*
X160128257Y-261879129D01*
X160133921Y-261841114D01*
X160137918Y-261794751D01*
X160140159Y-261737913D01*
X160140557Y-261668475D01*
X160139024Y-261584311D01*
X160135473Y-261483296D01*
X160129815Y-261363304D01*
X160121962Y-261222209D01*
X160111828Y-261057886D01*
X160099324Y-260868210D01*
X160084362Y-260651054D01*
X160066855Y-260404293D01*
X160046715Y-260125801D01*
X160023854Y-259813453D01*
X159998185Y-259465123D01*
X159969619Y-259078686D01*
X159940188Y-258680684D01*
X159913810Y-258325382D01*
X159888040Y-257981371D01*
X159863070Y-257651044D01*
X159839088Y-257336795D01*
X159816286Y-257041017D01*
X159794854Y-256766106D01*
X159774982Y-256514455D01*
X159756860Y-256288458D01*
X159740679Y-256090510D01*
X159726629Y-255923003D01*
X159714900Y-255788333D01*
X159705683Y-255688894D01*
X159699168Y-255627079D01*
X159695724Y-255605495D01*
X159679892Y-255555154D01*
X159675833Y-255515537D01*
X159678640Y-255485576D01*
X159693827Y-255469686D01*
X159731540Y-255463436D01*
X159797541Y-255462392D01*
X160103921Y-255483248D01*
G36*
X216000333Y-279655833D02*
G01*
X29627833Y-279655833D01*
X29627833Y-191861920D01*
X39092047Y-191861920D01*
X39092062Y-192707003D01*
X39092128Y-193514091D01*
X39092246Y-194283665D01*
X39092417Y-195016208D01*
X39092639Y-195712202D01*
X39092915Y-196372128D01*
X39093244Y-196996469D01*
X39093627Y-197585706D01*
X39094064Y-198140322D01*
X39094556Y-198660798D01*
X39095103Y-199147618D01*
X39095706Y-199601261D01*
X39096364Y-200022211D01*
X39097079Y-200410950D01*
X39097851Y-200767959D01*
X39098680Y-201093721D01*
X39099567Y-201388717D01*
X39100512Y-201653430D01*
X39101516Y-201888341D01*
X39102578Y-202093933D01*
X39103700Y-202270687D01*
X39104882Y-202419086D01*
X39106124Y-202539611D01*
X39107427Y-202632745D01*
X39108791Y-202698969D01*
X39110217Y-202738766D01*
X39110748Y-202746750D01*
X39171059Y-203218927D01*
X39269515Y-203677244D01*
X39404534Y-204119899D01*
X39574534Y-204545085D01*
X39777931Y-204951001D01*
X40013143Y-205335841D01*
X40278588Y-205697801D01*
X40572684Y-206035079D01*
X40893847Y-206345869D01*
X41240494Y-206628368D01*
X41611045Y-206880771D01*
X42003915Y-207101276D01*
X42417523Y-207288077D01*
X42850285Y-207439372D01*
X43300620Y-207553355D01*
X43333250Y-207559988D01*
X43502537Y-207592277D01*
X43652591Y-207616783D01*
X43794322Y-207634489D01*
X43938638Y-207646375D01*
X44096446Y-207653423D01*
X44278656Y-207656613D01*
X44412750Y-207657084D01*
X44625683Y-207655509D01*
X44807272Y-207650236D01*
X44968416Y-207640295D01*
X45120016Y-207624713D01*
X45272974Y-207602519D01*
X45438188Y-207572744D01*
X45502833Y-207559968D01*
X45952842Y-207448003D01*
X46393145Y-207295831D01*
X46820186Y-207105130D01*
X47230410Y-206877577D01*
X47620261Y-206614851D01*
X47799416Y-206476493D01*
X48033795Y-206272175D01*
X48271257Y-206036576D01*
X48503335Y-205779143D01*
X48721561Y-205509324D01*
X48917469Y-205236564D01*
X48936874Y-205207420D01*
X48993310Y-205122869D01*
X49040805Y-205053390D01*
X49074885Y-205005406D01*
X49091075Y-204985337D01*
X49091733Y-204985170D01*
X49104504Y-205003667D01*
X49136519Y-205050979D01*
X49183484Y-205120735D01*
X49241105Y-205206566D01*
X49266472Y-205244416D01*
X49418978Y-205464059D01*
X49566199Y-205657826D01*
X49718988Y-205838980D01*
X49888198Y-206020781D01*
X49968459Y-206102207D01*
X50322131Y-206426883D01*
X50697113Y-206715018D01*
X51092967Y-206966393D01*
X51509260Y-207180790D01*
X51945557Y-207357990D01*
X52401423Y-207497775D01*
X52876422Y-207599927D01*
X52985250Y-207617605D01*
X53134281Y-207635106D01*
X53314464Y-207647790D01*
X53515578Y-207655647D01*
X53727403Y-207658667D01*
X53939721Y-207656841D01*
X54142309Y-207650158D01*
X54324949Y-207638609D01*
X54477421Y-207622184D01*
X54498666Y-207619051D01*
X54976930Y-207524338D01*
X55440034Y-207390849D01*
X55886128Y-207219706D01*
X56313363Y-207012028D01*
X56719888Y-206768935D01*
X57103854Y-206491545D01*
X57463410Y-206180979D01*
X57796707Y-205838356D01*
X58101895Y-205464796D01*
X58137409Y-205416756D01*
X58205672Y-205321662D01*
X58271104Y-205227480D01*
X58326060Y-205145390D01*
X58361583Y-205088828D01*
X58397012Y-205031439D01*
X58424284Y-204992651D01*
X58435666Y-204981776D01*
X58450480Y-204998912D01*
X58483629Y-205045074D01*
X58530547Y-205113685D01*
X58586670Y-205198165D01*
X58600618Y-205219481D01*
X58874952Y-205601479D01*
X59181536Y-205956602D01*
X59518877Y-206283540D01*
X59885483Y-206580983D01*
X60279863Y-206847624D01*
X60700523Y-207082153D01*
X60753416Y-207108429D01*
X61136070Y-207280821D01*
X61513991Y-207418862D01*
X61900169Y-207526645D01*
X62307593Y-207608263D01*
X62372666Y-207618708D01*
X62489986Y-207632633D01*
X62637989Y-207643562D01*
X62807642Y-207651425D01*
X62989912Y-207656153D01*
X63175765Y-207657677D01*
X63356168Y-207655930D01*
X63522086Y-207650840D01*
X63664487Y-207642341D01*
X63774336Y-207630362D01*
X63780250Y-207629443D01*
X64128555Y-207567144D01*
X64437363Y-207497356D01*
X64637500Y-207441896D01*
X65085969Y-207284406D01*
X65518596Y-207088243D01*
X65932981Y-206854876D01*
X66326721Y-206585774D01*
X66697415Y-206282406D01*
X66987782Y-206003670D01*
X67140442Y-205842226D01*
X67271052Y-205694190D01*
X67390331Y-205546360D01*
X67509001Y-205385531D01*
X67619492Y-205225648D01*
X67786447Y-204978569D01*
X67916412Y-205190059D01*
X68177091Y-205574343D01*
X68469345Y-205931503D01*
X68790946Y-206259904D01*
X69139670Y-206557909D01*
X69513289Y-206823884D01*
X69909579Y-207056193D01*
X70326312Y-207253200D01*
X70761263Y-207413271D01*
X71057619Y-207497987D01*
X71312864Y-207558295D01*
X71546200Y-207602728D01*
X71773939Y-207633619D01*
X72012389Y-207653299D01*
X72204583Y-207661993D01*
X72684356Y-207657615D01*
X73154840Y-207613657D01*
X73614012Y-207531307D01*
X74059852Y-207411756D01*
X74490338Y-207256192D01*
X74903449Y-207065806D01*
X75297163Y-206841788D01*
X75669460Y-206585326D01*
X76018316Y-206297611D01*
X76341712Y-205979832D01*
X76637626Y-205633179D01*
X76904036Y-205258841D01*
X77138921Y-204858009D01*
X77211561Y-204715250D01*
X77318151Y-204490224D01*
X77405493Y-204287648D01*
X77478283Y-204095062D01*
X77541217Y-203900003D01*
X77598989Y-203690011D01*
X77601262Y-203681116D01*
X77669167Y-203388763D01*
X77719091Y-203110723D01*
X77754860Y-202825024D01*
X77760386Y-202767916D01*
X77762371Y-202724838D01*
X77764261Y-202639516D01*
X77766057Y-202512041D01*
X77767758Y-202342502D01*
X77769365Y-202130990D01*
X77770876Y-201877594D01*
X77772291Y-201582404D01*
X77773611Y-201245510D01*
X77774835Y-200867001D01*
X77775964Y-200446969D01*
X77776996Y-199985502D01*
X77777931Y-199482691D01*
X77778770Y-198938625D01*
X77779513Y-198353395D01*
X77780158Y-197727089D01*
X77780706Y-197059799D01*
X77781157Y-196351614D01*
X77781510Y-195602623D01*
X77781765Y-194812918D01*
X77781922Y-193982586D01*
X77781981Y-193111720D01*
X77781982Y-193036541D01*
X77782015Y-192404714D01*
X77782109Y-191783631D01*
X77782264Y-191174632D01*
X77782476Y-190579053D01*
X77782745Y-189998233D01*
X77783067Y-189433508D01*
X77783441Y-188886218D01*
X77783864Y-188357698D01*
X77784336Y-187849289D01*
X77784853Y-187362326D01*
X77785413Y-186898148D01*
X77786016Y-186458092D01*
X77786658Y-186043496D01*
X77787338Y-185655699D01*
X77788053Y-185296037D01*
X77788802Y-184965848D01*
X77789582Y-184666471D01*
X77790392Y-184399242D01*
X77791230Y-184165500D01*
X77792093Y-183966582D01*
X77792979Y-183803826D01*
X77793887Y-183678570D01*
X77794814Y-183592152D01*
X77795759Y-183545909D01*
X77796346Y-183538000D01*
X77814589Y-183552281D01*
X77858859Y-183592579D01*
X77925150Y-183655078D01*
X78009455Y-183735960D01*
X78107768Y-183831409D01*
X78216083Y-183937607D01*
X78224971Y-183946365D01*
X78428372Y-184143538D01*
X78612674Y-184314428D01*
X78785635Y-184465475D01*
X78955013Y-184603116D01*
X79128569Y-184733792D01*
X79314061Y-184863942D01*
X79401250Y-184922562D01*
X79878979Y-185216356D01*
X80367071Y-185469233D01*
X80866316Y-185681431D01*
X81377508Y-185853190D01*
X81901437Y-185984748D01*
X82438898Y-186076343D01*
X82990680Y-186128214D01*
X83447132Y-186141273D01*
X83822237Y-186133840D01*
X84170455Y-186110032D01*
X84504595Y-186068177D01*
X84837467Y-186006605D01*
X85181882Y-185923647D01*
X85243292Y-185907081D01*
X85724643Y-185756062D01*
X86198808Y-185569446D01*
X86661459Y-185349929D01*
X87108269Y-185100211D01*
X87534908Y-184822989D01*
X87937050Y-184520963D01*
X88310367Y-184196829D01*
X88650531Y-183853287D01*
X88788521Y-183696750D01*
X89128636Y-183266669D01*
X89429603Y-182822972D01*
X89692184Y-182363931D01*
X89917141Y-181887817D01*
X90105236Y-181392904D01*
X90257231Y-180877463D01*
X90373890Y-180339767D01*
X90431956Y-179971416D01*
X90447231Y-179825671D01*
X90458839Y-179647206D01*
X90466781Y-179445010D01*
X90471056Y-179228072D01*
X90471665Y-179005381D01*
X90468607Y-178785927D01*
X90461882Y-178578699D01*
X90451491Y-178392685D01*
X90437433Y-178236875D01*
X90431961Y-178193416D01*
X90337206Y-177650474D01*
X90205259Y-177126959D01*
X90036332Y-176623367D01*
X89830638Y-176140191D01*
X89588391Y-175677926D01*
X89309802Y-175237066D01*
X88995084Y-174818106D01*
X88963497Y-174779682D01*
X88935006Y-174748167D01*
X88878073Y-174687908D01*
X88794028Y-174600256D01*
X88684198Y-174486564D01*
X88549913Y-174348185D01*
X88392500Y-174186472D01*
X88213288Y-174002776D01*
X88013607Y-173798450D01*
X87794784Y-173574847D01*
X87558148Y-173333319D01*
X87305028Y-173075219D01*
X87036752Y-172801899D01*
X86754649Y-172514711D01*
X86460048Y-172215009D01*
X86154277Y-171904145D01*
X85838664Y-171583470D01*
X85514539Y-171254339D01*
X85183230Y-170918102D01*
X84846065Y-170576114D01*
X84504373Y-170229725D01*
X84159483Y-169880290D01*
X83812723Y-169529159D01*
X83465423Y-169177686D01*
X83118909Y-168827223D01*
X82774512Y-168479123D01*
X82746853Y-168451177D01*
X81901457Y-167597023D01*
X84514238Y-164984178D01*
X84791665Y-164706833D01*
X85061092Y-164437663D01*
X85320989Y-164178186D01*
X85569830Y-163929920D01*
X85806088Y-163694383D01*
X86028234Y-163473094D01*
X86234743Y-163267570D01*
X86424086Y-163079330D01*
X86594736Y-162909892D01*
X86745165Y-162760774D01*
X86873847Y-162633494D01*
X86979254Y-162529570D01*
X87059858Y-162450521D01*
X87114132Y-162397865D01*
X87140550Y-162373119D01*
X87142926Y-162371333D01*
X87145405Y-162391971D01*
X87147767Y-162451769D01*
X87149980Y-162547556D01*
X87152014Y-162676157D01*
X87153841Y-162834402D01*
X87155429Y-163019117D01*
X87156750Y-163227129D01*
X87157772Y-163455266D01*
X87158467Y-163700356D01*
X87158805Y-163959225D01*
X87158833Y-164060046D01*
X87158833Y-165748759D01*
X88744069Y-170341254D01*
X88914156Y-170834003D01*
X89093396Y-171353264D01*
X89280242Y-171894559D01*
X89473148Y-172453409D01*
X89670568Y-173025333D01*
X89870956Y-173605854D01*
X90072765Y-174190491D01*
X90274450Y-174774766D01*
X90474463Y-175354199D01*
X90671260Y-175924310D01*
X90863294Y-176480622D01*
X91049018Y-177018653D01*
X91226887Y-177533926D01*
X91395353Y-178021961D01*
X91552872Y-178478278D01*
X91677393Y-178839000D01*
X91813829Y-179234271D01*
X91947118Y-179620481D01*
X92076555Y-179995588D01*
X92201435Y-180357547D01*
X92321054Y-180704314D01*
X92434707Y-181033844D01*
X92541689Y-181344095D01*
X92641297Y-181633023D01*
X92732825Y-181898582D01*
X92815569Y-182138730D01*
X92888824Y-182351423D01*
X92951887Y-182534616D01*
X93004052Y-182686265D01*
X93044614Y-182804328D01*
X93072870Y-182886759D01*
X93088115Y-182931515D01*
X93089201Y-182934750D01*
X93152923Y-183125250D01*
X91214211Y-209849732D01*
X91137159Y-210911919D01*
X91060846Y-211964028D01*
X90985329Y-213005260D01*
X90910666Y-214034820D01*
X90836915Y-215051909D01*
X90764134Y-216055731D01*
X90692379Y-217045489D01*
X90621710Y-218020386D01*
X90552183Y-218979624D01*
X90483855Y-219922408D01*
X90416786Y-220847938D01*
X90351032Y-221755420D01*
X90286652Y-222644055D01*
X90223702Y-223513046D01*
X90162241Y-224361597D01*
X90102326Y-225188911D01*
X90044014Y-225994189D01*
X89987365Y-226776636D01*
X89932434Y-227535455D01*
X89879281Y-228269847D01*
X89827962Y-228979017D01*
X89778535Y-229662167D01*
X89731058Y-230318500D01*
X89685589Y-230947218D01*
X89642185Y-231547526D01*
X89600904Y-232118626D01*
X89561804Y-232659721D01*
X89524942Y-233170014D01*
X89490376Y-233648707D01*
X89458163Y-234095004D01*
X89428362Y-234508108D01*
X89401030Y-234887221D01*
X89376225Y-235231548D01*
X89354004Y-235540289D01*
X89334425Y-235812649D01*
X89317546Y-236047831D01*
X89303424Y-236245037D01*
X89292117Y-236403471D01*
X89283683Y-236522335D01*
X89278180Y-236600832D01*
X89275664Y-236638165D01*
X89275500Y-236641311D01*
X89275500Y-236708407D01*
X73945541Y-236713828D01*
X58615583Y-236719250D01*
X58351000Y-236768959D01*
X57888819Y-236875795D01*
X57447769Y-237018996D01*
X57025920Y-237199431D01*
X56621340Y-237417964D01*
X56232101Y-237675462D01*
X56086166Y-237784982D01*
X55973625Y-237878113D01*
X55843433Y-237995304D01*
X55704558Y-238127697D01*
X55565964Y-238266433D01*
X55436617Y-238402652D01*
X55325484Y-238527495D01*
X55283004Y-238578594D01*
X55041502Y-238906145D01*
X54822557Y-239260780D01*
X54630543Y-239633794D01*
X54469835Y-240016485D01*
X54344806Y-240400148D01*
X54319472Y-240495845D01*
X54230137Y-240934981D01*
X54182345Y-241375190D01*
X54175445Y-241814087D01*
X54208788Y-242249286D01*
X54281726Y-242678403D01*
X54393608Y-243099051D01*
X54543785Y-243508846D01*
X54731607Y-243905403D01*
X54956426Y-244286336D01*
X55217591Y-244649261D01*
X55514453Y-244991791D01*
X55555282Y-245034336D01*
X55625836Y-245105844D01*
X55694804Y-245172807D01*
X55768853Y-245241220D01*
X55854652Y-245317075D01*
X55958869Y-245406368D01*
X56088170Y-245515092D01*
X56115358Y-245537801D01*
X56106506Y-245556448D01*
X56071113Y-245599625D01*
X56013388Y-245662771D01*
X55937541Y-245741323D01*
X55847781Y-245830718D01*
X55821360Y-245856458D01*
X55710817Y-245966270D01*
X55596749Y-246084156D01*
X55488064Y-246200592D01*
X55393674Y-246306055D01*
X55329824Y-246381833D01*
X55047509Y-246763531D01*
X54804027Y-247158140D01*
X54599675Y-247563920D01*
X54434748Y-247979131D01*
X54309543Y-248402033D01*
X54224355Y-248830884D01*
X54179481Y-249263945D01*
X54175217Y-249699475D01*
X54211859Y-250135734D01*
X54289703Y-250570982D01*
X54409045Y-251003477D01*
X54500010Y-251259164D01*
X54661111Y-251626355D01*
X54858670Y-251992261D01*
X55087309Y-252349121D01*
X55341651Y-252689178D01*
X55616319Y-253004671D01*
X55905934Y-253287842D01*
X55905957Y-253287863D01*
X55984409Y-253358799D01*
X56050632Y-253419979D01*
X56098608Y-253465749D01*
X56122322Y-253490450D01*
X56123726Y-253492592D01*
X56110527Y-253510859D01*
X56070295Y-253550216D01*
X56008962Y-253605195D01*
X55932460Y-253670327D01*
X55917666Y-253682600D01*
X55607983Y-253964689D01*
X55319755Y-254280010D01*
X55056703Y-254623356D01*
X54822543Y-254989522D01*
X54620996Y-255373300D01*
X54487571Y-255684756D01*
X54348664Y-256102245D01*
X54249728Y-256530114D01*
X54190702Y-256964983D01*
X54171524Y-257403470D01*
X54192132Y-257842195D01*
X54252462Y-258277777D01*
X54352453Y-258706837D01*
X54492042Y-259125993D01*
X54553808Y-259278116D01*
X54732681Y-259649267D01*
X54949072Y-260015159D01*
X55198188Y-260369223D01*
X55475234Y-260704893D01*
X55775416Y-261015601D01*
X55917625Y-261146283D01*
X55995525Y-261216177D01*
X56060435Y-261276372D01*
X56106466Y-261321259D01*
X56127730Y-261345231D01*
X56128500Y-261347146D01*
X56113011Y-261366149D01*
X56071975Y-261403477D01*
X56013534Y-261451822D01*
X55999285Y-261463105D01*
X55867055Y-261573757D01*
X55721352Y-261707051D01*
X55573869Y-261851585D01*
X55436299Y-261995958D01*
X55336255Y-262109601D01*
X55054584Y-262477189D01*
X54811300Y-262862380D01*
X54606780Y-263264139D01*
X54441400Y-263681432D01*
X54315538Y-264113225D01*
X54229571Y-264558483D01*
X54183874Y-265016172D01*
X54175948Y-265294250D01*
X54176319Y-265434588D01*
X54178744Y-265541617D01*
X54184006Y-265624343D01*
X54192890Y-265691770D01*
X54206179Y-265752905D01*
X54220179Y-265802250D01*
X54265297Y-265950416D01*
X54133273Y-266076199D01*
X54092782Y-266114805D01*
X54025045Y-266179424D01*
X53933435Y-266266836D01*
X53821327Y-266373821D01*
X53692093Y-266497160D01*
X53549108Y-266633632D01*
X53395746Y-266780019D01*
X53235379Y-266933100D01*
X53159875Y-267005177D01*
X52318500Y-267808373D01*
X52318500Y-276237279D01*
X53530222Y-277449139D01*
X54741945Y-278661000D01*
X197680583Y-278657698D01*
X200019499Y-276228870D01*
X200019499Y-267813259D01*
X199088567Y-266881838D01*
X198157635Y-265950416D01*
X198203490Y-265812833D01*
X198220620Y-265756641D01*
X198232914Y-265701227D01*
X198241131Y-265638107D01*
X198246030Y-265558800D01*
X198248367Y-265454824D01*
X198248901Y-265317697D01*
X198248889Y-265304833D01*
X198237158Y-264933675D01*
X198201513Y-264585666D01*
X198139845Y-264247668D01*
X198050043Y-263906545D01*
X197998129Y-263743228D01*
X197843301Y-263344865D01*
X197650158Y-262959252D01*
X197421800Y-262590679D01*
X197161329Y-262243432D01*
X196871848Y-261921798D01*
X196556458Y-261630065D01*
X196352375Y-261468401D01*
X196287222Y-261418401D01*
X196237642Y-261377526D01*
X196211589Y-261352444D01*
X196209500Y-261348604D01*
X196224836Y-261330775D01*
X196266781Y-261291556D01*
X196329233Y-261236434D01*
X196406093Y-261170896D01*
X196420196Y-261159078D01*
X196755389Y-260854910D01*
X197062603Y-260527136D01*
X197338375Y-260180122D01*
X197579242Y-259818233D01*
X197781739Y-259445833D01*
X197785088Y-259438899D01*
X197948060Y-259065384D01*
X198073932Y-258695251D01*
X198164490Y-258320636D01*
X198221522Y-257933671D01*
X198246814Y-257526491D01*
X198248480Y-257399083D01*
X198233969Y-256985858D01*
X198187029Y-256593637D01*
X198105845Y-256214500D01*
X197988601Y-255840529D01*
X197833482Y-255463802D01*
X197777759Y-255345916D01*
X197564554Y-254955652D01*
X197315781Y-254587065D01*
X197033855Y-254243135D01*
X196721190Y-253926841D01*
X196424672Y-253675397D01*
X196344048Y-253611560D01*
X196277186Y-253556705D01*
X196230376Y-253516136D01*
X196209909Y-253495155D01*
X196209500Y-253493987D01*
X196224880Y-253475267D01*
X196265733Y-253437724D01*
X196324125Y-253388535D01*
X196342190Y-253373931D01*
X196635147Y-253117456D01*
X196918410Y-252827271D01*
X197184978Y-252511913D01*
X197427851Y-252179919D01*
X197640026Y-251839828D01*
X197719327Y-251694666D01*
X197904478Y-251295052D01*
X198050616Y-250881286D01*
X198157329Y-250456603D01*
X198224203Y-250024235D01*
X198250825Y-249587413D01*
X198236783Y-249149372D01*
X198181664Y-248713343D01*
X198131663Y-248466750D01*
X198014184Y-248051701D01*
X197856413Y-247645544D01*
X197659882Y-247250649D01*
X197426128Y-246869384D01*
X197156683Y-246504118D01*
X196853084Y-246157220D01*
X196516863Y-245831059D01*
X196309971Y-245654325D01*
X196257098Y-245609122D01*
X196220702Y-245574009D01*
X196209500Y-245558527D01*
X196225282Y-245540359D01*
X196267348Y-245503966D01*
X196327775Y-245456065D01*
X196352375Y-245437389D01*
X196561451Y-245268918D01*
X196774354Y-245076427D01*
X196976208Y-244873876D01*
X197106218Y-244729804D01*
X197383619Y-244376014D01*
X197622808Y-244006061D01*
X197823746Y-243622090D01*
X197986392Y-243226246D01*
X198110704Y-242820674D01*
X198196641Y-242407518D01*
X198244164Y-241988924D01*
X198253231Y-241567037D01*
X198223800Y-241144000D01*
X198155832Y-240721960D01*
X198049285Y-240303061D01*
X197904119Y-239889448D01*
X197720292Y-239483265D01*
X197497764Y-239086658D01*
X197236494Y-238701772D01*
X197221493Y-238681646D01*
X197119278Y-238554602D01*
X196991544Y-238410525D01*
X196846648Y-238257767D01*
X196692950Y-238104677D01*
X196538809Y-237959608D01*
X196392584Y-237830909D01*
X196275643Y-237736725D01*
X195914712Y-237484939D01*
X195541159Y-237269036D01*
X195150585Y-237087083D01*
X194738587Y-236937150D01*
X194300765Y-236817305D01*
X194067136Y-236767346D01*
X193828250Y-236720705D01*
X178493418Y-236709394D01*
X163158587Y-236698083D01*
X161662352Y-216515666D01*
X161590827Y-215550870D01*
X161519047Y-214582628D01*
X161447115Y-213612300D01*
X161375129Y-212641245D01*
X161303192Y-211670822D01*
X161231403Y-210702391D01*
X161159864Y-209737311D01*
X161088675Y-208776942D01*
X161017937Y-207822641D01*
X160947751Y-206875769D01*
X160878217Y-205937685D01*
X160809437Y-205009749D01*
X160741511Y-204093318D01*
X160674539Y-203189754D01*
X160608622Y-202300414D01*
X160543862Y-201426658D01*
X160480359Y-200569846D01*
X160418214Y-199731337D01*
X160357526Y-198912489D01*
X160298398Y-198114663D01*
X160240930Y-197339217D01*
X160185223Y-196587511D01*
X160131377Y-195860903D01*
X160079493Y-195160754D01*
X160029671Y-194488422D01*
X159982014Y-193845267D01*
X159936621Y-193232648D01*
X159893592Y-192651924D01*
X159853030Y-192104454D01*
X159815034Y-191591598D01*
X159779706Y-191114715D01*
X159747145Y-190675165D01*
X159717453Y-190274305D01*
X159690731Y-189913497D01*
X159676303Y-189718666D01*
X159186490Y-183104083D01*
X160688963Y-178489750D01*
X160852731Y-177986781D01*
X161027965Y-177448582D01*
X161213028Y-176880180D01*
X161406284Y-176286598D01*
X161606097Y-175672864D01*
X161810831Y-175044003D01*
X162018849Y-174405039D01*
X162228517Y-173760999D01*
X162438197Y-173116908D01*
X162646255Y-172477792D01*
X162851053Y-171848676D01*
X163050955Y-171234585D01*
X163244327Y-170640545D01*
X163429530Y-170071582D01*
X163604931Y-169532721D01*
X163727634Y-169155744D01*
X165263833Y-164436072D01*
X165263833Y-163403702D01*
X165264149Y-163199159D01*
X165265054Y-163008082D01*
X165266487Y-162834526D01*
X165268384Y-162682552D01*
X165270683Y-162556215D01*
X165273323Y-162459574D01*
X165276239Y-162396686D01*
X165279370Y-162371609D01*
X165279739Y-162371333D01*
X165296132Y-162386060D01*
X165340933Y-162429244D01*
X165412635Y-162499387D01*
X165509731Y-162594991D01*
X165630715Y-162714558D01*
X165774080Y-162856591D01*
X165938320Y-163019592D01*
X166121928Y-163202062D01*
X166323397Y-163402506D01*
X166541222Y-163619424D01*
X166773895Y-163851318D01*
X167019909Y-164096692D01*
X167277759Y-164354048D01*
X167545938Y-164621887D01*
X167822939Y-164898712D01*
X167980032Y-165055782D01*
X170664419Y-167740232D01*
X170747479Y-168098491D01*
X170965388Y-168945353D01*
X171223684Y-169781874D01*
X171521363Y-170606025D01*
X171857422Y-171415779D01*
X172230860Y-172209110D01*
X172640673Y-172983991D01*
X173085859Y-173738394D01*
X173565415Y-174470293D01*
X174078338Y-175177661D01*
X174531974Y-175748666D01*
X175061446Y-176360450D01*
X175622281Y-176955654D01*
X176208926Y-177529041D01*
X176815825Y-178075372D01*
X177437425Y-178589411D01*
X177989267Y-179008768D01*
X178730615Y-179523211D01*
X179491448Y-180000609D01*
X180270458Y-180440597D01*
X181066339Y-180842811D01*
X181877782Y-181206884D01*
X182703479Y-181532451D01*
X183542124Y-181819147D01*
X184392407Y-182066607D01*
X185253022Y-182274465D01*
X186122661Y-182442356D01*
X187000016Y-182569915D01*
X187883779Y-182656777D01*
X188772643Y-182702575D01*
X189665301Y-182706946D01*
X190560443Y-182669522D01*
X190979216Y-182637604D01*
X191865975Y-182539153D01*
X192744272Y-182399481D01*
X193612907Y-182219075D01*
X194470675Y-181998420D01*
X195316373Y-181738002D01*
X196148798Y-181438308D01*
X196966747Y-181099823D01*
X197769017Y-180723034D01*
X198554404Y-180308426D01*
X199321707Y-179856485D01*
X200069720Y-179367698D01*
X200797242Y-178842551D01*
X201250272Y-178488625D01*
X201666659Y-178140911D01*
X202092013Y-177762153D01*
X202518449Y-177360136D01*
X202938078Y-176942651D01*
X203343017Y-176517484D01*
X203725377Y-176092424D01*
X203983193Y-175789707D01*
X204508359Y-175126162D01*
X205008134Y-174431767D01*
X205479874Y-173711060D01*
X205920932Y-172968582D01*
X206328663Y-172208874D01*
X206700421Y-171436477D01*
X207033560Y-170655931D01*
X207152114Y-170351166D01*
X207444043Y-169524699D01*
X207696194Y-168692731D01*
X207909106Y-167852624D01*
X208083318Y-167001737D01*
X208219369Y-166137432D01*
X208317799Y-165257071D01*
X208379145Y-164358012D01*
X208379997Y-164339833D01*
X208380832Y-164302335D01*
X208381475Y-164229810D01*
X208381926Y-164122090D01*
X208382183Y-163979009D01*
X208382246Y-163800399D01*
X208382114Y-163586094D01*
X208381786Y-163335925D01*
X208381263Y-163049727D01*
X208380542Y-162727331D01*
X208379625Y-162368571D01*
X208378508Y-161973280D01*
X208377193Y-161541290D01*
X208375678Y-161072435D01*
X208373963Y-160566547D01*
X208372047Y-160023459D01*
X208369928Y-159443004D01*
X208367608Y-158825016D01*
X208365084Y-158169326D01*
X208362356Y-157475768D01*
X208359424Y-156744174D01*
X208356287Y-155974378D01*
X208352943Y-155166213D01*
X208349393Y-154319510D01*
X208345636Y-153434104D01*
X208341670Y-152509827D01*
X208337496Y-151546512D01*
X208333112Y-150543992D01*
X208328518Y-149502100D01*
X208323713Y-148420668D01*
X208318697Y-147299530D01*
X208313468Y-146138518D01*
X208308027Y-144937465D01*
X208302371Y-143696205D01*
X208296502Y-142414570D01*
X208290417Y-141092392D01*
X208284116Y-139729506D01*
X208277600Y-138325743D01*
X208270865Y-136880937D01*
X208263914Y-135394921D01*
X208256743Y-133867526D01*
X208249353Y-132298587D01*
X208241743Y-130687937D01*
X208233913Y-129035407D01*
X208225861Y-127340831D01*
X208219963Y-126102250D01*
X208212536Y-124544915D01*
X208205301Y-123029370D01*
X208198254Y-121555073D01*
X208191392Y-120121481D01*
X208184712Y-118728051D01*
X208178211Y-117374239D01*
X208171887Y-116059504D01*
X208165736Y-114783303D01*
X208159756Y-113545093D01*
X208153942Y-112344331D01*
X208148293Y-111180474D01*
X208142805Y-110052980D01*
X208137475Y-108961306D01*
X208132301Y-107904909D01*
X208127279Y-106883247D01*
X208122406Y-105895776D01*
X208117679Y-104941954D01*
X208113095Y-104021239D01*
X208108652Y-103133086D01*
X208104346Y-102276955D01*
X208100174Y-101452302D01*
X208096134Y-100658584D01*
X208092221Y-99895258D01*
X208088434Y-99161782D01*
X208084769Y-98457613D01*
X208081223Y-97782209D01*
X208077794Y-97135025D01*
X208074478Y-96515521D01*
X208071272Y-95923153D01*
X208068173Y-95357378D01*
X208065178Y-94817653D01*
X208062285Y-94303436D01*
X208059489Y-93814184D01*
X208056789Y-93349355D01*
X208054182Y-92908405D01*
X208051663Y-92490792D01*
X208049231Y-92095973D01*
X208046881Y-91723405D01*
X208044612Y-91372546D01*
X208042420Y-91042853D01*
X208040303Y-90733782D01*
X208038256Y-90444792D01*
X208036278Y-90175340D01*
X208034365Y-89924882D01*
X208032514Y-89692877D01*
X208030722Y-89478781D01*
X208028987Y-89282051D01*
X208027304Y-89102145D01*
X208025672Y-88938521D01*
X208024087Y-88790635D01*
X208022546Y-88657944D01*
X208021047Y-88539906D01*
X208019585Y-88435979D01*
X208018159Y-88345619D01*
X208016765Y-88268283D01*
X208015400Y-88203429D01*
X208014061Y-88150515D01*
X208012745Y-88108997D01*
X208011450Y-88078332D01*
X208010171Y-88057979D01*
X208009506Y-88051240D01*
X207932134Y-87585918D01*
X207816885Y-87137335D01*
X207665356Y-86707102D01*
X207479144Y-86296830D01*
X207259844Y-85908130D01*
X207009054Y-85542613D01*
X206728369Y-85201890D01*
X206419388Y-84887572D01*
X206083706Y-84601269D01*
X205722920Y-84344593D01*
X205338627Y-84119154D01*
X204932422Y-83926563D01*
X204505904Y-83768432D01*
X204060667Y-83646371D01*
X203598310Y-83561991D01*
X203554333Y-83556095D01*
X203341800Y-83534983D01*
X203104879Y-83522584D01*
X202856139Y-83518820D01*
X202608149Y-83523612D01*
X202373479Y-83536882D01*
X202164697Y-83558550D01*
X202119299Y-83565074D01*
X201652036Y-83656910D01*
X201204283Y-83786078D01*
X200776861Y-83952086D01*
X200370588Y-84154445D01*
X199986283Y-84392664D01*
X199624764Y-84666253D01*
X199286850Y-84974720D01*
X198973360Y-85317575D01*
X198776057Y-85568083D01*
X198714032Y-85652084D01*
X198660132Y-85725765D01*
X198620018Y-85781342D01*
X198599350Y-85811031D01*
X198599053Y-85811500D01*
X198592224Y-85823176D01*
X198585626Y-85829785D01*
X198575713Y-85827362D01*
X198558935Y-85811944D01*
X198531743Y-85779567D01*
X198490590Y-85726267D01*
X198431926Y-85648080D01*
X198352205Y-85541042D01*
X198328715Y-85509508D01*
X198206466Y-85355999D01*
X198059567Y-85188480D01*
X197898001Y-85017286D01*
X197731750Y-84852753D01*
X197570795Y-84705215D01*
X197469638Y-84620011D01*
X197100527Y-84347818D01*
X196715987Y-84114072D01*
X196314132Y-83917946D01*
X195893074Y-83758616D01*
X195450927Y-83635255D01*
X195034750Y-83554512D01*
X194918386Y-83540898D01*
X194769065Y-83530458D01*
X194596048Y-83523247D01*
X194408596Y-83519322D01*
X194215970Y-83518739D01*
X194027431Y-83521554D01*
X193852241Y-83527824D01*
X193699660Y-83537604D01*
X193616583Y-83545919D01*
X193196888Y-83612214D01*
X192796905Y-83708812D01*
X192407107Y-83838630D01*
X192017971Y-84004586D01*
X191849166Y-84087432D01*
X191576554Y-84235981D01*
X191323361Y-84395431D01*
X191081321Y-84572009D01*
X190842170Y-84771939D01*
X190597642Y-85001449D01*
X190483576Y-85116111D01*
X190340346Y-85266126D01*
X190226026Y-85393906D01*
X190136947Y-85504243D01*
X190069435Y-85601930D01*
X190019821Y-85691758D01*
X189991653Y-85758180D01*
X189968929Y-85813576D01*
X189950744Y-85847575D01*
X189944892Y-85852784D01*
X189928257Y-85836491D01*
X189892314Y-85793344D01*
X189842911Y-85730540D01*
X189803017Y-85678159D01*
X189512124Y-85323069D01*
X189193736Y-84993178D01*
X188851379Y-84690908D01*
X188488576Y-84418679D01*
X188108852Y-84178914D01*
X187715731Y-83974035D01*
X187312739Y-83806463D01*
X186903399Y-83678620D01*
X186886830Y-83674338D01*
X186546014Y-83597267D01*
X186220963Y-83546391D01*
X185896714Y-83520224D01*
X185558301Y-83517281D01*
X185375178Y-83524257D01*
X184983017Y-83554051D01*
X184621722Y-83602140D01*
X184283084Y-83670532D01*
X183958892Y-83761234D01*
X183640938Y-83876256D01*
X183321012Y-84017605D01*
X183282776Y-84036101D01*
X182935339Y-84224156D01*
X182604357Y-84442015D01*
X182286007Y-84692720D01*
X181976464Y-84979311D01*
X181671906Y-85304830D01*
X181636221Y-85345833D01*
X181542726Y-85453348D01*
X181453939Y-85554170D01*
X181375172Y-85642363D01*
X181311740Y-85711991D01*
X181268955Y-85757120D01*
X181261112Y-85764831D01*
X181187760Y-85834580D01*
X181073338Y-85659233D01*
X180823712Y-85314991D01*
X180540583Y-84994434D01*
X180226879Y-84699678D01*
X179885526Y-84432841D01*
X179519449Y-84196041D01*
X179131575Y-83991396D01*
X178724830Y-83821023D01*
X178376583Y-83707610D01*
X178126432Y-83642205D01*
X177883883Y-83591757D01*
X177637270Y-83554579D01*
X177374925Y-83528981D01*
X177085180Y-83513278D01*
X177017487Y-83511010D01*
X176589724Y-83498050D01*
X176743698Y-83326567D01*
X177176573Y-82813698D01*
X177575156Y-82277989D01*
X177938438Y-81721311D01*
X178265412Y-81145537D01*
X178555071Y-80552539D01*
X178806407Y-79944188D01*
X179018413Y-79322358D01*
X179148460Y-78858250D01*
X179291281Y-78213707D01*
X179392320Y-77565967D01*
X179451704Y-76916664D01*
X179469559Y-76267430D01*
X179446010Y-75619899D01*
X179381182Y-74975702D01*
X179275201Y-74336473D01*
X179128193Y-73703845D01*
X178940284Y-73079451D01*
X178711599Y-72464924D01*
X178644216Y-72304020D01*
X178373485Y-71725854D01*
X178064689Y-71164201D01*
X177719632Y-70621356D01*
X177340124Y-70099611D01*
X176927970Y-69601259D01*
X176484977Y-69128592D01*
X176012952Y-68683903D01*
X175513702Y-68269486D01*
X175390388Y-68175054D01*
X174898093Y-67828381D01*
X174375449Y-67506737D01*
X173828317Y-67213215D01*
X173262556Y-66950912D01*
X172684026Y-66722922D01*
X172555508Y-66677639D01*
X172089012Y-66532036D01*
X171594846Y-66406358D01*
X171083761Y-66302760D01*
X170566510Y-66223397D01*
X170053845Y-66170423D01*
X170006933Y-66166925D01*
X169852091Y-66158701D01*
X169665687Y-66153549D01*
X169456427Y-66151325D01*
X169233017Y-66151884D01*
X169004163Y-66155081D01*
X168778571Y-66160771D01*
X168564948Y-66168809D01*
X168371998Y-66179049D01*
X168208429Y-66191347D01*
X168142500Y-66197984D01*
X167462866Y-66293337D01*
X166805259Y-66424732D01*
X166168975Y-66592497D01*
X165553313Y-66796959D01*
X164957570Y-67038445D01*
X164381043Y-67317283D01*
X163823031Y-67633801D01*
X163282832Y-67988325D01*
X162759742Y-68381183D01*
X162253059Y-68812703D01*
X161972963Y-69074510D01*
X161874286Y-69169126D01*
X161801188Y-69237115D01*
X161749331Y-69281803D01*
X161714376Y-69306512D01*
X161691982Y-69314568D01*
X161677811Y-69309294D01*
X161673353Y-69304025D01*
X161640809Y-69260423D01*
X161586317Y-69190551D01*
X161514973Y-69100704D01*
X161431877Y-68997180D01*
X161342125Y-68886275D01*
X161250815Y-68774285D01*
X161163046Y-68667505D01*
X161083914Y-68572234D01*
X161018519Y-68494766D01*
X161011508Y-68486583D01*
X160796053Y-68241356D01*
X160555067Y-67977163D01*
X160295971Y-67701616D01*
X160026184Y-67422327D01*
X159753127Y-67146907D01*
X159484219Y-66882970D01*
X159226879Y-66638127D01*
X159058625Y-66483104D01*
X158509930Y-65997578D01*
X157950480Y-65527251D01*
X157374338Y-65067529D01*
X156775570Y-64613818D01*
X156148238Y-64161524D01*
X155486407Y-63706051D01*
X155368416Y-63626890D01*
X154500583Y-63046750D01*
X167004108Y-63036166D01*
X179507634Y-63025583D01*
X181943166Y-60679605D01*
X181942729Y-58190760D01*
X181942292Y-55701916D01*
X181027161Y-54569500D01*
X180112030Y-53437083D01*
X179868723Y-53367778D01*
X179789396Y-53345423D01*
X179676066Y-53313825D01*
X179535575Y-53274875D01*
X179374764Y-53230463D01*
X179200473Y-53182480D01*
X179019545Y-53132815D01*
X178895166Y-53098761D01*
X176718051Y-52520781D01*
X174508258Y-51968664D01*
X172266759Y-51442584D01*
X169994526Y-50942717D01*
X167692530Y-50469239D01*
X165361743Y-50022324D01*
X163003136Y-49602148D01*
X160617681Y-49208886D01*
X158206350Y-48842713D01*
X155770114Y-48503805D01*
X153309945Y-48192336D01*
X150826814Y-47908482D01*
X149145416Y-47733301D01*
X148905474Y-47709357D01*
X148666757Y-47685697D01*
X148434624Y-47662844D01*
X148214434Y-47641317D01*
X148011548Y-47621637D01*
X147831325Y-47604326D01*
X147679124Y-47589902D01*
X147560306Y-47578888D01*
X147505000Y-47573934D01*
X147349497Y-47560148D01*
X147231134Y-47548992D01*
X147144863Y-47539597D01*
X147085634Y-47531092D01*
X147048400Y-47522607D01*
X147028111Y-47513273D01*
X147019719Y-47502219D01*
X147018166Y-47490035D01*
X147022662Y-47467570D01*
X147035960Y-47405062D01*
X147057775Y-47303815D01*
X147087820Y-47165131D01*
X147125812Y-46990314D01*
X147171463Y-46780668D01*
X147224490Y-46537496D01*
X147284607Y-46262101D01*
X147351528Y-45955787D01*
X147424968Y-45619858D01*
X147504642Y-45255616D01*
X147590265Y-44864366D01*
X147681550Y-44447410D01*
X147778213Y-44006052D01*
X147879968Y-43541595D01*
X147986531Y-43055343D01*
X148097615Y-42548600D01*
X148212935Y-42022668D01*
X148332206Y-41478852D01*
X148455142Y-40918454D01*
X148581459Y-40342778D01*
X148710871Y-39753127D01*
X148843092Y-39150806D01*
X148977838Y-38537116D01*
X149082999Y-38058254D01*
X149219478Y-37436705D01*
X149353625Y-36825515D01*
X149485156Y-36225988D01*
X149613785Y-35639427D01*
X149739229Y-35067136D01*
X149861204Y-34510419D01*
X149979424Y-33970579D01*
X150093606Y-33448919D01*
X150203464Y-32946744D01*
X150308715Y-32465357D01*
X150409073Y-32006062D01*
X150504255Y-31570163D01*
X150593976Y-31158962D01*
X150677952Y-30773764D01*
X150755897Y-30415872D01*
X150827528Y-30086590D01*
X150892560Y-29787222D01*
X150950708Y-29519071D01*
X151001689Y-29283441D01*
X151045217Y-29081635D01*
X151081008Y-28914957D01*
X151108779Y-28784711D01*
X151128243Y-28692201D01*
X151139117Y-28638729D01*
X151141458Y-28624981D01*
X151127390Y-28604187D01*
X151088427Y-28553072D01*
X151026512Y-28474055D01*
X150943588Y-28369555D01*
X150841597Y-28241990D01*
X150722484Y-28093780D01*
X150588189Y-27927341D01*
X150440657Y-27745094D01*
X150281831Y-27549456D01*
X150113653Y-27342846D01*
X149970916Y-27167897D01*
X148806750Y-25742461D01*
X103617066Y-25751083D01*
X102447393Y-27179833D01*
X102272660Y-27393521D01*
X102105820Y-27598050D01*
X101948802Y-27791027D01*
X101803534Y-27970058D01*
X101671946Y-28132749D01*
X101555966Y-28276708D01*
X101457522Y-28399541D01*
X101378545Y-28498855D01*
X101320962Y-28572257D01*
X101286702Y-28617353D01*
X101277360Y-28631609D01*
X101281863Y-28653580D01*
X101295229Y-28715595D01*
X101317174Y-28816362D01*
X101347414Y-28954592D01*
X101385663Y-29128993D01*
X101431637Y-29338276D01*
X101485051Y-29581151D01*
X101545620Y-29856327D01*
X101613060Y-30162513D01*
X101687087Y-30498421D01*
X101767415Y-30862759D01*
X101853759Y-31254237D01*
X101945836Y-31671565D01*
X102043360Y-32113453D01*
X102146047Y-32578609D01*
X102253612Y-33065746D01*
X102365771Y-33573571D01*
X102482238Y-34100794D01*
X102602729Y-34646126D01*
X102726960Y-35208276D01*
X102854645Y-35785954D01*
X102985501Y-36377869D01*
X103119241Y-36982731D01*
X103255583Y-37599251D01*
X103392725Y-38219286D01*
X103531319Y-38845884D01*
X103667578Y-39462024D01*
X103801219Y-40066420D01*
X103931957Y-40657784D01*
X104059509Y-41234831D01*
X104183590Y-41796272D01*
X104303917Y-42340823D01*
X104420206Y-42867194D01*
X104532172Y-43374101D01*
X104639532Y-43860257D01*
X104742001Y-44324373D01*
X104839297Y-44765165D01*
X104931135Y-45181344D01*
X105017230Y-45571625D01*
X105097300Y-45934720D01*
X105171059Y-46269342D01*
X105238225Y-46574206D01*
X105298513Y-46848024D01*
X105351639Y-47089510D01*
X105397319Y-47297376D01*
X105435270Y-47470336D01*
X105465207Y-47607103D01*
X105486847Y-47706391D01*
X105499905Y-47766913D01*
X105504100Y-47787381D01*
X105482800Y-47790217D01*
X105424068Y-47796781D01*
X105332595Y-47806582D01*
X105213071Y-47819127D01*
X105070187Y-47833924D01*
X104908633Y-47850481D01*
X104733100Y-47868305D01*
X104727166Y-47868905D01*
X102677068Y-48084669D01*
X100626511Y-48317497D01*
X98578553Y-48566894D01*
X96536251Y-48832367D01*
X94502665Y-49113421D01*
X92480852Y-49409564D01*
X90473870Y-49720301D01*
X88484777Y-50045139D01*
X86516632Y-50383583D01*
X84572492Y-50735140D01*
X82655416Y-51099316D01*
X80768462Y-51475617D01*
X78914687Y-51863549D01*
X77097150Y-52262619D01*
X76074584Y-52495798D01*
X75886648Y-52539690D01*
X75670627Y-52590903D01*
X75431642Y-52648171D01*
X75174810Y-52710228D01*
X74905251Y-52775809D01*
X74628082Y-52843650D01*
X74348422Y-52912485D01*
X74071391Y-52981049D01*
X73802106Y-53048076D01*
X73545686Y-53112303D01*
X73307250Y-53172462D01*
X73091916Y-53227289D01*
X72904803Y-53275520D01*
X72751030Y-53315888D01*
X72684526Y-53333737D01*
X72317802Y-53433213D01*
X70564166Y-55711969D01*
X70564166Y-60675942D01*
X72924108Y-63036166D01*
X85429636Y-63036166D01*
X86281558Y-63036199D01*
X87109563Y-63036296D01*
X87912925Y-63036457D01*
X88690919Y-63036681D01*
X89442819Y-63036965D01*
X90167900Y-63037310D01*
X90865437Y-63037714D01*
X91534703Y-63038176D01*
X92174974Y-63038694D01*
X92785524Y-63039268D01*
X93365628Y-63039897D01*
X93914559Y-63040579D01*
X94431594Y-63041313D01*
X94916006Y-63042099D01*
X95367070Y-63042934D01*
X95784060Y-63043819D01*
X96166251Y-63044751D01*
X96512918Y-63045729D01*
X96823335Y-63046753D01*
X97096777Y-63047822D01*
X97332518Y-63048934D01*
X97529832Y-63050087D01*
X97687995Y-63051282D01*
X97806281Y-63052517D01*
X97883964Y-63053790D01*
X97920320Y-63055101D01*
X97923144Y-63055616D01*
X97899820Y-63074907D01*
X97849646Y-63107506D01*
X97783057Y-63146671D01*
X97776684Y-63150249D01*
X97671270Y-63212691D01*
X97536233Y-63298277D01*
X97375432Y-63404248D01*
X97192724Y-63527841D01*
X96991968Y-63666296D01*
X96777021Y-63816851D01*
X96551742Y-63976745D01*
X96319990Y-64143216D01*
X96085621Y-64313505D01*
X95852495Y-64484848D01*
X95624469Y-64654486D01*
X95405401Y-64819657D01*
X95199150Y-64977599D01*
X95009574Y-65125552D01*
X94943821Y-65177695D01*
X94413328Y-65611002D01*
X93889122Y-66059882D01*
X93375346Y-66520282D01*
X92876142Y-66988149D01*
X92395650Y-67459430D01*
X91938013Y-67930072D01*
X91507372Y-68396021D01*
X91107870Y-68853226D01*
X90778333Y-69253924D01*
X90720279Y-69324827D01*
X90671471Y-69380747D01*
X90637983Y-69414942D01*
X90626620Y-69422288D01*
X90608013Y-69405955D01*
X90566298Y-69363942D01*
X90506882Y-69301858D01*
X90435174Y-69225309D01*
X90401046Y-69188407D01*
X89992693Y-68775849D01*
X89551800Y-68388448D01*
X89080820Y-68027539D01*
X88582209Y-67694458D01*
X88058421Y-67390542D01*
X87511912Y-67117127D01*
X86945135Y-66875547D01*
X86360546Y-66667140D01*
X85760598Y-66493241D01*
X85222083Y-66369854D01*
X84938336Y-66315002D01*
X84678020Y-66269942D01*
X84432319Y-66233847D01*
X84192419Y-66205893D01*
X83949505Y-66185253D01*
X83694762Y-66171101D01*
X83419376Y-66162611D01*
X83114532Y-66158959D01*
X82967833Y-66158672D01*
X82704684Y-66159720D01*
X82476134Y-66162931D01*
X82274478Y-66168871D01*
X82092012Y-66178106D01*
X81921033Y-66191202D01*
X81753834Y-66208724D01*
X81582713Y-66231240D01*
X81399965Y-66259314D01*
X81246118Y-66285137D01*
X80596396Y-66418394D01*
X79960778Y-66591204D01*
X79340649Y-66802738D01*
X78737397Y-67052171D01*
X78152410Y-67338676D01*
X77587074Y-67661425D01*
X77042777Y-68019593D01*
X76520906Y-68412353D01*
X76022847Y-68838877D01*
X75549988Y-69298340D01*
X75103717Y-69789915D01*
X74852991Y-70095250D01*
X74481107Y-70598777D01*
X74139204Y-71129851D01*
X73829398Y-71684149D01*
X73553808Y-72257348D01*
X73314550Y-72845124D01*
X73113740Y-73443154D01*
X72987304Y-73905250D01*
X72851937Y-74541672D01*
X72758059Y-75182788D01*
X72705399Y-75826535D01*
X72693682Y-76470849D01*
X72722635Y-77113666D01*
X72791984Y-77752924D01*
X72901455Y-78386559D01*
X73050775Y-79012507D01*
X73239670Y-79628704D01*
X73467867Y-80233088D01*
X73735092Y-80823595D01*
X73962465Y-81258849D01*
X74298886Y-81823298D01*
X74668018Y-82361942D01*
X75068290Y-82873662D01*
X75498125Y-83357338D01*
X75955951Y-83811852D01*
X76440193Y-84236084D01*
X76949279Y-84628914D01*
X77481632Y-84989225D01*
X78035681Y-85315895D01*
X78609851Y-85607806D01*
X79202568Y-85863839D01*
X79812258Y-86082874D01*
X80437348Y-86263793D01*
X81076263Y-86405475D01*
X81241205Y-86435190D01*
X81431310Y-86466940D01*
X81601797Y-86493031D01*
X81759960Y-86513992D01*
X81913093Y-86530350D01*
X82068490Y-86542633D01*
X82233444Y-86551369D01*
X82415249Y-86557084D01*
X82621199Y-86560307D01*
X82858587Y-86561566D01*
X82989000Y-86561625D01*
X83208434Y-86561209D01*
X83391884Y-86560124D01*
X83545697Y-86558117D01*
X83676220Y-86554933D01*
X83789799Y-86550318D01*
X83892783Y-86544019D01*
X83991517Y-86535781D01*
X84092349Y-86525351D01*
X84193914Y-86513418D01*
X84819398Y-86420146D01*
X85418822Y-86295874D01*
X85996165Y-86139430D01*
X86555405Y-85949643D01*
X87100523Y-85725341D01*
X87475813Y-85547176D01*
X87744883Y-85412345D01*
X87877655Y-85765381D01*
X88193111Y-86544655D01*
X88549527Y-87314119D01*
X88946598Y-88073403D01*
X89384018Y-88822136D01*
X89861479Y-89559947D01*
X90378675Y-90286466D01*
X90935299Y-91001323D01*
X91531046Y-91704146D01*
X92165608Y-92394566D01*
X92838680Y-93072212D01*
X93549954Y-93736712D01*
X94299124Y-94387698D01*
X95085884Y-95024797D01*
X95909927Y-95647641D01*
X96260500Y-95900227D01*
X97097012Y-96474672D01*
X97971624Y-97036554D01*
X98881556Y-97584315D01*
X99824028Y-98116393D01*
X100796261Y-98631227D01*
X101795475Y-99127258D01*
X102818890Y-99602926D01*
X103002083Y-99684763D01*
X103143239Y-99747281D01*
X103278509Y-99806892D01*
X103400868Y-99860524D01*
X103503294Y-99905105D01*
X103578763Y-99937563D01*
X103610625Y-99950947D01*
X103674240Y-99980534D01*
X103718288Y-100007607D01*
X103732333Y-100024172D01*
X103728552Y-100052685D01*
X103718207Y-100114216D01*
X103702799Y-100200223D01*
X103683825Y-100302167D01*
X103680080Y-100321902D01*
X103615435Y-100719331D01*
X103576898Y-101101150D01*
X103565150Y-101472657D01*
X103580874Y-101839147D01*
X103624751Y-102205917D01*
X103697465Y-102578262D01*
X103799696Y-102961479D01*
X103932128Y-103360864D01*
X104095442Y-103781713D01*
X104139135Y-103886092D01*
X104268552Y-104191268D01*
X104210723Y-104288259D01*
X104090712Y-104508782D01*
X103974403Y-104758576D01*
X103866883Y-105024603D01*
X103773244Y-105293823D01*
X103698572Y-105553197D01*
X103670548Y-105672290D01*
X103631927Y-105878212D01*
X103601450Y-106095586D01*
X103579456Y-106316730D01*
X103566282Y-106533962D01*
X103562269Y-106739599D01*
X103567755Y-106925960D01*
X103583078Y-107085361D01*
X103603524Y-107191739D01*
X103625063Y-107272606D01*
X103644369Y-107340749D01*
X103657650Y-107382839D01*
X103658706Y-107385625D01*
X103658806Y-107389420D01*
X103655004Y-107392948D01*
X103645814Y-107396218D01*
X103629751Y-107399240D01*
X103605329Y-107402024D01*
X103571062Y-107404580D01*
X103525466Y-107406918D01*
X103467055Y-107409047D01*
X103394342Y-107410977D01*
X103305842Y-107412719D01*
X103200071Y-107414282D01*
X103075541Y-107415676D01*
X102930769Y-107416910D01*
X102764267Y-107417996D01*
X102574552Y-107418941D01*
X102360136Y-107419757D01*
X102119534Y-107420454D01*
X101851262Y-107421040D01*
X101553833Y-107421526D01*
X101225762Y-107421923D01*
X100865563Y-107422238D01*
X100471750Y-107422483D01*
X100042839Y-107422668D01*
X99577344Y-107422802D01*
X99073778Y-107422894D01*
X98530657Y-107422956D01*
X98024889Y-107422992D01*
X92376416Y-107423318D01*
X91516779Y-107724674D01*
X90657141Y-108026030D01*
X88278279Y-110333677D01*
X87061524Y-111513906D01*
X85852256Y-112686675D01*
X84651033Y-113851444D01*
X83458416Y-115007671D01*
X82274963Y-116154816D01*
X81101235Y-117292339D01*
X79937790Y-118419698D01*
X78785189Y-119536355D01*
X77643990Y-120641767D01*
X76514753Y-121735395D01*
X75398039Y-122816697D01*
X74294405Y-123885134D01*
X73204412Y-124940164D01*
X72128620Y-125981247D01*
X71067586Y-127007843D01*
X70021872Y-128019411D01*
X68992037Y-129015411D01*
X67978640Y-129995301D01*
X66982240Y-130958541D01*
X66003398Y-131904591D01*
X65042672Y-132832911D01*
X64100622Y-133742959D01*
X63177808Y-134634195D01*
X62274789Y-135506078D01*
X61392124Y-136358069D01*
X60530374Y-137189626D01*
X59690097Y-138000208D01*
X58871853Y-138789276D01*
X58076201Y-139556289D01*
X57303702Y-140300705D01*
X56554914Y-141021985D01*
X55830397Y-141719589D01*
X55130710Y-142392974D01*
X54456413Y-143041602D01*
X53808066Y-143664930D01*
X53186228Y-144262420D01*
X52591458Y-144833529D01*
X52024316Y-145377719D01*
X51485362Y-145894447D01*
X50975154Y-146383174D01*
X50494253Y-146843358D01*
X50117166Y-147203818D01*
X49602375Y-147697496D01*
X49117904Y-148165994D01*
X48661702Y-148611413D01*
X48231718Y-149035854D01*
X47825903Y-149441418D01*
X47442205Y-149830206D01*
X47078574Y-150204319D01*
X46732958Y-150565858D01*
X46403308Y-150916924D01*
X46087573Y-151259619D01*
X45783702Y-151596042D01*
X45489644Y-151928296D01*
X45353579Y-152084377D01*
X44682737Y-152877040D01*
X44052643Y-153661776D01*
X43462684Y-154439683D01*
X42912249Y-155211858D01*
X42400724Y-155979398D01*
X41927498Y-156743400D01*
X41491958Y-157504960D01*
X41093491Y-158265176D01*
X40731486Y-159025145D01*
X40405329Y-159785963D01*
X40114408Y-160548728D01*
X39858112Y-161314537D01*
X39635826Y-162084486D01*
X39523908Y-162526460D01*
X39431415Y-162931118D01*
X39346568Y-163345443D01*
X39267685Y-163778460D01*
X39193084Y-164239194D01*
X39148502Y-164540916D01*
X39100102Y-164879583D01*
X39093720Y-183675583D01*
X39093340Y-184841981D01*
X39093009Y-185966527D01*
X39092725Y-187049704D01*
X39092490Y-188091994D01*
X39092305Y-189093879D01*
X39092169Y-190055840D01*
X39092083Y-190978360D01*
X39092047Y-191861920D01*
X29627833Y-191861920D01*
X29627833Y-24936166D01*
X216000333Y-24936166D01*
X216000333Y-279655833D01*
G37*
X216000333Y-279655833D02*
X29627833Y-279655833D01*
X29627833Y-191861920D01*
X39092047Y-191861920D01*
X39092062Y-192707003D01*
X39092128Y-193514091D01*
X39092246Y-194283665D01*
X39092417Y-195016208D01*
X39092639Y-195712202D01*
X39092915Y-196372128D01*
X39093244Y-196996469D01*
X39093627Y-197585706D01*
X39094064Y-198140322D01*
X39094556Y-198660798D01*
X39095103Y-199147618D01*
X39095706Y-199601261D01*
X39096364Y-200022211D01*
X39097079Y-200410950D01*
X39097851Y-200767959D01*
X39098680Y-201093721D01*
X39099567Y-201388717D01*
X39100512Y-201653430D01*
X39101516Y-201888341D01*
X39102578Y-202093933D01*
X39103700Y-202270687D01*
X39104882Y-202419086D01*
X39106124Y-202539611D01*
X39107427Y-202632745D01*
X39108791Y-202698969D01*
X39110217Y-202738766D01*
X39110748Y-202746750D01*
X39171059Y-203218927D01*
X39269515Y-203677244D01*
X39404534Y-204119899D01*
X39574534Y-204545085D01*
X39777931Y-204951001D01*
X40013143Y-205335841D01*
X40278588Y-205697801D01*
X40572684Y-206035079D01*
X40893847Y-206345869D01*
X41240494Y-206628368D01*
X41611045Y-206880771D01*
X42003915Y-207101276D01*
X42417523Y-207288077D01*
X42850285Y-207439372D01*
X43300620Y-207553355D01*
X43333250Y-207559988D01*
X43502537Y-207592277D01*
X43652591Y-207616783D01*
X43794322Y-207634489D01*
X43938638Y-207646375D01*
X44096446Y-207653423D01*
X44278656Y-207656613D01*
X44412750Y-207657084D01*
X44625683Y-207655509D01*
X44807272Y-207650236D01*
X44968416Y-207640295D01*
X45120016Y-207624713D01*
X45272974Y-207602519D01*
X45438188Y-207572744D01*
X45502833Y-207559968D01*
X45952842Y-207448003D01*
X46393145Y-207295831D01*
X46820186Y-207105130D01*
X47230410Y-206877577D01*
X47620261Y-206614851D01*
X47799416Y-206476493D01*
X48033795Y-206272175D01*
X48271257Y-206036576D01*
X48503335Y-205779143D01*
X48721561Y-205509324D01*
X48917469Y-205236564D01*
X48936874Y-205207420D01*
X48993310Y-205122869D01*
X49040805Y-205053390D01*
X49074885Y-205005406D01*
X49091075Y-204985337D01*
X49091733Y-204985170D01*
X49104504Y-205003667D01*
X49136519Y-205050979D01*
X49183484Y-205120735D01*
X49241105Y-205206566D01*
X49266472Y-205244416D01*
X49418978Y-205464059D01*
X49566199Y-205657826D01*
X49718988Y-205838980D01*
X49888198Y-206020781D01*
X49968459Y-206102207D01*
X50322131Y-206426883D01*
X50697113Y-206715018D01*
X51092967Y-206966393D01*
X51509260Y-207180790D01*
X51945557Y-207357990D01*
X52401423Y-207497775D01*
X52876422Y-207599927D01*
X52985250Y-207617605D01*
X53134281Y-207635106D01*
X53314464Y-207647790D01*
X53515578Y-207655647D01*
X53727403Y-207658667D01*
X53939721Y-207656841D01*
X54142309Y-207650158D01*
X54324949Y-207638609D01*
X54477421Y-207622184D01*
X54498666Y-207619051D01*
X54976930Y-207524338D01*
X55440034Y-207390849D01*
X55886128Y-207219706D01*
X56313363Y-207012028D01*
X56719888Y-206768935D01*
X57103854Y-206491545D01*
X57463410Y-206180979D01*
X57796707Y-205838356D01*
X58101895Y-205464796D01*
X58137409Y-205416756D01*
X58205672Y-205321662D01*
X58271104Y-205227480D01*
X58326060Y-205145390D01*
X58361583Y-205088828D01*
X58397012Y-205031439D01*
X58424284Y-204992651D01*
X58435666Y-204981776D01*
X58450480Y-204998912D01*
X58483629Y-205045074D01*
X58530547Y-205113685D01*
X58586670Y-205198165D01*
X58600618Y-205219481D01*
X58874952Y-205601479D01*
X59181536Y-205956602D01*
X59518877Y-206283540D01*
X59885483Y-206580983D01*
X60279863Y-206847624D01*
X60700523Y-207082153D01*
X60753416Y-207108429D01*
X61136070Y-207280821D01*
X61513991Y-207418862D01*
X61900169Y-207526645D01*
X62307593Y-207608263D01*
X62372666Y-207618708D01*
X62489986Y-207632633D01*
X62637989Y-207643562D01*
X62807642Y-207651425D01*
X62989912Y-207656153D01*
X63175765Y-207657677D01*
X63356168Y-207655930D01*
X63522086Y-207650840D01*
X63664487Y-207642341D01*
X63774336Y-207630362D01*
X63780250Y-207629443D01*
X64128555Y-207567144D01*
X64437363Y-207497356D01*
X64637500Y-207441896D01*
X65085969Y-207284406D01*
X65518596Y-207088243D01*
X65932981Y-206854876D01*
X66326721Y-206585774D01*
X66697415Y-206282406D01*
X66987782Y-206003670D01*
X67140442Y-205842226D01*
X67271052Y-205694190D01*
X67390331Y-205546360D01*
X67509001Y-205385531D01*
X67619492Y-205225648D01*
X67786447Y-204978569D01*
X67916412Y-205190059D01*
X68177091Y-205574343D01*
X68469345Y-205931503D01*
X68790946Y-206259904D01*
X69139670Y-206557909D01*
X69513289Y-206823884D01*
X69909579Y-207056193D01*
X70326312Y-207253200D01*
X70761263Y-207413271D01*
X71057619Y-207497987D01*
X71312864Y-207558295D01*
X71546200Y-207602728D01*
X71773939Y-207633619D01*
X72012389Y-207653299D01*
X72204583Y-207661993D01*
X72684356Y-207657615D01*
X73154840Y-207613657D01*
X73614012Y-207531307D01*
X74059852Y-207411756D01*
X74490338Y-207256192D01*
X74903449Y-207065806D01*
X75297163Y-206841788D01*
X75669460Y-206585326D01*
X76018316Y-206297611D01*
X76341712Y-205979832D01*
X76637626Y-205633179D01*
X76904036Y-205258841D01*
X77138921Y-204858009D01*
X77211561Y-204715250D01*
X77318151Y-204490224D01*
X77405493Y-204287648D01*
X77478283Y-204095062D01*
X77541217Y-203900003D01*
X77598989Y-203690011D01*
X77601262Y-203681116D01*
X77669167Y-203388763D01*
X77719091Y-203110723D01*
X77754860Y-202825024D01*
X77760386Y-202767916D01*
X77762371Y-202724838D01*
X77764261Y-202639516D01*
X77766057Y-202512041D01*
X77767758Y-202342502D01*
X77769365Y-202130990D01*
X77770876Y-201877594D01*
X77772291Y-201582404D01*
X77773611Y-201245510D01*
X77774835Y-200867001D01*
X77775964Y-200446969D01*
X77776996Y-199985502D01*
X77777931Y-199482691D01*
X77778770Y-198938625D01*
X77779513Y-198353395D01*
X77780158Y-197727089D01*
X77780706Y-197059799D01*
X77781157Y-196351614D01*
X77781510Y-195602623D01*
X77781765Y-194812918D01*
X77781922Y-193982586D01*
X77781981Y-193111720D01*
X77781982Y-193036541D01*
X77782015Y-192404714D01*
X77782109Y-191783631D01*
X77782264Y-191174632D01*
X77782476Y-190579053D01*
X77782745Y-189998233D01*
X77783067Y-189433508D01*
X77783441Y-188886218D01*
X77783864Y-188357698D01*
X77784336Y-187849289D01*
X77784853Y-187362326D01*
X77785413Y-186898148D01*
X77786016Y-186458092D01*
X77786658Y-186043496D01*
X77787338Y-185655699D01*
X77788053Y-185296037D01*
X77788802Y-184965848D01*
X77789582Y-184666471D01*
X77790392Y-184399242D01*
X77791230Y-184165500D01*
X77792093Y-183966582D01*
X77792979Y-183803826D01*
X77793887Y-183678570D01*
X77794814Y-183592152D01*
X77795759Y-183545909D01*
X77796346Y-183538000D01*
X77814589Y-183552281D01*
X77858859Y-183592579D01*
X77925150Y-183655078D01*
X78009455Y-183735960D01*
X78107768Y-183831409D01*
X78216083Y-183937607D01*
X78224971Y-183946365D01*
X78428372Y-184143538D01*
X78612674Y-184314428D01*
X78785635Y-184465475D01*
X78955013Y-184603116D01*
X79128569Y-184733792D01*
X79314061Y-184863942D01*
X79401250Y-184922562D01*
X79878979Y-185216356D01*
X80367071Y-185469233D01*
X80866316Y-185681431D01*
X81377508Y-185853190D01*
X81901437Y-185984748D01*
X82438898Y-186076343D01*
X82990680Y-186128214D01*
X83447132Y-186141273D01*
X83822237Y-186133840D01*
X84170455Y-186110032D01*
X84504595Y-186068177D01*
X84837467Y-186006605D01*
X85181882Y-185923647D01*
X85243292Y-185907081D01*
X85724643Y-185756062D01*
X86198808Y-185569446D01*
X86661459Y-185349929D01*
X87108269Y-185100211D01*
X87534908Y-184822989D01*
X87937050Y-184520963D01*
X88310367Y-184196829D01*
X88650531Y-183853287D01*
X88788521Y-183696750D01*
X89128636Y-183266669D01*
X89429603Y-182822972D01*
X89692184Y-182363931D01*
X89917141Y-181887817D01*
X90105236Y-181392904D01*
X90257231Y-180877463D01*
X90373890Y-180339767D01*
X90431956Y-179971416D01*
X90447231Y-179825671D01*
X90458839Y-179647206D01*
X90466781Y-179445010D01*
X90471056Y-179228072D01*
X90471665Y-179005381D01*
X90468607Y-178785927D01*
X90461882Y-178578699D01*
X90451491Y-178392685D01*
X90437433Y-178236875D01*
X90431961Y-178193416D01*
X90337206Y-177650474D01*
X90205259Y-177126959D01*
X90036332Y-176623367D01*
X89830638Y-176140191D01*
X89588391Y-175677926D01*
X89309802Y-175237066D01*
X88995084Y-174818106D01*
X88963497Y-174779682D01*
X88935006Y-174748167D01*
X88878073Y-174687908D01*
X88794028Y-174600256D01*
X88684198Y-174486564D01*
X88549913Y-174348185D01*
X88392500Y-174186472D01*
X88213288Y-174002776D01*
X88013607Y-173798450D01*
X87794784Y-173574847D01*
X87558148Y-173333319D01*
X87305028Y-173075219D01*
X87036752Y-172801899D01*
X86754649Y-172514711D01*
X86460048Y-172215009D01*
X86154277Y-171904145D01*
X85838664Y-171583470D01*
X85514539Y-171254339D01*
X85183230Y-170918102D01*
X84846065Y-170576114D01*
X84504373Y-170229725D01*
X84159483Y-169880290D01*
X83812723Y-169529159D01*
X83465423Y-169177686D01*
X83118909Y-168827223D01*
X82774512Y-168479123D01*
X82746853Y-168451177D01*
X81901457Y-167597023D01*
X84514238Y-164984178D01*
X84791665Y-164706833D01*
X85061092Y-164437663D01*
X85320989Y-164178186D01*
X85569830Y-163929920D01*
X85806088Y-163694383D01*
X86028234Y-163473094D01*
X86234743Y-163267570D01*
X86424086Y-163079330D01*
X86594736Y-162909892D01*
X86745165Y-162760774D01*
X86873847Y-162633494D01*
X86979254Y-162529570D01*
X87059858Y-162450521D01*
X87114132Y-162397865D01*
X87140550Y-162373119D01*
X87142926Y-162371333D01*
X87145405Y-162391971D01*
X87147767Y-162451769D01*
X87149980Y-162547556D01*
X87152014Y-162676157D01*
X87153841Y-162834402D01*
X87155429Y-163019117D01*
X87156750Y-163227129D01*
X87157772Y-163455266D01*
X87158467Y-163700356D01*
X87158805Y-163959225D01*
X87158833Y-164060046D01*
X87158833Y-165748759D01*
X88744069Y-170341254D01*
X88914156Y-170834003D01*
X89093396Y-171353264D01*
X89280242Y-171894559D01*
X89473148Y-172453409D01*
X89670568Y-173025333D01*
X89870956Y-173605854D01*
X90072765Y-174190491D01*
X90274450Y-174774766D01*
X90474463Y-175354199D01*
X90671260Y-175924310D01*
X90863294Y-176480622D01*
X91049018Y-177018653D01*
X91226887Y-177533926D01*
X91395353Y-178021961D01*
X91552872Y-178478278D01*
X91677393Y-178839000D01*
X91813829Y-179234271D01*
X91947118Y-179620481D01*
X92076555Y-179995588D01*
X92201435Y-180357547D01*
X92321054Y-180704314D01*
X92434707Y-181033844D01*
X92541689Y-181344095D01*
X92641297Y-181633023D01*
X92732825Y-181898582D01*
X92815569Y-182138730D01*
X92888824Y-182351423D01*
X92951887Y-182534616D01*
X93004052Y-182686265D01*
X93044614Y-182804328D01*
X93072870Y-182886759D01*
X93088115Y-182931515D01*
X93089201Y-182934750D01*
X93152923Y-183125250D01*
X91214211Y-209849732D01*
X91137159Y-210911919D01*
X91060846Y-211964028D01*
X90985329Y-213005260D01*
X90910666Y-214034820D01*
X90836915Y-215051909D01*
X90764134Y-216055731D01*
X90692379Y-217045489D01*
X90621710Y-218020386D01*
X90552183Y-218979624D01*
X90483855Y-219922408D01*
X90416786Y-220847938D01*
X90351032Y-221755420D01*
X90286652Y-222644055D01*
X90223702Y-223513046D01*
X90162241Y-224361597D01*
X90102326Y-225188911D01*
X90044014Y-225994189D01*
X89987365Y-226776636D01*
X89932434Y-227535455D01*
X89879281Y-228269847D01*
X89827962Y-228979017D01*
X89778535Y-229662167D01*
X89731058Y-230318500D01*
X89685589Y-230947218D01*
X89642185Y-231547526D01*
X89600904Y-232118626D01*
X89561804Y-232659721D01*
X89524942Y-233170014D01*
X89490376Y-233648707D01*
X89458163Y-234095004D01*
X89428362Y-234508108D01*
X89401030Y-234887221D01*
X89376225Y-235231548D01*
X89354004Y-235540289D01*
X89334425Y-235812649D01*
X89317546Y-236047831D01*
X89303424Y-236245037D01*
X89292117Y-236403471D01*
X89283683Y-236522335D01*
X89278180Y-236600832D01*
X89275664Y-236638165D01*
X89275500Y-236641311D01*
X89275500Y-236708407D01*
X73945541Y-236713828D01*
X58615583Y-236719250D01*
X58351000Y-236768959D01*
X57888819Y-236875795D01*
X57447769Y-237018996D01*
X57025920Y-237199431D01*
X56621340Y-237417964D01*
X56232101Y-237675462D01*
X56086166Y-237784982D01*
X55973625Y-237878113D01*
X55843433Y-237995304D01*
X55704558Y-238127697D01*
X55565964Y-238266433D01*
X55436617Y-238402652D01*
X55325484Y-238527495D01*
X55283004Y-238578594D01*
X55041502Y-238906145D01*
X54822557Y-239260780D01*
X54630543Y-239633794D01*
X54469835Y-240016485D01*
X54344806Y-240400148D01*
X54319472Y-240495845D01*
X54230137Y-240934981D01*
X54182345Y-241375190D01*
X54175445Y-241814087D01*
X54208788Y-242249286D01*
X54281726Y-242678403D01*
X54393608Y-243099051D01*
X54543785Y-243508846D01*
X54731607Y-243905403D01*
X54956426Y-244286336D01*
X55217591Y-244649261D01*
X55514453Y-244991791D01*
X55555282Y-245034336D01*
X55625836Y-245105844D01*
X55694804Y-245172807D01*
X55768853Y-245241220D01*
X55854652Y-245317075D01*
X55958869Y-245406368D01*
X56088170Y-245515092D01*
X56115358Y-245537801D01*
X56106506Y-245556448D01*
X56071113Y-245599625D01*
X56013388Y-245662771D01*
X55937541Y-245741323D01*
X55847781Y-245830718D01*
X55821360Y-245856458D01*
X55710817Y-245966270D01*
X55596749Y-246084156D01*
X55488064Y-246200592D01*
X55393674Y-246306055D01*
X55329824Y-246381833D01*
X55047509Y-246763531D01*
X54804027Y-247158140D01*
X54599675Y-247563920D01*
X54434748Y-247979131D01*
X54309543Y-248402033D01*
X54224355Y-248830884D01*
X54179481Y-249263945D01*
X54175217Y-249699475D01*
X54211859Y-250135734D01*
X54289703Y-250570982D01*
X54409045Y-251003477D01*
X54500010Y-251259164D01*
X54661111Y-251626355D01*
X54858670Y-251992261D01*
X55087309Y-252349121D01*
X55341651Y-252689178D01*
X55616319Y-253004671D01*
X55905934Y-253287842D01*
X55905957Y-253287863D01*
X55984409Y-253358799D01*
X56050632Y-253419979D01*
X56098608Y-253465749D01*
X56122322Y-253490450D01*
X56123726Y-253492592D01*
X56110527Y-253510859D01*
X56070295Y-253550216D01*
X56008962Y-253605195D01*
X55932460Y-253670327D01*
X55917666Y-253682600D01*
X55607983Y-253964689D01*
X55319755Y-254280010D01*
X55056703Y-254623356D01*
X54822543Y-254989522D01*
X54620996Y-255373300D01*
X54487571Y-255684756D01*
X54348664Y-256102245D01*
X54249728Y-256530114D01*
X54190702Y-256964983D01*
X54171524Y-257403470D01*
X54192132Y-257842195D01*
X54252462Y-258277777D01*
X54352453Y-258706837D01*
X54492042Y-259125993D01*
X54553808Y-259278116D01*
X54732681Y-259649267D01*
X54949072Y-260015159D01*
X55198188Y-260369223D01*
X55475234Y-260704893D01*
X55775416Y-261015601D01*
X55917625Y-261146283D01*
X55995525Y-261216177D01*
X56060435Y-261276372D01*
X56106466Y-261321259D01*
X56127730Y-261345231D01*
X56128500Y-261347146D01*
X56113011Y-261366149D01*
X56071975Y-261403477D01*
X56013534Y-261451822D01*
X55999285Y-261463105D01*
X55867055Y-261573757D01*
X55721352Y-261707051D01*
X55573869Y-261851585D01*
X55436299Y-261995958D01*
X55336255Y-262109601D01*
X55054584Y-262477189D01*
X54811300Y-262862380D01*
X54606780Y-263264139D01*
X54441400Y-263681432D01*
X54315538Y-264113225D01*
X54229571Y-264558483D01*
X54183874Y-265016172D01*
X54175948Y-265294250D01*
X54176319Y-265434588D01*
X54178744Y-265541617D01*
X54184006Y-265624343D01*
X54192890Y-265691770D01*
X54206179Y-265752905D01*
X54220179Y-265802250D01*
X54265297Y-265950416D01*
X54133273Y-266076199D01*
X54092782Y-266114805D01*
X54025045Y-266179424D01*
X53933435Y-266266836D01*
X53821327Y-266373821D01*
X53692093Y-266497160D01*
X53549108Y-266633632D01*
X53395746Y-266780019D01*
X53235379Y-266933100D01*
X53159875Y-267005177D01*
X52318500Y-267808373D01*
X52318500Y-276237279D01*
X53530222Y-277449139D01*
X54741945Y-278661000D01*
X197680583Y-278657698D01*
X200019499Y-276228870D01*
X200019499Y-267813259D01*
X199088567Y-266881838D01*
X198157635Y-265950416D01*
X198203490Y-265812833D01*
X198220620Y-265756641D01*
X198232914Y-265701227D01*
X198241131Y-265638107D01*
X198246030Y-265558800D01*
X198248367Y-265454824D01*
X198248901Y-265317697D01*
X198248889Y-265304833D01*
X198237158Y-264933675D01*
X198201513Y-264585666D01*
X198139845Y-264247668D01*
X198050043Y-263906545D01*
X197998129Y-263743228D01*
X197843301Y-263344865D01*
X197650158Y-262959252D01*
X197421800Y-262590679D01*
X197161329Y-262243432D01*
X196871848Y-261921798D01*
X196556458Y-261630065D01*
X196352375Y-261468401D01*
X196287222Y-261418401D01*
X196237642Y-261377526D01*
X196211589Y-261352444D01*
X196209500Y-261348604D01*
X196224836Y-261330775D01*
X196266781Y-261291556D01*
X196329233Y-261236434D01*
X196406093Y-261170896D01*
X196420196Y-261159078D01*
X196755389Y-260854910D01*
X197062603Y-260527136D01*
X197338375Y-260180122D01*
X197579242Y-259818233D01*
X197781739Y-259445833D01*
X197785088Y-259438899D01*
X197948060Y-259065384D01*
X198073932Y-258695251D01*
X198164490Y-258320636D01*
X198221522Y-257933671D01*
X198246814Y-257526491D01*
X198248480Y-257399083D01*
X198233969Y-256985858D01*
X198187029Y-256593637D01*
X198105845Y-256214500D01*
X197988601Y-255840529D01*
X197833482Y-255463802D01*
X197777759Y-255345916D01*
X197564554Y-254955652D01*
X197315781Y-254587065D01*
X197033855Y-254243135D01*
X196721190Y-253926841D01*
X196424672Y-253675397D01*
X196344048Y-253611560D01*
X196277186Y-253556705D01*
X196230376Y-253516136D01*
X196209909Y-253495155D01*
X196209500Y-253493987D01*
X196224880Y-253475267D01*
X196265733Y-253437724D01*
X196324125Y-253388535D01*
X196342190Y-253373931D01*
X196635147Y-253117456D01*
X196918410Y-252827271D01*
X197184978Y-252511913D01*
X197427851Y-252179919D01*
X197640026Y-251839828D01*
X197719327Y-251694666D01*
X197904478Y-251295052D01*
X198050616Y-250881286D01*
X198157329Y-250456603D01*
X198224203Y-250024235D01*
X198250825Y-249587413D01*
X198236783Y-249149372D01*
X198181664Y-248713343D01*
X198131663Y-248466750D01*
X198014184Y-248051701D01*
X197856413Y-247645544D01*
X197659882Y-247250649D01*
X197426128Y-246869384D01*
X197156683Y-246504118D01*
X196853084Y-246157220D01*
X196516863Y-245831059D01*
X196309971Y-245654325D01*
X196257098Y-245609122D01*
X196220702Y-245574009D01*
X196209500Y-245558527D01*
X196225282Y-245540359D01*
X196267348Y-245503966D01*
X196327775Y-245456065D01*
X196352375Y-245437389D01*
X196561451Y-245268918D01*
X196774354Y-245076427D01*
X196976208Y-244873876D01*
X197106218Y-244729804D01*
X197383619Y-244376014D01*
X197622808Y-244006061D01*
X197823746Y-243622090D01*
X197986392Y-243226246D01*
X198110704Y-242820674D01*
X198196641Y-242407518D01*
X198244164Y-241988924D01*
X198253231Y-241567037D01*
X198223800Y-241144000D01*
X198155832Y-240721960D01*
X198049285Y-240303061D01*
X197904119Y-239889448D01*
X197720292Y-239483265D01*
X197497764Y-239086658D01*
X197236494Y-238701772D01*
X197221493Y-238681646D01*
X197119278Y-238554602D01*
X196991544Y-238410525D01*
X196846648Y-238257767D01*
X196692950Y-238104677D01*
X196538809Y-237959608D01*
X196392584Y-237830909D01*
X196275643Y-237736725D01*
X195914712Y-237484939D01*
X195541159Y-237269036D01*
X195150585Y-237087083D01*
X194738587Y-236937150D01*
X194300765Y-236817305D01*
X194067136Y-236767346D01*
X193828250Y-236720705D01*
X178493418Y-236709394D01*
X163158587Y-236698083D01*
X161662352Y-216515666D01*
X161590827Y-215550870D01*
X161519047Y-214582628D01*
X161447115Y-213612300D01*
X161375129Y-212641245D01*
X161303192Y-211670822D01*
X161231403Y-210702391D01*
X161159864Y-209737311D01*
X161088675Y-208776942D01*
X161017937Y-207822641D01*
X160947751Y-206875769D01*
X160878217Y-205937685D01*
X160809437Y-205009749D01*
X160741511Y-204093318D01*
X160674539Y-203189754D01*
X160608622Y-202300414D01*
X160543862Y-201426658D01*
X160480359Y-200569846D01*
X160418214Y-199731337D01*
X160357526Y-198912489D01*
X160298398Y-198114663D01*
X160240930Y-197339217D01*
X160185223Y-196587511D01*
X160131377Y-195860903D01*
X160079493Y-195160754D01*
X160029671Y-194488422D01*
X159982014Y-193845267D01*
X159936621Y-193232648D01*
X159893592Y-192651924D01*
X159853030Y-192104454D01*
X159815034Y-191591598D01*
X159779706Y-191114715D01*
X159747145Y-190675165D01*
X159717453Y-190274305D01*
X159690731Y-189913497D01*
X159676303Y-189718666D01*
X159186490Y-183104083D01*
X160688963Y-178489750D01*
X160852731Y-177986781D01*
X161027965Y-177448582D01*
X161213028Y-176880180D01*
X161406284Y-176286598D01*
X161606097Y-175672864D01*
X161810831Y-175044003D01*
X162018849Y-174405039D01*
X162228517Y-173760999D01*
X162438197Y-173116908D01*
X162646255Y-172477792D01*
X162851053Y-171848676D01*
X163050955Y-171234585D01*
X163244327Y-170640545D01*
X163429530Y-170071582D01*
X163604931Y-169532721D01*
X163727634Y-169155744D01*
X165263833Y-164436072D01*
X165263833Y-163403702D01*
X165264149Y-163199159D01*
X165265054Y-163008082D01*
X165266487Y-162834526D01*
X165268384Y-162682552D01*
X165270683Y-162556215D01*
X165273323Y-162459574D01*
X165276239Y-162396686D01*
X165279370Y-162371609D01*
X165279739Y-162371333D01*
X165296132Y-162386060D01*
X165340933Y-162429244D01*
X165412635Y-162499387D01*
X165509731Y-162594991D01*
X165630715Y-162714558D01*
X165774080Y-162856591D01*
X165938320Y-163019592D01*
X166121928Y-163202062D01*
X166323397Y-163402506D01*
X166541222Y-163619424D01*
X166773895Y-163851318D01*
X167019909Y-164096692D01*
X167277759Y-164354048D01*
X167545938Y-164621887D01*
X167822939Y-164898712D01*
X167980032Y-165055782D01*
X170664419Y-167740232D01*
X170747479Y-168098491D01*
X170965388Y-168945353D01*
X171223684Y-169781874D01*
X171521363Y-170606025D01*
X171857422Y-171415779D01*
X172230860Y-172209110D01*
X172640673Y-172983991D01*
X173085859Y-173738394D01*
X173565415Y-174470293D01*
X174078338Y-175177661D01*
X174531974Y-175748666D01*
X175061446Y-176360450D01*
X175622281Y-176955654D01*
X176208926Y-177529041D01*
X176815825Y-178075372D01*
X177437425Y-178589411D01*
X177989267Y-179008768D01*
X178730615Y-179523211D01*
X179491448Y-180000609D01*
X180270458Y-180440597D01*
X181066339Y-180842811D01*
X181877782Y-181206884D01*
X182703479Y-181532451D01*
X183542124Y-181819147D01*
X184392407Y-182066607D01*
X185253022Y-182274465D01*
X186122661Y-182442356D01*
X187000016Y-182569915D01*
X187883779Y-182656777D01*
X188772643Y-182702575D01*
X189665301Y-182706946D01*
X190560443Y-182669522D01*
X190979216Y-182637604D01*
X191865975Y-182539153D01*
X192744272Y-182399481D01*
X193612907Y-182219075D01*
X194470675Y-181998420D01*
X195316373Y-181738002D01*
X196148798Y-181438308D01*
X196966747Y-181099823D01*
X197769017Y-180723034D01*
X198554404Y-180308426D01*
X199321707Y-179856485D01*
X200069720Y-179367698D01*
X200797242Y-178842551D01*
X201250272Y-178488625D01*
X201666659Y-178140911D01*
X202092013Y-177762153D01*
X202518449Y-177360136D01*
X202938078Y-176942651D01*
X203343017Y-176517484D01*
X203725377Y-176092424D01*
X203983193Y-175789707D01*
X204508359Y-175126162D01*
X205008134Y-174431767D01*
X205479874Y-173711060D01*
X205920932Y-172968582D01*
X206328663Y-172208874D01*
X206700421Y-171436477D01*
X207033560Y-170655931D01*
X207152114Y-170351166D01*
X207444043Y-169524699D01*
X207696194Y-168692731D01*
X207909106Y-167852624D01*
X208083318Y-167001737D01*
X208219369Y-166137432D01*
X208317799Y-165257071D01*
X208379145Y-164358012D01*
X208379997Y-164339833D01*
X208380832Y-164302335D01*
X208381475Y-164229810D01*
X208381926Y-164122090D01*
X208382183Y-163979009D01*
X208382246Y-163800399D01*
X208382114Y-163586094D01*
X208381786Y-163335925D01*
X208381263Y-163049727D01*
X208380542Y-162727331D01*
X208379625Y-162368571D01*
X208378508Y-161973280D01*
X208377193Y-161541290D01*
X208375678Y-161072435D01*
X208373963Y-160566547D01*
X208372047Y-160023459D01*
X208369928Y-159443004D01*
X208367608Y-158825016D01*
X208365084Y-158169326D01*
X208362356Y-157475768D01*
X208359424Y-156744174D01*
X208356287Y-155974378D01*
X208352943Y-155166213D01*
X208349393Y-154319510D01*
X208345636Y-153434104D01*
X208341670Y-152509827D01*
X208337496Y-151546512D01*
X208333112Y-150543992D01*
X208328518Y-149502100D01*
X208323713Y-148420668D01*
X208318697Y-147299530D01*
X208313468Y-146138518D01*
X208308027Y-144937465D01*
X208302371Y-143696205D01*
X208296502Y-142414570D01*
X208290417Y-141092392D01*
X208284116Y-139729506D01*
X208277600Y-138325743D01*
X208270865Y-136880937D01*
X208263914Y-135394921D01*
X208256743Y-133867526D01*
X208249353Y-132298587D01*
X208241743Y-130687937D01*
X208233913Y-129035407D01*
X208225861Y-127340831D01*
X208219963Y-126102250D01*
X208212536Y-124544915D01*
X208205301Y-123029370D01*
X208198254Y-121555073D01*
X208191392Y-120121481D01*
X208184712Y-118728051D01*
X208178211Y-117374239D01*
X208171887Y-116059504D01*
X208165736Y-114783303D01*
X208159756Y-113545093D01*
X208153942Y-112344331D01*
X208148293Y-111180474D01*
X208142805Y-110052980D01*
X208137475Y-108961306D01*
X208132301Y-107904909D01*
X208127279Y-106883247D01*
X208122406Y-105895776D01*
X208117679Y-104941954D01*
X208113095Y-104021239D01*
X208108652Y-103133086D01*
X208104346Y-102276955D01*
X208100174Y-101452302D01*
X208096134Y-100658584D01*
X208092221Y-99895258D01*
X208088434Y-99161782D01*
X208084769Y-98457613D01*
X208081223Y-97782209D01*
X208077794Y-97135025D01*
X208074478Y-96515521D01*
X208071272Y-95923153D01*
X208068173Y-95357378D01*
X208065178Y-94817653D01*
X208062285Y-94303436D01*
X208059489Y-93814184D01*
X208056789Y-93349355D01*
X208054182Y-92908405D01*
X208051663Y-92490792D01*
X208049231Y-92095973D01*
X208046881Y-91723405D01*
X208044612Y-91372546D01*
X208042420Y-91042853D01*
X208040303Y-90733782D01*
X208038256Y-90444792D01*
X208036278Y-90175340D01*
X208034365Y-89924882D01*
X208032514Y-89692877D01*
X208030722Y-89478781D01*
X208028987Y-89282051D01*
X208027304Y-89102145D01*
X208025672Y-88938521D01*
X208024087Y-88790635D01*
X208022546Y-88657944D01*
X208021047Y-88539906D01*
X208019585Y-88435979D01*
X208018159Y-88345619D01*
X208016765Y-88268283D01*
X208015400Y-88203429D01*
X208014061Y-88150515D01*
X208012745Y-88108997D01*
X208011450Y-88078332D01*
X208010171Y-88057979D01*
X208009506Y-88051240D01*
X207932134Y-87585918D01*
X207816885Y-87137335D01*
X207665356Y-86707102D01*
X207479144Y-86296830D01*
X207259844Y-85908130D01*
X207009054Y-85542613D01*
X206728369Y-85201890D01*
X206419388Y-84887572D01*
X206083706Y-84601269D01*
X205722920Y-84344593D01*
X205338627Y-84119154D01*
X204932422Y-83926563D01*
X204505904Y-83768432D01*
X204060667Y-83646371D01*
X203598310Y-83561991D01*
X203554333Y-83556095D01*
X203341800Y-83534983D01*
X203104879Y-83522584D01*
X202856139Y-83518820D01*
X202608149Y-83523612D01*
X202373479Y-83536882D01*
X202164697Y-83558550D01*
X202119299Y-83565074D01*
X201652036Y-83656910D01*
X201204283Y-83786078D01*
X200776861Y-83952086D01*
X200370588Y-84154445D01*
X199986283Y-84392664D01*
X199624764Y-84666253D01*
X199286850Y-84974720D01*
X198973360Y-85317575D01*
X198776057Y-85568083D01*
X198714032Y-85652084D01*
X198660132Y-85725765D01*
X198620018Y-85781342D01*
X198599350Y-85811031D01*
X198599053Y-85811500D01*
X198592224Y-85823176D01*
X198585626Y-85829785D01*
X198575713Y-85827362D01*
X198558935Y-85811944D01*
X198531743Y-85779567D01*
X198490590Y-85726267D01*
X198431926Y-85648080D01*
X198352205Y-85541042D01*
X198328715Y-85509508D01*
X198206466Y-85355999D01*
X198059567Y-85188480D01*
X197898001Y-85017286D01*
X197731750Y-84852753D01*
X197570795Y-84705215D01*
X197469638Y-84620011D01*
X197100527Y-84347818D01*
X196715987Y-84114072D01*
X196314132Y-83917946D01*
X195893074Y-83758616D01*
X195450927Y-83635255D01*
X195034750Y-83554512D01*
X194918386Y-83540898D01*
X194769065Y-83530458D01*
X194596048Y-83523247D01*
X194408596Y-83519322D01*
X194215970Y-83518739D01*
X194027431Y-83521554D01*
X193852241Y-83527824D01*
X193699660Y-83537604D01*
X193616583Y-83545919D01*
X193196888Y-83612214D01*
X192796905Y-83708812D01*
X192407107Y-83838630D01*
X192017971Y-84004586D01*
X191849166Y-84087432D01*
X191576554Y-84235981D01*
X191323361Y-84395431D01*
X191081321Y-84572009D01*
X190842170Y-84771939D01*
X190597642Y-85001449D01*
X190483576Y-85116111D01*
X190340346Y-85266126D01*
X190226026Y-85393906D01*
X190136947Y-85504243D01*
X190069435Y-85601930D01*
X190019821Y-85691758D01*
X189991653Y-85758180D01*
X189968929Y-85813576D01*
X189950744Y-85847575D01*
X189944892Y-85852784D01*
X189928257Y-85836491D01*
X189892314Y-85793344D01*
X189842911Y-85730540D01*
X189803017Y-85678159D01*
X189512124Y-85323069D01*
X189193736Y-84993178D01*
X188851379Y-84690908D01*
X188488576Y-84418679D01*
X188108852Y-84178914D01*
X187715731Y-83974035D01*
X187312739Y-83806463D01*
X186903399Y-83678620D01*
X186886830Y-83674338D01*
X186546014Y-83597267D01*
X186220963Y-83546391D01*
X185896714Y-83520224D01*
X185558301Y-83517281D01*
X185375178Y-83524257D01*
X184983017Y-83554051D01*
X184621722Y-83602140D01*
X184283084Y-83670532D01*
X183958892Y-83761234D01*
X183640938Y-83876256D01*
X183321012Y-84017605D01*
X183282776Y-84036101D01*
X182935339Y-84224156D01*
X182604357Y-84442015D01*
X182286007Y-84692720D01*
X181976464Y-84979311D01*
X181671906Y-85304830D01*
X181636221Y-85345833D01*
X181542726Y-85453348D01*
X181453939Y-85554170D01*
X181375172Y-85642363D01*
X181311740Y-85711991D01*
X181268955Y-85757120D01*
X181261112Y-85764831D01*
X181187760Y-85834580D01*
X181073338Y-85659233D01*
X180823712Y-85314991D01*
X180540583Y-84994434D01*
X180226879Y-84699678D01*
X179885526Y-84432841D01*
X179519449Y-84196041D01*
X179131575Y-83991396D01*
X178724830Y-83821023D01*
X178376583Y-83707610D01*
X178126432Y-83642205D01*
X177883883Y-83591757D01*
X177637270Y-83554579D01*
X177374925Y-83528981D01*
X177085180Y-83513278D01*
X177017487Y-83511010D01*
X176589724Y-83498050D01*
X176743698Y-83326567D01*
X177176573Y-82813698D01*
X177575156Y-82277989D01*
X177938438Y-81721311D01*
X178265412Y-81145537D01*
X178555071Y-80552539D01*
X178806407Y-79944188D01*
X179018413Y-79322358D01*
X179148460Y-78858250D01*
X179291281Y-78213707D01*
X179392320Y-77565967D01*
X179451704Y-76916664D01*
X179469559Y-76267430D01*
X179446010Y-75619899D01*
X179381182Y-74975702D01*
X179275201Y-74336473D01*
X179128193Y-73703845D01*
X178940284Y-73079451D01*
X178711599Y-72464924D01*
X178644216Y-72304020D01*
X178373485Y-71725854D01*
X178064689Y-71164201D01*
X177719632Y-70621356D01*
X177340124Y-70099611D01*
X176927970Y-69601259D01*
X176484977Y-69128592D01*
X176012952Y-68683903D01*
X175513702Y-68269486D01*
X175390388Y-68175054D01*
X174898093Y-67828381D01*
X174375449Y-67506737D01*
X173828317Y-67213215D01*
X173262556Y-66950912D01*
X172684026Y-66722922D01*
X172555508Y-66677639D01*
X172089012Y-66532036D01*
X171594846Y-66406358D01*
X171083761Y-66302760D01*
X170566510Y-66223397D01*
X170053845Y-66170423D01*
X170006933Y-66166925D01*
X169852091Y-66158701D01*
X169665687Y-66153549D01*
X169456427Y-66151325D01*
X169233017Y-66151884D01*
X169004163Y-66155081D01*
X168778571Y-66160771D01*
X168564948Y-66168809D01*
X168371998Y-66179049D01*
X168208429Y-66191347D01*
X168142500Y-66197984D01*
X167462866Y-66293337D01*
X166805259Y-66424732D01*
X166168975Y-66592497D01*
X165553313Y-66796959D01*
X164957570Y-67038445D01*
X164381043Y-67317283D01*
X163823031Y-67633801D01*
X163282832Y-67988325D01*
X162759742Y-68381183D01*
X162253059Y-68812703D01*
X161972963Y-69074510D01*
X161874286Y-69169126D01*
X161801188Y-69237115D01*
X161749331Y-69281803D01*
X161714376Y-69306512D01*
X161691982Y-69314568D01*
X161677811Y-69309294D01*
X161673353Y-69304025D01*
X161640809Y-69260423D01*
X161586317Y-69190551D01*
X161514973Y-69100704D01*
X161431877Y-68997180D01*
X161342125Y-68886275D01*
X161250815Y-68774285D01*
X161163046Y-68667505D01*
X161083914Y-68572234D01*
X161018519Y-68494766D01*
X161011508Y-68486583D01*
X160796053Y-68241356D01*
X160555067Y-67977163D01*
X160295971Y-67701616D01*
X160026184Y-67422327D01*
X159753127Y-67146907D01*
X159484219Y-66882970D01*
X159226879Y-66638127D01*
X159058625Y-66483104D01*
X158509930Y-65997578D01*
X157950480Y-65527251D01*
X157374338Y-65067529D01*
X156775570Y-64613818D01*
X156148238Y-64161524D01*
X155486407Y-63706051D01*
X155368416Y-63626890D01*
X154500583Y-63046750D01*
X167004108Y-63036166D01*
X179507634Y-63025583D01*
X181943166Y-60679605D01*
X181942729Y-58190760D01*
X181942292Y-55701916D01*
X181027161Y-54569500D01*
X180112030Y-53437083D01*
X179868723Y-53367778D01*
X179789396Y-53345423D01*
X179676066Y-53313825D01*
X179535575Y-53274875D01*
X179374764Y-53230463D01*
X179200473Y-53182480D01*
X179019545Y-53132815D01*
X178895166Y-53098761D01*
X176718051Y-52520781D01*
X174508258Y-51968664D01*
X172266759Y-51442584D01*
X169994526Y-50942717D01*
X167692530Y-50469239D01*
X165361743Y-50022324D01*
X163003136Y-49602148D01*
X160617681Y-49208886D01*
X158206350Y-48842713D01*
X155770114Y-48503805D01*
X153309945Y-48192336D01*
X150826814Y-47908482D01*
X149145416Y-47733301D01*
X148905474Y-47709357D01*
X148666757Y-47685697D01*
X148434624Y-47662844D01*
X148214434Y-47641317D01*
X148011548Y-47621637D01*
X147831325Y-47604326D01*
X147679124Y-47589902D01*
X147560306Y-47578888D01*
X147505000Y-47573934D01*
X147349497Y-47560148D01*
X147231134Y-47548992D01*
X147144863Y-47539597D01*
X147085634Y-47531092D01*
X147048400Y-47522607D01*
X147028111Y-47513273D01*
X147019719Y-47502219D01*
X147018166Y-47490035D01*
X147022662Y-47467570D01*
X147035960Y-47405062D01*
X147057775Y-47303815D01*
X147087820Y-47165131D01*
X147125812Y-46990314D01*
X147171463Y-46780668D01*
X147224490Y-46537496D01*
X147284607Y-46262101D01*
X147351528Y-45955787D01*
X147424968Y-45619858D01*
X147504642Y-45255616D01*
X147590265Y-44864366D01*
X147681550Y-44447410D01*
X147778213Y-44006052D01*
X147879968Y-43541595D01*
X147986531Y-43055343D01*
X148097615Y-42548600D01*
X148212935Y-42022668D01*
X148332206Y-41478852D01*
X148455142Y-40918454D01*
X148581459Y-40342778D01*
X148710871Y-39753127D01*
X148843092Y-39150806D01*
X148977838Y-38537116D01*
X149082999Y-38058254D01*
X149219478Y-37436705D01*
X149353625Y-36825515D01*
X149485156Y-36225988D01*
X149613785Y-35639427D01*
X149739229Y-35067136D01*
X149861204Y-34510419D01*
X149979424Y-33970579D01*
X150093606Y-33448919D01*
X150203464Y-32946744D01*
X150308715Y-32465357D01*
X150409073Y-32006062D01*
X150504255Y-31570163D01*
X150593976Y-31158962D01*
X150677952Y-30773764D01*
X150755897Y-30415872D01*
X150827528Y-30086590D01*
X150892560Y-29787222D01*
X150950708Y-29519071D01*
X151001689Y-29283441D01*
X151045217Y-29081635D01*
X151081008Y-28914957D01*
X151108779Y-28784711D01*
X151128243Y-28692201D01*
X151139117Y-28638729D01*
X151141458Y-28624981D01*
X151127390Y-28604187D01*
X151088427Y-28553072D01*
X151026512Y-28474055D01*
X150943588Y-28369555D01*
X150841597Y-28241990D01*
X150722484Y-28093780D01*
X150588189Y-27927341D01*
X150440657Y-27745094D01*
X150281831Y-27549456D01*
X150113653Y-27342846D01*
X149970916Y-27167897D01*
X148806750Y-25742461D01*
X103617066Y-25751083D01*
X102447393Y-27179833D01*
X102272660Y-27393521D01*
X102105820Y-27598050D01*
X101948802Y-27791027D01*
X101803534Y-27970058D01*
X101671946Y-28132749D01*
X101555966Y-28276708D01*
X101457522Y-28399541D01*
X101378545Y-28498855D01*
X101320962Y-28572257D01*
X101286702Y-28617353D01*
X101277360Y-28631609D01*
X101281863Y-28653580D01*
X101295229Y-28715595D01*
X101317174Y-28816362D01*
X101347414Y-28954592D01*
X101385663Y-29128993D01*
X101431637Y-29338276D01*
X101485051Y-29581151D01*
X101545620Y-29856327D01*
X101613060Y-30162513D01*
X101687087Y-30498421D01*
X101767415Y-30862759D01*
X101853759Y-31254237D01*
X101945836Y-31671565D01*
X102043360Y-32113453D01*
X102146047Y-32578609D01*
X102253612Y-33065746D01*
X102365771Y-33573571D01*
X102482238Y-34100794D01*
X102602729Y-34646126D01*
X102726960Y-35208276D01*
X102854645Y-35785954D01*
X102985501Y-36377869D01*
X103119241Y-36982731D01*
X103255583Y-37599251D01*
X103392725Y-38219286D01*
X103531319Y-38845884D01*
X103667578Y-39462024D01*
X103801219Y-40066420D01*
X103931957Y-40657784D01*
X104059509Y-41234831D01*
X104183590Y-41796272D01*
X104303917Y-42340823D01*
X104420206Y-42867194D01*
X104532172Y-43374101D01*
X104639532Y-43860257D01*
X104742001Y-44324373D01*
X104839297Y-44765165D01*
X104931135Y-45181344D01*
X105017230Y-45571625D01*
X105097300Y-45934720D01*
X105171059Y-46269342D01*
X105238225Y-46574206D01*
X105298513Y-46848024D01*
X105351639Y-47089510D01*
X105397319Y-47297376D01*
X105435270Y-47470336D01*
X105465207Y-47607103D01*
X105486847Y-47706391D01*
X105499905Y-47766913D01*
X105504100Y-47787381D01*
X105482800Y-47790217D01*
X105424068Y-47796781D01*
X105332595Y-47806582D01*
X105213071Y-47819127D01*
X105070187Y-47833924D01*
X104908633Y-47850481D01*
X104733100Y-47868305D01*
X104727166Y-47868905D01*
X102677068Y-48084669D01*
X100626511Y-48317497D01*
X98578553Y-48566894D01*
X96536251Y-48832367D01*
X94502665Y-49113421D01*
X92480852Y-49409564D01*
X90473870Y-49720301D01*
X88484777Y-50045139D01*
X86516632Y-50383583D01*
X84572492Y-50735140D01*
X82655416Y-51099316D01*
X80768462Y-51475617D01*
X78914687Y-51863549D01*
X77097150Y-52262619D01*
X76074584Y-52495798D01*
X75886648Y-52539690D01*
X75670627Y-52590903D01*
X75431642Y-52648171D01*
X75174810Y-52710228D01*
X74905251Y-52775809D01*
X74628082Y-52843650D01*
X74348422Y-52912485D01*
X74071391Y-52981049D01*
X73802106Y-53048076D01*
X73545686Y-53112303D01*
X73307250Y-53172462D01*
X73091916Y-53227289D01*
X72904803Y-53275520D01*
X72751030Y-53315888D01*
X72684526Y-53333737D01*
X72317802Y-53433213D01*
X70564166Y-55711969D01*
X70564166Y-60675942D01*
X72924108Y-63036166D01*
X85429636Y-63036166D01*
X86281558Y-63036199D01*
X87109563Y-63036296D01*
X87912925Y-63036457D01*
X88690919Y-63036681D01*
X89442819Y-63036965D01*
X90167900Y-63037310D01*
X90865437Y-63037714D01*
X91534703Y-63038176D01*
X92174974Y-63038694D01*
X92785524Y-63039268D01*
X93365628Y-63039897D01*
X93914559Y-63040579D01*
X94431594Y-63041313D01*
X94916006Y-63042099D01*
X95367070Y-63042934D01*
X95784060Y-63043819D01*
X96166251Y-63044751D01*
X96512918Y-63045729D01*
X96823335Y-63046753D01*
X97096777Y-63047822D01*
X97332518Y-63048934D01*
X97529832Y-63050087D01*
X97687995Y-63051282D01*
X97806281Y-63052517D01*
X97883964Y-63053790D01*
X97920320Y-63055101D01*
X97923144Y-63055616D01*
X97899820Y-63074907D01*
X97849646Y-63107506D01*
X97783057Y-63146671D01*
X97776684Y-63150249D01*
X97671270Y-63212691D01*
X97536233Y-63298277D01*
X97375432Y-63404248D01*
X97192724Y-63527841D01*
X96991968Y-63666296D01*
X96777021Y-63816851D01*
X96551742Y-63976745D01*
X96319990Y-64143216D01*
X96085621Y-64313505D01*
X95852495Y-64484848D01*
X95624469Y-64654486D01*
X95405401Y-64819657D01*
X95199150Y-64977599D01*
X95009574Y-65125552D01*
X94943821Y-65177695D01*
X94413328Y-65611002D01*
X93889122Y-66059882D01*
X93375346Y-66520282D01*
X92876142Y-66988149D01*
X92395650Y-67459430D01*
X91938013Y-67930072D01*
X91507372Y-68396021D01*
X91107870Y-68853226D01*
X90778333Y-69253924D01*
X90720279Y-69324827D01*
X90671471Y-69380747D01*
X90637983Y-69414942D01*
X90626620Y-69422288D01*
X90608013Y-69405955D01*
X90566298Y-69363942D01*
X90506882Y-69301858D01*
X90435174Y-69225309D01*
X90401046Y-69188407D01*
X89992693Y-68775849D01*
X89551800Y-68388448D01*
X89080820Y-68027539D01*
X88582209Y-67694458D01*
X88058421Y-67390542D01*
X87511912Y-67117127D01*
X86945135Y-66875547D01*
X86360546Y-66667140D01*
X85760598Y-66493241D01*
X85222083Y-66369854D01*
X84938336Y-66315002D01*
X84678020Y-66269942D01*
X84432319Y-66233847D01*
X84192419Y-66205893D01*
X83949505Y-66185253D01*
X83694762Y-66171101D01*
X83419376Y-66162611D01*
X83114532Y-66158959D01*
X82967833Y-66158672D01*
X82704684Y-66159720D01*
X82476134Y-66162931D01*
X82274478Y-66168871D01*
X82092012Y-66178106D01*
X81921033Y-66191202D01*
X81753834Y-66208724D01*
X81582713Y-66231240D01*
X81399965Y-66259314D01*
X81246118Y-66285137D01*
X80596396Y-66418394D01*
X79960778Y-66591204D01*
X79340649Y-66802738D01*
X78737397Y-67052171D01*
X78152410Y-67338676D01*
X77587074Y-67661425D01*
X77042777Y-68019593D01*
X76520906Y-68412353D01*
X76022847Y-68838877D01*
X75549988Y-69298340D01*
X75103717Y-69789915D01*
X74852991Y-70095250D01*
X74481107Y-70598777D01*
X74139204Y-71129851D01*
X73829398Y-71684149D01*
X73553808Y-72257348D01*
X73314550Y-72845124D01*
X73113740Y-73443154D01*
X72987304Y-73905250D01*
X72851937Y-74541672D01*
X72758059Y-75182788D01*
X72705399Y-75826535D01*
X72693682Y-76470849D01*
X72722635Y-77113666D01*
X72791984Y-77752924D01*
X72901455Y-78386559D01*
X73050775Y-79012507D01*
X73239670Y-79628704D01*
X73467867Y-80233088D01*
X73735092Y-80823595D01*
X73962465Y-81258849D01*
X74298886Y-81823298D01*
X74668018Y-82361942D01*
X75068290Y-82873662D01*
X75498125Y-83357338D01*
X75955951Y-83811852D01*
X76440193Y-84236084D01*
X76949279Y-84628914D01*
X77481632Y-84989225D01*
X78035681Y-85315895D01*
X78609851Y-85607806D01*
X79202568Y-85863839D01*
X79812258Y-86082874D01*
X80437348Y-86263793D01*
X81076263Y-86405475D01*
X81241205Y-86435190D01*
X81431310Y-86466940D01*
X81601797Y-86493031D01*
X81759960Y-86513992D01*
X81913093Y-86530350D01*
X82068490Y-86542633D01*
X82233444Y-86551369D01*
X82415249Y-86557084D01*
X82621199Y-86560307D01*
X82858587Y-86561566D01*
X82989000Y-86561625D01*
X83208434Y-86561209D01*
X83391884Y-86560124D01*
X83545697Y-86558117D01*
X83676220Y-86554933D01*
X83789799Y-86550318D01*
X83892783Y-86544019D01*
X83991517Y-86535781D01*
X84092349Y-86525351D01*
X84193914Y-86513418D01*
X84819398Y-86420146D01*
X85418822Y-86295874D01*
X85996165Y-86139430D01*
X86555405Y-85949643D01*
X87100523Y-85725341D01*
X87475813Y-85547176D01*
X87744883Y-85412345D01*
X87877655Y-85765381D01*
X88193111Y-86544655D01*
X88549527Y-87314119D01*
X88946598Y-88073403D01*
X89384018Y-88822136D01*
X89861479Y-89559947D01*
X90378675Y-90286466D01*
X90935299Y-91001323D01*
X91531046Y-91704146D01*
X92165608Y-92394566D01*
X92838680Y-93072212D01*
X93549954Y-93736712D01*
X94299124Y-94387698D01*
X95085884Y-95024797D01*
X95909927Y-95647641D01*
X96260500Y-95900227D01*
X97097012Y-96474672D01*
X97971624Y-97036554D01*
X98881556Y-97584315D01*
X99824028Y-98116393D01*
X100796261Y-98631227D01*
X101795475Y-99127258D01*
X102818890Y-99602926D01*
X103002083Y-99684763D01*
X103143239Y-99747281D01*
X103278509Y-99806892D01*
X103400868Y-99860524D01*
X103503294Y-99905105D01*
X103578763Y-99937563D01*
X103610625Y-99950947D01*
X103674240Y-99980534D01*
X103718288Y-100007607D01*
X103732333Y-100024172D01*
X103728552Y-100052685D01*
X103718207Y-100114216D01*
X103702799Y-100200223D01*
X103683825Y-100302167D01*
X103680080Y-100321902D01*
X103615435Y-100719331D01*
X103576898Y-101101150D01*
X103565150Y-101472657D01*
X103580874Y-101839147D01*
X103624751Y-102205917D01*
X103697465Y-102578262D01*
X103799696Y-102961479D01*
X103932128Y-103360864D01*
X104095442Y-103781713D01*
X104139135Y-103886092D01*
X104268552Y-104191268D01*
X104210723Y-104288259D01*
X104090712Y-104508782D01*
X103974403Y-104758576D01*
X103866883Y-105024603D01*
X103773244Y-105293823D01*
X103698572Y-105553197D01*
X103670548Y-105672290D01*
X103631927Y-105878212D01*
X103601450Y-106095586D01*
X103579456Y-106316730D01*
X103566282Y-106533962D01*
X103562269Y-106739599D01*
X103567755Y-106925960D01*
X103583078Y-107085361D01*
X103603524Y-107191739D01*
X103625063Y-107272606D01*
X103644369Y-107340749D01*
X103657650Y-107382839D01*
X103658706Y-107385625D01*
X103658806Y-107389420D01*
X103655004Y-107392948D01*
X103645814Y-107396218D01*
X103629751Y-107399240D01*
X103605329Y-107402024D01*
X103571062Y-107404580D01*
X103525466Y-107406918D01*
X103467055Y-107409047D01*
X103394342Y-107410977D01*
X103305842Y-107412719D01*
X103200071Y-107414282D01*
X103075541Y-107415676D01*
X102930769Y-107416910D01*
X102764267Y-107417996D01*
X102574552Y-107418941D01*
X102360136Y-107419757D01*
X102119534Y-107420454D01*
X101851262Y-107421040D01*
X101553833Y-107421526D01*
X101225762Y-107421923D01*
X100865563Y-107422238D01*
X100471750Y-107422483D01*
X100042839Y-107422668D01*
X99577344Y-107422802D01*
X99073778Y-107422894D01*
X98530657Y-107422956D01*
X98024889Y-107422992D01*
X92376416Y-107423318D01*
X91516779Y-107724674D01*
X90657141Y-108026030D01*
X88278279Y-110333677D01*
X87061524Y-111513906D01*
X85852256Y-112686675D01*
X84651033Y-113851444D01*
X83458416Y-115007671D01*
X82274963Y-116154816D01*
X81101235Y-117292339D01*
X79937790Y-118419698D01*
X78785189Y-119536355D01*
X77643990Y-120641767D01*
X76514753Y-121735395D01*
X75398039Y-122816697D01*
X74294405Y-123885134D01*
X73204412Y-124940164D01*
X72128620Y-125981247D01*
X71067586Y-127007843D01*
X70021872Y-128019411D01*
X68992037Y-129015411D01*
X67978640Y-129995301D01*
X66982240Y-130958541D01*
X66003398Y-131904591D01*
X65042672Y-132832911D01*
X64100622Y-133742959D01*
X63177808Y-134634195D01*
X62274789Y-135506078D01*
X61392124Y-136358069D01*
X60530374Y-137189626D01*
X59690097Y-138000208D01*
X58871853Y-138789276D01*
X58076201Y-139556289D01*
X57303702Y-140300705D01*
X56554914Y-141021985D01*
X55830397Y-141719589D01*
X55130710Y-142392974D01*
X54456413Y-143041602D01*
X53808066Y-143664930D01*
X53186228Y-144262420D01*
X52591458Y-144833529D01*
X52024316Y-145377719D01*
X51485362Y-145894447D01*
X50975154Y-146383174D01*
X50494253Y-146843358D01*
X50117166Y-147203818D01*
X49602375Y-147697496D01*
X49117904Y-148165994D01*
X48661702Y-148611413D01*
X48231718Y-149035854D01*
X47825903Y-149441418D01*
X47442205Y-149830206D01*
X47078574Y-150204319D01*
X46732958Y-150565858D01*
X46403308Y-150916924D01*
X46087573Y-151259619D01*
X45783702Y-151596042D01*
X45489644Y-151928296D01*
X45353579Y-152084377D01*
X44682737Y-152877040D01*
X44052643Y-153661776D01*
X43462684Y-154439683D01*
X42912249Y-155211858D01*
X42400724Y-155979398D01*
X41927498Y-156743400D01*
X41491958Y-157504960D01*
X41093491Y-158265176D01*
X40731486Y-159025145D01*
X40405329Y-159785963D01*
X40114408Y-160548728D01*
X39858112Y-161314537D01*
X39635826Y-162084486D01*
X39523908Y-162526460D01*
X39431415Y-162931118D01*
X39346568Y-163345443D01*
X39267685Y-163778460D01*
X39193084Y-164239194D01*
X39148502Y-164540916D01*
X39100102Y-164879583D01*
X39093720Y-183675583D01*
X39093340Y-184841981D01*
X39093009Y-185966527D01*
X39092725Y-187049704D01*
X39092490Y-188091994D01*
X39092305Y-189093879D01*
X39092169Y-190055840D01*
X39092083Y-190978360D01*
X39092047Y-191861920D01*
X29627833Y-191861920D01*
X29627833Y-24936166D01*
X216000333Y-24936166D01*
X216000333Y-279655833D01*
G04 #@! TD*
D11*
G04 #@! TO.C,SW1*
X62450000Y-168980000D03*
X62450000Y-173480000D03*
X55950000Y-168980000D03*
X55950000Y-173480000D03*
G04 #@! TD*
D12*
G04 #@! TO.C,R5*
X149930000Y-127400000D03*
X146530000Y-127400000D03*
G04 #@! TD*
D13*
G04 #@! TO.C,ZA\u013B\u01601*
X190990000Y-172800000D03*
G36*
G01*
X187350000Y-173700000D02*
X187350000Y-171900000D01*
G75*
G02*
X187550000Y-171700000I200000J0D01*
G01*
X189350000Y-171700000D01*
G75*
G02*
X189550000Y-171900000I0J-200000D01*
G01*
X189550000Y-173700000D01*
G75*
G02*
X189350000Y-173900000I-200000J0D01*
G01*
X187550000Y-173900000D01*
G75*
G02*
X187350000Y-173700000I0J200000D01*
G01*
G37*
G04 #@! TD*
G04 #@! TO.C,DZELTENS1*
X190960000Y-151910000D03*
G36*
G01*
X187320000Y-152810000D02*
X187320000Y-151010000D01*
G75*
G02*
X187520000Y-150810000I200000J0D01*
G01*
X189320000Y-150810000D01*
G75*
G02*
X189520000Y-151010000I0J-200000D01*
G01*
X189520000Y-152810000D01*
G75*
G02*
X189320000Y-153010000I-200000J0D01*
G01*
X187520000Y-153010000D01*
G75*
G02*
X187320000Y-152810000I0J200000D01*
G01*
G37*
G04 #@! TD*
G04 #@! TO.C,SARKANS1*
X190960000Y-131150000D03*
G36*
G01*
X187320000Y-132050000D02*
X187320000Y-130250000D01*
G75*
G02*
X187520000Y-130050000I200000J0D01*
G01*
X189320000Y-130050000D01*
G75*
G02*
X189520000Y-130250000I0J-200000D01*
G01*
X189520000Y-132050000D01*
G75*
G02*
X189320000Y-132250000I-200000J0D01*
G01*
X187520000Y-132250000D01*
G75*
G02*
X187320000Y-132050000I0J200000D01*
G01*
G37*
G04 #@! TD*
D14*
G04 #@! TO.C,R6*
X165850000Y-125860000D03*
D15*
X155690000Y-125860000D03*
G04 #@! TD*
D14*
G04 #@! TO.C,R13*
X166030000Y-146870000D03*
D15*
X155870000Y-146870000D03*
G04 #@! TD*
D14*
G04 #@! TO.C,R12*
X165930000Y-139880000D03*
D15*
X155770000Y-139880000D03*
G04 #@! TD*
D14*
G04 #@! TO.C,R11*
X165930000Y-132850000D03*
D15*
X155770000Y-132850000D03*
G04 #@! TD*
D14*
G04 #@! TO.C,R10*
X114230000Y-163910000D03*
D15*
X104070000Y-163910000D03*
G04 #@! TD*
D14*
G04 #@! TO.C,R9*
X128220000Y-169170000D03*
D15*
X128220000Y-159010000D03*
G04 #@! TD*
D14*
G04 #@! TO.C,R8*
X138460000Y-163790000D03*
D15*
X148620000Y-163790000D03*
G04 #@! TD*
D14*
G04 #@! TO.C,R7*
X100820000Y-163880000D03*
D15*
X90660000Y-163880000D03*
G04 #@! TD*
D14*
G04 #@! TO.C,R4*
X133230000Y-169230000D03*
D15*
X133230000Y-159070000D03*
G04 #@! TD*
D14*
G04 #@! TO.C,R3*
X161830000Y-163790000D03*
D15*
X151670000Y-163790000D03*
G04 #@! TD*
D14*
G04 #@! TO.C,R2*
X123230000Y-158980000D03*
D15*
X123230000Y-169140000D03*
G04 #@! TD*
D14*
G04 #@! TO.C,R1*
X118230000Y-159050000D03*
D15*
X118230000Y-169210000D03*
G04 #@! TD*
G04 #@! TO.C,Q1*
G36*
G01*
X160440000Y-119280000D02*
X160440000Y-120800000D01*
G75*
G02*
X160240000Y-121000000I-200000J0D01*
G01*
X158720000Y-121000000D01*
G75*
G02*
X158520000Y-120800000I0J200000D01*
G01*
X158520000Y-119280000D01*
G75*
G02*
X158720000Y-119080000I200000J0D01*
G01*
X160240000Y-119080000D01*
G75*
G02*
X160440000Y-119280000I0J-200000D01*
G01*
G37*
D16*
X159480000Y-114960000D03*
X156940000Y-117500000D03*
G04 #@! TD*
G04 #@! TO.C,Q2*
G36*
G01*
X151950000Y-119350000D02*
X151950000Y-120870000D01*
G75*
G02*
X151750000Y-121070000I-200000J0D01*
G01*
X150230000Y-121070000D01*
G75*
G02*
X150030000Y-120870000I0J200000D01*
G01*
X150030000Y-119350000D01*
G75*
G02*
X150230000Y-119150000I200000J0D01*
G01*
X151750000Y-119150000D01*
G75*
G02*
X151950000Y-119350000I0J-200000D01*
G01*
G37*
X150990000Y-115030000D03*
X148450000Y-117570000D03*
G04 #@! TD*
G04 #@! TO.C,Q3*
G36*
G01*
X144050000Y-119310000D02*
X144050000Y-120830000D01*
G75*
G02*
X143850000Y-121030000I-200000J0D01*
G01*
X142330000Y-121030000D01*
G75*
G02*
X142130000Y-120830000I0J200000D01*
G01*
X142130000Y-119310000D01*
G75*
G02*
X142330000Y-119110000I200000J0D01*
G01*
X143850000Y-119110000D01*
G75*
G02*
X144050000Y-119310000I0J-200000D01*
G01*
G37*
X143090000Y-114990000D03*
X140550000Y-117530000D03*
G04 #@! TD*
G04 #@! TO.C,Q4*
G36*
G01*
X135910000Y-119310000D02*
X135910000Y-120830000D01*
G75*
G02*
X135710000Y-121030000I-200000J0D01*
G01*
X134190000Y-121030000D01*
G75*
G02*
X133990000Y-120830000I0J200000D01*
G01*
X133990000Y-119310000D01*
G75*
G02*
X134190000Y-119110000I200000J0D01*
G01*
X135710000Y-119110000D01*
G75*
G02*
X135910000Y-119310000I0J-200000D01*
G01*
G37*
X134950000Y-114990000D03*
X132410000Y-117530000D03*
G04 #@! TD*
D17*
G04 #@! TO.C,U3*
X122600000Y-125100000D03*
X125140000Y-125100000D03*
X130220000Y-125100000D03*
X127680000Y-125100000D03*
G04 #@! TD*
D18*
G04 #@! TO.C,BZ1*
X131660000Y-107450000D03*
G04 #@! TD*
M02*
