G04 #@! TF.GenerationSoftware,KiCad,Pcbnew,(5.1.10)-1*
G04 #@! TF.CreationDate,2021-11-11T13:48:34+02:00*
G04 #@! TF.ProjectId,airguard_v1,61697267-7561-4726-945f-76312e6b6963,rev?*
G04 #@! TF.SameCoordinates,Original*
G04 #@! TF.FileFunction,Soldermask,Top*
G04 #@! TF.FilePolarity,Negative*
%FSLAX46Y46*%
G04 Gerber Fmt 4.6, Leading zero omitted, Abs format (unit mm)*
G04 Created by KiCad (PCBNEW (5.1.10)-1) date 2021-11-11 13:48:34*
%MOMM*%
%LPD*%
G01*
G04 APERTURE LIST*
%ADD10C,0.010000*%
%ADD11O,2.700000X1.900000*%
%ADD12O,1.900000X2.700000*%
G04 APERTURE END LIST*
D10*
G04 #@! TO.C,G\u002A\u002A\u002A*
G36*
X215890333Y-279801833D02*
G01*
X29517833Y-279801833D01*
X29517833Y-165216083D01*
X38894073Y-165216083D01*
X38900102Y-184096750D01*
X38900448Y-185172594D01*
X38900788Y-186206929D01*
X38901122Y-187200580D01*
X38901453Y-188154371D01*
X38901783Y-189069126D01*
X38902113Y-189945671D01*
X38902445Y-190784829D01*
X38902782Y-191587425D01*
X38903126Y-192354284D01*
X38903477Y-193086230D01*
X38903838Y-193784087D01*
X38904211Y-194448680D01*
X38904597Y-195080834D01*
X38905000Y-195681372D01*
X38905419Y-196251120D01*
X38905858Y-196790901D01*
X38906318Y-197301541D01*
X38906801Y-197783864D01*
X38907309Y-198238694D01*
X38907843Y-198666856D01*
X38908406Y-199069173D01*
X38909000Y-199446472D01*
X38909626Y-199799576D01*
X38910286Y-200129310D01*
X38910983Y-200436497D01*
X38911717Y-200721964D01*
X38912492Y-200986533D01*
X38913307Y-201231030D01*
X38914167Y-201456279D01*
X38915072Y-201663105D01*
X38916024Y-201852332D01*
X38917026Y-202024784D01*
X38918079Y-202181286D01*
X38919184Y-202322663D01*
X38920345Y-202449738D01*
X38921562Y-202563337D01*
X38922838Y-202664284D01*
X38924174Y-202753403D01*
X38925572Y-202831519D01*
X38927035Y-202899457D01*
X38928563Y-202958040D01*
X38930160Y-203008094D01*
X38931826Y-203050442D01*
X38933564Y-203085909D01*
X38935376Y-203115321D01*
X38937263Y-203139500D01*
X38939227Y-203159272D01*
X38941270Y-203175462D01*
X38943395Y-203188893D01*
X38943428Y-203189083D01*
X39038939Y-203650186D01*
X39158232Y-204079643D01*
X39303394Y-204482155D01*
X39476511Y-204862427D01*
X39679670Y-205225163D01*
X39914956Y-205575065D01*
X40117840Y-205836883D01*
X40431522Y-206186507D01*
X40774487Y-206506584D01*
X41144169Y-206795453D01*
X41538005Y-207051457D01*
X41953428Y-207272937D01*
X42387873Y-207458234D01*
X42838776Y-207605689D01*
X42863986Y-207612664D01*
X43325802Y-207717890D01*
X43790229Y-207781942D01*
X44254754Y-207805330D01*
X44716869Y-207788562D01*
X45174060Y-207732148D01*
X45623819Y-207636596D01*
X46063632Y-207502415D01*
X46490991Y-207330114D01*
X46903383Y-207120203D01*
X47298298Y-206873189D01*
X47594166Y-206653830D01*
X47859511Y-206424806D01*
X48115993Y-206169458D01*
X48356229Y-205896371D01*
X48572833Y-205614129D01*
X48758420Y-205331319D01*
X48812908Y-205236979D01*
X48847881Y-205178088D01*
X48876002Y-205137798D01*
X48889092Y-205125854D01*
X48906234Y-205142616D01*
X48938172Y-205186855D01*
X48978398Y-205249469D01*
X48983679Y-205258125D01*
X49104188Y-205440551D01*
X49252411Y-205638698D01*
X49421101Y-205844411D01*
X49603015Y-206049536D01*
X49790906Y-206245917D01*
X49977530Y-206425400D01*
X50155643Y-206579829D01*
X50163694Y-206586343D01*
X50406405Y-206768188D01*
X50678465Y-206947905D01*
X50968147Y-207118846D01*
X51263728Y-207274363D01*
X51553483Y-207407810D01*
X51750383Y-207485933D01*
X52145669Y-207611700D01*
X52559130Y-207707396D01*
X52981147Y-207771639D01*
X53402102Y-207803046D01*
X53812376Y-207800237D01*
X53900674Y-207794859D01*
X54391165Y-207740783D01*
X54862099Y-207649527D01*
X55314783Y-207520533D01*
X55750524Y-207353246D01*
X56170629Y-207147107D01*
X56576406Y-206901561D01*
X56969162Y-206616050D01*
X57276104Y-206357387D01*
X57402135Y-206238477D01*
X57539341Y-206098651D01*
X57681782Y-205944838D01*
X57823520Y-205783967D01*
X57958616Y-205622967D01*
X58081131Y-205468766D01*
X58185125Y-205328295D01*
X58264661Y-205208482D01*
X58273613Y-205193571D01*
X58302324Y-205149761D01*
X58322560Y-205127354D01*
X58324938Y-205126569D01*
X58340069Y-205143469D01*
X58374120Y-205189488D01*
X58422677Y-205258422D01*
X58481324Y-205344069D01*
X58509463Y-205385861D01*
X58663752Y-205608043D01*
X58812428Y-205803755D01*
X58965873Y-205985721D01*
X59134470Y-206166665D01*
X59204016Y-206237150D01*
X59558327Y-206562895D01*
X59932162Y-206851089D01*
X60325371Y-207101664D01*
X60737801Y-207314552D01*
X61169302Y-207489684D01*
X61619722Y-207626993D01*
X62088910Y-207726410D01*
X62576714Y-207787868D01*
X62665992Y-207794859D01*
X63072605Y-207805420D01*
X63492027Y-207781458D01*
X63914638Y-207724355D01*
X64330819Y-207635494D01*
X64730951Y-207516255D01*
X64816283Y-207485933D01*
X65094698Y-207372319D01*
X65387314Y-207231888D01*
X65682407Y-207071284D01*
X65968250Y-206897158D01*
X66233120Y-206716155D01*
X66402971Y-206586343D01*
X66580505Y-206433294D01*
X66766891Y-206254808D01*
X66954885Y-206059039D01*
X67137242Y-205854143D01*
X67306717Y-205648274D01*
X67456066Y-205449588D01*
X67578042Y-205266239D01*
X67582987Y-205258125D01*
X67624058Y-205193813D01*
X67658033Y-205146765D01*
X67678258Y-205126106D01*
X67679468Y-205125833D01*
X67698748Y-205142975D01*
X67722193Y-205184041D01*
X67752607Y-205240737D01*
X67802915Y-205323390D01*
X67867751Y-205423987D01*
X67941751Y-205534513D01*
X68019548Y-205646955D01*
X68095777Y-205753298D01*
X68165050Y-205845500D01*
X68274789Y-205977759D01*
X68409149Y-206125329D01*
X68558531Y-206278596D01*
X68713335Y-206427946D01*
X68863964Y-206563765D01*
X68972500Y-206654220D01*
X69352748Y-206930154D01*
X69755048Y-207170321D01*
X70177760Y-207374038D01*
X70619247Y-207540621D01*
X71077870Y-207669389D01*
X71551992Y-207759659D01*
X71660666Y-207774597D01*
X71798971Y-207787473D01*
X71968338Y-207795695D01*
X72157762Y-207799357D01*
X72356239Y-207798554D01*
X72552765Y-207793379D01*
X72736334Y-207783928D01*
X72895943Y-207770295D01*
X72951833Y-207763528D01*
X73436242Y-207677954D01*
X73902091Y-207554490D01*
X74348933Y-207393349D01*
X74776321Y-207194745D01*
X75183810Y-206958891D01*
X75570954Y-206686002D01*
X75937305Y-206376290D01*
X76028847Y-206290000D01*
X76348432Y-205956762D01*
X76632337Y-205606598D01*
X76881694Y-205237304D01*
X77097637Y-204846675D01*
X77281300Y-204432505D01*
X77433815Y-203992592D01*
X77556317Y-203524729D01*
X77623126Y-203189083D01*
X77626068Y-203170769D01*
X77628855Y-203149461D01*
X77631490Y-203123996D01*
X77633979Y-203093208D01*
X77636327Y-203055934D01*
X77638539Y-203011008D01*
X77640620Y-202957267D01*
X77642576Y-202893545D01*
X77644411Y-202818678D01*
X77646130Y-202731502D01*
X77647739Y-202630851D01*
X77649242Y-202515562D01*
X77650646Y-202384470D01*
X77651954Y-202236410D01*
X77653172Y-202070219D01*
X77654305Y-201884730D01*
X77655359Y-201678781D01*
X77656338Y-201451205D01*
X77657247Y-201200840D01*
X77658091Y-200926519D01*
X77658876Y-200627079D01*
X77659607Y-200301356D01*
X77660289Y-199948184D01*
X77660927Y-199566399D01*
X77661525Y-199154836D01*
X77662090Y-198712332D01*
X77662626Y-198237721D01*
X77663138Y-197729839D01*
X77663632Y-197187522D01*
X77664112Y-196609604D01*
X77664584Y-195994922D01*
X77665053Y-195342311D01*
X77665523Y-194650606D01*
X77666000Y-193918642D01*
X77666382Y-193317505D01*
X77672453Y-183657594D01*
X78122134Y-184099422D01*
X78366170Y-184334501D01*
X78591141Y-184540672D01*
X78803338Y-184722931D01*
X79009048Y-184886271D01*
X79214559Y-185035690D01*
X79426160Y-185176180D01*
X79647936Y-185311447D01*
X80110890Y-185559159D01*
X80594368Y-185771800D01*
X81094599Y-185948672D01*
X81607810Y-186089081D01*
X82130228Y-186192327D01*
X82658081Y-186257715D01*
X83187595Y-186284548D01*
X83714999Y-186272128D01*
X84236519Y-186219759D01*
X84415669Y-186192082D01*
X84947410Y-186080862D01*
X85470135Y-185928320D01*
X85983593Y-185734549D01*
X86487535Y-185499644D01*
X86955410Y-185239567D01*
X87360506Y-184982588D01*
X87725599Y-184722087D01*
X88052986Y-184456152D01*
X88344965Y-184182871D01*
X88603834Y-183900333D01*
X88685838Y-183800416D01*
X88904163Y-183517490D01*
X89096188Y-183247844D01*
X89269566Y-182979477D01*
X89431950Y-182700389D01*
X89590997Y-182398579D01*
X89630847Y-182318750D01*
X89828944Y-181888084D01*
X89993186Y-181463392D01*
X90126776Y-181034245D01*
X90232912Y-180590218D01*
X90314795Y-180120886D01*
X90322847Y-180064500D01*
X90335879Y-179943339D01*
X90346336Y-179790183D01*
X90354167Y-179613426D01*
X90359319Y-179421463D01*
X90361737Y-179222688D01*
X90361370Y-179025495D01*
X90358165Y-178838278D01*
X90352069Y-178669431D01*
X90343030Y-178527348D01*
X90333101Y-178434666D01*
X90235732Y-177883378D01*
X90100496Y-177350785D01*
X89927074Y-176836171D01*
X89715146Y-176338821D01*
X89464395Y-175858019D01*
X89174500Y-175393050D01*
X88845143Y-174943198D01*
X88692765Y-174755968D01*
X88652848Y-174711057D01*
X88585515Y-174638549D01*
X88493152Y-174540911D01*
X88378149Y-174420609D01*
X88242892Y-174280109D01*
X88089770Y-174121879D01*
X87921170Y-173948384D01*
X87739480Y-173762090D01*
X87547088Y-173565465D01*
X87346382Y-173360974D01*
X87139750Y-173151084D01*
X87100462Y-173111250D01*
X86893394Y-172901354D01*
X86660539Y-172665305D01*
X86405831Y-172407092D01*
X86133208Y-172130707D01*
X85846605Y-171840140D01*
X85549957Y-171539381D01*
X85247200Y-171232419D01*
X84942269Y-170923246D01*
X84639102Y-170615853D01*
X84341632Y-170314228D01*
X84053797Y-170022363D01*
X83779531Y-169744247D01*
X83740196Y-169704360D01*
X81799925Y-167736803D01*
X82017688Y-167513610D01*
X82057009Y-167473417D01*
X82124229Y-167404838D01*
X82217572Y-167309683D01*
X82335264Y-167189757D01*
X82475529Y-167046868D01*
X82636592Y-166882824D01*
X82816679Y-166699433D01*
X83014015Y-166498500D01*
X83226823Y-166281835D01*
X83453330Y-166051244D01*
X83691761Y-165808536D01*
X83940339Y-165555516D01*
X84197291Y-165293993D01*
X84460841Y-165025775D01*
X84594517Y-164889738D01*
X86953583Y-162489060D01*
X86964166Y-164212405D01*
X86974750Y-165935750D01*
X88908315Y-171449666D01*
X89087752Y-171961378D01*
X89271667Y-172485890D01*
X89458975Y-173020105D01*
X89648591Y-173560930D01*
X89839431Y-174105268D01*
X90030409Y-174650024D01*
X90220440Y-175192104D01*
X90408440Y-175728412D01*
X90593324Y-176255852D01*
X90774006Y-176771330D01*
X90949402Y-177271751D01*
X91118426Y-177754019D01*
X91279995Y-178215038D01*
X91433022Y-178651715D01*
X91576423Y-179060953D01*
X91709113Y-179439658D01*
X91830007Y-179784733D01*
X91938020Y-180093085D01*
X91942205Y-180105030D01*
X93042529Y-183246478D01*
X91056389Y-210039717D01*
X89070250Y-236832956D01*
X73809083Y-236839163D01*
X72843236Y-236839559D01*
X71918803Y-236839948D01*
X71034863Y-236840331D01*
X70190496Y-236840712D01*
X69384783Y-236841092D01*
X68616803Y-236841475D01*
X67885636Y-236841862D01*
X67190362Y-236842257D01*
X66530062Y-236842662D01*
X65903815Y-236843079D01*
X65310702Y-236843512D01*
X64749802Y-236843962D01*
X64220195Y-236844432D01*
X63720961Y-236844925D01*
X63251180Y-236845443D01*
X62809933Y-236845989D01*
X62396299Y-236846565D01*
X62009359Y-236847174D01*
X61648191Y-236847819D01*
X61311877Y-236848502D01*
X60999496Y-236849225D01*
X60710128Y-236849991D01*
X60442854Y-236850803D01*
X60196753Y-236851663D01*
X59970905Y-236852574D01*
X59764390Y-236853538D01*
X59576288Y-236854559D01*
X59405680Y-236855637D01*
X59251645Y-236856777D01*
X59113263Y-236857979D01*
X58989614Y-236859248D01*
X58879779Y-236860586D01*
X58782837Y-236861995D01*
X58697867Y-236863477D01*
X58623952Y-236865036D01*
X58560169Y-236866674D01*
X58505599Y-236868392D01*
X58459323Y-236870195D01*
X58420420Y-236872084D01*
X58387970Y-236874063D01*
X58361053Y-236876132D01*
X58338749Y-236878296D01*
X58320138Y-236880557D01*
X58309338Y-236882117D01*
X57866575Y-236970216D01*
X57435728Y-237095604D01*
X57021237Y-237256582D01*
X56627542Y-237451454D01*
X56301280Y-237649989D01*
X55929512Y-237923240D01*
X55587398Y-238225832D01*
X55276243Y-238555667D01*
X54997353Y-238910645D01*
X54752032Y-239288669D01*
X54541586Y-239687638D01*
X54367320Y-240105456D01*
X54230540Y-240540022D01*
X54132551Y-240989238D01*
X54102888Y-241184710D01*
X54086803Y-241345102D01*
X54076115Y-241534106D01*
X54070846Y-241739535D01*
X54071020Y-241949203D01*
X54076660Y-242150922D01*
X54087787Y-242332508D01*
X54100507Y-242453970D01*
X54179733Y-242901723D01*
X54296257Y-243331846D01*
X54449239Y-243742816D01*
X54637836Y-244133108D01*
X54861208Y-244501200D01*
X55118513Y-244845566D01*
X55408908Y-245164682D01*
X55731553Y-245457025D01*
X55780992Y-245497124D01*
X55865304Y-245565822D01*
X55935717Y-245625631D01*
X55986522Y-245671511D01*
X56012013Y-245698420D01*
X56013825Y-245702789D01*
X55995809Y-245722188D01*
X55952957Y-245761032D01*
X55893324Y-245812114D01*
X55870333Y-245831256D01*
X55530050Y-246139213D01*
X55221807Y-246473374D01*
X54946969Y-246831597D01*
X54706902Y-247211742D01*
X54502972Y-247611667D01*
X54336545Y-248029229D01*
X54219580Y-248419817D01*
X54156107Y-248697917D01*
X54111382Y-248964416D01*
X54083590Y-249234372D01*
X54070919Y-249522843D01*
X54069667Y-249664879D01*
X54089542Y-250133054D01*
X54148727Y-250585584D01*
X54247341Y-251022831D01*
X54385503Y-251445158D01*
X54563333Y-251852926D01*
X54780950Y-252246497D01*
X55038472Y-252626232D01*
X55051075Y-252643099D01*
X55151344Y-252768608D01*
X55275403Y-252911262D01*
X55414165Y-253061537D01*
X55558544Y-253209907D01*
X55699454Y-253346848D01*
X55827807Y-253462835D01*
X55855362Y-253486184D01*
X55923750Y-253545244D01*
X55977014Y-253595065D01*
X56008524Y-253629210D01*
X56014112Y-253640272D01*
X55995787Y-253659031D01*
X55950701Y-253697556D01*
X55885837Y-253750051D01*
X55815728Y-253804908D01*
X55498684Y-254075922D01*
X55207653Y-254379396D01*
X54944468Y-254713040D01*
X54710964Y-255074566D01*
X54538612Y-255399127D01*
X54377866Y-255768233D01*
X54251716Y-256139903D01*
X54159120Y-256519594D01*
X54099034Y-256912760D01*
X54070417Y-257324859D01*
X54072226Y-257761347D01*
X54074883Y-257825486D01*
X54115611Y-258278269D01*
X54195653Y-258715396D01*
X54315083Y-259137107D01*
X54473978Y-259543638D01*
X54672414Y-259935227D01*
X54832408Y-260196804D01*
X54904646Y-260304025D01*
X54981888Y-260413995D01*
X55055017Y-260513993D01*
X55114916Y-260591296D01*
X55116374Y-260593083D01*
X55200222Y-260690444D01*
X55305178Y-260804378D01*
X55423194Y-260926846D01*
X55546218Y-261049810D01*
X55666200Y-261165230D01*
X55775089Y-261265068D01*
X55864836Y-261341285D01*
X55868889Y-261344500D01*
X55934710Y-261398700D01*
X55985415Y-261444693D01*
X56013355Y-261475347D01*
X56016465Y-261482083D01*
X56000503Y-261502832D01*
X55957362Y-261541824D01*
X55894349Y-261592752D01*
X55844868Y-261630250D01*
X55720679Y-261729611D01*
X55580915Y-261853962D01*
X55434894Y-261994047D01*
X55291934Y-262140614D01*
X55161350Y-262284409D01*
X55052460Y-262416177D01*
X55048884Y-262420811D01*
X54796095Y-262783741D01*
X54580036Y-263167150D01*
X54401228Y-263569582D01*
X54260193Y-263989584D01*
X54157451Y-264425700D01*
X54093524Y-264876477D01*
X54074670Y-265139078D01*
X54067665Y-265377439D01*
X54070232Y-265586419D01*
X54082182Y-265762732D01*
X54103330Y-265903090D01*
X54122031Y-265973821D01*
X54158513Y-266083660D01*
X54018846Y-266217038D01*
X53976678Y-266257261D01*
X53907285Y-266323394D01*
X53814109Y-266412162D01*
X53700589Y-266520288D01*
X53570164Y-266644496D01*
X53426276Y-266781511D01*
X53272362Y-266928055D01*
X53111864Y-267080854D01*
X53045357Y-267144166D01*
X52211535Y-267937916D01*
X52210017Y-272150015D01*
X52208500Y-276362114D01*
X53430806Y-277584557D01*
X54653113Y-278807000D01*
X197464614Y-278807000D01*
X198687057Y-277584693D01*
X199909499Y-276362386D01*
X199906927Y-267937916D01*
X199056255Y-267128004D01*
X198893218Y-266972742D01*
X198735988Y-266822939D01*
X198587873Y-266681753D01*
X198452181Y-266552339D01*
X198332220Y-266437855D01*
X198231299Y-266341456D01*
X198152726Y-266266300D01*
X198099809Y-266215544D01*
X198083645Y-266199952D01*
X197961707Y-266081814D01*
X198007894Y-265940948D01*
X198024849Y-265884812D01*
X198037057Y-265830198D01*
X198045230Y-265768778D01*
X198050080Y-265692225D01*
X198052320Y-265592213D01*
X198052662Y-265460414D01*
X198052524Y-265419083D01*
X198031798Y-264960065D01*
X197974075Y-264513747D01*
X197880336Y-264082219D01*
X197751565Y-263667575D01*
X197588743Y-263271905D01*
X197392854Y-262897303D01*
X197164878Y-262545861D01*
X196905800Y-262219670D01*
X196616600Y-261920823D01*
X196298263Y-261651412D01*
X196275174Y-261633905D01*
X196202770Y-261578234D01*
X196144955Y-261531554D01*
X196108936Y-261499819D01*
X196100549Y-261489654D01*
X196115361Y-261471442D01*
X196156386Y-261432233D01*
X196217174Y-261377964D01*
X196284415Y-261320342D01*
X196630525Y-261003335D01*
X196940218Y-260666193D01*
X197212977Y-260309799D01*
X197448283Y-259935037D01*
X197645620Y-259542790D01*
X197804470Y-259133940D01*
X197924316Y-258709372D01*
X197981373Y-258423500D01*
X198038877Y-257964817D01*
X198057140Y-257511099D01*
X198036840Y-257064645D01*
X197978659Y-256627751D01*
X197883275Y-256202716D01*
X197751370Y-255791838D01*
X197583624Y-255397415D01*
X197380716Y-255021743D01*
X197143327Y-254667122D01*
X196872136Y-254335849D01*
X196725819Y-254181437D01*
X196608116Y-254067823D01*
X196477137Y-253949298D01*
X196344083Y-253835510D01*
X196220156Y-253736110D01*
X196140824Y-253677430D01*
X196088916Y-253640944D01*
X196194305Y-253550430D01*
X196493852Y-253280204D01*
X196757232Y-253013775D01*
X196989397Y-252744872D01*
X197195297Y-252467222D01*
X197379884Y-252174553D01*
X197548109Y-251860594D01*
X197580149Y-251794855D01*
X197752366Y-251387734D01*
X197886238Y-250966086D01*
X197981679Y-250533505D01*
X198038605Y-250093585D01*
X198056928Y-249649922D01*
X198036562Y-249206110D01*
X197977422Y-248765744D01*
X197879422Y-248332418D01*
X197742474Y-247909728D01*
X197677089Y-247745193D01*
X197485305Y-247341551D01*
X197256686Y-246955585D01*
X196994183Y-246591300D01*
X196700745Y-246252703D01*
X196379322Y-245943798D01*
X196300583Y-245876396D01*
X196225289Y-245812513D01*
X196162890Y-245757943D01*
X196120078Y-245718650D01*
X196103637Y-245700885D01*
X196116667Y-245682185D01*
X196156947Y-245644548D01*
X196217603Y-245594091D01*
X196267229Y-245555387D01*
X196592130Y-245281724D01*
X196888397Y-244978118D01*
X197154632Y-244647036D01*
X197389437Y-244290944D01*
X197591411Y-243912309D01*
X197759158Y-243513598D01*
X197891278Y-243097277D01*
X197986371Y-242665814D01*
X198016223Y-242471051D01*
X198039533Y-242235042D01*
X198051246Y-241975065D01*
X198051465Y-241705975D01*
X198040292Y-241442624D01*
X198017830Y-241199867D01*
X198006906Y-241119750D01*
X197948631Y-240788790D01*
X197875832Y-240484402D01*
X197784212Y-240192904D01*
X197669474Y-239900614D01*
X197528257Y-239595750D01*
X197367794Y-239292472D01*
X197198196Y-239017923D01*
X197011178Y-238760418D01*
X196798456Y-238508271D01*
X196630180Y-238329068D01*
X196297623Y-238014738D01*
X195949612Y-237738762D01*
X195584229Y-237500161D01*
X195199556Y-237297956D01*
X194793676Y-237131169D01*
X194364671Y-236998819D01*
X193910623Y-236899929D01*
X193792333Y-236880219D01*
X193776053Y-236878006D01*
X193755409Y-236875885D01*
X193729487Y-236873852D01*
X193697373Y-236871905D01*
X193658155Y-236870041D01*
X193610918Y-236868257D01*
X193554750Y-236866550D01*
X193488737Y-236864918D01*
X193411965Y-236863359D01*
X193323522Y-236861869D01*
X193222494Y-236860445D01*
X193107967Y-236859086D01*
X192979027Y-236857787D01*
X192834763Y-236856547D01*
X192674259Y-236855363D01*
X192496604Y-236854232D01*
X192300883Y-236853152D01*
X192086182Y-236852119D01*
X191851590Y-236851131D01*
X191596191Y-236850185D01*
X191319073Y-236849278D01*
X191019322Y-236848409D01*
X190696026Y-236847573D01*
X190348270Y-236846769D01*
X189975141Y-236845993D01*
X189575726Y-236845243D01*
X189149111Y-236844516D01*
X188694383Y-236843810D01*
X188210628Y-236843122D01*
X187696933Y-236842448D01*
X187152386Y-236841787D01*
X186576071Y-236841135D01*
X185967076Y-236840491D01*
X185324488Y-236839850D01*
X184647393Y-236839211D01*
X183934878Y-236838570D01*
X183186028Y-236837926D01*
X182399932Y-236837274D01*
X181575675Y-236836614D01*
X180712344Y-236835941D01*
X179809026Y-236835253D01*
X178864807Y-236834547D01*
X178309573Y-236834138D01*
X163049062Y-236822916D01*
X161785872Y-219783750D01*
X161717687Y-218864014D01*
X161648390Y-217929270D01*
X161578123Y-216981438D01*
X161507027Y-216022433D01*
X161435246Y-215054174D01*
X161362920Y-214078578D01*
X161290192Y-213097564D01*
X161217205Y-212113048D01*
X161144100Y-211126948D01*
X161071020Y-210141182D01*
X160998107Y-209157668D01*
X160925503Y-208178323D01*
X160853349Y-207205064D01*
X160781790Y-206239811D01*
X160710966Y-205284479D01*
X160641019Y-204340987D01*
X160572092Y-203411253D01*
X160504328Y-202497193D01*
X160437867Y-201600727D01*
X160372853Y-200723770D01*
X160309427Y-199868242D01*
X160247732Y-199036059D01*
X160187910Y-198229139D01*
X160130103Y-197449400D01*
X160074453Y-196698760D01*
X160021102Y-195979136D01*
X159970193Y-195292446D01*
X159921868Y-194640607D01*
X159876268Y-194025537D01*
X159833536Y-193449154D01*
X159799916Y-192995668D01*
X159077151Y-183246753D01*
X159975878Y-180486168D01*
X160065233Y-180211692D01*
X160166714Y-179899952D01*
X160279348Y-179553943D01*
X160402159Y-179176657D01*
X160534175Y-178771086D01*
X160674420Y-178340224D01*
X160821922Y-177887062D01*
X160975705Y-177414594D01*
X161134796Y-176925813D01*
X161298220Y-176423711D01*
X161465004Y-175911280D01*
X161634173Y-175391514D01*
X161804754Y-174867405D01*
X161975772Y-174341947D01*
X162146253Y-173818131D01*
X162315224Y-173298950D01*
X162481709Y-172787398D01*
X162624303Y-172349250D01*
X162780129Y-171870447D01*
X162935254Y-171393800D01*
X163088972Y-170921485D01*
X163240575Y-170455677D01*
X163389354Y-169998551D01*
X163534601Y-169552284D01*
X163675608Y-169119049D01*
X163811667Y-168701023D01*
X163942071Y-168300381D01*
X164066110Y-167919299D01*
X164183078Y-167559951D01*
X164292265Y-167224513D01*
X164392964Y-166915161D01*
X164484467Y-166634070D01*
X164566065Y-166383415D01*
X164637051Y-166165371D01*
X164696717Y-165982115D01*
X164744354Y-165835821D01*
X164763918Y-165775750D01*
X165153833Y-164578583D01*
X165153833Y-163547958D01*
X165154149Y-163343593D01*
X165155056Y-163152697D01*
X165156491Y-162979330D01*
X165158391Y-162827554D01*
X165160694Y-162701429D01*
X165163337Y-162605018D01*
X165166257Y-162542380D01*
X165169392Y-162517577D01*
X165169739Y-162517333D01*
X165186120Y-162532071D01*
X165230892Y-162575286D01*
X165302551Y-162645482D01*
X165399593Y-162741162D01*
X165520516Y-162860830D01*
X165663814Y-163002988D01*
X165827986Y-163166140D01*
X166011527Y-163348790D01*
X166212934Y-163549440D01*
X166430703Y-163766594D01*
X166663331Y-163998754D01*
X166909314Y-164244426D01*
X167167149Y-164502110D01*
X167435332Y-164770312D01*
X167712361Y-165047534D01*
X167875424Y-165210791D01*
X170565203Y-167904250D01*
X170634889Y-168211166D01*
X170849228Y-169060117D01*
X171103446Y-169896274D01*
X171396679Y-170718322D01*
X171728059Y-171524949D01*
X172096719Y-172314841D01*
X172501795Y-173086686D01*
X172942418Y-173839170D01*
X173417724Y-174570979D01*
X173926844Y-175280801D01*
X174468914Y-175967323D01*
X175043067Y-176629230D01*
X175648435Y-177265211D01*
X176284154Y-177873951D01*
X176949355Y-178454138D01*
X177643174Y-179004458D01*
X177864416Y-179169141D01*
X178598921Y-179681476D01*
X179354844Y-180157489D01*
X180131088Y-180596704D01*
X180926554Y-180998646D01*
X181740144Y-181362841D01*
X182570757Y-181688814D01*
X183417296Y-181976089D01*
X184278663Y-182224192D01*
X185153758Y-182432647D01*
X185638836Y-182529912D01*
X186438900Y-182660411D01*
X187257866Y-182756257D01*
X188089965Y-182817196D01*
X188929428Y-182842977D01*
X189770485Y-182833346D01*
X190607368Y-182788051D01*
X190924250Y-182761328D01*
X191803624Y-182658498D01*
X192677161Y-182514077D01*
X193543269Y-182328592D01*
X194400355Y-182102571D01*
X195246829Y-181836543D01*
X196081098Y-181531035D01*
X196901570Y-181186577D01*
X197706655Y-180803694D01*
X198494760Y-180382917D01*
X199020500Y-180075207D01*
X199768759Y-179596576D01*
X200496496Y-179081518D01*
X201201947Y-178531555D01*
X201883344Y-177948212D01*
X202538922Y-177333012D01*
X203166916Y-176687478D01*
X203765559Y-176013136D01*
X203865179Y-175894666D01*
X204412443Y-175205892D01*
X204928660Y-174489403D01*
X205412420Y-173747717D01*
X205862309Y-172983351D01*
X206276914Y-172198824D01*
X206654824Y-171396651D01*
X206994626Y-170579352D01*
X207267554Y-169830416D01*
X207536031Y-168978975D01*
X207763063Y-168123260D01*
X207949009Y-167261258D01*
X208094232Y-166390956D01*
X208199091Y-165510342D01*
X208263949Y-164617402D01*
X208281118Y-164178916D01*
X208281419Y-164143706D01*
X208281514Y-164067181D01*
X208281406Y-163950162D01*
X208281100Y-163793467D01*
X208280599Y-163597915D01*
X208279908Y-163364324D01*
X208279030Y-163093514D01*
X208277968Y-162786303D01*
X208276728Y-162443510D01*
X208275312Y-162065954D01*
X208273725Y-161654454D01*
X208271971Y-161209828D01*
X208270054Y-160732895D01*
X208267977Y-160224474D01*
X208265744Y-159685385D01*
X208263360Y-159116445D01*
X208260828Y-158518474D01*
X208258152Y-157892290D01*
X208255336Y-157238712D01*
X208252384Y-156558560D01*
X208249300Y-155852651D01*
X208246088Y-155121805D01*
X208242751Y-154366840D01*
X208239294Y-153588576D01*
X208235721Y-152787831D01*
X208232035Y-151965423D01*
X208228240Y-151122173D01*
X208224341Y-150258897D01*
X208220340Y-149376417D01*
X208216243Y-148475549D01*
X208212052Y-147557113D01*
X208207773Y-146621929D01*
X208203408Y-145670813D01*
X208198962Y-144704587D01*
X208194438Y-143724067D01*
X208189841Y-142730074D01*
X208185174Y-141723425D01*
X208180442Y-140704940D01*
X208175648Y-139675438D01*
X208170796Y-138635737D01*
X208165890Y-137586656D01*
X208160934Y-136529014D01*
X208155932Y-135463629D01*
X208150887Y-134391322D01*
X208145804Y-133312909D01*
X208140687Y-132229211D01*
X208135539Y-131141046D01*
X208130365Y-130049233D01*
X208125168Y-128954591D01*
X208119952Y-127857938D01*
X208114722Y-126760093D01*
X208109480Y-125661875D01*
X208104231Y-124564104D01*
X208098979Y-123467597D01*
X208093728Y-122373173D01*
X208088482Y-121281652D01*
X208083244Y-120193852D01*
X208078019Y-119110592D01*
X208072810Y-118032691D01*
X208067621Y-116960967D01*
X208062456Y-115896240D01*
X208057320Y-114839329D01*
X208052216Y-113791051D01*
X208047147Y-112752226D01*
X208042119Y-111723673D01*
X208037134Y-110706210D01*
X208032197Y-109700657D01*
X208027311Y-108707832D01*
X208022481Y-107728553D01*
X208017710Y-106763641D01*
X208013003Y-105813913D01*
X208008362Y-104880189D01*
X208003793Y-103963287D01*
X207999299Y-103064025D01*
X207994884Y-102183224D01*
X207990551Y-101321701D01*
X207986306Y-100480276D01*
X207982151Y-99659767D01*
X207978090Y-98860993D01*
X207974129Y-98084774D01*
X207970269Y-97331926D01*
X207966516Y-96603271D01*
X207962873Y-95899626D01*
X207959344Y-95221810D01*
X207955933Y-94570642D01*
X207952644Y-93946940D01*
X207949481Y-93351525D01*
X207946447Y-92785214D01*
X207943547Y-92248826D01*
X207940785Y-91743180D01*
X207938164Y-91269095D01*
X207935689Y-90827390D01*
X207933363Y-90418883D01*
X207931190Y-90044394D01*
X207929174Y-89704741D01*
X207927319Y-89400743D01*
X207925629Y-89133218D01*
X207924108Y-88902987D01*
X207922760Y-88710866D01*
X207921588Y-88557676D01*
X207920597Y-88444235D01*
X207919790Y-88371362D01*
X207919172Y-88339875D01*
X207919093Y-88338750D01*
X207868007Y-87985500D01*
X207806259Y-87665041D01*
X207731424Y-87368639D01*
X207641074Y-87087560D01*
X207532782Y-86813069D01*
X207436792Y-86603083D01*
X207212250Y-86185020D01*
X206955952Y-85794182D01*
X206669529Y-85431768D01*
X206354610Y-85098978D01*
X206012829Y-84797011D01*
X205645815Y-84527065D01*
X205255200Y-84290340D01*
X204842615Y-84088035D01*
X204409691Y-83921348D01*
X203958059Y-83791480D01*
X203489351Y-83699629D01*
X203486666Y-83699221D01*
X203347758Y-83683053D01*
X203178355Y-83671065D01*
X202987825Y-83663255D01*
X202785541Y-83659623D01*
X202580873Y-83660167D01*
X202383191Y-83664887D01*
X202201867Y-83673782D01*
X202046270Y-83686850D01*
X201952083Y-83699391D01*
X201488141Y-83795395D01*
X201044290Y-83926337D01*
X200622056Y-84091331D01*
X200222965Y-84289496D01*
X199848545Y-84519947D01*
X199500322Y-84781800D01*
X199179823Y-85074173D01*
X198888575Y-85396180D01*
X198778241Y-85536210D01*
X198709077Y-85629851D01*
X198641601Y-85725021D01*
X198584575Y-85809160D01*
X198553017Y-85859002D01*
X198514751Y-85919882D01*
X198484131Y-85962973D01*
X198468218Y-85978666D01*
X198450627Y-85962399D01*
X198417639Y-85919901D01*
X198379368Y-85864767D01*
X198239839Y-85671800D01*
X198071675Y-85467456D01*
X197883393Y-85260647D01*
X197683512Y-85060290D01*
X197480550Y-84875297D01*
X197283024Y-84714584D01*
X197273406Y-84707317D01*
X196881838Y-84438684D01*
X196471877Y-84207891D01*
X196045130Y-84015583D01*
X195603202Y-83862402D01*
X195147701Y-83748994D01*
X194710314Y-83679432D01*
X194534050Y-83664526D01*
X194328533Y-83656463D01*
X194106249Y-83655025D01*
X193879684Y-83659994D01*
X193661325Y-83671154D01*
X193463660Y-83688286D01*
X193347833Y-83703176D01*
X193171212Y-83734457D01*
X192973943Y-83776984D01*
X192770205Y-83827174D01*
X192574177Y-83881446D01*
X192400038Y-83936218D01*
X192336252Y-83958725D01*
X192026522Y-84086554D01*
X191708237Y-84243624D01*
X191394275Y-84422673D01*
X191097516Y-84616435D01*
X190871333Y-84784950D01*
X190773500Y-84867691D01*
X190656002Y-84974734D01*
X190525844Y-85098992D01*
X190390031Y-85233378D01*
X190255569Y-85370807D01*
X190129462Y-85504192D01*
X190018717Y-85626447D01*
X189930339Y-85730485D01*
X189905421Y-85762018D01*
X189846573Y-85838395D01*
X189796906Y-85902618D01*
X189762312Y-85947083D01*
X189749340Y-85963449D01*
X189732870Y-85952914D01*
X189696059Y-85913277D01*
X189643310Y-85849783D01*
X189579027Y-85767677D01*
X189527246Y-85698866D01*
X189298292Y-85414915D01*
X189037880Y-85136116D01*
X188755352Y-84871109D01*
X188460050Y-84628533D01*
X188161318Y-84417029D01*
X188097087Y-84376163D01*
X187747132Y-84180733D01*
X187367801Y-84011199D01*
X186964730Y-83869657D01*
X186543550Y-83758199D01*
X186306384Y-83710509D01*
X186212789Y-83694680D01*
X186126510Y-83682640D01*
X186039364Y-83673891D01*
X185943167Y-83667935D01*
X185829737Y-83664277D01*
X185690891Y-83662418D01*
X185518446Y-83661861D01*
X185505583Y-83661858D01*
X185173492Y-83667360D01*
X184873037Y-83684975D01*
X184594859Y-83716266D01*
X184329595Y-83762796D01*
X184067886Y-83826130D01*
X183800369Y-83907829D01*
X183592300Y-83981350D01*
X183321886Y-84093136D01*
X183042039Y-84229863D01*
X182761489Y-84386113D01*
X182488968Y-84556470D01*
X182233205Y-84735518D01*
X182002931Y-84917839D01*
X181830903Y-85074139D01*
X181769498Y-85138682D01*
X181689123Y-85229431D01*
X181596111Y-85338654D01*
X181496795Y-85458616D01*
X181397509Y-85581585D01*
X181304586Y-85699828D01*
X181224358Y-85805612D01*
X181170406Y-85880637D01*
X181131848Y-85933813D01*
X181102878Y-85969026D01*
X181092333Y-85977677D01*
X181076640Y-85961168D01*
X181042513Y-85916989D01*
X180995422Y-85852409D01*
X180954750Y-85794765D01*
X180854529Y-85658477D01*
X180735279Y-85508424D01*
X180606263Y-85355424D01*
X180476744Y-85210295D01*
X180355985Y-85083855D01*
X180296622Y-85026166D01*
X179938080Y-84717365D01*
X179562644Y-84447297D01*
X179170861Y-84216178D01*
X178763277Y-84024227D01*
X178340440Y-83871660D01*
X177902895Y-83758695D01*
X177451191Y-83685548D01*
X176985873Y-83652437D01*
X176832671Y-83650333D01*
X176719252Y-83649525D01*
X176622378Y-83647296D01*
X176549190Y-83643932D01*
X176506824Y-83639723D01*
X176499166Y-83636853D01*
X176512279Y-83616745D01*
X176548195Y-83571132D01*
X176601782Y-83506313D01*
X176667905Y-83428590D01*
X176684554Y-83409311D01*
X177005325Y-83026569D01*
X177294090Y-82654785D01*
X177556476Y-82285534D01*
X177798114Y-81910394D01*
X178024633Y-81520941D01*
X178241662Y-81108750D01*
X178298653Y-80993916D01*
X178563722Y-80413842D01*
X178788575Y-79834996D01*
X178974621Y-79252167D01*
X179123270Y-78660146D01*
X179235931Y-78053719D01*
X179314014Y-77427677D01*
X179337081Y-77154283D01*
X179346045Y-76986911D01*
X179351341Y-76788882D01*
X179353140Y-76569581D01*
X179351617Y-76338394D01*
X179346945Y-76104708D01*
X179339297Y-75877908D01*
X179328846Y-75667380D01*
X179315766Y-75482511D01*
X179304016Y-75363583D01*
X179206552Y-74701279D01*
X179070081Y-74053927D01*
X178895026Y-73422500D01*
X178681805Y-72807975D01*
X178430842Y-72211328D01*
X178142556Y-71633533D01*
X177817369Y-71075568D01*
X177455702Y-70538406D01*
X177057976Y-70023024D01*
X176937176Y-69879208D01*
X176493389Y-69392598D01*
X176023635Y-68938764D01*
X175529505Y-68518344D01*
X175012585Y-68131977D01*
X174474467Y-67780301D01*
X173916738Y-67463954D01*
X173340987Y-67183576D01*
X172748804Y-66939803D01*
X172141777Y-66733275D01*
X171521495Y-66564631D01*
X170889548Y-66434508D01*
X170247524Y-66343545D01*
X169597012Y-66292380D01*
X168939601Y-66281652D01*
X168276880Y-66311999D01*
X168096820Y-66327357D01*
X167432223Y-66410521D01*
X166779872Y-66534077D01*
X166140551Y-66697668D01*
X165515042Y-66900936D01*
X164904128Y-67143521D01*
X164308591Y-67425066D01*
X163729214Y-67745212D01*
X163166781Y-68103601D01*
X162622072Y-68499874D01*
X162095873Y-68933673D01*
X161781540Y-69219175D01*
X161681632Y-69312364D01*
X161607487Y-69378977D01*
X161554820Y-69422261D01*
X161519350Y-69445464D01*
X161496795Y-69451834D01*
X161483421Y-69445242D01*
X161462279Y-69419921D01*
X161419473Y-69367132D01*
X161359603Y-69292604D01*
X161287273Y-69202067D01*
X161207085Y-69101251D01*
X161204703Y-69098250D01*
X160636822Y-68412618D01*
X160033583Y-67742493D01*
X159393909Y-67086825D01*
X158716720Y-66444569D01*
X158000939Y-65814677D01*
X157245487Y-65196103D01*
X156941166Y-64958695D01*
X156786916Y-64840302D01*
X156647813Y-64734484D01*
X156518778Y-64637648D01*
X156394733Y-64546201D01*
X156270602Y-64456549D01*
X156141307Y-64365100D01*
X156001769Y-64268262D01*
X155846911Y-64162440D01*
X155671656Y-64044043D01*
X155470925Y-63909477D01*
X155250363Y-63762293D01*
X154395644Y-63192750D01*
X166891978Y-63187440D01*
X179388311Y-63182130D01*
X180568405Y-62002178D01*
X181748500Y-60822225D01*
X181748500Y-55843523D01*
X180879222Y-54713623D01*
X180731830Y-54522067D01*
X180592117Y-54340546D01*
X180462210Y-54171819D01*
X180344234Y-54018642D01*
X180240314Y-53883774D01*
X180152576Y-53769973D01*
X180083145Y-53679997D01*
X180034147Y-53616604D01*
X180007707Y-53582552D01*
X180003568Y-53577345D01*
X179982182Y-53570038D01*
X179926113Y-53553291D01*
X179841504Y-53528870D01*
X179734494Y-53498544D01*
X179611223Y-53464078D01*
X179576386Y-53454413D01*
X177307096Y-52844351D01*
X175006668Y-52262612D01*
X172675489Y-51709266D01*
X170313945Y-51184381D01*
X167922424Y-50688028D01*
X165501311Y-50220274D01*
X163050994Y-49781189D01*
X160571860Y-49370842D01*
X158064294Y-48989302D01*
X155528684Y-48636638D01*
X152965416Y-48312919D01*
X150374877Y-48018213D01*
X147757454Y-47752591D01*
X147511416Y-47729250D01*
X147344469Y-47713412D01*
X147191660Y-47698735D01*
X147057916Y-47685707D01*
X146948162Y-47674814D01*
X146867326Y-47666544D01*
X146820334Y-47661385D01*
X146810220Y-47659896D01*
X146814537Y-47639208D01*
X146827659Y-47578470D01*
X146849300Y-47478978D01*
X146879176Y-47342031D01*
X146917003Y-47168923D01*
X146962496Y-46960951D01*
X147015372Y-46719413D01*
X147075344Y-46445605D01*
X147142130Y-46140822D01*
X147215445Y-45806363D01*
X147295004Y-45443523D01*
X147380522Y-45053598D01*
X147471716Y-44637886D01*
X147568301Y-44197683D01*
X147669993Y-43734286D01*
X147776507Y-43248991D01*
X147887558Y-42743094D01*
X148002863Y-42217892D01*
X148122137Y-41674683D01*
X148245095Y-41114761D01*
X148371453Y-40539425D01*
X148500927Y-39949970D01*
X148633232Y-39347693D01*
X148768084Y-38733890D01*
X148879532Y-38226666D01*
X149016284Y-37604180D01*
X149150707Y-36992048D01*
X149282517Y-36391572D01*
X149411429Y-35804053D01*
X149537159Y-35230794D01*
X149659423Y-34673096D01*
X149777936Y-34132262D01*
X149892414Y-33609592D01*
X150002574Y-33106388D01*
X150108129Y-32623953D01*
X150208798Y-32163588D01*
X150304294Y-31726595D01*
X150394334Y-31314275D01*
X150478633Y-30927931D01*
X150556907Y-30568865D01*
X150628872Y-30238377D01*
X150694244Y-29937770D01*
X150752738Y-29668346D01*
X150804069Y-29431406D01*
X150847955Y-29228252D01*
X150884110Y-29060186D01*
X150912249Y-28928509D01*
X150932090Y-28834525D01*
X150943347Y-28779533D01*
X150945979Y-28764476D01*
X150932310Y-28743300D01*
X150894289Y-28691399D01*
X150833834Y-28611247D01*
X150752859Y-28505317D01*
X150653279Y-28376085D01*
X150537012Y-28226023D01*
X150405971Y-28057605D01*
X150262073Y-27873307D01*
X150107233Y-27675601D01*
X149943368Y-27466962D01*
X149819221Y-27309268D01*
X148698026Y-25886500D01*
X103421250Y-25887032D01*
X102299416Y-27310224D01*
X102101140Y-27561873D01*
X101927544Y-27782508D01*
X101777014Y-27974292D01*
X101647935Y-28139388D01*
X101538692Y-28279957D01*
X101447672Y-28398163D01*
X101373259Y-28496169D01*
X101313839Y-28576136D01*
X101267798Y-28640229D01*
X101233520Y-28690609D01*
X101209392Y-28729440D01*
X101193799Y-28758883D01*
X101185126Y-28781102D01*
X101181759Y-28798260D01*
X101181638Y-28807500D01*
X101186438Y-28832855D01*
X101200112Y-28898238D01*
X101222371Y-29002346D01*
X101252930Y-29143876D01*
X101291502Y-29321526D01*
X101337800Y-29533991D01*
X101391537Y-29779971D01*
X101452427Y-30058161D01*
X101520184Y-30367258D01*
X101594519Y-30705961D01*
X101675148Y-31072966D01*
X101761782Y-31466970D01*
X101854136Y-31886671D01*
X101951922Y-32330765D01*
X102054855Y-32797950D01*
X102162647Y-33286924D01*
X102275011Y-33796382D01*
X102391662Y-34325023D01*
X102512312Y-34871543D01*
X102636674Y-35434639D01*
X102764463Y-36013010D01*
X102895390Y-36605351D01*
X103029171Y-37210361D01*
X103165517Y-37826735D01*
X103291445Y-38395803D01*
X103429743Y-39020772D01*
X103565682Y-39635304D01*
X103698979Y-40238108D01*
X103829349Y-40827893D01*
X103956508Y-41403367D01*
X104080172Y-41963240D01*
X104200057Y-42506221D01*
X104315878Y-43031018D01*
X104427352Y-43536340D01*
X104534193Y-44020896D01*
X104636119Y-44483395D01*
X104732844Y-44922546D01*
X104824084Y-45337058D01*
X104909556Y-45725639D01*
X104988975Y-46086999D01*
X105062057Y-46419846D01*
X105128517Y-46722890D01*
X105188071Y-46994838D01*
X105240436Y-47234400D01*
X105285327Y-47440286D01*
X105322460Y-47611203D01*
X105351550Y-47745860D01*
X105372314Y-47842967D01*
X105384467Y-47901232D01*
X105387794Y-47919428D01*
X105365221Y-47923765D01*
X105305567Y-47931693D01*
X105213878Y-47942637D01*
X105095201Y-47956023D01*
X104954583Y-47971276D01*
X104797071Y-47987822D01*
X104696153Y-47998172D01*
X103036865Y-48172362D01*
X101374601Y-48357839D01*
X99711736Y-48554209D01*
X98050643Y-48761074D01*
X96393697Y-48978039D01*
X94743270Y-49204707D01*
X93101736Y-49440684D01*
X91471469Y-49685572D01*
X89854844Y-49938976D01*
X88254233Y-50200500D01*
X86672011Y-50469748D01*
X85110550Y-50746324D01*
X83572226Y-51029831D01*
X82059411Y-51319875D01*
X80574480Y-51616058D01*
X79119805Y-51917986D01*
X77697762Y-52225261D01*
X76310723Y-52537489D01*
X74961062Y-52854272D01*
X73651153Y-53175215D01*
X73629166Y-53180724D01*
X73337931Y-53253881D01*
X73085189Y-53317761D01*
X72868300Y-53373101D01*
X72684626Y-53420634D01*
X72531526Y-53461096D01*
X72406362Y-53495222D01*
X72306493Y-53523746D01*
X72229280Y-53547404D01*
X72172085Y-53566930D01*
X72132266Y-53583060D01*
X72107186Y-53596528D01*
X72094204Y-53608069D01*
X72094151Y-53608142D01*
X72077121Y-53631551D01*
X72037266Y-53686137D01*
X71976769Y-53768916D01*
X71897810Y-53876907D01*
X71802572Y-54007127D01*
X71693235Y-54156593D01*
X71571981Y-54322322D01*
X71440992Y-54501333D01*
X71302448Y-54690642D01*
X71261018Y-54747250D01*
X70455428Y-55847916D01*
X70454797Y-58324486D01*
X70454166Y-60801057D01*
X71644843Y-61991594D01*
X72835520Y-63182130D01*
X85288814Y-63187440D01*
X97742109Y-63192750D01*
X97463659Y-63359174D01*
X97319758Y-63448557D01*
X97147637Y-63561174D01*
X96951989Y-63693636D01*
X96737509Y-63842555D01*
X96508891Y-64004543D01*
X96270830Y-64176212D01*
X96028018Y-64354174D01*
X95785152Y-64535041D01*
X95546925Y-64715424D01*
X95318032Y-64891936D01*
X95103166Y-65061188D01*
X95081583Y-65078422D01*
X94351498Y-65679069D01*
X93648530Y-66291453D01*
X92975405Y-66912939D01*
X92334849Y-67540890D01*
X91729587Y-68172672D01*
X91162344Y-68805649D01*
X90869361Y-69151166D01*
X90781895Y-69256248D01*
X90702239Y-69351566D01*
X90634832Y-69431842D01*
X90584110Y-69491796D01*
X90554512Y-69526148D01*
X90550174Y-69530926D01*
X90537619Y-69537052D01*
X90517987Y-69531994D01*
X90487712Y-69512760D01*
X90443227Y-69476361D01*
X90380967Y-69419806D01*
X90297366Y-69340103D01*
X90188856Y-69234263D01*
X90144942Y-69191089D01*
X89855039Y-68913715D01*
X89576752Y-68664961D01*
X89300307Y-68436915D01*
X89015931Y-68221663D01*
X88713852Y-68011295D01*
X88572833Y-67918255D01*
X88034141Y-67593164D01*
X87473894Y-67303175D01*
X86894674Y-67048613D01*
X86299066Y-66829806D01*
X85689655Y-66647078D01*
X85069023Y-66500755D01*
X84439756Y-66391164D01*
X83804437Y-66318631D01*
X83165651Y-66283481D01*
X82525981Y-66286041D01*
X81888011Y-66326637D01*
X81254327Y-66405593D01*
X80627511Y-66523238D01*
X80010147Y-66679895D01*
X79646723Y-66792295D01*
X79031746Y-67017457D01*
X78436315Y-67278952D01*
X77861763Y-67575361D01*
X77309422Y-67905264D01*
X76780626Y-68267241D01*
X76276707Y-68659872D01*
X75798997Y-69081738D01*
X75348830Y-69531420D01*
X74927539Y-70007497D01*
X74536455Y-70508551D01*
X74176912Y-71033160D01*
X73850242Y-71579907D01*
X73557778Y-72147371D01*
X73300853Y-72734132D01*
X73080799Y-73338771D01*
X72898949Y-73959869D01*
X72891796Y-73987750D01*
X72788508Y-74429625D01*
X72708409Y-74858288D01*
X72650110Y-75285127D01*
X72612218Y-75721533D01*
X72593342Y-76178893D01*
X72590558Y-76453666D01*
X72598649Y-76920885D01*
X72623881Y-77360789D01*
X72667693Y-77785375D01*
X72731526Y-78206640D01*
X72816817Y-78636583D01*
X72889770Y-78947964D01*
X73002135Y-79365244D01*
X73129208Y-79765137D01*
X73275260Y-80159216D01*
X73444560Y-80559049D01*
X73629259Y-80951583D01*
X73860307Y-81399117D01*
X74100287Y-81816453D01*
X74356514Y-82214895D01*
X74636307Y-82605750D01*
X74946982Y-83000322D01*
X74985547Y-83047083D01*
X75067334Y-83141397D01*
X75174482Y-83258319D01*
X75301072Y-83391934D01*
X75441187Y-83536321D01*
X75588909Y-83685565D01*
X75738320Y-83833746D01*
X75883503Y-83974948D01*
X76018540Y-84103252D01*
X76137512Y-84212741D01*
X76234502Y-84297496D01*
X76243250Y-84304786D01*
X76772787Y-84717020D01*
X77320800Y-85092074D01*
X77885934Y-85429472D01*
X78466839Y-85728742D01*
X79062161Y-85989410D01*
X79670548Y-86211004D01*
X80290647Y-86393050D01*
X80921107Y-86535074D01*
X81560575Y-86636604D01*
X82207699Y-86697166D01*
X82861126Y-86716287D01*
X83122416Y-86712269D01*
X83770710Y-86676584D01*
X84395311Y-86606393D01*
X84997480Y-86501391D01*
X85578475Y-86361272D01*
X86139555Y-86185728D01*
X86681978Y-85974456D01*
X87207004Y-85727147D01*
X87236834Y-85711750D01*
X87339388Y-85659073D01*
X87427864Y-85614600D01*
X87495892Y-85581457D01*
X87537103Y-85562765D01*
X87546546Y-85559890D01*
X87555567Y-85580472D01*
X87577763Y-85634562D01*
X87610768Y-85716291D01*
X87652214Y-85819787D01*
X87699736Y-85939183D01*
X87715394Y-85978666D01*
X88053883Y-86775899D01*
X88432746Y-87561535D01*
X88851527Y-88335164D01*
X89309773Y-89096374D01*
X89807029Y-89844755D01*
X90342840Y-90579897D01*
X90916750Y-91301388D01*
X91528306Y-92008817D01*
X92177053Y-92701775D01*
X92862535Y-93379849D01*
X93584298Y-94042631D01*
X94341887Y-94689708D01*
X95134848Y-95320670D01*
X95962725Y-95935106D01*
X96825064Y-96532606D01*
X97721411Y-97112759D01*
X98651309Y-97675154D01*
X99614306Y-98219380D01*
X100609945Y-98745027D01*
X101637772Y-99251684D01*
X102697332Y-99738939D01*
X103188416Y-99953507D01*
X103315526Y-100008215D01*
X103428820Y-100057087D01*
X103522782Y-100097735D01*
X103591899Y-100127771D01*
X103630656Y-100144807D01*
X103637031Y-100147770D01*
X103631907Y-100167548D01*
X103614773Y-100218157D01*
X103588657Y-100290858D01*
X103570164Y-100340836D01*
X103469859Y-100666373D01*
X103403523Y-101012289D01*
X103371358Y-101373434D01*
X103373565Y-101744654D01*
X103410348Y-102120796D01*
X103481909Y-102496709D01*
X103485054Y-102509833D01*
X103568066Y-102814163D01*
X103677257Y-103147435D01*
X103812981Y-103510634D01*
X103975593Y-103904745D01*
X104047112Y-104068703D01*
X104087432Y-104161495D01*
X104120515Y-104240776D01*
X104142992Y-104298250D01*
X104151495Y-104325624D01*
X104151500Y-104325831D01*
X104141118Y-104352793D01*
X104113571Y-104405429D01*
X104074252Y-104473593D01*
X104063111Y-104492045D01*
X103999832Y-104603074D01*
X103927073Y-104742386D01*
X103850234Y-104898628D01*
X103774713Y-105060449D01*
X103705910Y-105216500D01*
X103649225Y-105355429D01*
X103636709Y-105388500D01*
X103531874Y-105704270D01*
X103455534Y-106013198D01*
X103405127Y-106328715D01*
X103378094Y-106664252D01*
X103374324Y-106765040D01*
X103370662Y-106908791D01*
X103369455Y-107019050D01*
X103371225Y-107104617D01*
X103376489Y-107174289D01*
X103385769Y-107236865D01*
X103399582Y-107301142D01*
X103408000Y-107335278D01*
X103428340Y-107417574D01*
X103443894Y-107484051D01*
X103452230Y-107524166D01*
X103453000Y-107530363D01*
X103432123Y-107531842D01*
X103370652Y-107533286D01*
X103270328Y-107534692D01*
X103132890Y-107536053D01*
X102960077Y-107537363D01*
X102753629Y-107538619D01*
X102515286Y-107539814D01*
X102246788Y-107540943D01*
X101949874Y-107542001D01*
X101626285Y-107542983D01*
X101277759Y-107543883D01*
X100906036Y-107544695D01*
X100512857Y-107545415D01*
X100099960Y-107546038D01*
X99669086Y-107546557D01*
X99221975Y-107546969D01*
X98760365Y-107547266D01*
X98285997Y-107547445D01*
X97836810Y-107547500D01*
X92220621Y-107547500D01*
X91386269Y-107854982D01*
X90551916Y-108162465D01*
X90382583Y-108327983D01*
X90348648Y-108361027D01*
X90286060Y-108421838D01*
X90196566Y-108508719D01*
X90081913Y-108619978D01*
X89943848Y-108753920D01*
X89784120Y-108908849D01*
X89604474Y-109083073D01*
X89406659Y-109274895D01*
X89192422Y-109482623D01*
X88963510Y-109704561D01*
X88721671Y-109939015D01*
X88468651Y-110184291D01*
X88206198Y-110438695D01*
X87936060Y-110700531D01*
X87747333Y-110883447D01*
X87422611Y-111198169D01*
X87073075Y-111536947D01*
X86703291Y-111895356D01*
X86317825Y-112268970D01*
X85921244Y-112653363D01*
X85518113Y-113044108D01*
X85113000Y-113436780D01*
X84710470Y-113826952D01*
X84315090Y-114210199D01*
X83931426Y-114582094D01*
X83564045Y-114938211D01*
X83217512Y-115274124D01*
X82896395Y-115585407D01*
X82868416Y-115612530D01*
X81286881Y-117145489D01*
X79735324Y-118649061D01*
X78213491Y-120123491D01*
X76721128Y-121569025D01*
X75257980Y-122985908D01*
X73823794Y-124374385D01*
X72418314Y-125734702D01*
X71041288Y-127067105D01*
X69692460Y-128371838D01*
X68371577Y-129649148D01*
X67078384Y-130899280D01*
X65812626Y-132122479D01*
X64574051Y-133318992D01*
X63362403Y-134489062D01*
X62177428Y-135632937D01*
X61018873Y-136750860D01*
X59886482Y-137843079D01*
X58780002Y-138909838D01*
X57699178Y-139951383D01*
X56643756Y-140967959D01*
X55613483Y-141959812D01*
X54608103Y-142927187D01*
X53627362Y-143870330D01*
X52671007Y-144789486D01*
X51738783Y-145684901D01*
X50830436Y-146556820D01*
X49945711Y-147405489D01*
X49668356Y-147671416D01*
X49168033Y-148153080D01*
X48698007Y-148609799D01*
X48256102Y-149043783D01*
X47840138Y-149457243D01*
X47447940Y-149852390D01*
X47077328Y-150231434D01*
X46726125Y-150596585D01*
X46392154Y-150950055D01*
X46073236Y-151294054D01*
X45767193Y-151630792D01*
X45761011Y-151637666D01*
X45050183Y-152447153D01*
X44380370Y-153249304D01*
X43751077Y-154045079D01*
X43161806Y-154835438D01*
X42612061Y-155621340D01*
X42101345Y-156403747D01*
X41629161Y-157183618D01*
X41195012Y-157961912D01*
X40798402Y-158739591D01*
X40438835Y-159517614D01*
X40115812Y-160296940D01*
X39828839Y-161078531D01*
X39577417Y-161863346D01*
X39361051Y-162652345D01*
X39179243Y-163446488D01*
X39031497Y-164246734D01*
X38949104Y-164803333D01*
X38894073Y-165216083D01*
X29517833Y-165216083D01*
X29517833Y-25082166D01*
X215890333Y-25082166D01*
X215890333Y-279801833D01*
G37*
X215890333Y-279801833D02*
X29517833Y-279801833D01*
X29517833Y-165216083D01*
X38894073Y-165216083D01*
X38900102Y-184096750D01*
X38900448Y-185172594D01*
X38900788Y-186206929D01*
X38901122Y-187200580D01*
X38901453Y-188154371D01*
X38901783Y-189069126D01*
X38902113Y-189945671D01*
X38902445Y-190784829D01*
X38902782Y-191587425D01*
X38903126Y-192354284D01*
X38903477Y-193086230D01*
X38903838Y-193784087D01*
X38904211Y-194448680D01*
X38904597Y-195080834D01*
X38905000Y-195681372D01*
X38905419Y-196251120D01*
X38905858Y-196790901D01*
X38906318Y-197301541D01*
X38906801Y-197783864D01*
X38907309Y-198238694D01*
X38907843Y-198666856D01*
X38908406Y-199069173D01*
X38909000Y-199446472D01*
X38909626Y-199799576D01*
X38910286Y-200129310D01*
X38910983Y-200436497D01*
X38911717Y-200721964D01*
X38912492Y-200986533D01*
X38913307Y-201231030D01*
X38914167Y-201456279D01*
X38915072Y-201663105D01*
X38916024Y-201852332D01*
X38917026Y-202024784D01*
X38918079Y-202181286D01*
X38919184Y-202322663D01*
X38920345Y-202449738D01*
X38921562Y-202563337D01*
X38922838Y-202664284D01*
X38924174Y-202753403D01*
X38925572Y-202831519D01*
X38927035Y-202899457D01*
X38928563Y-202958040D01*
X38930160Y-203008094D01*
X38931826Y-203050442D01*
X38933564Y-203085909D01*
X38935376Y-203115321D01*
X38937263Y-203139500D01*
X38939227Y-203159272D01*
X38941270Y-203175462D01*
X38943395Y-203188893D01*
X38943428Y-203189083D01*
X39038939Y-203650186D01*
X39158232Y-204079643D01*
X39303394Y-204482155D01*
X39476511Y-204862427D01*
X39679670Y-205225163D01*
X39914956Y-205575065D01*
X40117840Y-205836883D01*
X40431522Y-206186507D01*
X40774487Y-206506584D01*
X41144169Y-206795453D01*
X41538005Y-207051457D01*
X41953428Y-207272937D01*
X42387873Y-207458234D01*
X42838776Y-207605689D01*
X42863986Y-207612664D01*
X43325802Y-207717890D01*
X43790229Y-207781942D01*
X44254754Y-207805330D01*
X44716869Y-207788562D01*
X45174060Y-207732148D01*
X45623819Y-207636596D01*
X46063632Y-207502415D01*
X46490991Y-207330114D01*
X46903383Y-207120203D01*
X47298298Y-206873189D01*
X47594166Y-206653830D01*
X47859511Y-206424806D01*
X48115993Y-206169458D01*
X48356229Y-205896371D01*
X48572833Y-205614129D01*
X48758420Y-205331319D01*
X48812908Y-205236979D01*
X48847881Y-205178088D01*
X48876002Y-205137798D01*
X48889092Y-205125854D01*
X48906234Y-205142616D01*
X48938172Y-205186855D01*
X48978398Y-205249469D01*
X48983679Y-205258125D01*
X49104188Y-205440551D01*
X49252411Y-205638698D01*
X49421101Y-205844411D01*
X49603015Y-206049536D01*
X49790906Y-206245917D01*
X49977530Y-206425400D01*
X50155643Y-206579829D01*
X50163694Y-206586343D01*
X50406405Y-206768188D01*
X50678465Y-206947905D01*
X50968147Y-207118846D01*
X51263728Y-207274363D01*
X51553483Y-207407810D01*
X51750383Y-207485933D01*
X52145669Y-207611700D01*
X52559130Y-207707396D01*
X52981147Y-207771639D01*
X53402102Y-207803046D01*
X53812376Y-207800237D01*
X53900674Y-207794859D01*
X54391165Y-207740783D01*
X54862099Y-207649527D01*
X55314783Y-207520533D01*
X55750524Y-207353246D01*
X56170629Y-207147107D01*
X56576406Y-206901561D01*
X56969162Y-206616050D01*
X57276104Y-206357387D01*
X57402135Y-206238477D01*
X57539341Y-206098651D01*
X57681782Y-205944838D01*
X57823520Y-205783967D01*
X57958616Y-205622967D01*
X58081131Y-205468766D01*
X58185125Y-205328295D01*
X58264661Y-205208482D01*
X58273613Y-205193571D01*
X58302324Y-205149761D01*
X58322560Y-205127354D01*
X58324938Y-205126569D01*
X58340069Y-205143469D01*
X58374120Y-205189488D01*
X58422677Y-205258422D01*
X58481324Y-205344069D01*
X58509463Y-205385861D01*
X58663752Y-205608043D01*
X58812428Y-205803755D01*
X58965873Y-205985721D01*
X59134470Y-206166665D01*
X59204016Y-206237150D01*
X59558327Y-206562895D01*
X59932162Y-206851089D01*
X60325371Y-207101664D01*
X60737801Y-207314552D01*
X61169302Y-207489684D01*
X61619722Y-207626993D01*
X62088910Y-207726410D01*
X62576714Y-207787868D01*
X62665992Y-207794859D01*
X63072605Y-207805420D01*
X63492027Y-207781458D01*
X63914638Y-207724355D01*
X64330819Y-207635494D01*
X64730951Y-207516255D01*
X64816283Y-207485933D01*
X65094698Y-207372319D01*
X65387314Y-207231888D01*
X65682407Y-207071284D01*
X65968250Y-206897158D01*
X66233120Y-206716155D01*
X66402971Y-206586343D01*
X66580505Y-206433294D01*
X66766891Y-206254808D01*
X66954885Y-206059039D01*
X67137242Y-205854143D01*
X67306717Y-205648274D01*
X67456066Y-205449588D01*
X67578042Y-205266239D01*
X67582987Y-205258125D01*
X67624058Y-205193813D01*
X67658033Y-205146765D01*
X67678258Y-205126106D01*
X67679468Y-205125833D01*
X67698748Y-205142975D01*
X67722193Y-205184041D01*
X67752607Y-205240737D01*
X67802915Y-205323390D01*
X67867751Y-205423987D01*
X67941751Y-205534513D01*
X68019548Y-205646955D01*
X68095777Y-205753298D01*
X68165050Y-205845500D01*
X68274789Y-205977759D01*
X68409149Y-206125329D01*
X68558531Y-206278596D01*
X68713335Y-206427946D01*
X68863964Y-206563765D01*
X68972500Y-206654220D01*
X69352748Y-206930154D01*
X69755048Y-207170321D01*
X70177760Y-207374038D01*
X70619247Y-207540621D01*
X71077870Y-207669389D01*
X71551992Y-207759659D01*
X71660666Y-207774597D01*
X71798971Y-207787473D01*
X71968338Y-207795695D01*
X72157762Y-207799357D01*
X72356239Y-207798554D01*
X72552765Y-207793379D01*
X72736334Y-207783928D01*
X72895943Y-207770295D01*
X72951833Y-207763528D01*
X73436242Y-207677954D01*
X73902091Y-207554490D01*
X74348933Y-207393349D01*
X74776321Y-207194745D01*
X75183810Y-206958891D01*
X75570954Y-206686002D01*
X75937305Y-206376290D01*
X76028847Y-206290000D01*
X76348432Y-205956762D01*
X76632337Y-205606598D01*
X76881694Y-205237304D01*
X77097637Y-204846675D01*
X77281300Y-204432505D01*
X77433815Y-203992592D01*
X77556317Y-203524729D01*
X77623126Y-203189083D01*
X77626068Y-203170769D01*
X77628855Y-203149461D01*
X77631490Y-203123996D01*
X77633979Y-203093208D01*
X77636327Y-203055934D01*
X77638539Y-203011008D01*
X77640620Y-202957267D01*
X77642576Y-202893545D01*
X77644411Y-202818678D01*
X77646130Y-202731502D01*
X77647739Y-202630851D01*
X77649242Y-202515562D01*
X77650646Y-202384470D01*
X77651954Y-202236410D01*
X77653172Y-202070219D01*
X77654305Y-201884730D01*
X77655359Y-201678781D01*
X77656338Y-201451205D01*
X77657247Y-201200840D01*
X77658091Y-200926519D01*
X77658876Y-200627079D01*
X77659607Y-200301356D01*
X77660289Y-199948184D01*
X77660927Y-199566399D01*
X77661525Y-199154836D01*
X77662090Y-198712332D01*
X77662626Y-198237721D01*
X77663138Y-197729839D01*
X77663632Y-197187522D01*
X77664112Y-196609604D01*
X77664584Y-195994922D01*
X77665053Y-195342311D01*
X77665523Y-194650606D01*
X77666000Y-193918642D01*
X77666382Y-193317505D01*
X77672453Y-183657594D01*
X78122134Y-184099422D01*
X78366170Y-184334501D01*
X78591141Y-184540672D01*
X78803338Y-184722931D01*
X79009048Y-184886271D01*
X79214559Y-185035690D01*
X79426160Y-185176180D01*
X79647936Y-185311447D01*
X80110890Y-185559159D01*
X80594368Y-185771800D01*
X81094599Y-185948672D01*
X81607810Y-186089081D01*
X82130228Y-186192327D01*
X82658081Y-186257715D01*
X83187595Y-186284548D01*
X83714999Y-186272128D01*
X84236519Y-186219759D01*
X84415669Y-186192082D01*
X84947410Y-186080862D01*
X85470135Y-185928320D01*
X85983593Y-185734549D01*
X86487535Y-185499644D01*
X86955410Y-185239567D01*
X87360506Y-184982588D01*
X87725599Y-184722087D01*
X88052986Y-184456152D01*
X88344965Y-184182871D01*
X88603834Y-183900333D01*
X88685838Y-183800416D01*
X88904163Y-183517490D01*
X89096188Y-183247844D01*
X89269566Y-182979477D01*
X89431950Y-182700389D01*
X89590997Y-182398579D01*
X89630847Y-182318750D01*
X89828944Y-181888084D01*
X89993186Y-181463392D01*
X90126776Y-181034245D01*
X90232912Y-180590218D01*
X90314795Y-180120886D01*
X90322847Y-180064500D01*
X90335879Y-179943339D01*
X90346336Y-179790183D01*
X90354167Y-179613426D01*
X90359319Y-179421463D01*
X90361737Y-179222688D01*
X90361370Y-179025495D01*
X90358165Y-178838278D01*
X90352069Y-178669431D01*
X90343030Y-178527348D01*
X90333101Y-178434666D01*
X90235732Y-177883378D01*
X90100496Y-177350785D01*
X89927074Y-176836171D01*
X89715146Y-176338821D01*
X89464395Y-175858019D01*
X89174500Y-175393050D01*
X88845143Y-174943198D01*
X88692765Y-174755968D01*
X88652848Y-174711057D01*
X88585515Y-174638549D01*
X88493152Y-174540911D01*
X88378149Y-174420609D01*
X88242892Y-174280109D01*
X88089770Y-174121879D01*
X87921170Y-173948384D01*
X87739480Y-173762090D01*
X87547088Y-173565465D01*
X87346382Y-173360974D01*
X87139750Y-173151084D01*
X87100462Y-173111250D01*
X86893394Y-172901354D01*
X86660539Y-172665305D01*
X86405831Y-172407092D01*
X86133208Y-172130707D01*
X85846605Y-171840140D01*
X85549957Y-171539381D01*
X85247200Y-171232419D01*
X84942269Y-170923246D01*
X84639102Y-170615853D01*
X84341632Y-170314228D01*
X84053797Y-170022363D01*
X83779531Y-169744247D01*
X83740196Y-169704360D01*
X81799925Y-167736803D01*
X82017688Y-167513610D01*
X82057009Y-167473417D01*
X82124229Y-167404838D01*
X82217572Y-167309683D01*
X82335264Y-167189757D01*
X82475529Y-167046868D01*
X82636592Y-166882824D01*
X82816679Y-166699433D01*
X83014015Y-166498500D01*
X83226823Y-166281835D01*
X83453330Y-166051244D01*
X83691761Y-165808536D01*
X83940339Y-165555516D01*
X84197291Y-165293993D01*
X84460841Y-165025775D01*
X84594517Y-164889738D01*
X86953583Y-162489060D01*
X86964166Y-164212405D01*
X86974750Y-165935750D01*
X88908315Y-171449666D01*
X89087752Y-171961378D01*
X89271667Y-172485890D01*
X89458975Y-173020105D01*
X89648591Y-173560930D01*
X89839431Y-174105268D01*
X90030409Y-174650024D01*
X90220440Y-175192104D01*
X90408440Y-175728412D01*
X90593324Y-176255852D01*
X90774006Y-176771330D01*
X90949402Y-177271751D01*
X91118426Y-177754019D01*
X91279995Y-178215038D01*
X91433022Y-178651715D01*
X91576423Y-179060953D01*
X91709113Y-179439658D01*
X91830007Y-179784733D01*
X91938020Y-180093085D01*
X91942205Y-180105030D01*
X93042529Y-183246478D01*
X91056389Y-210039717D01*
X89070250Y-236832956D01*
X73809083Y-236839163D01*
X72843236Y-236839559D01*
X71918803Y-236839948D01*
X71034863Y-236840331D01*
X70190496Y-236840712D01*
X69384783Y-236841092D01*
X68616803Y-236841475D01*
X67885636Y-236841862D01*
X67190362Y-236842257D01*
X66530062Y-236842662D01*
X65903815Y-236843079D01*
X65310702Y-236843512D01*
X64749802Y-236843962D01*
X64220195Y-236844432D01*
X63720961Y-236844925D01*
X63251180Y-236845443D01*
X62809933Y-236845989D01*
X62396299Y-236846565D01*
X62009359Y-236847174D01*
X61648191Y-236847819D01*
X61311877Y-236848502D01*
X60999496Y-236849225D01*
X60710128Y-236849991D01*
X60442854Y-236850803D01*
X60196753Y-236851663D01*
X59970905Y-236852574D01*
X59764390Y-236853538D01*
X59576288Y-236854559D01*
X59405680Y-236855637D01*
X59251645Y-236856777D01*
X59113263Y-236857979D01*
X58989614Y-236859248D01*
X58879779Y-236860586D01*
X58782837Y-236861995D01*
X58697867Y-236863477D01*
X58623952Y-236865036D01*
X58560169Y-236866674D01*
X58505599Y-236868392D01*
X58459323Y-236870195D01*
X58420420Y-236872084D01*
X58387970Y-236874063D01*
X58361053Y-236876132D01*
X58338749Y-236878296D01*
X58320138Y-236880557D01*
X58309338Y-236882117D01*
X57866575Y-236970216D01*
X57435728Y-237095604D01*
X57021237Y-237256582D01*
X56627542Y-237451454D01*
X56301280Y-237649989D01*
X55929512Y-237923240D01*
X55587398Y-238225832D01*
X55276243Y-238555667D01*
X54997353Y-238910645D01*
X54752032Y-239288669D01*
X54541586Y-239687638D01*
X54367320Y-240105456D01*
X54230540Y-240540022D01*
X54132551Y-240989238D01*
X54102888Y-241184710D01*
X54086803Y-241345102D01*
X54076115Y-241534106D01*
X54070846Y-241739535D01*
X54071020Y-241949203D01*
X54076660Y-242150922D01*
X54087787Y-242332508D01*
X54100507Y-242453970D01*
X54179733Y-242901723D01*
X54296257Y-243331846D01*
X54449239Y-243742816D01*
X54637836Y-244133108D01*
X54861208Y-244501200D01*
X55118513Y-244845566D01*
X55408908Y-245164682D01*
X55731553Y-245457025D01*
X55780992Y-245497124D01*
X55865304Y-245565822D01*
X55935717Y-245625631D01*
X55986522Y-245671511D01*
X56012013Y-245698420D01*
X56013825Y-245702789D01*
X55995809Y-245722188D01*
X55952957Y-245761032D01*
X55893324Y-245812114D01*
X55870333Y-245831256D01*
X55530050Y-246139213D01*
X55221807Y-246473374D01*
X54946969Y-246831597D01*
X54706902Y-247211742D01*
X54502972Y-247611667D01*
X54336545Y-248029229D01*
X54219580Y-248419817D01*
X54156107Y-248697917D01*
X54111382Y-248964416D01*
X54083590Y-249234372D01*
X54070919Y-249522843D01*
X54069667Y-249664879D01*
X54089542Y-250133054D01*
X54148727Y-250585584D01*
X54247341Y-251022831D01*
X54385503Y-251445158D01*
X54563333Y-251852926D01*
X54780950Y-252246497D01*
X55038472Y-252626232D01*
X55051075Y-252643099D01*
X55151344Y-252768608D01*
X55275403Y-252911262D01*
X55414165Y-253061537D01*
X55558544Y-253209907D01*
X55699454Y-253346848D01*
X55827807Y-253462835D01*
X55855362Y-253486184D01*
X55923750Y-253545244D01*
X55977014Y-253595065D01*
X56008524Y-253629210D01*
X56014112Y-253640272D01*
X55995787Y-253659031D01*
X55950701Y-253697556D01*
X55885837Y-253750051D01*
X55815728Y-253804908D01*
X55498684Y-254075922D01*
X55207653Y-254379396D01*
X54944468Y-254713040D01*
X54710964Y-255074566D01*
X54538612Y-255399127D01*
X54377866Y-255768233D01*
X54251716Y-256139903D01*
X54159120Y-256519594D01*
X54099034Y-256912760D01*
X54070417Y-257324859D01*
X54072226Y-257761347D01*
X54074883Y-257825486D01*
X54115611Y-258278269D01*
X54195653Y-258715396D01*
X54315083Y-259137107D01*
X54473978Y-259543638D01*
X54672414Y-259935227D01*
X54832408Y-260196804D01*
X54904646Y-260304025D01*
X54981888Y-260413995D01*
X55055017Y-260513993D01*
X55114916Y-260591296D01*
X55116374Y-260593083D01*
X55200222Y-260690444D01*
X55305178Y-260804378D01*
X55423194Y-260926846D01*
X55546218Y-261049810D01*
X55666200Y-261165230D01*
X55775089Y-261265068D01*
X55864836Y-261341285D01*
X55868889Y-261344500D01*
X55934710Y-261398700D01*
X55985415Y-261444693D01*
X56013355Y-261475347D01*
X56016465Y-261482083D01*
X56000503Y-261502832D01*
X55957362Y-261541824D01*
X55894349Y-261592752D01*
X55844868Y-261630250D01*
X55720679Y-261729611D01*
X55580915Y-261853962D01*
X55434894Y-261994047D01*
X55291934Y-262140614D01*
X55161350Y-262284409D01*
X55052460Y-262416177D01*
X55048884Y-262420811D01*
X54796095Y-262783741D01*
X54580036Y-263167150D01*
X54401228Y-263569582D01*
X54260193Y-263989584D01*
X54157451Y-264425700D01*
X54093524Y-264876477D01*
X54074670Y-265139078D01*
X54067665Y-265377439D01*
X54070232Y-265586419D01*
X54082182Y-265762732D01*
X54103330Y-265903090D01*
X54122031Y-265973821D01*
X54158513Y-266083660D01*
X54018846Y-266217038D01*
X53976678Y-266257261D01*
X53907285Y-266323394D01*
X53814109Y-266412162D01*
X53700589Y-266520288D01*
X53570164Y-266644496D01*
X53426276Y-266781511D01*
X53272362Y-266928055D01*
X53111864Y-267080854D01*
X53045357Y-267144166D01*
X52211535Y-267937916D01*
X52210017Y-272150015D01*
X52208500Y-276362114D01*
X53430806Y-277584557D01*
X54653113Y-278807000D01*
X197464614Y-278807000D01*
X198687057Y-277584693D01*
X199909499Y-276362386D01*
X199906927Y-267937916D01*
X199056255Y-267128004D01*
X198893218Y-266972742D01*
X198735988Y-266822939D01*
X198587873Y-266681753D01*
X198452181Y-266552339D01*
X198332220Y-266437855D01*
X198231299Y-266341456D01*
X198152726Y-266266300D01*
X198099809Y-266215544D01*
X198083645Y-266199952D01*
X197961707Y-266081814D01*
X198007894Y-265940948D01*
X198024849Y-265884812D01*
X198037057Y-265830198D01*
X198045230Y-265768778D01*
X198050080Y-265692225D01*
X198052320Y-265592213D01*
X198052662Y-265460414D01*
X198052524Y-265419083D01*
X198031798Y-264960065D01*
X197974075Y-264513747D01*
X197880336Y-264082219D01*
X197751565Y-263667575D01*
X197588743Y-263271905D01*
X197392854Y-262897303D01*
X197164878Y-262545861D01*
X196905800Y-262219670D01*
X196616600Y-261920823D01*
X196298263Y-261651412D01*
X196275174Y-261633905D01*
X196202770Y-261578234D01*
X196144955Y-261531554D01*
X196108936Y-261499819D01*
X196100549Y-261489654D01*
X196115361Y-261471442D01*
X196156386Y-261432233D01*
X196217174Y-261377964D01*
X196284415Y-261320342D01*
X196630525Y-261003335D01*
X196940218Y-260666193D01*
X197212977Y-260309799D01*
X197448283Y-259935037D01*
X197645620Y-259542790D01*
X197804470Y-259133940D01*
X197924316Y-258709372D01*
X197981373Y-258423500D01*
X198038877Y-257964817D01*
X198057140Y-257511099D01*
X198036840Y-257064645D01*
X197978659Y-256627751D01*
X197883275Y-256202716D01*
X197751370Y-255791838D01*
X197583624Y-255397415D01*
X197380716Y-255021743D01*
X197143327Y-254667122D01*
X196872136Y-254335849D01*
X196725819Y-254181437D01*
X196608116Y-254067823D01*
X196477137Y-253949298D01*
X196344083Y-253835510D01*
X196220156Y-253736110D01*
X196140824Y-253677430D01*
X196088916Y-253640944D01*
X196194305Y-253550430D01*
X196493852Y-253280204D01*
X196757232Y-253013775D01*
X196989397Y-252744872D01*
X197195297Y-252467222D01*
X197379884Y-252174553D01*
X197548109Y-251860594D01*
X197580149Y-251794855D01*
X197752366Y-251387734D01*
X197886238Y-250966086D01*
X197981679Y-250533505D01*
X198038605Y-250093585D01*
X198056928Y-249649922D01*
X198036562Y-249206110D01*
X197977422Y-248765744D01*
X197879422Y-248332418D01*
X197742474Y-247909728D01*
X197677089Y-247745193D01*
X197485305Y-247341551D01*
X197256686Y-246955585D01*
X196994183Y-246591300D01*
X196700745Y-246252703D01*
X196379322Y-245943798D01*
X196300583Y-245876396D01*
X196225289Y-245812513D01*
X196162890Y-245757943D01*
X196120078Y-245718650D01*
X196103637Y-245700885D01*
X196116667Y-245682185D01*
X196156947Y-245644548D01*
X196217603Y-245594091D01*
X196267229Y-245555387D01*
X196592130Y-245281724D01*
X196888397Y-244978118D01*
X197154632Y-244647036D01*
X197389437Y-244290944D01*
X197591411Y-243912309D01*
X197759158Y-243513598D01*
X197891278Y-243097277D01*
X197986371Y-242665814D01*
X198016223Y-242471051D01*
X198039533Y-242235042D01*
X198051246Y-241975065D01*
X198051465Y-241705975D01*
X198040292Y-241442624D01*
X198017830Y-241199867D01*
X198006906Y-241119750D01*
X197948631Y-240788790D01*
X197875832Y-240484402D01*
X197784212Y-240192904D01*
X197669474Y-239900614D01*
X197528257Y-239595750D01*
X197367794Y-239292472D01*
X197198196Y-239017923D01*
X197011178Y-238760418D01*
X196798456Y-238508271D01*
X196630180Y-238329068D01*
X196297623Y-238014738D01*
X195949612Y-237738762D01*
X195584229Y-237500161D01*
X195199556Y-237297956D01*
X194793676Y-237131169D01*
X194364671Y-236998819D01*
X193910623Y-236899929D01*
X193792333Y-236880219D01*
X193776053Y-236878006D01*
X193755409Y-236875885D01*
X193729487Y-236873852D01*
X193697373Y-236871905D01*
X193658155Y-236870041D01*
X193610918Y-236868257D01*
X193554750Y-236866550D01*
X193488737Y-236864918D01*
X193411965Y-236863359D01*
X193323522Y-236861869D01*
X193222494Y-236860445D01*
X193107967Y-236859086D01*
X192979027Y-236857787D01*
X192834763Y-236856547D01*
X192674259Y-236855363D01*
X192496604Y-236854232D01*
X192300883Y-236853152D01*
X192086182Y-236852119D01*
X191851590Y-236851131D01*
X191596191Y-236850185D01*
X191319073Y-236849278D01*
X191019322Y-236848409D01*
X190696026Y-236847573D01*
X190348270Y-236846769D01*
X189975141Y-236845993D01*
X189575726Y-236845243D01*
X189149111Y-236844516D01*
X188694383Y-236843810D01*
X188210628Y-236843122D01*
X187696933Y-236842448D01*
X187152386Y-236841787D01*
X186576071Y-236841135D01*
X185967076Y-236840491D01*
X185324488Y-236839850D01*
X184647393Y-236839211D01*
X183934878Y-236838570D01*
X183186028Y-236837926D01*
X182399932Y-236837274D01*
X181575675Y-236836614D01*
X180712344Y-236835941D01*
X179809026Y-236835253D01*
X178864807Y-236834547D01*
X178309573Y-236834138D01*
X163049062Y-236822916D01*
X161785872Y-219783750D01*
X161717687Y-218864014D01*
X161648390Y-217929270D01*
X161578123Y-216981438D01*
X161507027Y-216022433D01*
X161435246Y-215054174D01*
X161362920Y-214078578D01*
X161290192Y-213097564D01*
X161217205Y-212113048D01*
X161144100Y-211126948D01*
X161071020Y-210141182D01*
X160998107Y-209157668D01*
X160925503Y-208178323D01*
X160853349Y-207205064D01*
X160781790Y-206239811D01*
X160710966Y-205284479D01*
X160641019Y-204340987D01*
X160572092Y-203411253D01*
X160504328Y-202497193D01*
X160437867Y-201600727D01*
X160372853Y-200723770D01*
X160309427Y-199868242D01*
X160247732Y-199036059D01*
X160187910Y-198229139D01*
X160130103Y-197449400D01*
X160074453Y-196698760D01*
X160021102Y-195979136D01*
X159970193Y-195292446D01*
X159921868Y-194640607D01*
X159876268Y-194025537D01*
X159833536Y-193449154D01*
X159799916Y-192995668D01*
X159077151Y-183246753D01*
X159975878Y-180486168D01*
X160065233Y-180211692D01*
X160166714Y-179899952D01*
X160279348Y-179553943D01*
X160402159Y-179176657D01*
X160534175Y-178771086D01*
X160674420Y-178340224D01*
X160821922Y-177887062D01*
X160975705Y-177414594D01*
X161134796Y-176925813D01*
X161298220Y-176423711D01*
X161465004Y-175911280D01*
X161634173Y-175391514D01*
X161804754Y-174867405D01*
X161975772Y-174341947D01*
X162146253Y-173818131D01*
X162315224Y-173298950D01*
X162481709Y-172787398D01*
X162624303Y-172349250D01*
X162780129Y-171870447D01*
X162935254Y-171393800D01*
X163088972Y-170921485D01*
X163240575Y-170455677D01*
X163389354Y-169998551D01*
X163534601Y-169552284D01*
X163675608Y-169119049D01*
X163811667Y-168701023D01*
X163942071Y-168300381D01*
X164066110Y-167919299D01*
X164183078Y-167559951D01*
X164292265Y-167224513D01*
X164392964Y-166915161D01*
X164484467Y-166634070D01*
X164566065Y-166383415D01*
X164637051Y-166165371D01*
X164696717Y-165982115D01*
X164744354Y-165835821D01*
X164763918Y-165775750D01*
X165153833Y-164578583D01*
X165153833Y-163547958D01*
X165154149Y-163343593D01*
X165155056Y-163152697D01*
X165156491Y-162979330D01*
X165158391Y-162827554D01*
X165160694Y-162701429D01*
X165163337Y-162605018D01*
X165166257Y-162542380D01*
X165169392Y-162517577D01*
X165169739Y-162517333D01*
X165186120Y-162532071D01*
X165230892Y-162575286D01*
X165302551Y-162645482D01*
X165399593Y-162741162D01*
X165520516Y-162860830D01*
X165663814Y-163002988D01*
X165827986Y-163166140D01*
X166011527Y-163348790D01*
X166212934Y-163549440D01*
X166430703Y-163766594D01*
X166663331Y-163998754D01*
X166909314Y-164244426D01*
X167167149Y-164502110D01*
X167435332Y-164770312D01*
X167712361Y-165047534D01*
X167875424Y-165210791D01*
X170565203Y-167904250D01*
X170634889Y-168211166D01*
X170849228Y-169060117D01*
X171103446Y-169896274D01*
X171396679Y-170718322D01*
X171728059Y-171524949D01*
X172096719Y-172314841D01*
X172501795Y-173086686D01*
X172942418Y-173839170D01*
X173417724Y-174570979D01*
X173926844Y-175280801D01*
X174468914Y-175967323D01*
X175043067Y-176629230D01*
X175648435Y-177265211D01*
X176284154Y-177873951D01*
X176949355Y-178454138D01*
X177643174Y-179004458D01*
X177864416Y-179169141D01*
X178598921Y-179681476D01*
X179354844Y-180157489D01*
X180131088Y-180596704D01*
X180926554Y-180998646D01*
X181740144Y-181362841D01*
X182570757Y-181688814D01*
X183417296Y-181976089D01*
X184278663Y-182224192D01*
X185153758Y-182432647D01*
X185638836Y-182529912D01*
X186438900Y-182660411D01*
X187257866Y-182756257D01*
X188089965Y-182817196D01*
X188929428Y-182842977D01*
X189770485Y-182833346D01*
X190607368Y-182788051D01*
X190924250Y-182761328D01*
X191803624Y-182658498D01*
X192677161Y-182514077D01*
X193543269Y-182328592D01*
X194400355Y-182102571D01*
X195246829Y-181836543D01*
X196081098Y-181531035D01*
X196901570Y-181186577D01*
X197706655Y-180803694D01*
X198494760Y-180382917D01*
X199020500Y-180075207D01*
X199768759Y-179596576D01*
X200496496Y-179081518D01*
X201201947Y-178531555D01*
X201883344Y-177948212D01*
X202538922Y-177333012D01*
X203166916Y-176687478D01*
X203765559Y-176013136D01*
X203865179Y-175894666D01*
X204412443Y-175205892D01*
X204928660Y-174489403D01*
X205412420Y-173747717D01*
X205862309Y-172983351D01*
X206276914Y-172198824D01*
X206654824Y-171396651D01*
X206994626Y-170579352D01*
X207267554Y-169830416D01*
X207536031Y-168978975D01*
X207763063Y-168123260D01*
X207949009Y-167261258D01*
X208094232Y-166390956D01*
X208199091Y-165510342D01*
X208263949Y-164617402D01*
X208281118Y-164178916D01*
X208281419Y-164143706D01*
X208281514Y-164067181D01*
X208281406Y-163950162D01*
X208281100Y-163793467D01*
X208280599Y-163597915D01*
X208279908Y-163364324D01*
X208279030Y-163093514D01*
X208277968Y-162786303D01*
X208276728Y-162443510D01*
X208275312Y-162065954D01*
X208273725Y-161654454D01*
X208271971Y-161209828D01*
X208270054Y-160732895D01*
X208267977Y-160224474D01*
X208265744Y-159685385D01*
X208263360Y-159116445D01*
X208260828Y-158518474D01*
X208258152Y-157892290D01*
X208255336Y-157238712D01*
X208252384Y-156558560D01*
X208249300Y-155852651D01*
X208246088Y-155121805D01*
X208242751Y-154366840D01*
X208239294Y-153588576D01*
X208235721Y-152787831D01*
X208232035Y-151965423D01*
X208228240Y-151122173D01*
X208224341Y-150258897D01*
X208220340Y-149376417D01*
X208216243Y-148475549D01*
X208212052Y-147557113D01*
X208207773Y-146621929D01*
X208203408Y-145670813D01*
X208198962Y-144704587D01*
X208194438Y-143724067D01*
X208189841Y-142730074D01*
X208185174Y-141723425D01*
X208180442Y-140704940D01*
X208175648Y-139675438D01*
X208170796Y-138635737D01*
X208165890Y-137586656D01*
X208160934Y-136529014D01*
X208155932Y-135463629D01*
X208150887Y-134391322D01*
X208145804Y-133312909D01*
X208140687Y-132229211D01*
X208135539Y-131141046D01*
X208130365Y-130049233D01*
X208125168Y-128954591D01*
X208119952Y-127857938D01*
X208114722Y-126760093D01*
X208109480Y-125661875D01*
X208104231Y-124564104D01*
X208098979Y-123467597D01*
X208093728Y-122373173D01*
X208088482Y-121281652D01*
X208083244Y-120193852D01*
X208078019Y-119110592D01*
X208072810Y-118032691D01*
X208067621Y-116960967D01*
X208062456Y-115896240D01*
X208057320Y-114839329D01*
X208052216Y-113791051D01*
X208047147Y-112752226D01*
X208042119Y-111723673D01*
X208037134Y-110706210D01*
X208032197Y-109700657D01*
X208027311Y-108707832D01*
X208022481Y-107728553D01*
X208017710Y-106763641D01*
X208013003Y-105813913D01*
X208008362Y-104880189D01*
X208003793Y-103963287D01*
X207999299Y-103064025D01*
X207994884Y-102183224D01*
X207990551Y-101321701D01*
X207986306Y-100480276D01*
X207982151Y-99659767D01*
X207978090Y-98860993D01*
X207974129Y-98084774D01*
X207970269Y-97331926D01*
X207966516Y-96603271D01*
X207962873Y-95899626D01*
X207959344Y-95221810D01*
X207955933Y-94570642D01*
X207952644Y-93946940D01*
X207949481Y-93351525D01*
X207946447Y-92785214D01*
X207943547Y-92248826D01*
X207940785Y-91743180D01*
X207938164Y-91269095D01*
X207935689Y-90827390D01*
X207933363Y-90418883D01*
X207931190Y-90044394D01*
X207929174Y-89704741D01*
X207927319Y-89400743D01*
X207925629Y-89133218D01*
X207924108Y-88902987D01*
X207922760Y-88710866D01*
X207921588Y-88557676D01*
X207920597Y-88444235D01*
X207919790Y-88371362D01*
X207919172Y-88339875D01*
X207919093Y-88338750D01*
X207868007Y-87985500D01*
X207806259Y-87665041D01*
X207731424Y-87368639D01*
X207641074Y-87087560D01*
X207532782Y-86813069D01*
X207436792Y-86603083D01*
X207212250Y-86185020D01*
X206955952Y-85794182D01*
X206669529Y-85431768D01*
X206354610Y-85098978D01*
X206012829Y-84797011D01*
X205645815Y-84527065D01*
X205255200Y-84290340D01*
X204842615Y-84088035D01*
X204409691Y-83921348D01*
X203958059Y-83791480D01*
X203489351Y-83699629D01*
X203486666Y-83699221D01*
X203347758Y-83683053D01*
X203178355Y-83671065D01*
X202987825Y-83663255D01*
X202785541Y-83659623D01*
X202580873Y-83660167D01*
X202383191Y-83664887D01*
X202201867Y-83673782D01*
X202046270Y-83686850D01*
X201952083Y-83699391D01*
X201488141Y-83795395D01*
X201044290Y-83926337D01*
X200622056Y-84091331D01*
X200222965Y-84289496D01*
X199848545Y-84519947D01*
X199500322Y-84781800D01*
X199179823Y-85074173D01*
X198888575Y-85396180D01*
X198778241Y-85536210D01*
X198709077Y-85629851D01*
X198641601Y-85725021D01*
X198584575Y-85809160D01*
X198553017Y-85859002D01*
X198514751Y-85919882D01*
X198484131Y-85962973D01*
X198468218Y-85978666D01*
X198450627Y-85962399D01*
X198417639Y-85919901D01*
X198379368Y-85864767D01*
X198239839Y-85671800D01*
X198071675Y-85467456D01*
X197883393Y-85260647D01*
X197683512Y-85060290D01*
X197480550Y-84875297D01*
X197283024Y-84714584D01*
X197273406Y-84707317D01*
X196881838Y-84438684D01*
X196471877Y-84207891D01*
X196045130Y-84015583D01*
X195603202Y-83862402D01*
X195147701Y-83748994D01*
X194710314Y-83679432D01*
X194534050Y-83664526D01*
X194328533Y-83656463D01*
X194106249Y-83655025D01*
X193879684Y-83659994D01*
X193661325Y-83671154D01*
X193463660Y-83688286D01*
X193347833Y-83703176D01*
X193171212Y-83734457D01*
X192973943Y-83776984D01*
X192770205Y-83827174D01*
X192574177Y-83881446D01*
X192400038Y-83936218D01*
X192336252Y-83958725D01*
X192026522Y-84086554D01*
X191708237Y-84243624D01*
X191394275Y-84422673D01*
X191097516Y-84616435D01*
X190871333Y-84784950D01*
X190773500Y-84867691D01*
X190656002Y-84974734D01*
X190525844Y-85098992D01*
X190390031Y-85233378D01*
X190255569Y-85370807D01*
X190129462Y-85504192D01*
X190018717Y-85626447D01*
X189930339Y-85730485D01*
X189905421Y-85762018D01*
X189846573Y-85838395D01*
X189796906Y-85902618D01*
X189762312Y-85947083D01*
X189749340Y-85963449D01*
X189732870Y-85952914D01*
X189696059Y-85913277D01*
X189643310Y-85849783D01*
X189579027Y-85767677D01*
X189527246Y-85698866D01*
X189298292Y-85414915D01*
X189037880Y-85136116D01*
X188755352Y-84871109D01*
X188460050Y-84628533D01*
X188161318Y-84417029D01*
X188097087Y-84376163D01*
X187747132Y-84180733D01*
X187367801Y-84011199D01*
X186964730Y-83869657D01*
X186543550Y-83758199D01*
X186306384Y-83710509D01*
X186212789Y-83694680D01*
X186126510Y-83682640D01*
X186039364Y-83673891D01*
X185943167Y-83667935D01*
X185829737Y-83664277D01*
X185690891Y-83662418D01*
X185518446Y-83661861D01*
X185505583Y-83661858D01*
X185173492Y-83667360D01*
X184873037Y-83684975D01*
X184594859Y-83716266D01*
X184329595Y-83762796D01*
X184067886Y-83826130D01*
X183800369Y-83907829D01*
X183592300Y-83981350D01*
X183321886Y-84093136D01*
X183042039Y-84229863D01*
X182761489Y-84386113D01*
X182488968Y-84556470D01*
X182233205Y-84735518D01*
X182002931Y-84917839D01*
X181830903Y-85074139D01*
X181769498Y-85138682D01*
X181689123Y-85229431D01*
X181596111Y-85338654D01*
X181496795Y-85458616D01*
X181397509Y-85581585D01*
X181304586Y-85699828D01*
X181224358Y-85805612D01*
X181170406Y-85880637D01*
X181131848Y-85933813D01*
X181102878Y-85969026D01*
X181092333Y-85977677D01*
X181076640Y-85961168D01*
X181042513Y-85916989D01*
X180995422Y-85852409D01*
X180954750Y-85794765D01*
X180854529Y-85658477D01*
X180735279Y-85508424D01*
X180606263Y-85355424D01*
X180476744Y-85210295D01*
X180355985Y-85083855D01*
X180296622Y-85026166D01*
X179938080Y-84717365D01*
X179562644Y-84447297D01*
X179170861Y-84216178D01*
X178763277Y-84024227D01*
X178340440Y-83871660D01*
X177902895Y-83758695D01*
X177451191Y-83685548D01*
X176985873Y-83652437D01*
X176832671Y-83650333D01*
X176719252Y-83649525D01*
X176622378Y-83647296D01*
X176549190Y-83643932D01*
X176506824Y-83639723D01*
X176499166Y-83636853D01*
X176512279Y-83616745D01*
X176548195Y-83571132D01*
X176601782Y-83506313D01*
X176667905Y-83428590D01*
X176684554Y-83409311D01*
X177005325Y-83026569D01*
X177294090Y-82654785D01*
X177556476Y-82285534D01*
X177798114Y-81910394D01*
X178024633Y-81520941D01*
X178241662Y-81108750D01*
X178298653Y-80993916D01*
X178563722Y-80413842D01*
X178788575Y-79834996D01*
X178974621Y-79252167D01*
X179123270Y-78660146D01*
X179235931Y-78053719D01*
X179314014Y-77427677D01*
X179337081Y-77154283D01*
X179346045Y-76986911D01*
X179351341Y-76788882D01*
X179353140Y-76569581D01*
X179351617Y-76338394D01*
X179346945Y-76104708D01*
X179339297Y-75877908D01*
X179328846Y-75667380D01*
X179315766Y-75482511D01*
X179304016Y-75363583D01*
X179206552Y-74701279D01*
X179070081Y-74053927D01*
X178895026Y-73422500D01*
X178681805Y-72807975D01*
X178430842Y-72211328D01*
X178142556Y-71633533D01*
X177817369Y-71075568D01*
X177455702Y-70538406D01*
X177057976Y-70023024D01*
X176937176Y-69879208D01*
X176493389Y-69392598D01*
X176023635Y-68938764D01*
X175529505Y-68518344D01*
X175012585Y-68131977D01*
X174474467Y-67780301D01*
X173916738Y-67463954D01*
X173340987Y-67183576D01*
X172748804Y-66939803D01*
X172141777Y-66733275D01*
X171521495Y-66564631D01*
X170889548Y-66434508D01*
X170247524Y-66343545D01*
X169597012Y-66292380D01*
X168939601Y-66281652D01*
X168276880Y-66311999D01*
X168096820Y-66327357D01*
X167432223Y-66410521D01*
X166779872Y-66534077D01*
X166140551Y-66697668D01*
X165515042Y-66900936D01*
X164904128Y-67143521D01*
X164308591Y-67425066D01*
X163729214Y-67745212D01*
X163166781Y-68103601D01*
X162622072Y-68499874D01*
X162095873Y-68933673D01*
X161781540Y-69219175D01*
X161681632Y-69312364D01*
X161607487Y-69378977D01*
X161554820Y-69422261D01*
X161519350Y-69445464D01*
X161496795Y-69451834D01*
X161483421Y-69445242D01*
X161462279Y-69419921D01*
X161419473Y-69367132D01*
X161359603Y-69292604D01*
X161287273Y-69202067D01*
X161207085Y-69101251D01*
X161204703Y-69098250D01*
X160636822Y-68412618D01*
X160033583Y-67742493D01*
X159393909Y-67086825D01*
X158716720Y-66444569D01*
X158000939Y-65814677D01*
X157245487Y-65196103D01*
X156941166Y-64958695D01*
X156786916Y-64840302D01*
X156647813Y-64734484D01*
X156518778Y-64637648D01*
X156394733Y-64546201D01*
X156270602Y-64456549D01*
X156141307Y-64365100D01*
X156001769Y-64268262D01*
X155846911Y-64162440D01*
X155671656Y-64044043D01*
X155470925Y-63909477D01*
X155250363Y-63762293D01*
X154395644Y-63192750D01*
X166891978Y-63187440D01*
X179388311Y-63182130D01*
X180568405Y-62002178D01*
X181748500Y-60822225D01*
X181748500Y-55843523D01*
X180879222Y-54713623D01*
X180731830Y-54522067D01*
X180592117Y-54340546D01*
X180462210Y-54171819D01*
X180344234Y-54018642D01*
X180240314Y-53883774D01*
X180152576Y-53769973D01*
X180083145Y-53679997D01*
X180034147Y-53616604D01*
X180007707Y-53582552D01*
X180003568Y-53577345D01*
X179982182Y-53570038D01*
X179926113Y-53553291D01*
X179841504Y-53528870D01*
X179734494Y-53498544D01*
X179611223Y-53464078D01*
X179576386Y-53454413D01*
X177307096Y-52844351D01*
X175006668Y-52262612D01*
X172675489Y-51709266D01*
X170313945Y-51184381D01*
X167922424Y-50688028D01*
X165501311Y-50220274D01*
X163050994Y-49781189D01*
X160571860Y-49370842D01*
X158064294Y-48989302D01*
X155528684Y-48636638D01*
X152965416Y-48312919D01*
X150374877Y-48018213D01*
X147757454Y-47752591D01*
X147511416Y-47729250D01*
X147344469Y-47713412D01*
X147191660Y-47698735D01*
X147057916Y-47685707D01*
X146948162Y-47674814D01*
X146867326Y-47666544D01*
X146820334Y-47661385D01*
X146810220Y-47659896D01*
X146814537Y-47639208D01*
X146827659Y-47578470D01*
X146849300Y-47478978D01*
X146879176Y-47342031D01*
X146917003Y-47168923D01*
X146962496Y-46960951D01*
X147015372Y-46719413D01*
X147075344Y-46445605D01*
X147142130Y-46140822D01*
X147215445Y-45806363D01*
X147295004Y-45443523D01*
X147380522Y-45053598D01*
X147471716Y-44637886D01*
X147568301Y-44197683D01*
X147669993Y-43734286D01*
X147776507Y-43248991D01*
X147887558Y-42743094D01*
X148002863Y-42217892D01*
X148122137Y-41674683D01*
X148245095Y-41114761D01*
X148371453Y-40539425D01*
X148500927Y-39949970D01*
X148633232Y-39347693D01*
X148768084Y-38733890D01*
X148879532Y-38226666D01*
X149016284Y-37604180D01*
X149150707Y-36992048D01*
X149282517Y-36391572D01*
X149411429Y-35804053D01*
X149537159Y-35230794D01*
X149659423Y-34673096D01*
X149777936Y-34132262D01*
X149892414Y-33609592D01*
X150002574Y-33106388D01*
X150108129Y-32623953D01*
X150208798Y-32163588D01*
X150304294Y-31726595D01*
X150394334Y-31314275D01*
X150478633Y-30927931D01*
X150556907Y-30568865D01*
X150628872Y-30238377D01*
X150694244Y-29937770D01*
X150752738Y-29668346D01*
X150804069Y-29431406D01*
X150847955Y-29228252D01*
X150884110Y-29060186D01*
X150912249Y-28928509D01*
X150932090Y-28834525D01*
X150943347Y-28779533D01*
X150945979Y-28764476D01*
X150932310Y-28743300D01*
X150894289Y-28691399D01*
X150833834Y-28611247D01*
X150752859Y-28505317D01*
X150653279Y-28376085D01*
X150537012Y-28226023D01*
X150405971Y-28057605D01*
X150262073Y-27873307D01*
X150107233Y-27675601D01*
X149943368Y-27466962D01*
X149819221Y-27309268D01*
X148698026Y-25886500D01*
X103421250Y-25887032D01*
X102299416Y-27310224D01*
X102101140Y-27561873D01*
X101927544Y-27782508D01*
X101777014Y-27974292D01*
X101647935Y-28139388D01*
X101538692Y-28279957D01*
X101447672Y-28398163D01*
X101373259Y-28496169D01*
X101313839Y-28576136D01*
X101267798Y-28640229D01*
X101233520Y-28690609D01*
X101209392Y-28729440D01*
X101193799Y-28758883D01*
X101185126Y-28781102D01*
X101181759Y-28798260D01*
X101181638Y-28807500D01*
X101186438Y-28832855D01*
X101200112Y-28898238D01*
X101222371Y-29002346D01*
X101252930Y-29143876D01*
X101291502Y-29321526D01*
X101337800Y-29533991D01*
X101391537Y-29779971D01*
X101452427Y-30058161D01*
X101520184Y-30367258D01*
X101594519Y-30705961D01*
X101675148Y-31072966D01*
X101761782Y-31466970D01*
X101854136Y-31886671D01*
X101951922Y-32330765D01*
X102054855Y-32797950D01*
X102162647Y-33286924D01*
X102275011Y-33796382D01*
X102391662Y-34325023D01*
X102512312Y-34871543D01*
X102636674Y-35434639D01*
X102764463Y-36013010D01*
X102895390Y-36605351D01*
X103029171Y-37210361D01*
X103165517Y-37826735D01*
X103291445Y-38395803D01*
X103429743Y-39020772D01*
X103565682Y-39635304D01*
X103698979Y-40238108D01*
X103829349Y-40827893D01*
X103956508Y-41403367D01*
X104080172Y-41963240D01*
X104200057Y-42506221D01*
X104315878Y-43031018D01*
X104427352Y-43536340D01*
X104534193Y-44020896D01*
X104636119Y-44483395D01*
X104732844Y-44922546D01*
X104824084Y-45337058D01*
X104909556Y-45725639D01*
X104988975Y-46086999D01*
X105062057Y-46419846D01*
X105128517Y-46722890D01*
X105188071Y-46994838D01*
X105240436Y-47234400D01*
X105285327Y-47440286D01*
X105322460Y-47611203D01*
X105351550Y-47745860D01*
X105372314Y-47842967D01*
X105384467Y-47901232D01*
X105387794Y-47919428D01*
X105365221Y-47923765D01*
X105305567Y-47931693D01*
X105213878Y-47942637D01*
X105095201Y-47956023D01*
X104954583Y-47971276D01*
X104797071Y-47987822D01*
X104696153Y-47998172D01*
X103036865Y-48172362D01*
X101374601Y-48357839D01*
X99711736Y-48554209D01*
X98050643Y-48761074D01*
X96393697Y-48978039D01*
X94743270Y-49204707D01*
X93101736Y-49440684D01*
X91471469Y-49685572D01*
X89854844Y-49938976D01*
X88254233Y-50200500D01*
X86672011Y-50469748D01*
X85110550Y-50746324D01*
X83572226Y-51029831D01*
X82059411Y-51319875D01*
X80574480Y-51616058D01*
X79119805Y-51917986D01*
X77697762Y-52225261D01*
X76310723Y-52537489D01*
X74961062Y-52854272D01*
X73651153Y-53175215D01*
X73629166Y-53180724D01*
X73337931Y-53253881D01*
X73085189Y-53317761D01*
X72868300Y-53373101D01*
X72684626Y-53420634D01*
X72531526Y-53461096D01*
X72406362Y-53495222D01*
X72306493Y-53523746D01*
X72229280Y-53547404D01*
X72172085Y-53566930D01*
X72132266Y-53583060D01*
X72107186Y-53596528D01*
X72094204Y-53608069D01*
X72094151Y-53608142D01*
X72077121Y-53631551D01*
X72037266Y-53686137D01*
X71976769Y-53768916D01*
X71897810Y-53876907D01*
X71802572Y-54007127D01*
X71693235Y-54156593D01*
X71571981Y-54322322D01*
X71440992Y-54501333D01*
X71302448Y-54690642D01*
X71261018Y-54747250D01*
X70455428Y-55847916D01*
X70454797Y-58324486D01*
X70454166Y-60801057D01*
X71644843Y-61991594D01*
X72835520Y-63182130D01*
X85288814Y-63187440D01*
X97742109Y-63192750D01*
X97463659Y-63359174D01*
X97319758Y-63448557D01*
X97147637Y-63561174D01*
X96951989Y-63693636D01*
X96737509Y-63842555D01*
X96508891Y-64004543D01*
X96270830Y-64176212D01*
X96028018Y-64354174D01*
X95785152Y-64535041D01*
X95546925Y-64715424D01*
X95318032Y-64891936D01*
X95103166Y-65061188D01*
X95081583Y-65078422D01*
X94351498Y-65679069D01*
X93648530Y-66291453D01*
X92975405Y-66912939D01*
X92334849Y-67540890D01*
X91729587Y-68172672D01*
X91162344Y-68805649D01*
X90869361Y-69151166D01*
X90781895Y-69256248D01*
X90702239Y-69351566D01*
X90634832Y-69431842D01*
X90584110Y-69491796D01*
X90554512Y-69526148D01*
X90550174Y-69530926D01*
X90537619Y-69537052D01*
X90517987Y-69531994D01*
X90487712Y-69512760D01*
X90443227Y-69476361D01*
X90380967Y-69419806D01*
X90297366Y-69340103D01*
X90188856Y-69234263D01*
X90144942Y-69191089D01*
X89855039Y-68913715D01*
X89576752Y-68664961D01*
X89300307Y-68436915D01*
X89015931Y-68221663D01*
X88713852Y-68011295D01*
X88572833Y-67918255D01*
X88034141Y-67593164D01*
X87473894Y-67303175D01*
X86894674Y-67048613D01*
X86299066Y-66829806D01*
X85689655Y-66647078D01*
X85069023Y-66500755D01*
X84439756Y-66391164D01*
X83804437Y-66318631D01*
X83165651Y-66283481D01*
X82525981Y-66286041D01*
X81888011Y-66326637D01*
X81254327Y-66405593D01*
X80627511Y-66523238D01*
X80010147Y-66679895D01*
X79646723Y-66792295D01*
X79031746Y-67017457D01*
X78436315Y-67278952D01*
X77861763Y-67575361D01*
X77309422Y-67905264D01*
X76780626Y-68267241D01*
X76276707Y-68659872D01*
X75798997Y-69081738D01*
X75348830Y-69531420D01*
X74927539Y-70007497D01*
X74536455Y-70508551D01*
X74176912Y-71033160D01*
X73850242Y-71579907D01*
X73557778Y-72147371D01*
X73300853Y-72734132D01*
X73080799Y-73338771D01*
X72898949Y-73959869D01*
X72891796Y-73987750D01*
X72788508Y-74429625D01*
X72708409Y-74858288D01*
X72650110Y-75285127D01*
X72612218Y-75721533D01*
X72593342Y-76178893D01*
X72590558Y-76453666D01*
X72598649Y-76920885D01*
X72623881Y-77360789D01*
X72667693Y-77785375D01*
X72731526Y-78206640D01*
X72816817Y-78636583D01*
X72889770Y-78947964D01*
X73002135Y-79365244D01*
X73129208Y-79765137D01*
X73275260Y-80159216D01*
X73444560Y-80559049D01*
X73629259Y-80951583D01*
X73860307Y-81399117D01*
X74100287Y-81816453D01*
X74356514Y-82214895D01*
X74636307Y-82605750D01*
X74946982Y-83000322D01*
X74985547Y-83047083D01*
X75067334Y-83141397D01*
X75174482Y-83258319D01*
X75301072Y-83391934D01*
X75441187Y-83536321D01*
X75588909Y-83685565D01*
X75738320Y-83833746D01*
X75883503Y-83974948D01*
X76018540Y-84103252D01*
X76137512Y-84212741D01*
X76234502Y-84297496D01*
X76243250Y-84304786D01*
X76772787Y-84717020D01*
X77320800Y-85092074D01*
X77885934Y-85429472D01*
X78466839Y-85728742D01*
X79062161Y-85989410D01*
X79670548Y-86211004D01*
X80290647Y-86393050D01*
X80921107Y-86535074D01*
X81560575Y-86636604D01*
X82207699Y-86697166D01*
X82861126Y-86716287D01*
X83122416Y-86712269D01*
X83770710Y-86676584D01*
X84395311Y-86606393D01*
X84997480Y-86501391D01*
X85578475Y-86361272D01*
X86139555Y-86185728D01*
X86681978Y-85974456D01*
X87207004Y-85727147D01*
X87236834Y-85711750D01*
X87339388Y-85659073D01*
X87427864Y-85614600D01*
X87495892Y-85581457D01*
X87537103Y-85562765D01*
X87546546Y-85559890D01*
X87555567Y-85580472D01*
X87577763Y-85634562D01*
X87610768Y-85716291D01*
X87652214Y-85819787D01*
X87699736Y-85939183D01*
X87715394Y-85978666D01*
X88053883Y-86775899D01*
X88432746Y-87561535D01*
X88851527Y-88335164D01*
X89309773Y-89096374D01*
X89807029Y-89844755D01*
X90342840Y-90579897D01*
X90916750Y-91301388D01*
X91528306Y-92008817D01*
X92177053Y-92701775D01*
X92862535Y-93379849D01*
X93584298Y-94042631D01*
X94341887Y-94689708D01*
X95134848Y-95320670D01*
X95962725Y-95935106D01*
X96825064Y-96532606D01*
X97721411Y-97112759D01*
X98651309Y-97675154D01*
X99614306Y-98219380D01*
X100609945Y-98745027D01*
X101637772Y-99251684D01*
X102697332Y-99738939D01*
X103188416Y-99953507D01*
X103315526Y-100008215D01*
X103428820Y-100057087D01*
X103522782Y-100097735D01*
X103591899Y-100127771D01*
X103630656Y-100144807D01*
X103637031Y-100147770D01*
X103631907Y-100167548D01*
X103614773Y-100218157D01*
X103588657Y-100290858D01*
X103570164Y-100340836D01*
X103469859Y-100666373D01*
X103403523Y-101012289D01*
X103371358Y-101373434D01*
X103373565Y-101744654D01*
X103410348Y-102120796D01*
X103481909Y-102496709D01*
X103485054Y-102509833D01*
X103568066Y-102814163D01*
X103677257Y-103147435D01*
X103812981Y-103510634D01*
X103975593Y-103904745D01*
X104047112Y-104068703D01*
X104087432Y-104161495D01*
X104120515Y-104240776D01*
X104142992Y-104298250D01*
X104151495Y-104325624D01*
X104151500Y-104325831D01*
X104141118Y-104352793D01*
X104113571Y-104405429D01*
X104074252Y-104473593D01*
X104063111Y-104492045D01*
X103999832Y-104603074D01*
X103927073Y-104742386D01*
X103850234Y-104898628D01*
X103774713Y-105060449D01*
X103705910Y-105216500D01*
X103649225Y-105355429D01*
X103636709Y-105388500D01*
X103531874Y-105704270D01*
X103455534Y-106013198D01*
X103405127Y-106328715D01*
X103378094Y-106664252D01*
X103374324Y-106765040D01*
X103370662Y-106908791D01*
X103369455Y-107019050D01*
X103371225Y-107104617D01*
X103376489Y-107174289D01*
X103385769Y-107236865D01*
X103399582Y-107301142D01*
X103408000Y-107335278D01*
X103428340Y-107417574D01*
X103443894Y-107484051D01*
X103452230Y-107524166D01*
X103453000Y-107530363D01*
X103432123Y-107531842D01*
X103370652Y-107533286D01*
X103270328Y-107534692D01*
X103132890Y-107536053D01*
X102960077Y-107537363D01*
X102753629Y-107538619D01*
X102515286Y-107539814D01*
X102246788Y-107540943D01*
X101949874Y-107542001D01*
X101626285Y-107542983D01*
X101277759Y-107543883D01*
X100906036Y-107544695D01*
X100512857Y-107545415D01*
X100099960Y-107546038D01*
X99669086Y-107546557D01*
X99221975Y-107546969D01*
X98760365Y-107547266D01*
X98285997Y-107547445D01*
X97836810Y-107547500D01*
X92220621Y-107547500D01*
X91386269Y-107854982D01*
X90551916Y-108162465D01*
X90382583Y-108327983D01*
X90348648Y-108361027D01*
X90286060Y-108421838D01*
X90196566Y-108508719D01*
X90081913Y-108619978D01*
X89943848Y-108753920D01*
X89784120Y-108908849D01*
X89604474Y-109083073D01*
X89406659Y-109274895D01*
X89192422Y-109482623D01*
X88963510Y-109704561D01*
X88721671Y-109939015D01*
X88468651Y-110184291D01*
X88206198Y-110438695D01*
X87936060Y-110700531D01*
X87747333Y-110883447D01*
X87422611Y-111198169D01*
X87073075Y-111536947D01*
X86703291Y-111895356D01*
X86317825Y-112268970D01*
X85921244Y-112653363D01*
X85518113Y-113044108D01*
X85113000Y-113436780D01*
X84710470Y-113826952D01*
X84315090Y-114210199D01*
X83931426Y-114582094D01*
X83564045Y-114938211D01*
X83217512Y-115274124D01*
X82896395Y-115585407D01*
X82868416Y-115612530D01*
X81286881Y-117145489D01*
X79735324Y-118649061D01*
X78213491Y-120123491D01*
X76721128Y-121569025D01*
X75257980Y-122985908D01*
X73823794Y-124374385D01*
X72418314Y-125734702D01*
X71041288Y-127067105D01*
X69692460Y-128371838D01*
X68371577Y-129649148D01*
X67078384Y-130899280D01*
X65812626Y-132122479D01*
X64574051Y-133318992D01*
X63362403Y-134489062D01*
X62177428Y-135632937D01*
X61018873Y-136750860D01*
X59886482Y-137843079D01*
X58780002Y-138909838D01*
X57699178Y-139951383D01*
X56643756Y-140967959D01*
X55613483Y-141959812D01*
X54608103Y-142927187D01*
X53627362Y-143870330D01*
X52671007Y-144789486D01*
X51738783Y-145684901D01*
X50830436Y-146556820D01*
X49945711Y-147405489D01*
X49668356Y-147671416D01*
X49168033Y-148153080D01*
X48698007Y-148609799D01*
X48256102Y-149043783D01*
X47840138Y-149457243D01*
X47447940Y-149852390D01*
X47077328Y-150231434D01*
X46726125Y-150596585D01*
X46392154Y-150950055D01*
X46073236Y-151294054D01*
X45767193Y-151630792D01*
X45761011Y-151637666D01*
X45050183Y-152447153D01*
X44380370Y-153249304D01*
X43751077Y-154045079D01*
X43161806Y-154835438D01*
X42612061Y-155621340D01*
X42101345Y-156403747D01*
X41629161Y-157183618D01*
X41195012Y-157961912D01*
X40798402Y-158739591D01*
X40438835Y-159517614D01*
X40115812Y-160296940D01*
X39828839Y-161078531D01*
X39577417Y-161863346D01*
X39361051Y-162652345D01*
X39179243Y-163446488D01*
X39031497Y-164246734D01*
X38949104Y-164803333D01*
X38894073Y-165216083D01*
X29517833Y-165216083D01*
X29517833Y-25082166D01*
X215890333Y-25082166D01*
X215890333Y-279801833D01*
G36*
X205751297Y-144149958D02*
G01*
X205751263Y-145356120D01*
X205751184Y-146528779D01*
X205751063Y-147667646D01*
X205750897Y-148772433D01*
X205750689Y-149842855D01*
X205750438Y-150878622D01*
X205750144Y-151879447D01*
X205749809Y-152845043D01*
X205749431Y-153775122D01*
X205749012Y-154669398D01*
X205748552Y-155527581D01*
X205748050Y-156349385D01*
X205747508Y-157134522D01*
X205746926Y-157882705D01*
X205746303Y-158593646D01*
X205745641Y-159267058D01*
X205744939Y-159902652D01*
X205744198Y-160500142D01*
X205743418Y-161059240D01*
X205742600Y-161579659D01*
X205741743Y-162061111D01*
X205740848Y-162503307D01*
X205739915Y-162905962D01*
X205738945Y-163268787D01*
X205737938Y-163591495D01*
X205736893Y-163873799D01*
X205735813Y-164115410D01*
X205734696Y-164316041D01*
X205733543Y-164475405D01*
X205732354Y-164593214D01*
X205731130Y-164669181D01*
X205730243Y-164697500D01*
X205666016Y-165566212D01*
X205561886Y-166422169D01*
X205418084Y-167264719D01*
X205234844Y-168093212D01*
X205012396Y-168906995D01*
X204750973Y-169705419D01*
X204450808Y-170487831D01*
X204112131Y-171253583D01*
X203735176Y-172002021D01*
X203320174Y-172732497D01*
X202867358Y-173444357D01*
X202376958Y-174136952D01*
X202354494Y-174167010D01*
X202053496Y-174556656D01*
X201745947Y-174929618D01*
X201423929Y-175294889D01*
X201079527Y-175661462D01*
X200721580Y-176021877D01*
X200113142Y-176591051D01*
X199482639Y-177124105D01*
X198829877Y-177621168D01*
X198154659Y-178082365D01*
X197456791Y-178507825D01*
X196736080Y-178897675D01*
X195992329Y-179252040D01*
X195373471Y-179512913D01*
X194686313Y-179768599D01*
X193991595Y-179991253D01*
X193284852Y-180181910D01*
X192561622Y-180341602D01*
X191817440Y-180471362D01*
X191047844Y-180572223D01*
X190606750Y-180616232D01*
X190534937Y-180620805D01*
X190426617Y-180625276D01*
X190287617Y-180629572D01*
X190123761Y-180633622D01*
X189940877Y-180637356D01*
X189744790Y-180640700D01*
X189541328Y-180643584D01*
X189336314Y-180645937D01*
X189135577Y-180647686D01*
X188944942Y-180648760D01*
X188770236Y-180649088D01*
X188617284Y-180648598D01*
X188491912Y-180647218D01*
X188399948Y-180644877D01*
X188373666Y-180643647D01*
X188212950Y-180632743D01*
X188020762Y-180616949D01*
X187807544Y-180597335D01*
X187583736Y-180574970D01*
X187359779Y-180550923D01*
X187146113Y-180526264D01*
X186953179Y-180502062D01*
X186840659Y-180486627D01*
X186012306Y-180346699D01*
X185196457Y-180166712D01*
X184394309Y-179947402D01*
X183607055Y-179689504D01*
X182835891Y-179393754D01*
X182082012Y-179060887D01*
X181346611Y-178691639D01*
X180630885Y-178286746D01*
X179936028Y-177846942D01*
X179263234Y-177372964D01*
X178613699Y-176865548D01*
X177988617Y-176325428D01*
X177389183Y-175753340D01*
X176816592Y-175150021D01*
X176272039Y-174516204D01*
X175756719Y-173852627D01*
X175512243Y-173512548D01*
X175051709Y-172818263D01*
X174626350Y-172101086D01*
X174237039Y-171362937D01*
X173884650Y-170605734D01*
X173570058Y-169831398D01*
X173294135Y-169041848D01*
X173057756Y-168239004D01*
X172987648Y-167967750D01*
X172912558Y-167650559D01*
X172836805Y-167299950D01*
X172761949Y-166924782D01*
X172689551Y-166533911D01*
X172621170Y-166136196D01*
X172558368Y-165740493D01*
X172502704Y-165355661D01*
X172455739Y-164990556D01*
X172441394Y-164866833D01*
X172439365Y-164847245D01*
X172437411Y-164824770D01*
X172435530Y-164798610D01*
X172433719Y-164767964D01*
X172431979Y-164732036D01*
X172430306Y-164690024D01*
X172428699Y-164641130D01*
X172427157Y-164584555D01*
X172425678Y-164519500D01*
X172424260Y-164445166D01*
X172422902Y-164360754D01*
X172421601Y-164265464D01*
X172420357Y-164158498D01*
X172419167Y-164039056D01*
X172418031Y-163906340D01*
X172416945Y-163759550D01*
X172415909Y-163597887D01*
X172414921Y-163420552D01*
X172413980Y-163226747D01*
X172413083Y-163015671D01*
X172412228Y-162786526D01*
X172411416Y-162538513D01*
X172410642Y-162270833D01*
X172409907Y-161982687D01*
X172409208Y-161673275D01*
X172408543Y-161341799D01*
X172407912Y-160987459D01*
X172407312Y-160609456D01*
X172406741Y-160206992D01*
X172406199Y-159779267D01*
X172405683Y-159325482D01*
X172405191Y-158844838D01*
X172404722Y-158336536D01*
X172404275Y-157799777D01*
X172403847Y-157233762D01*
X172403438Y-156637691D01*
X172403044Y-156010766D01*
X172402665Y-155352188D01*
X172402300Y-154661157D01*
X172401945Y-153936874D01*
X172401601Y-153178541D01*
X172401264Y-152385358D01*
X172400934Y-151556526D01*
X172400608Y-150691247D01*
X172400285Y-149788720D01*
X172399964Y-148848147D01*
X172399642Y-147868729D01*
X172399319Y-146849666D01*
X172398992Y-145790161D01*
X172398659Y-144689413D01*
X172398536Y-144276958D01*
X172392506Y-124015166D01*
X205751500Y-124015166D01*
X205751297Y-144149958D01*
G37*
X205751297Y-144149958D02*
X205751263Y-145356120D01*
X205751184Y-146528779D01*
X205751063Y-147667646D01*
X205750897Y-148772433D01*
X205750689Y-149842855D01*
X205750438Y-150878622D01*
X205750144Y-151879447D01*
X205749809Y-152845043D01*
X205749431Y-153775122D01*
X205749012Y-154669398D01*
X205748552Y-155527581D01*
X205748050Y-156349385D01*
X205747508Y-157134522D01*
X205746926Y-157882705D01*
X205746303Y-158593646D01*
X205745641Y-159267058D01*
X205744939Y-159902652D01*
X205744198Y-160500142D01*
X205743418Y-161059240D01*
X205742600Y-161579659D01*
X205741743Y-162061111D01*
X205740848Y-162503307D01*
X205739915Y-162905962D01*
X205738945Y-163268787D01*
X205737938Y-163591495D01*
X205736893Y-163873799D01*
X205735813Y-164115410D01*
X205734696Y-164316041D01*
X205733543Y-164475405D01*
X205732354Y-164593214D01*
X205731130Y-164669181D01*
X205730243Y-164697500D01*
X205666016Y-165566212D01*
X205561886Y-166422169D01*
X205418084Y-167264719D01*
X205234844Y-168093212D01*
X205012396Y-168906995D01*
X204750973Y-169705419D01*
X204450808Y-170487831D01*
X204112131Y-171253583D01*
X203735176Y-172002021D01*
X203320174Y-172732497D01*
X202867358Y-173444357D01*
X202376958Y-174136952D01*
X202354494Y-174167010D01*
X202053496Y-174556656D01*
X201745947Y-174929618D01*
X201423929Y-175294889D01*
X201079527Y-175661462D01*
X200721580Y-176021877D01*
X200113142Y-176591051D01*
X199482639Y-177124105D01*
X198829877Y-177621168D01*
X198154659Y-178082365D01*
X197456791Y-178507825D01*
X196736080Y-178897675D01*
X195992329Y-179252040D01*
X195373471Y-179512913D01*
X194686313Y-179768599D01*
X193991595Y-179991253D01*
X193284852Y-180181910D01*
X192561622Y-180341602D01*
X191817440Y-180471362D01*
X191047844Y-180572223D01*
X190606750Y-180616232D01*
X190534937Y-180620805D01*
X190426617Y-180625276D01*
X190287617Y-180629572D01*
X190123761Y-180633622D01*
X189940877Y-180637356D01*
X189744790Y-180640700D01*
X189541328Y-180643584D01*
X189336314Y-180645937D01*
X189135577Y-180647686D01*
X188944942Y-180648760D01*
X188770236Y-180649088D01*
X188617284Y-180648598D01*
X188491912Y-180647218D01*
X188399948Y-180644877D01*
X188373666Y-180643647D01*
X188212950Y-180632743D01*
X188020762Y-180616949D01*
X187807544Y-180597335D01*
X187583736Y-180574970D01*
X187359779Y-180550923D01*
X187146113Y-180526264D01*
X186953179Y-180502062D01*
X186840659Y-180486627D01*
X186012306Y-180346699D01*
X185196457Y-180166712D01*
X184394309Y-179947402D01*
X183607055Y-179689504D01*
X182835891Y-179393754D01*
X182082012Y-179060887D01*
X181346611Y-178691639D01*
X180630885Y-178286746D01*
X179936028Y-177846942D01*
X179263234Y-177372964D01*
X178613699Y-176865548D01*
X177988617Y-176325428D01*
X177389183Y-175753340D01*
X176816592Y-175150021D01*
X176272039Y-174516204D01*
X175756719Y-173852627D01*
X175512243Y-173512548D01*
X175051709Y-172818263D01*
X174626350Y-172101086D01*
X174237039Y-171362937D01*
X173884650Y-170605734D01*
X173570058Y-169831398D01*
X173294135Y-169041848D01*
X173057756Y-168239004D01*
X172987648Y-167967750D01*
X172912558Y-167650559D01*
X172836805Y-167299950D01*
X172761949Y-166924782D01*
X172689551Y-166533911D01*
X172621170Y-166136196D01*
X172558368Y-165740493D01*
X172502704Y-165355661D01*
X172455739Y-164990556D01*
X172441394Y-164866833D01*
X172439365Y-164847245D01*
X172437411Y-164824770D01*
X172435530Y-164798610D01*
X172433719Y-164767964D01*
X172431979Y-164732036D01*
X172430306Y-164690024D01*
X172428699Y-164641130D01*
X172427157Y-164584555D01*
X172425678Y-164519500D01*
X172424260Y-164445166D01*
X172422902Y-164360754D01*
X172421601Y-164265464D01*
X172420357Y-164158498D01*
X172419167Y-164039056D01*
X172418031Y-163906340D01*
X172416945Y-163759550D01*
X172415909Y-163597887D01*
X172414921Y-163420552D01*
X172413980Y-163226747D01*
X172413083Y-163015671D01*
X172412228Y-162786526D01*
X172411416Y-162538513D01*
X172410642Y-162270833D01*
X172409907Y-161982687D01*
X172409208Y-161673275D01*
X172408543Y-161341799D01*
X172407912Y-160987459D01*
X172407312Y-160609456D01*
X172406741Y-160206992D01*
X172406199Y-159779267D01*
X172405683Y-159325482D01*
X172405191Y-158844838D01*
X172404722Y-158336536D01*
X172404275Y-157799777D01*
X172403847Y-157233762D01*
X172403438Y-156637691D01*
X172403044Y-156010766D01*
X172402665Y-155352188D01*
X172402300Y-154661157D01*
X172401945Y-153936874D01*
X172401601Y-153178541D01*
X172401264Y-152385358D01*
X172400934Y-151556526D01*
X172400608Y-150691247D01*
X172400285Y-149788720D01*
X172399964Y-148848147D01*
X172399642Y-147868729D01*
X172399319Y-146849666D01*
X172398992Y-145790161D01*
X172398659Y-144689413D01*
X172398536Y-144276958D01*
X172392506Y-124015166D01*
X205751500Y-124015166D01*
X205751297Y-144149958D01*
G36*
X126813600Y-105166397D02*
G01*
X127015496Y-105175507D01*
X127193860Y-105191038D01*
X127294659Y-105205055D01*
X127723005Y-105297600D01*
X128133496Y-105426925D01*
X128524572Y-105591006D01*
X128894672Y-105787817D01*
X129242234Y-106015334D01*
X129565698Y-106271530D01*
X129863503Y-106554382D01*
X130134088Y-106861863D01*
X130375891Y-107191949D01*
X130587353Y-107542615D01*
X130766911Y-107911836D01*
X130913005Y-108297587D01*
X131024074Y-108697842D01*
X131098557Y-109110576D01*
X131134893Y-109533765D01*
X131131521Y-109965384D01*
X131116500Y-110163198D01*
X131053658Y-110597014D01*
X130951727Y-111017177D01*
X130812165Y-111421574D01*
X130636433Y-111808092D01*
X130425991Y-112174619D01*
X130182299Y-112519042D01*
X129906816Y-112839248D01*
X129601001Y-113133126D01*
X129266316Y-113398561D01*
X128904219Y-113633442D01*
X128609583Y-113791201D01*
X128225885Y-113956142D01*
X127822768Y-114085839D01*
X127405663Y-114179323D01*
X126979998Y-114235624D01*
X126551204Y-114253772D01*
X126133083Y-114233596D01*
X125709406Y-114172972D01*
X125297618Y-114073471D01*
X124900002Y-113936975D01*
X124518841Y-113765365D01*
X124156416Y-113560524D01*
X123815011Y-113324332D01*
X123496908Y-113058673D01*
X123204388Y-112765428D01*
X122939735Y-112446479D01*
X122705231Y-112103708D01*
X122503158Y-111738996D01*
X122335799Y-111354225D01*
X122221242Y-111008250D01*
X122119345Y-110575765D01*
X122058843Y-110141726D01*
X122039298Y-109708532D01*
X122060275Y-109278585D01*
X122121336Y-108854285D01*
X122222043Y-108438032D01*
X122361959Y-108032226D01*
X122540648Y-107639268D01*
X122757672Y-107261558D01*
X122955559Y-106976033D01*
X123233567Y-106639925D01*
X123540239Y-106334201D01*
X123873510Y-106060122D01*
X124231317Y-105818953D01*
X124611596Y-105611956D01*
X125012283Y-105440397D01*
X125431313Y-105305537D01*
X125832865Y-105214670D01*
X125988824Y-105192745D01*
X126175784Y-105176884D01*
X126382837Y-105167157D01*
X126599078Y-105163638D01*
X126813600Y-105166397D01*
G37*
X126813600Y-105166397D02*
X127015496Y-105175507D01*
X127193860Y-105191038D01*
X127294659Y-105205055D01*
X127723005Y-105297600D01*
X128133496Y-105426925D01*
X128524572Y-105591006D01*
X128894672Y-105787817D01*
X129242234Y-106015334D01*
X129565698Y-106271530D01*
X129863503Y-106554382D01*
X130134088Y-106861863D01*
X130375891Y-107191949D01*
X130587353Y-107542615D01*
X130766911Y-107911836D01*
X130913005Y-108297587D01*
X131024074Y-108697842D01*
X131098557Y-109110576D01*
X131134893Y-109533765D01*
X131131521Y-109965384D01*
X131116500Y-110163198D01*
X131053658Y-110597014D01*
X130951727Y-111017177D01*
X130812165Y-111421574D01*
X130636433Y-111808092D01*
X130425991Y-112174619D01*
X130182299Y-112519042D01*
X129906816Y-112839248D01*
X129601001Y-113133126D01*
X129266316Y-113398561D01*
X128904219Y-113633442D01*
X128609583Y-113791201D01*
X128225885Y-113956142D01*
X127822768Y-114085839D01*
X127405663Y-114179323D01*
X126979998Y-114235624D01*
X126551204Y-114253772D01*
X126133083Y-114233596D01*
X125709406Y-114172972D01*
X125297618Y-114073471D01*
X124900002Y-113936975D01*
X124518841Y-113765365D01*
X124156416Y-113560524D01*
X123815011Y-113324332D01*
X123496908Y-113058673D01*
X123204388Y-112765428D01*
X122939735Y-112446479D01*
X122705231Y-112103708D01*
X122503158Y-111738996D01*
X122335799Y-111354225D01*
X122221242Y-111008250D01*
X122119345Y-110575765D01*
X122058843Y-110141726D01*
X122039298Y-109708532D01*
X122060275Y-109278585D01*
X122121336Y-108854285D01*
X122222043Y-108438032D01*
X122361959Y-108032226D01*
X122540648Y-107639268D01*
X122757672Y-107261558D01*
X122955559Y-106976033D01*
X123233567Y-106639925D01*
X123540239Y-106334201D01*
X123873510Y-106060122D01*
X124231317Y-105818953D01*
X124611596Y-105611956D01*
X125012283Y-105440397D01*
X125431313Y-105305537D01*
X125832865Y-105214670D01*
X125988824Y-105192745D01*
X126175784Y-105176884D01*
X126382837Y-105167157D01*
X126599078Y-105163638D01*
X126813600Y-105166397D01*
G36*
X107894069Y-98734257D02*
G01*
X107964480Y-98762868D01*
X107970025Y-98765262D01*
X107976452Y-98767563D01*
X107984586Y-98769773D01*
X107995256Y-98771894D01*
X108009287Y-98773928D01*
X108027508Y-98775875D01*
X108050743Y-98777739D01*
X108079821Y-98779522D01*
X108115569Y-98781224D01*
X108158812Y-98782848D01*
X108210379Y-98784396D01*
X108271095Y-98785869D01*
X108341788Y-98787270D01*
X108423284Y-98788600D01*
X108516411Y-98789862D01*
X108621995Y-98791057D01*
X108740863Y-98792186D01*
X108873843Y-98793252D01*
X109021760Y-98794258D01*
X109185441Y-98795203D01*
X109365715Y-98796091D01*
X109563406Y-98796923D01*
X109779343Y-98797702D01*
X110014352Y-98798428D01*
X110269260Y-98799104D01*
X110544894Y-98799732D01*
X110842080Y-98800314D01*
X111161646Y-98800851D01*
X111504419Y-98801345D01*
X111871225Y-98801799D01*
X112262890Y-98802213D01*
X112680243Y-98802591D01*
X113124110Y-98802933D01*
X113595317Y-98803242D01*
X114094692Y-98803519D01*
X114623061Y-98803767D01*
X115181252Y-98803987D01*
X115770090Y-98804181D01*
X116390404Y-98804351D01*
X117043019Y-98804499D01*
X117728763Y-98804627D01*
X118448463Y-98804736D01*
X119202945Y-98804829D01*
X119993037Y-98804907D01*
X120819564Y-98804972D01*
X121683354Y-98805026D01*
X122585235Y-98805071D01*
X123526032Y-98805109D01*
X124506572Y-98805142D01*
X125527683Y-98805170D01*
X126590191Y-98805198D01*
X126733667Y-98805201D01*
X145410584Y-98805666D01*
X145577501Y-98889211D01*
X145860882Y-99054239D01*
X146118583Y-99251644D01*
X146348511Y-99478650D01*
X146548576Y-99732483D01*
X146716687Y-100010367D01*
X146850752Y-100309528D01*
X146948679Y-100627190D01*
X146974066Y-100742416D01*
X146989653Y-100854601D01*
X146999619Y-100997759D01*
X147004069Y-101160917D01*
X147003105Y-101333104D01*
X146996831Y-101503347D01*
X146985349Y-101660675D01*
X146968763Y-101794115D01*
X146963932Y-101821916D01*
X146879753Y-102168304D01*
X146759705Y-102504375D01*
X146606555Y-102826003D01*
X146423073Y-103129063D01*
X146212027Y-103409432D01*
X145976186Y-103662983D01*
X145718318Y-103885591D01*
X145460783Y-104061459D01*
X145336317Y-104136356D01*
X145483238Y-104210345D01*
X145777521Y-104381326D01*
X146046123Y-104583687D01*
X146286812Y-104814426D01*
X146497357Y-105070542D01*
X146675527Y-105349031D01*
X146819090Y-105646892D01*
X146925816Y-105961122D01*
X146984483Y-106230153D01*
X147008537Y-106463546D01*
X147009616Y-106720638D01*
X146988805Y-106990297D01*
X146947188Y-107261389D01*
X146885849Y-107522781D01*
X146845958Y-107652852D01*
X146719764Y-107965203D01*
X146555180Y-108267958D01*
X146355778Y-108557127D01*
X146125129Y-108828719D01*
X145866804Y-109078742D01*
X145584374Y-109303206D01*
X145281411Y-109498118D01*
X145114820Y-109587534D01*
X144961890Y-109664166D01*
X132790000Y-109664166D01*
X132790000Y-109483415D01*
X132775383Y-109176655D01*
X132732941Y-108849195D01*
X132664780Y-108510268D01*
X132573008Y-108169108D01*
X132459735Y-107834948D01*
X132355223Y-107579250D01*
X132184107Y-107221817D01*
X131996446Y-106887265D01*
X131785897Y-106565687D01*
X131546120Y-106247181D01*
X131356810Y-106019964D01*
X131039986Y-105683963D01*
X130689004Y-105368029D01*
X130308379Y-105075010D01*
X129902627Y-104807754D01*
X129476263Y-104569109D01*
X129033801Y-104361922D01*
X128579758Y-104189042D01*
X128329186Y-104110326D01*
X127821847Y-103984683D01*
X127308881Y-103900350D01*
X126792798Y-103857089D01*
X126276107Y-103854667D01*
X125761318Y-103892847D01*
X125250939Y-103971394D01*
X124747481Y-104090073D01*
X124253453Y-104248648D01*
X123771364Y-104446884D01*
X123537523Y-104559815D01*
X123107627Y-104798170D01*
X122705375Y-105062187D01*
X122333368Y-105349802D01*
X121994206Y-105658949D01*
X121690493Y-105987565D01*
X121601167Y-106096558D01*
X121290509Y-106513772D01*
X121017298Y-106936376D01*
X120782397Y-107362593D01*
X120586666Y-107790644D01*
X120430967Y-108218750D01*
X120316160Y-108645133D01*
X120280046Y-108824913D01*
X120265030Y-108920728D01*
X120249023Y-109043670D01*
X120233221Y-109182027D01*
X120218820Y-109324084D01*
X120207013Y-109458129D01*
X120198998Y-109572446D01*
X120196019Y-109648291D01*
X120175119Y-109649625D01*
X120113582Y-109650927D01*
X120013103Y-109652191D01*
X119875378Y-109653414D01*
X119702104Y-109654591D01*
X119494975Y-109655718D01*
X119255689Y-109656790D01*
X118985940Y-109657802D01*
X118687425Y-109658751D01*
X118361840Y-109659632D01*
X118010879Y-109660440D01*
X117636240Y-109661171D01*
X117239619Y-109661821D01*
X116822710Y-109662384D01*
X116387210Y-109662858D01*
X115934815Y-109663236D01*
X115467220Y-109663516D01*
X114986122Y-109663692D01*
X114493216Y-109663760D01*
X114285041Y-109663755D01*
X108374250Y-109663343D01*
X108124793Y-109531463D01*
X107786402Y-109331336D01*
X107482810Y-109107217D01*
X107214140Y-108859275D01*
X106980514Y-108587681D01*
X106782057Y-108292604D01*
X106618892Y-107974215D01*
X106491141Y-107632683D01*
X106398928Y-107268179D01*
X106371647Y-107113583D01*
X106354614Y-106959447D01*
X106346040Y-106780379D01*
X106345660Y-106589566D01*
X106353210Y-106400195D01*
X106368427Y-106225451D01*
X106391046Y-106078521D01*
X106392508Y-106071470D01*
X106482666Y-105737291D01*
X106607485Y-105427107D01*
X106767613Y-105139711D01*
X106963696Y-104873895D01*
X107133844Y-104688864D01*
X107258857Y-104572975D01*
X107396647Y-104459660D01*
X107537804Y-104355726D01*
X107672916Y-104267978D01*
X107792574Y-104203223D01*
X107825274Y-104188794D01*
X107880006Y-104163995D01*
X107913813Y-104144264D01*
X107919087Y-104138111D01*
X107902828Y-104121564D01*
X107859314Y-104087698D01*
X107796556Y-104042612D01*
X107766234Y-104021694D01*
X107633824Y-103921548D01*
X107488472Y-103794760D01*
X107339613Y-103650624D01*
X107196682Y-103498431D01*
X107069114Y-103347477D01*
X107029074Y-103295634D01*
X106834009Y-103004790D01*
X106670543Y-102696238D01*
X106539255Y-102374199D01*
X106440719Y-102042889D01*
X106375511Y-101706527D01*
X106344209Y-101369331D01*
X106347388Y-101035519D01*
X106385625Y-100709310D01*
X106459495Y-100394922D01*
X106569575Y-100096572D01*
X106586892Y-100058504D01*
X106740000Y-99778547D01*
X106926174Y-99524855D01*
X107144726Y-99298146D01*
X107394969Y-99099134D01*
X107668048Y-98932855D01*
X107744726Y-98890443D01*
X107800627Y-98856134D01*
X107829792Y-98833834D01*
X107829208Y-98827239D01*
X107799153Y-98810687D01*
X107792166Y-98773916D01*
X107802130Y-98734961D01*
X107834739Y-98721828D01*
X107894069Y-98734257D01*
G37*
X107894069Y-98734257D02*
X107964480Y-98762868D01*
X107970025Y-98765262D01*
X107976452Y-98767563D01*
X107984586Y-98769773D01*
X107995256Y-98771894D01*
X108009287Y-98773928D01*
X108027508Y-98775875D01*
X108050743Y-98777739D01*
X108079821Y-98779522D01*
X108115569Y-98781224D01*
X108158812Y-98782848D01*
X108210379Y-98784396D01*
X108271095Y-98785869D01*
X108341788Y-98787270D01*
X108423284Y-98788600D01*
X108516411Y-98789862D01*
X108621995Y-98791057D01*
X108740863Y-98792186D01*
X108873843Y-98793252D01*
X109021760Y-98794258D01*
X109185441Y-98795203D01*
X109365715Y-98796091D01*
X109563406Y-98796923D01*
X109779343Y-98797702D01*
X110014352Y-98798428D01*
X110269260Y-98799104D01*
X110544894Y-98799732D01*
X110842080Y-98800314D01*
X111161646Y-98800851D01*
X111504419Y-98801345D01*
X111871225Y-98801799D01*
X112262890Y-98802213D01*
X112680243Y-98802591D01*
X113124110Y-98802933D01*
X113595317Y-98803242D01*
X114094692Y-98803519D01*
X114623061Y-98803767D01*
X115181252Y-98803987D01*
X115770090Y-98804181D01*
X116390404Y-98804351D01*
X117043019Y-98804499D01*
X117728763Y-98804627D01*
X118448463Y-98804736D01*
X119202945Y-98804829D01*
X119993037Y-98804907D01*
X120819564Y-98804972D01*
X121683354Y-98805026D01*
X122585235Y-98805071D01*
X123526032Y-98805109D01*
X124506572Y-98805142D01*
X125527683Y-98805170D01*
X126590191Y-98805198D01*
X126733667Y-98805201D01*
X145410584Y-98805666D01*
X145577501Y-98889211D01*
X145860882Y-99054239D01*
X146118583Y-99251644D01*
X146348511Y-99478650D01*
X146548576Y-99732483D01*
X146716687Y-100010367D01*
X146850752Y-100309528D01*
X146948679Y-100627190D01*
X146974066Y-100742416D01*
X146989653Y-100854601D01*
X146999619Y-100997759D01*
X147004069Y-101160917D01*
X147003105Y-101333104D01*
X146996831Y-101503347D01*
X146985349Y-101660675D01*
X146968763Y-101794115D01*
X146963932Y-101821916D01*
X146879753Y-102168304D01*
X146759705Y-102504375D01*
X146606555Y-102826003D01*
X146423073Y-103129063D01*
X146212027Y-103409432D01*
X145976186Y-103662983D01*
X145718318Y-103885591D01*
X145460783Y-104061459D01*
X145336317Y-104136356D01*
X145483238Y-104210345D01*
X145777521Y-104381326D01*
X146046123Y-104583687D01*
X146286812Y-104814426D01*
X146497357Y-105070542D01*
X146675527Y-105349031D01*
X146819090Y-105646892D01*
X146925816Y-105961122D01*
X146984483Y-106230153D01*
X147008537Y-106463546D01*
X147009616Y-106720638D01*
X146988805Y-106990297D01*
X146947188Y-107261389D01*
X146885849Y-107522781D01*
X146845958Y-107652852D01*
X146719764Y-107965203D01*
X146555180Y-108267958D01*
X146355778Y-108557127D01*
X146125129Y-108828719D01*
X145866804Y-109078742D01*
X145584374Y-109303206D01*
X145281411Y-109498118D01*
X145114820Y-109587534D01*
X144961890Y-109664166D01*
X132790000Y-109664166D01*
X132790000Y-109483415D01*
X132775383Y-109176655D01*
X132732941Y-108849195D01*
X132664780Y-108510268D01*
X132573008Y-108169108D01*
X132459735Y-107834948D01*
X132355223Y-107579250D01*
X132184107Y-107221817D01*
X131996446Y-106887265D01*
X131785897Y-106565687D01*
X131546120Y-106247181D01*
X131356810Y-106019964D01*
X131039986Y-105683963D01*
X130689004Y-105368029D01*
X130308379Y-105075010D01*
X129902627Y-104807754D01*
X129476263Y-104569109D01*
X129033801Y-104361922D01*
X128579758Y-104189042D01*
X128329186Y-104110326D01*
X127821847Y-103984683D01*
X127308881Y-103900350D01*
X126792798Y-103857089D01*
X126276107Y-103854667D01*
X125761318Y-103892847D01*
X125250939Y-103971394D01*
X124747481Y-104090073D01*
X124253453Y-104248648D01*
X123771364Y-104446884D01*
X123537523Y-104559815D01*
X123107627Y-104798170D01*
X122705375Y-105062187D01*
X122333368Y-105349802D01*
X121994206Y-105658949D01*
X121690493Y-105987565D01*
X121601167Y-106096558D01*
X121290509Y-106513772D01*
X121017298Y-106936376D01*
X120782397Y-107362593D01*
X120586666Y-107790644D01*
X120430967Y-108218750D01*
X120316160Y-108645133D01*
X120280046Y-108824913D01*
X120265030Y-108920728D01*
X120249023Y-109043670D01*
X120233221Y-109182027D01*
X120218820Y-109324084D01*
X120207013Y-109458129D01*
X120198998Y-109572446D01*
X120196019Y-109648291D01*
X120175119Y-109649625D01*
X120113582Y-109650927D01*
X120013103Y-109652191D01*
X119875378Y-109653414D01*
X119702104Y-109654591D01*
X119494975Y-109655718D01*
X119255689Y-109656790D01*
X118985940Y-109657802D01*
X118687425Y-109658751D01*
X118361840Y-109659632D01*
X118010879Y-109660440D01*
X117636240Y-109661171D01*
X117239619Y-109661821D01*
X116822710Y-109662384D01*
X116387210Y-109662858D01*
X115934815Y-109663236D01*
X115467220Y-109663516D01*
X114986122Y-109663692D01*
X114493216Y-109663760D01*
X114285041Y-109663755D01*
X108374250Y-109663343D01*
X108124793Y-109531463D01*
X107786402Y-109331336D01*
X107482810Y-109107217D01*
X107214140Y-108859275D01*
X106980514Y-108587681D01*
X106782057Y-108292604D01*
X106618892Y-107974215D01*
X106491141Y-107632683D01*
X106398928Y-107268179D01*
X106371647Y-107113583D01*
X106354614Y-106959447D01*
X106346040Y-106780379D01*
X106345660Y-106589566D01*
X106353210Y-106400195D01*
X106368427Y-106225451D01*
X106391046Y-106078521D01*
X106392508Y-106071470D01*
X106482666Y-105737291D01*
X106607485Y-105427107D01*
X106767613Y-105139711D01*
X106963696Y-104873895D01*
X107133844Y-104688864D01*
X107258857Y-104572975D01*
X107396647Y-104459660D01*
X107537804Y-104355726D01*
X107672916Y-104267978D01*
X107792574Y-104203223D01*
X107825274Y-104188794D01*
X107880006Y-104163995D01*
X107913813Y-104144264D01*
X107919087Y-104138111D01*
X107902828Y-104121564D01*
X107859314Y-104087698D01*
X107796556Y-104042612D01*
X107766234Y-104021694D01*
X107633824Y-103921548D01*
X107488472Y-103794760D01*
X107339613Y-103650624D01*
X107196682Y-103498431D01*
X107069114Y-103347477D01*
X107029074Y-103295634D01*
X106834009Y-103004790D01*
X106670543Y-102696238D01*
X106539255Y-102374199D01*
X106440719Y-102042889D01*
X106375511Y-101706527D01*
X106344209Y-101369331D01*
X106347388Y-101035519D01*
X106385625Y-100709310D01*
X106459495Y-100394922D01*
X106569575Y-100096572D01*
X106586892Y-100058504D01*
X106740000Y-99778547D01*
X106926174Y-99524855D01*
X107144726Y-99298146D01*
X107394969Y-99099134D01*
X107668048Y-98932855D01*
X107744726Y-98890443D01*
X107800627Y-98856134D01*
X107829792Y-98833834D01*
X107829208Y-98827239D01*
X107799153Y-98810687D01*
X107792166Y-98773916D01*
X107802130Y-98734961D01*
X107834739Y-98721828D01*
X107894069Y-98734257D01*
G36*
X138809861Y-62124785D02*
G01*
X139150632Y-62138291D01*
X139395325Y-62156855D01*
X140023089Y-62237323D01*
X140638823Y-62357966D01*
X141241068Y-62517970D01*
X141828364Y-62716518D01*
X142399251Y-62952795D01*
X142952270Y-63225983D01*
X143485963Y-63535267D01*
X143998868Y-63879831D01*
X144489527Y-64258860D01*
X144956480Y-64671535D01*
X145398268Y-65117043D01*
X145813431Y-65594566D01*
X146024665Y-65863645D01*
X146376273Y-66362028D01*
X146697233Y-66886821D01*
X146985768Y-67433880D01*
X147240103Y-67999062D01*
X147458461Y-68578222D01*
X147639065Y-69167217D01*
X147780140Y-69761904D01*
X147842540Y-70104026D01*
X147890546Y-70400000D01*
X160131216Y-70400000D01*
X160385592Y-70722791D01*
X160617289Y-71019841D01*
X160824009Y-71291509D01*
X161009771Y-71543258D01*
X161178591Y-71780552D01*
X161334490Y-72008854D01*
X161362720Y-72051272D01*
X161439918Y-72170113D01*
X161520994Y-72299093D01*
X161602817Y-72432796D01*
X161682254Y-72565809D01*
X161756171Y-72692720D01*
X161821435Y-72808113D01*
X161874914Y-72906577D01*
X161913476Y-72982696D01*
X161933986Y-73031058D01*
X161936500Y-73042760D01*
X161925690Y-73045126D01*
X161892635Y-73047351D01*
X161836391Y-73049437D01*
X161756019Y-73051387D01*
X161650577Y-73053205D01*
X161519124Y-73054894D01*
X161360717Y-73056457D01*
X161174417Y-73057898D01*
X160959281Y-73059219D01*
X160714369Y-73060423D01*
X160438739Y-73061515D01*
X160131449Y-73062497D01*
X159791559Y-73063373D01*
X159418127Y-73064145D01*
X159010212Y-73064818D01*
X158566873Y-73065393D01*
X158087168Y-73065876D01*
X157570156Y-73066267D01*
X157014895Y-73066572D01*
X156420445Y-73066793D01*
X155785864Y-73066933D01*
X155110211Y-73066995D01*
X154871190Y-73067000D01*
X147805881Y-73067000D01*
X147746649Y-73398636D01*
X147617729Y-74002199D01*
X147449905Y-74591366D01*
X147244588Y-75164654D01*
X147003190Y-75720584D01*
X146727120Y-76257674D01*
X146417791Y-76774442D01*
X146076613Y-77269407D01*
X145704998Y-77741088D01*
X145304356Y-78188003D01*
X144876099Y-78608671D01*
X144421638Y-79001611D01*
X143942384Y-79365341D01*
X143439748Y-79698381D01*
X142915141Y-79999248D01*
X142369974Y-80266461D01*
X141805658Y-80498539D01*
X141223605Y-80694001D01*
X140653416Y-80844909D01*
X140373098Y-80906889D01*
X140115540Y-80957493D01*
X139871594Y-80997712D01*
X139632115Y-81028538D01*
X139387957Y-81050962D01*
X139129975Y-81065975D01*
X138849021Y-81074570D01*
X138535952Y-81077736D01*
X138505000Y-81077789D01*
X138266638Y-81077336D01*
X138062351Y-81075044D01*
X137883902Y-81070377D01*
X137723051Y-81062802D01*
X137571560Y-81051785D01*
X137421192Y-81036792D01*
X137263708Y-81017289D01*
X137090871Y-80992741D01*
X137013731Y-80981106D01*
X136381777Y-80863546D01*
X135762093Y-80706337D01*
X135156443Y-80510518D01*
X134566587Y-80277128D01*
X133994287Y-80007209D01*
X133441306Y-79701798D01*
X132909404Y-79361937D01*
X132400345Y-78988665D01*
X131915889Y-78583022D01*
X131457799Y-78146047D01*
X131027837Y-77678781D01*
X130669149Y-77236833D01*
X130565971Y-77097977D01*
X130455005Y-76942080D01*
X130342599Y-76778579D01*
X130235096Y-76616909D01*
X130138844Y-76466508D01*
X130060187Y-76336812D01*
X130038656Y-76299244D01*
X130002841Y-76238636D01*
X129975143Y-76197510D01*
X129961538Y-76184739D01*
X129961522Y-76184755D01*
X129966570Y-76205643D01*
X129983406Y-76264351D01*
X130011237Y-76358279D01*
X130049268Y-76484826D01*
X130096706Y-76641392D01*
X130152756Y-76825377D01*
X130216625Y-77034180D01*
X130287518Y-77265202D01*
X130364641Y-77515842D01*
X130447200Y-77783499D01*
X130534401Y-78065575D01*
X130625450Y-78359467D01*
X130638930Y-78402926D01*
X130766162Y-78813924D01*
X130880496Y-79185091D01*
X130982066Y-79516874D01*
X131071004Y-79809720D01*
X131147443Y-80064078D01*
X131211517Y-80280393D01*
X131263359Y-80459113D01*
X131303101Y-80600685D01*
X131330877Y-80705556D01*
X131346819Y-80774173D01*
X131350096Y-80792833D01*
X131363838Y-80918192D01*
X131374798Y-81075216D01*
X131382788Y-81253315D01*
X131387617Y-81441899D01*
X131389097Y-81630380D01*
X131387038Y-81808168D01*
X131381250Y-81964672D01*
X131373048Y-82075137D01*
X131305684Y-82547818D01*
X131201345Y-83002760D01*
X131060686Y-83438611D01*
X130884361Y-83854018D01*
X130673025Y-84247629D01*
X130427331Y-84618093D01*
X130147935Y-84964057D01*
X129835491Y-85284169D01*
X129807054Y-85310489D01*
X129569018Y-85515996D01*
X129337155Y-85688067D01*
X129102179Y-85832676D01*
X128854806Y-85955799D01*
X128709596Y-86016723D01*
X128411160Y-86125379D01*
X128118525Y-86211917D01*
X127822805Y-86277952D01*
X127515117Y-86325102D01*
X127186578Y-86354983D01*
X126828305Y-86369214D01*
X126768083Y-86370141D01*
X126618331Y-86371628D01*
X126478944Y-86372320D01*
X126356697Y-86372239D01*
X126258361Y-86371406D01*
X126190711Y-86369842D01*
X126164833Y-86368277D01*
X126110649Y-86362144D01*
X126028564Y-86352881D01*
X125932745Y-86342085D01*
X125889666Y-86337237D01*
X125537304Y-86284708D01*
X125194493Y-86208416D01*
X124867780Y-86110497D01*
X124563708Y-85993090D01*
X124288823Y-85858333D01*
X124127756Y-85761704D01*
X123779288Y-85509417D01*
X123457485Y-85225843D01*
X123163536Y-84913506D01*
X122898633Y-84574931D01*
X122663969Y-84212644D01*
X122460733Y-83829168D01*
X122290119Y-83427030D01*
X122153316Y-83008753D01*
X122051517Y-82576864D01*
X121985914Y-82133886D01*
X121957697Y-81682345D01*
X121968058Y-81224765D01*
X121970446Y-81189954D01*
X121981125Y-81056726D01*
X121993570Y-80926001D01*
X122006592Y-80808795D01*
X122019006Y-80716125D01*
X122025761Y-80676416D01*
X122035942Y-80636174D01*
X122057864Y-80558382D01*
X122090660Y-80445900D01*
X122133462Y-80301593D01*
X122185403Y-80128320D01*
X122245619Y-79928944D01*
X122313240Y-79706327D01*
X122387401Y-79463332D01*
X122467235Y-79202819D01*
X122551875Y-78927651D01*
X122640454Y-78640690D01*
X122724519Y-78369250D01*
X122815318Y-78076485D01*
X122902704Y-77794635D01*
X122985846Y-77526390D01*
X123063911Y-77274435D01*
X123136067Y-77041459D01*
X123201483Y-76830150D01*
X123259327Y-76643195D01*
X123308767Y-76483283D01*
X123348971Y-76353101D01*
X123379107Y-76255337D01*
X123398343Y-76192679D01*
X123405821Y-76167916D01*
X123400018Y-76169484D01*
X123376222Y-76202395D01*
X123337863Y-76261477D01*
X123288369Y-76341560D01*
X123265464Y-76379583D01*
X122937632Y-76886773D01*
X122574346Y-77373021D01*
X122177817Y-77836710D01*
X121750257Y-78276223D01*
X121293877Y-78689946D01*
X120810886Y-79076262D01*
X120303496Y-79433553D01*
X119773919Y-79760205D01*
X119224364Y-80054601D01*
X118657043Y-80315124D01*
X118074166Y-80540159D01*
X117477946Y-80728090D01*
X117224923Y-80795357D01*
X116751177Y-80903791D01*
X116293583Y-80985761D01*
X115840352Y-81042582D01*
X115379695Y-81075568D01*
X114899821Y-81086033D01*
X114643861Y-81083121D01*
X114365578Y-81074843D01*
X114116876Y-81062038D01*
X113885134Y-81043535D01*
X113657733Y-81018166D01*
X113422054Y-80984761D01*
X113214273Y-80950640D01*
X112607600Y-80824784D01*
X112012668Y-80658946D01*
X111431241Y-80454281D01*
X110865085Y-80211948D01*
X110315963Y-79933104D01*
X109785641Y-79618907D01*
X109275883Y-79270514D01*
X108788454Y-78889083D01*
X108325118Y-78475770D01*
X107887640Y-78031735D01*
X107477784Y-77558134D01*
X107097315Y-77056125D01*
X106949314Y-76840992D01*
X106616821Y-76305532D01*
X106532305Y-76146750D01*
X129932500Y-76146750D01*
X129943083Y-76157333D01*
X129953666Y-76146750D01*
X129943083Y-76136166D01*
X129932500Y-76146750D01*
X106532305Y-76146750D01*
X106320542Y-75748912D01*
X106061361Y-75173297D01*
X105840164Y-74580855D01*
X105657836Y-73973749D01*
X105515263Y-73354147D01*
X105507611Y-73314633D01*
X105489944Y-73221559D01*
X105475691Y-73144922D01*
X105466480Y-73093584D01*
X105463833Y-73076508D01*
X105442925Y-73075774D01*
X105381240Y-73075054D01*
X105280331Y-73074352D01*
X105141756Y-73073668D01*
X104967067Y-73073006D01*
X104757822Y-73072367D01*
X104515575Y-73071753D01*
X104241881Y-73071166D01*
X103938297Y-73070610D01*
X103606376Y-73070085D01*
X103247674Y-73069593D01*
X102863747Y-73069138D01*
X102456149Y-73068720D01*
X102026437Y-73068343D01*
X101576165Y-73068008D01*
X101106888Y-73067717D01*
X100620162Y-73067472D01*
X100117543Y-73067276D01*
X99600584Y-73067131D01*
X99070842Y-73067038D01*
X98529872Y-73067000D01*
X98436500Y-73067000D01*
X97893768Y-73066961D01*
X97361999Y-73066849D01*
X96842747Y-73066665D01*
X96337569Y-73066412D01*
X95848020Y-73066093D01*
X95375654Y-73065711D01*
X94922027Y-73065269D01*
X94488694Y-73064769D01*
X94077211Y-73064215D01*
X93689132Y-73063610D01*
X93326013Y-73062955D01*
X92989410Y-73062254D01*
X92680877Y-73061510D01*
X92401970Y-73060726D01*
X92154244Y-73059904D01*
X91939254Y-73059048D01*
X91758555Y-73058160D01*
X91613704Y-73057242D01*
X91506254Y-73056299D01*
X91437762Y-73055332D01*
X91409782Y-73054345D01*
X91409166Y-73054174D01*
X91420688Y-73024414D01*
X91453889Y-72962763D01*
X91506719Y-72872389D01*
X91577130Y-72756462D01*
X91663074Y-72618149D01*
X91762502Y-72460620D01*
X91873365Y-72287041D01*
X91993615Y-72100582D01*
X92121203Y-71904411D01*
X92254080Y-71701696D01*
X92364783Y-71534086D01*
X114215254Y-71534086D01*
X114215369Y-71853855D01*
X114257616Y-72177618D01*
X114301798Y-72368500D01*
X114355451Y-72534895D01*
X114429712Y-72718140D01*
X114517583Y-72902988D01*
X114612066Y-73074196D01*
X114662602Y-73154452D01*
X114829676Y-73374062D01*
X115028287Y-73581495D01*
X115250422Y-73770391D01*
X115488068Y-73934387D01*
X115733212Y-74067125D01*
X115899000Y-74135888D01*
X116169252Y-74213654D01*
X116457567Y-74260569D01*
X116752136Y-74275780D01*
X117041149Y-74258434D01*
X117212954Y-74230836D01*
X117532507Y-74144858D01*
X117833163Y-74022221D01*
X118112670Y-73865191D01*
X118368773Y-73676033D01*
X118599218Y-73457013D01*
X118801750Y-73210397D01*
X118974117Y-72938452D01*
X119114064Y-72643441D01*
X119219337Y-72327633D01*
X119255079Y-72178000D01*
X119275291Y-72046483D01*
X119288269Y-71887270D01*
X119290975Y-71803171D01*
X134498339Y-71803171D01*
X134530668Y-72112439D01*
X134601114Y-72418591D01*
X134709763Y-72718382D01*
X134856699Y-73008567D01*
X135016648Y-73251919D01*
X135215476Y-73488906D01*
X135444054Y-73701748D01*
X135696726Y-73886748D01*
X135967840Y-74040209D01*
X136251741Y-74158433D01*
X136515333Y-74232040D01*
X136690393Y-74258805D01*
X136890231Y-74271705D01*
X137099638Y-74270776D01*
X137303406Y-74256051D01*
X137475091Y-74229890D01*
X137788675Y-74145048D01*
X138086391Y-74020963D01*
X138368219Y-73857644D01*
X138634143Y-73655102D01*
X138835311Y-73464944D01*
X139057893Y-73207065D01*
X139241957Y-72934026D01*
X139386905Y-72647343D01*
X139492142Y-72348532D01*
X139557071Y-72039108D01*
X139581096Y-71720587D01*
X139578494Y-71576639D01*
X139543876Y-71272492D01*
X139470495Y-70979186D01*
X139361103Y-70699265D01*
X139218449Y-70435273D01*
X139045285Y-70189753D01*
X138844360Y-69965251D01*
X138618425Y-69764310D01*
X138370231Y-69589474D01*
X138102528Y-69443288D01*
X137818066Y-69328296D01*
X137519595Y-69247042D01*
X137209867Y-69202070D01*
X137002166Y-69193500D01*
X136681769Y-69214000D01*
X136369290Y-69274326D01*
X136068579Y-69372716D01*
X135783485Y-69507409D01*
X135517857Y-69676644D01*
X135275545Y-69878658D01*
X135100074Y-70063856D01*
X134905482Y-70323673D01*
X134748498Y-70599844D01*
X134629207Y-70889124D01*
X134547693Y-71188269D01*
X134504042Y-71494033D01*
X134498339Y-71803171D01*
X119290975Y-71803171D01*
X119293833Y-71714406D01*
X119291801Y-71541936D01*
X119281994Y-71383905D01*
X119266770Y-71267833D01*
X119189487Y-70956715D01*
X119073184Y-70659664D01*
X118919685Y-70379613D01*
X118730813Y-70119500D01*
X118508392Y-69882259D01*
X118292237Y-69699195D01*
X118146099Y-69600834D01*
X117970709Y-69503294D01*
X117778827Y-69412593D01*
X117583215Y-69334748D01*
X117396633Y-69275777D01*
X117391250Y-69274347D01*
X117300920Y-69251016D01*
X117226080Y-69233821D01*
X117157420Y-69221820D01*
X117085634Y-69214071D01*
X117001412Y-69209632D01*
X116895449Y-69207561D01*
X116758435Y-69206916D01*
X116724500Y-69206873D01*
X116577867Y-69207137D01*
X116464748Y-69208787D01*
X116376327Y-69212615D01*
X116303787Y-69219411D01*
X116238314Y-69229966D01*
X116171091Y-69245072D01*
X116104444Y-69262497D01*
X115789602Y-69368430D01*
X115496367Y-69509355D01*
X115227004Y-69683418D01*
X114983778Y-69888769D01*
X114768954Y-70123554D01*
X114584797Y-70385922D01*
X114467490Y-70601083D01*
X114341336Y-70907467D01*
X114257251Y-71218546D01*
X114215254Y-71534086D01*
X92364783Y-71534086D01*
X92390198Y-71495607D01*
X92527508Y-71289310D01*
X92663962Y-71085976D01*
X92797511Y-70888771D01*
X92926106Y-70700864D01*
X92998555Y-70596031D01*
X93134250Y-70400479D01*
X99297744Y-70400239D01*
X105461239Y-70400000D01*
X105474923Y-70299458D01*
X105581193Y-69672640D01*
X105727198Y-69059972D01*
X105912397Y-68462561D01*
X106136253Y-67881511D01*
X106398225Y-67317929D01*
X106697775Y-66772922D01*
X107034363Y-66247594D01*
X107407450Y-65743052D01*
X107816497Y-65260402D01*
X108056282Y-65005009D01*
X108516299Y-64562219D01*
X109000800Y-64153629D01*
X109508405Y-63779920D01*
X110037735Y-63441778D01*
X110587412Y-63139886D01*
X111156054Y-62874929D01*
X111742283Y-62647591D01*
X112344720Y-62458556D01*
X112961984Y-62308508D01*
X113592697Y-62198131D01*
X113761166Y-62175711D01*
X113896311Y-62162265D01*
X114065328Y-62150741D01*
X114259795Y-62141284D01*
X114471286Y-62134038D01*
X114691380Y-62129150D01*
X114911652Y-62126764D01*
X115123679Y-62127024D01*
X115319038Y-62130078D01*
X115489304Y-62136068D01*
X115611194Y-62143843D01*
X116240023Y-62217492D01*
X116857927Y-62331404D01*
X117463276Y-62484541D01*
X118054441Y-62675867D01*
X118629795Y-62904344D01*
X119187707Y-63168934D01*
X119726550Y-63468601D01*
X120244694Y-63802307D01*
X120740510Y-64169015D01*
X121212370Y-64567688D01*
X121658645Y-64997288D01*
X122077707Y-65456779D01*
X122467925Y-65945123D01*
X122827672Y-66461283D01*
X123105445Y-66916163D01*
X123328360Y-67333079D01*
X123534097Y-67774114D01*
X123719890Y-68231283D01*
X123882973Y-68696599D01*
X124020579Y-69162077D01*
X124129942Y-69619732D01*
X124208294Y-70061577D01*
X124217047Y-70124833D01*
X124229249Y-70213527D01*
X124240595Y-70290818D01*
X124249109Y-70343407D01*
X124250816Y-70352375D01*
X124260639Y-70400000D01*
X129107000Y-70400000D01*
X129107000Y-70351641D01*
X129111480Y-70291362D01*
X129124010Y-70197201D01*
X129143220Y-70076551D01*
X129167739Y-69936804D01*
X129196200Y-69785350D01*
X129227232Y-69629582D01*
X129259467Y-69476891D01*
X129291535Y-69334668D01*
X129308447Y-69264225D01*
X129411514Y-68875943D01*
X129524273Y-68512372D01*
X129651564Y-68160262D01*
X129798224Y-67806366D01*
X129969093Y-67437434D01*
X129995261Y-67383750D01*
X130222538Y-66945835D01*
X130461863Y-66537291D01*
X130721332Y-66145339D01*
X131009040Y-65757199D01*
X131093098Y-65650791D01*
X131498554Y-65177532D01*
X131933483Y-64733738D01*
X132395896Y-64320554D01*
X132883802Y-63939124D01*
X133395211Y-63590594D01*
X133928131Y-63276108D01*
X134480572Y-62996811D01*
X135050543Y-62753847D01*
X135636054Y-62548361D01*
X136235113Y-62381498D01*
X136845731Y-62254403D01*
X137059886Y-62219814D01*
X137375808Y-62180218D01*
X137720833Y-62150592D01*
X138082895Y-62131261D01*
X138449927Y-62122550D01*
X138809861Y-62124785D01*
G37*
X138809861Y-62124785D02*
X139150632Y-62138291D01*
X139395325Y-62156855D01*
X140023089Y-62237323D01*
X140638823Y-62357966D01*
X141241068Y-62517970D01*
X141828364Y-62716518D01*
X142399251Y-62952795D01*
X142952270Y-63225983D01*
X143485963Y-63535267D01*
X143998868Y-63879831D01*
X144489527Y-64258860D01*
X144956480Y-64671535D01*
X145398268Y-65117043D01*
X145813431Y-65594566D01*
X146024665Y-65863645D01*
X146376273Y-66362028D01*
X146697233Y-66886821D01*
X146985768Y-67433880D01*
X147240103Y-67999062D01*
X147458461Y-68578222D01*
X147639065Y-69167217D01*
X147780140Y-69761904D01*
X147842540Y-70104026D01*
X147890546Y-70400000D01*
X160131216Y-70400000D01*
X160385592Y-70722791D01*
X160617289Y-71019841D01*
X160824009Y-71291509D01*
X161009771Y-71543258D01*
X161178591Y-71780552D01*
X161334490Y-72008854D01*
X161362720Y-72051272D01*
X161439918Y-72170113D01*
X161520994Y-72299093D01*
X161602817Y-72432796D01*
X161682254Y-72565809D01*
X161756171Y-72692720D01*
X161821435Y-72808113D01*
X161874914Y-72906577D01*
X161913476Y-72982696D01*
X161933986Y-73031058D01*
X161936500Y-73042760D01*
X161925690Y-73045126D01*
X161892635Y-73047351D01*
X161836391Y-73049437D01*
X161756019Y-73051387D01*
X161650577Y-73053205D01*
X161519124Y-73054894D01*
X161360717Y-73056457D01*
X161174417Y-73057898D01*
X160959281Y-73059219D01*
X160714369Y-73060423D01*
X160438739Y-73061515D01*
X160131449Y-73062497D01*
X159791559Y-73063373D01*
X159418127Y-73064145D01*
X159010212Y-73064818D01*
X158566873Y-73065393D01*
X158087168Y-73065876D01*
X157570156Y-73066267D01*
X157014895Y-73066572D01*
X156420445Y-73066793D01*
X155785864Y-73066933D01*
X155110211Y-73066995D01*
X154871190Y-73067000D01*
X147805881Y-73067000D01*
X147746649Y-73398636D01*
X147617729Y-74002199D01*
X147449905Y-74591366D01*
X147244588Y-75164654D01*
X147003190Y-75720584D01*
X146727120Y-76257674D01*
X146417791Y-76774442D01*
X146076613Y-77269407D01*
X145704998Y-77741088D01*
X145304356Y-78188003D01*
X144876099Y-78608671D01*
X144421638Y-79001611D01*
X143942384Y-79365341D01*
X143439748Y-79698381D01*
X142915141Y-79999248D01*
X142369974Y-80266461D01*
X141805658Y-80498539D01*
X141223605Y-80694001D01*
X140653416Y-80844909D01*
X140373098Y-80906889D01*
X140115540Y-80957493D01*
X139871594Y-80997712D01*
X139632115Y-81028538D01*
X139387957Y-81050962D01*
X139129975Y-81065975D01*
X138849021Y-81074570D01*
X138535952Y-81077736D01*
X138505000Y-81077789D01*
X138266638Y-81077336D01*
X138062351Y-81075044D01*
X137883902Y-81070377D01*
X137723051Y-81062802D01*
X137571560Y-81051785D01*
X137421192Y-81036792D01*
X137263708Y-81017289D01*
X137090871Y-80992741D01*
X137013731Y-80981106D01*
X136381777Y-80863546D01*
X135762093Y-80706337D01*
X135156443Y-80510518D01*
X134566587Y-80277128D01*
X133994287Y-80007209D01*
X133441306Y-79701798D01*
X132909404Y-79361937D01*
X132400345Y-78988665D01*
X131915889Y-78583022D01*
X131457799Y-78146047D01*
X131027837Y-77678781D01*
X130669149Y-77236833D01*
X130565971Y-77097977D01*
X130455005Y-76942080D01*
X130342599Y-76778579D01*
X130235096Y-76616909D01*
X130138844Y-76466508D01*
X130060187Y-76336812D01*
X130038656Y-76299244D01*
X130002841Y-76238636D01*
X129975143Y-76197510D01*
X129961538Y-76184739D01*
X129961522Y-76184755D01*
X129966570Y-76205643D01*
X129983406Y-76264351D01*
X130011237Y-76358279D01*
X130049268Y-76484826D01*
X130096706Y-76641392D01*
X130152756Y-76825377D01*
X130216625Y-77034180D01*
X130287518Y-77265202D01*
X130364641Y-77515842D01*
X130447200Y-77783499D01*
X130534401Y-78065575D01*
X130625450Y-78359467D01*
X130638930Y-78402926D01*
X130766162Y-78813924D01*
X130880496Y-79185091D01*
X130982066Y-79516874D01*
X131071004Y-79809720D01*
X131147443Y-80064078D01*
X131211517Y-80280393D01*
X131263359Y-80459113D01*
X131303101Y-80600685D01*
X131330877Y-80705556D01*
X131346819Y-80774173D01*
X131350096Y-80792833D01*
X131363838Y-80918192D01*
X131374798Y-81075216D01*
X131382788Y-81253315D01*
X131387617Y-81441899D01*
X131389097Y-81630380D01*
X131387038Y-81808168D01*
X131381250Y-81964672D01*
X131373048Y-82075137D01*
X131305684Y-82547818D01*
X131201345Y-83002760D01*
X131060686Y-83438611D01*
X130884361Y-83854018D01*
X130673025Y-84247629D01*
X130427331Y-84618093D01*
X130147935Y-84964057D01*
X129835491Y-85284169D01*
X129807054Y-85310489D01*
X129569018Y-85515996D01*
X129337155Y-85688067D01*
X129102179Y-85832676D01*
X128854806Y-85955799D01*
X128709596Y-86016723D01*
X128411160Y-86125379D01*
X128118525Y-86211917D01*
X127822805Y-86277952D01*
X127515117Y-86325102D01*
X127186578Y-86354983D01*
X126828305Y-86369214D01*
X126768083Y-86370141D01*
X126618331Y-86371628D01*
X126478944Y-86372320D01*
X126356697Y-86372239D01*
X126258361Y-86371406D01*
X126190711Y-86369842D01*
X126164833Y-86368277D01*
X126110649Y-86362144D01*
X126028564Y-86352881D01*
X125932745Y-86342085D01*
X125889666Y-86337237D01*
X125537304Y-86284708D01*
X125194493Y-86208416D01*
X124867780Y-86110497D01*
X124563708Y-85993090D01*
X124288823Y-85858333D01*
X124127756Y-85761704D01*
X123779288Y-85509417D01*
X123457485Y-85225843D01*
X123163536Y-84913506D01*
X122898633Y-84574931D01*
X122663969Y-84212644D01*
X122460733Y-83829168D01*
X122290119Y-83427030D01*
X122153316Y-83008753D01*
X122051517Y-82576864D01*
X121985914Y-82133886D01*
X121957697Y-81682345D01*
X121968058Y-81224765D01*
X121970446Y-81189954D01*
X121981125Y-81056726D01*
X121993570Y-80926001D01*
X122006592Y-80808795D01*
X122019006Y-80716125D01*
X122025761Y-80676416D01*
X122035942Y-80636174D01*
X122057864Y-80558382D01*
X122090660Y-80445900D01*
X122133462Y-80301593D01*
X122185403Y-80128320D01*
X122245619Y-79928944D01*
X122313240Y-79706327D01*
X122387401Y-79463332D01*
X122467235Y-79202819D01*
X122551875Y-78927651D01*
X122640454Y-78640690D01*
X122724519Y-78369250D01*
X122815318Y-78076485D01*
X122902704Y-77794635D01*
X122985846Y-77526390D01*
X123063911Y-77274435D01*
X123136067Y-77041459D01*
X123201483Y-76830150D01*
X123259327Y-76643195D01*
X123308767Y-76483283D01*
X123348971Y-76353101D01*
X123379107Y-76255337D01*
X123398343Y-76192679D01*
X123405821Y-76167916D01*
X123400018Y-76169484D01*
X123376222Y-76202395D01*
X123337863Y-76261477D01*
X123288369Y-76341560D01*
X123265464Y-76379583D01*
X122937632Y-76886773D01*
X122574346Y-77373021D01*
X122177817Y-77836710D01*
X121750257Y-78276223D01*
X121293877Y-78689946D01*
X120810886Y-79076262D01*
X120303496Y-79433553D01*
X119773919Y-79760205D01*
X119224364Y-80054601D01*
X118657043Y-80315124D01*
X118074166Y-80540159D01*
X117477946Y-80728090D01*
X117224923Y-80795357D01*
X116751177Y-80903791D01*
X116293583Y-80985761D01*
X115840352Y-81042582D01*
X115379695Y-81075568D01*
X114899821Y-81086033D01*
X114643861Y-81083121D01*
X114365578Y-81074843D01*
X114116876Y-81062038D01*
X113885134Y-81043535D01*
X113657733Y-81018166D01*
X113422054Y-80984761D01*
X113214273Y-80950640D01*
X112607600Y-80824784D01*
X112012668Y-80658946D01*
X111431241Y-80454281D01*
X110865085Y-80211948D01*
X110315963Y-79933104D01*
X109785641Y-79618907D01*
X109275883Y-79270514D01*
X108788454Y-78889083D01*
X108325118Y-78475770D01*
X107887640Y-78031735D01*
X107477784Y-77558134D01*
X107097315Y-77056125D01*
X106949314Y-76840992D01*
X106616821Y-76305532D01*
X106532305Y-76146750D01*
X129932500Y-76146750D01*
X129943083Y-76157333D01*
X129953666Y-76146750D01*
X129943083Y-76136166D01*
X129932500Y-76146750D01*
X106532305Y-76146750D01*
X106320542Y-75748912D01*
X106061361Y-75173297D01*
X105840164Y-74580855D01*
X105657836Y-73973749D01*
X105515263Y-73354147D01*
X105507611Y-73314633D01*
X105489944Y-73221559D01*
X105475691Y-73144922D01*
X105466480Y-73093584D01*
X105463833Y-73076508D01*
X105442925Y-73075774D01*
X105381240Y-73075054D01*
X105280331Y-73074352D01*
X105141756Y-73073668D01*
X104967067Y-73073006D01*
X104757822Y-73072367D01*
X104515575Y-73071753D01*
X104241881Y-73071166D01*
X103938297Y-73070610D01*
X103606376Y-73070085D01*
X103247674Y-73069593D01*
X102863747Y-73069138D01*
X102456149Y-73068720D01*
X102026437Y-73068343D01*
X101576165Y-73068008D01*
X101106888Y-73067717D01*
X100620162Y-73067472D01*
X100117543Y-73067276D01*
X99600584Y-73067131D01*
X99070842Y-73067038D01*
X98529872Y-73067000D01*
X98436500Y-73067000D01*
X97893768Y-73066961D01*
X97361999Y-73066849D01*
X96842747Y-73066665D01*
X96337569Y-73066412D01*
X95848020Y-73066093D01*
X95375654Y-73065711D01*
X94922027Y-73065269D01*
X94488694Y-73064769D01*
X94077211Y-73064215D01*
X93689132Y-73063610D01*
X93326013Y-73062955D01*
X92989410Y-73062254D01*
X92680877Y-73061510D01*
X92401970Y-73060726D01*
X92154244Y-73059904D01*
X91939254Y-73059048D01*
X91758555Y-73058160D01*
X91613704Y-73057242D01*
X91506254Y-73056299D01*
X91437762Y-73055332D01*
X91409782Y-73054345D01*
X91409166Y-73054174D01*
X91420688Y-73024414D01*
X91453889Y-72962763D01*
X91506719Y-72872389D01*
X91577130Y-72756462D01*
X91663074Y-72618149D01*
X91762502Y-72460620D01*
X91873365Y-72287041D01*
X91993615Y-72100582D01*
X92121203Y-71904411D01*
X92254080Y-71701696D01*
X92364783Y-71534086D01*
X114215254Y-71534086D01*
X114215369Y-71853855D01*
X114257616Y-72177618D01*
X114301798Y-72368500D01*
X114355451Y-72534895D01*
X114429712Y-72718140D01*
X114517583Y-72902988D01*
X114612066Y-73074196D01*
X114662602Y-73154452D01*
X114829676Y-73374062D01*
X115028287Y-73581495D01*
X115250422Y-73770391D01*
X115488068Y-73934387D01*
X115733212Y-74067125D01*
X115899000Y-74135888D01*
X116169252Y-74213654D01*
X116457567Y-74260569D01*
X116752136Y-74275780D01*
X117041149Y-74258434D01*
X117212954Y-74230836D01*
X117532507Y-74144858D01*
X117833163Y-74022221D01*
X118112670Y-73865191D01*
X118368773Y-73676033D01*
X118599218Y-73457013D01*
X118801750Y-73210397D01*
X118974117Y-72938452D01*
X119114064Y-72643441D01*
X119219337Y-72327633D01*
X119255079Y-72178000D01*
X119275291Y-72046483D01*
X119288269Y-71887270D01*
X119290975Y-71803171D01*
X134498339Y-71803171D01*
X134530668Y-72112439D01*
X134601114Y-72418591D01*
X134709763Y-72718382D01*
X134856699Y-73008567D01*
X135016648Y-73251919D01*
X135215476Y-73488906D01*
X135444054Y-73701748D01*
X135696726Y-73886748D01*
X135967840Y-74040209D01*
X136251741Y-74158433D01*
X136515333Y-74232040D01*
X136690393Y-74258805D01*
X136890231Y-74271705D01*
X137099638Y-74270776D01*
X137303406Y-74256051D01*
X137475091Y-74229890D01*
X137788675Y-74145048D01*
X138086391Y-74020963D01*
X138368219Y-73857644D01*
X138634143Y-73655102D01*
X138835311Y-73464944D01*
X139057893Y-73207065D01*
X139241957Y-72934026D01*
X139386905Y-72647343D01*
X139492142Y-72348532D01*
X139557071Y-72039108D01*
X139581096Y-71720587D01*
X139578494Y-71576639D01*
X139543876Y-71272492D01*
X139470495Y-70979186D01*
X139361103Y-70699265D01*
X139218449Y-70435273D01*
X139045285Y-70189753D01*
X138844360Y-69965251D01*
X138618425Y-69764310D01*
X138370231Y-69589474D01*
X138102528Y-69443288D01*
X137818066Y-69328296D01*
X137519595Y-69247042D01*
X137209867Y-69202070D01*
X137002166Y-69193500D01*
X136681769Y-69214000D01*
X136369290Y-69274326D01*
X136068579Y-69372716D01*
X135783485Y-69507409D01*
X135517857Y-69676644D01*
X135275545Y-69878658D01*
X135100074Y-70063856D01*
X134905482Y-70323673D01*
X134748498Y-70599844D01*
X134629207Y-70889124D01*
X134547693Y-71188269D01*
X134504042Y-71494033D01*
X134498339Y-71803171D01*
X119290975Y-71803171D01*
X119293833Y-71714406D01*
X119291801Y-71541936D01*
X119281994Y-71383905D01*
X119266770Y-71267833D01*
X119189487Y-70956715D01*
X119073184Y-70659664D01*
X118919685Y-70379613D01*
X118730813Y-70119500D01*
X118508392Y-69882259D01*
X118292237Y-69699195D01*
X118146099Y-69600834D01*
X117970709Y-69503294D01*
X117778827Y-69412593D01*
X117583215Y-69334748D01*
X117396633Y-69275777D01*
X117391250Y-69274347D01*
X117300920Y-69251016D01*
X117226080Y-69233821D01*
X117157420Y-69221820D01*
X117085634Y-69214071D01*
X117001412Y-69209632D01*
X116895449Y-69207561D01*
X116758435Y-69206916D01*
X116724500Y-69206873D01*
X116577867Y-69207137D01*
X116464748Y-69208787D01*
X116376327Y-69212615D01*
X116303787Y-69219411D01*
X116238314Y-69229966D01*
X116171091Y-69245072D01*
X116104444Y-69262497D01*
X115789602Y-69368430D01*
X115496367Y-69509355D01*
X115227004Y-69683418D01*
X114983778Y-69888769D01*
X114768954Y-70123554D01*
X114584797Y-70385922D01*
X114467490Y-70601083D01*
X114341336Y-70907467D01*
X114257251Y-71218546D01*
X114215254Y-71534086D01*
X92364783Y-71534086D01*
X92390198Y-71495607D01*
X92527508Y-71289310D01*
X92663962Y-71085976D01*
X92797511Y-70888771D01*
X92926106Y-70700864D01*
X92998555Y-70596031D01*
X93134250Y-70400479D01*
X99297744Y-70400239D01*
X105461239Y-70400000D01*
X105474923Y-70299458D01*
X105581193Y-69672640D01*
X105727198Y-69059972D01*
X105912397Y-68462561D01*
X106136253Y-67881511D01*
X106398225Y-67317929D01*
X106697775Y-66772922D01*
X107034363Y-66247594D01*
X107407450Y-65743052D01*
X107816497Y-65260402D01*
X108056282Y-65005009D01*
X108516299Y-64562219D01*
X109000800Y-64153629D01*
X109508405Y-63779920D01*
X110037735Y-63441778D01*
X110587412Y-63139886D01*
X111156054Y-62874929D01*
X111742283Y-62647591D01*
X112344720Y-62458556D01*
X112961984Y-62308508D01*
X113592697Y-62198131D01*
X113761166Y-62175711D01*
X113896311Y-62162265D01*
X114065328Y-62150741D01*
X114259795Y-62141284D01*
X114471286Y-62134038D01*
X114691380Y-62129150D01*
X114911652Y-62126764D01*
X115123679Y-62127024D01*
X115319038Y-62130078D01*
X115489304Y-62136068D01*
X115611194Y-62143843D01*
X116240023Y-62217492D01*
X116857927Y-62331404D01*
X117463276Y-62484541D01*
X118054441Y-62675867D01*
X118629795Y-62904344D01*
X119187707Y-63168934D01*
X119726550Y-63468601D01*
X120244694Y-63802307D01*
X120740510Y-64169015D01*
X121212370Y-64567688D01*
X121658645Y-64997288D01*
X122077707Y-65456779D01*
X122467925Y-65945123D01*
X122827672Y-66461283D01*
X123105445Y-66916163D01*
X123328360Y-67333079D01*
X123534097Y-67774114D01*
X123719890Y-68231283D01*
X123882973Y-68696599D01*
X124020579Y-69162077D01*
X124129942Y-69619732D01*
X124208294Y-70061577D01*
X124217047Y-70124833D01*
X124229249Y-70213527D01*
X124240595Y-70290818D01*
X124249109Y-70343407D01*
X124250816Y-70352375D01*
X124260639Y-70400000D01*
X129107000Y-70400000D01*
X129107000Y-70351641D01*
X129111480Y-70291362D01*
X129124010Y-70197201D01*
X129143220Y-70076551D01*
X129167739Y-69936804D01*
X129196200Y-69785350D01*
X129227232Y-69629582D01*
X129259467Y-69476891D01*
X129291535Y-69334668D01*
X129308447Y-69264225D01*
X129411514Y-68875943D01*
X129524273Y-68512372D01*
X129651564Y-68160262D01*
X129798224Y-67806366D01*
X129969093Y-67437434D01*
X129995261Y-67383750D01*
X130222538Y-66945835D01*
X130461863Y-66537291D01*
X130721332Y-66145339D01*
X131009040Y-65757199D01*
X131093098Y-65650791D01*
X131498554Y-65177532D01*
X131933483Y-64733738D01*
X132395896Y-64320554D01*
X132883802Y-63939124D01*
X133395211Y-63590594D01*
X133928131Y-63276108D01*
X134480572Y-62996811D01*
X135050543Y-62753847D01*
X135636054Y-62548361D01*
X136235113Y-62381498D01*
X136845731Y-62254403D01*
X137059886Y-62219814D01*
X137375808Y-62180218D01*
X137720833Y-62150592D01*
X138082895Y-62131261D01*
X138449927Y-62122550D01*
X138809861Y-62124785D01*
G36*
X148510805Y-31670291D02*
G01*
X148505542Y-31695588D01*
X148491583Y-31760864D01*
X148469227Y-31864732D01*
X148438778Y-32005805D01*
X148400535Y-32182696D01*
X148354800Y-32394018D01*
X148301873Y-32638383D01*
X148242056Y-32914406D01*
X148175649Y-33220699D01*
X148102954Y-33555874D01*
X148024272Y-33918545D01*
X147939904Y-34307325D01*
X147850150Y-34720826D01*
X147755312Y-35157662D01*
X147655691Y-35616446D01*
X147551587Y-36095790D01*
X147443302Y-36594307D01*
X147331137Y-37110612D01*
X147215393Y-37643315D01*
X147096370Y-38191031D01*
X146974371Y-38752373D01*
X146849695Y-39325952D01*
X146722644Y-39910383D01*
X146667631Y-40163416D01*
X146519830Y-40843298D01*
X146372123Y-41522910D01*
X146224783Y-42200991D01*
X146078083Y-42876277D01*
X145932298Y-43547503D01*
X145787701Y-44213408D01*
X145644565Y-44872727D01*
X145503164Y-45524197D01*
X145363772Y-46166554D01*
X145226662Y-46798536D01*
X145092108Y-47418879D01*
X144960384Y-48026320D01*
X144831762Y-48619594D01*
X144706517Y-49197440D01*
X144584922Y-49758593D01*
X144467250Y-50301790D01*
X144353776Y-50825768D01*
X144244773Y-51329263D01*
X144140514Y-51811011D01*
X144041273Y-52269751D01*
X143947324Y-52704217D01*
X143858940Y-53113148D01*
X143776394Y-53495278D01*
X143699961Y-53849346D01*
X143629914Y-54174087D01*
X143566526Y-54468239D01*
X143510072Y-54730537D01*
X143460824Y-54959719D01*
X143419056Y-55154521D01*
X143385042Y-55313680D01*
X143359055Y-55435932D01*
X143341370Y-55520015D01*
X143332258Y-55564663D01*
X143331000Y-55571908D01*
X143351544Y-55573965D01*
X143410691Y-55575722D01*
X143504710Y-55577161D01*
X143629872Y-55578263D01*
X143782447Y-55579007D01*
X143958704Y-55579375D01*
X144154913Y-55579348D01*
X144367345Y-55578906D01*
X144552667Y-55578213D01*
X145774335Y-55572750D01*
X146431897Y-52679283D01*
X146509759Y-52336953D01*
X146585161Y-52005985D01*
X146657563Y-51688725D01*
X146726425Y-51387522D01*
X146791206Y-51104721D01*
X146851364Y-50842671D01*
X146906360Y-50603718D01*
X146955651Y-50390210D01*
X146998699Y-50204494D01*
X147034961Y-50048917D01*
X147063897Y-49925827D01*
X147084966Y-49837569D01*
X147097627Y-49786493D01*
X147101279Y-49773997D01*
X147124247Y-49773214D01*
X147184862Y-49775923D01*
X147278612Y-49781799D01*
X147400986Y-49790514D01*
X147547469Y-49801741D01*
X147713550Y-49815154D01*
X147894715Y-49830426D01*
X147968424Y-49836810D01*
X150484979Y-50072273D01*
X152971869Y-50336968D01*
X155430223Y-50631080D01*
X157861172Y-50954795D01*
X160265847Y-51308297D01*
X162645378Y-51691771D01*
X165000895Y-52105404D01*
X167333529Y-52549379D01*
X169644410Y-53023883D01*
X171934668Y-53529100D01*
X174205435Y-54065216D01*
X175049250Y-54273531D01*
X175369235Y-54354116D01*
X175715289Y-54442441D01*
X176081842Y-54537020D01*
X176463323Y-54636368D01*
X176854163Y-54739000D01*
X177248792Y-54843429D01*
X177641640Y-54948172D01*
X178027137Y-55051742D01*
X178399714Y-55152654D01*
X178753799Y-55249423D01*
X179083823Y-55340563D01*
X179384217Y-55424588D01*
X179649410Y-55500015D01*
X179663583Y-55504091D01*
X179981083Y-55595473D01*
X179986461Y-58118819D01*
X179991838Y-60642166D01*
X73353827Y-60642166D01*
X73359205Y-58119186D01*
X73364583Y-55596207D01*
X73703250Y-55504259D01*
X73988469Y-55427988D01*
X74310045Y-55344090D01*
X74662936Y-55253793D01*
X75042102Y-55158331D01*
X75442503Y-55058933D01*
X75859098Y-54956832D01*
X76286848Y-54853258D01*
X76720711Y-54749443D01*
X77155648Y-54646617D01*
X77586619Y-54546012D01*
X78008583Y-54448859D01*
X78232916Y-54397813D01*
X80112842Y-53982451D01*
X82030062Y-53579485D01*
X83981226Y-53189470D01*
X85962985Y-52812961D01*
X87971989Y-52450510D01*
X90004889Y-52102672D01*
X92058336Y-51770000D01*
X94128980Y-51453049D01*
X96213471Y-51152372D01*
X98308462Y-50868523D01*
X100410601Y-50602056D01*
X102516540Y-50353525D01*
X103061416Y-50292233D01*
X103299535Y-50265872D01*
X103549479Y-50238484D01*
X103807888Y-50210418D01*
X104071400Y-50182024D01*
X104336655Y-50153650D01*
X104600292Y-50125646D01*
X104858950Y-50098360D01*
X105109269Y-50072143D01*
X105347886Y-50047344D01*
X105571443Y-50024311D01*
X105776577Y-50003394D01*
X105959928Y-49984943D01*
X106118134Y-49969305D01*
X106247836Y-49956832D01*
X106345673Y-49947871D01*
X106408282Y-49942772D01*
X106432305Y-49941885D01*
X106432417Y-49941944D01*
X106437516Y-49962764D01*
X106451125Y-50022565D01*
X106472719Y-50118966D01*
X106501773Y-50249590D01*
X106537765Y-50412057D01*
X106580169Y-50603990D01*
X106628461Y-50823009D01*
X106682117Y-51066736D01*
X106740613Y-51332793D01*
X106803424Y-51618799D01*
X106870027Y-51922378D01*
X106939897Y-52241151D01*
X107012509Y-52572738D01*
X107053392Y-52759556D01*
X107127290Y-53097193D01*
X107198733Y-53423336D01*
X107267194Y-53735605D01*
X107332151Y-54031621D01*
X107393078Y-54309003D01*
X107449452Y-54565373D01*
X107500748Y-54798349D01*
X107546443Y-55005552D01*
X107586012Y-55184604D01*
X107618930Y-55333122D01*
X107644675Y-55448729D01*
X107662720Y-55529044D01*
X107672543Y-55571687D01*
X107674251Y-55578220D01*
X107695806Y-55579144D01*
X107755865Y-55579825D01*
X107850598Y-55580266D01*
X107976175Y-55580465D01*
X108128767Y-55580422D01*
X108304544Y-55580138D01*
X108499678Y-55579612D01*
X108710337Y-55578845D01*
X108852936Y-55578220D01*
X110026237Y-55572750D01*
X109154941Y-51540500D01*
X109083407Y-51210177D01*
X109003191Y-50841088D01*
X108914854Y-50435778D01*
X108818957Y-49996793D01*
X108716062Y-49526678D01*
X108606731Y-49027978D01*
X108491524Y-48503238D01*
X108371004Y-47955005D01*
X108245732Y-47385823D01*
X108116269Y-46798238D01*
X107983178Y-46194795D01*
X107847019Y-45578040D01*
X107708354Y-44950518D01*
X107567745Y-44314774D01*
X107425753Y-43673354D01*
X107282940Y-43028804D01*
X107139866Y-42383667D01*
X106997095Y-41740491D01*
X106855186Y-41101821D01*
X106714703Y-40470201D01*
X106576206Y-39848177D01*
X106513906Y-39568603D01*
X106386758Y-38998143D01*
X106261973Y-38438211D01*
X106139865Y-37890221D01*
X106020748Y-37355588D01*
X105904937Y-36835725D01*
X105792747Y-36332047D01*
X105684493Y-35845967D01*
X105580488Y-35378901D01*
X105481049Y-34932261D01*
X105386488Y-34507463D01*
X105297122Y-34105920D01*
X105213264Y-33729047D01*
X105135230Y-33378257D01*
X105063334Y-33054965D01*
X104997891Y-32760585D01*
X104939215Y-32496530D01*
X104887621Y-32264216D01*
X104843424Y-32065057D01*
X104806939Y-31900465D01*
X104778479Y-31771857D01*
X104758360Y-31680645D01*
X104746897Y-31628243D01*
X104744166Y-31615228D01*
X104765186Y-31614625D01*
X104827658Y-31614028D01*
X104930701Y-31613439D01*
X105073433Y-31612856D01*
X105254974Y-31612282D01*
X105474442Y-31611717D01*
X105730957Y-31611161D01*
X106023636Y-31610614D01*
X106351598Y-31610078D01*
X106713963Y-31609553D01*
X107109849Y-31609039D01*
X107538375Y-31608537D01*
X107998660Y-31608048D01*
X108489822Y-31607572D01*
X109010981Y-31607109D01*
X109561255Y-31606661D01*
X110139762Y-31606227D01*
X110745622Y-31605809D01*
X111377954Y-31605406D01*
X112035875Y-31605020D01*
X112718506Y-31604651D01*
X113424965Y-31604299D01*
X114154369Y-31603966D01*
X114905840Y-31603651D01*
X115678494Y-31603355D01*
X116471451Y-31603079D01*
X117283830Y-31602823D01*
X118114750Y-31602588D01*
X118963328Y-31602374D01*
X119828685Y-31602183D01*
X120709938Y-31602013D01*
X121606207Y-31601867D01*
X122516611Y-31601745D01*
X123440267Y-31601646D01*
X124376296Y-31601572D01*
X125323815Y-31601524D01*
X126281943Y-31601501D01*
X126633269Y-31601500D01*
X148522372Y-31601500D01*
X148510805Y-31670291D01*
G37*
X148510805Y-31670291D02*
X148505542Y-31695588D01*
X148491583Y-31760864D01*
X148469227Y-31864732D01*
X148438778Y-32005805D01*
X148400535Y-32182696D01*
X148354800Y-32394018D01*
X148301873Y-32638383D01*
X148242056Y-32914406D01*
X148175649Y-33220699D01*
X148102954Y-33555874D01*
X148024272Y-33918545D01*
X147939904Y-34307325D01*
X147850150Y-34720826D01*
X147755312Y-35157662D01*
X147655691Y-35616446D01*
X147551587Y-36095790D01*
X147443302Y-36594307D01*
X147331137Y-37110612D01*
X147215393Y-37643315D01*
X147096370Y-38191031D01*
X146974371Y-38752373D01*
X146849695Y-39325952D01*
X146722644Y-39910383D01*
X146667631Y-40163416D01*
X146519830Y-40843298D01*
X146372123Y-41522910D01*
X146224783Y-42200991D01*
X146078083Y-42876277D01*
X145932298Y-43547503D01*
X145787701Y-44213408D01*
X145644565Y-44872727D01*
X145503164Y-45524197D01*
X145363772Y-46166554D01*
X145226662Y-46798536D01*
X145092108Y-47418879D01*
X144960384Y-48026320D01*
X144831762Y-48619594D01*
X144706517Y-49197440D01*
X144584922Y-49758593D01*
X144467250Y-50301790D01*
X144353776Y-50825768D01*
X144244773Y-51329263D01*
X144140514Y-51811011D01*
X144041273Y-52269751D01*
X143947324Y-52704217D01*
X143858940Y-53113148D01*
X143776394Y-53495278D01*
X143699961Y-53849346D01*
X143629914Y-54174087D01*
X143566526Y-54468239D01*
X143510072Y-54730537D01*
X143460824Y-54959719D01*
X143419056Y-55154521D01*
X143385042Y-55313680D01*
X143359055Y-55435932D01*
X143341370Y-55520015D01*
X143332258Y-55564663D01*
X143331000Y-55571908D01*
X143351544Y-55573965D01*
X143410691Y-55575722D01*
X143504710Y-55577161D01*
X143629872Y-55578263D01*
X143782447Y-55579007D01*
X143958704Y-55579375D01*
X144154913Y-55579348D01*
X144367345Y-55578906D01*
X144552667Y-55578213D01*
X145774335Y-55572750D01*
X146431897Y-52679283D01*
X146509759Y-52336953D01*
X146585161Y-52005985D01*
X146657563Y-51688725D01*
X146726425Y-51387522D01*
X146791206Y-51104721D01*
X146851364Y-50842671D01*
X146906360Y-50603718D01*
X146955651Y-50390210D01*
X146998699Y-50204494D01*
X147034961Y-50048917D01*
X147063897Y-49925827D01*
X147084966Y-49837569D01*
X147097627Y-49786493D01*
X147101279Y-49773997D01*
X147124247Y-49773214D01*
X147184862Y-49775923D01*
X147278612Y-49781799D01*
X147400986Y-49790514D01*
X147547469Y-49801741D01*
X147713550Y-49815154D01*
X147894715Y-49830426D01*
X147968424Y-49836810D01*
X150484979Y-50072273D01*
X152971869Y-50336968D01*
X155430223Y-50631080D01*
X157861172Y-50954795D01*
X160265847Y-51308297D01*
X162645378Y-51691771D01*
X165000895Y-52105404D01*
X167333529Y-52549379D01*
X169644410Y-53023883D01*
X171934668Y-53529100D01*
X174205435Y-54065216D01*
X175049250Y-54273531D01*
X175369235Y-54354116D01*
X175715289Y-54442441D01*
X176081842Y-54537020D01*
X176463323Y-54636368D01*
X176854163Y-54739000D01*
X177248792Y-54843429D01*
X177641640Y-54948172D01*
X178027137Y-55051742D01*
X178399714Y-55152654D01*
X178753799Y-55249423D01*
X179083823Y-55340563D01*
X179384217Y-55424588D01*
X179649410Y-55500015D01*
X179663583Y-55504091D01*
X179981083Y-55595473D01*
X179986461Y-58118819D01*
X179991838Y-60642166D01*
X73353827Y-60642166D01*
X73359205Y-58119186D01*
X73364583Y-55596207D01*
X73703250Y-55504259D01*
X73988469Y-55427988D01*
X74310045Y-55344090D01*
X74662936Y-55253793D01*
X75042102Y-55158331D01*
X75442503Y-55058933D01*
X75859098Y-54956832D01*
X76286848Y-54853258D01*
X76720711Y-54749443D01*
X77155648Y-54646617D01*
X77586619Y-54546012D01*
X78008583Y-54448859D01*
X78232916Y-54397813D01*
X80112842Y-53982451D01*
X82030062Y-53579485D01*
X83981226Y-53189470D01*
X85962985Y-52812961D01*
X87971989Y-52450510D01*
X90004889Y-52102672D01*
X92058336Y-51770000D01*
X94128980Y-51453049D01*
X96213471Y-51152372D01*
X98308462Y-50868523D01*
X100410601Y-50602056D01*
X102516540Y-50353525D01*
X103061416Y-50292233D01*
X103299535Y-50265872D01*
X103549479Y-50238484D01*
X103807888Y-50210418D01*
X104071400Y-50182024D01*
X104336655Y-50153650D01*
X104600292Y-50125646D01*
X104858950Y-50098360D01*
X105109269Y-50072143D01*
X105347886Y-50047344D01*
X105571443Y-50024311D01*
X105776577Y-50003394D01*
X105959928Y-49984943D01*
X106118134Y-49969305D01*
X106247836Y-49956832D01*
X106345673Y-49947871D01*
X106408282Y-49942772D01*
X106432305Y-49941885D01*
X106432417Y-49941944D01*
X106437516Y-49962764D01*
X106451125Y-50022565D01*
X106472719Y-50118966D01*
X106501773Y-50249590D01*
X106537765Y-50412057D01*
X106580169Y-50603990D01*
X106628461Y-50823009D01*
X106682117Y-51066736D01*
X106740613Y-51332793D01*
X106803424Y-51618799D01*
X106870027Y-51922378D01*
X106939897Y-52241151D01*
X107012509Y-52572738D01*
X107053392Y-52759556D01*
X107127290Y-53097193D01*
X107198733Y-53423336D01*
X107267194Y-53735605D01*
X107332151Y-54031621D01*
X107393078Y-54309003D01*
X107449452Y-54565373D01*
X107500748Y-54798349D01*
X107546443Y-55005552D01*
X107586012Y-55184604D01*
X107618930Y-55333122D01*
X107644675Y-55448729D01*
X107662720Y-55529044D01*
X107672543Y-55571687D01*
X107674251Y-55578220D01*
X107695806Y-55579144D01*
X107755865Y-55579825D01*
X107850598Y-55580266D01*
X107976175Y-55580465D01*
X108128767Y-55580422D01*
X108304544Y-55580138D01*
X108499678Y-55579612D01*
X108710337Y-55578845D01*
X108852936Y-55578220D01*
X110026237Y-55572750D01*
X109154941Y-51540500D01*
X109083407Y-51210177D01*
X109003191Y-50841088D01*
X108914854Y-50435778D01*
X108818957Y-49996793D01*
X108716062Y-49526678D01*
X108606731Y-49027978D01*
X108491524Y-48503238D01*
X108371004Y-47955005D01*
X108245732Y-47385823D01*
X108116269Y-46798238D01*
X107983178Y-46194795D01*
X107847019Y-45578040D01*
X107708354Y-44950518D01*
X107567745Y-44314774D01*
X107425753Y-43673354D01*
X107282940Y-43028804D01*
X107139866Y-42383667D01*
X106997095Y-41740491D01*
X106855186Y-41101821D01*
X106714703Y-40470201D01*
X106576206Y-39848177D01*
X106513906Y-39568603D01*
X106386758Y-38998143D01*
X106261973Y-38438211D01*
X106139865Y-37890221D01*
X106020748Y-37355588D01*
X105904937Y-36835725D01*
X105792747Y-36332047D01*
X105684493Y-35845967D01*
X105580488Y-35378901D01*
X105481049Y-34932261D01*
X105386488Y-34507463D01*
X105297122Y-34105920D01*
X105213264Y-33729047D01*
X105135230Y-33378257D01*
X105063334Y-33054965D01*
X104997891Y-32760585D01*
X104939215Y-32496530D01*
X104887621Y-32264216D01*
X104843424Y-32065057D01*
X104806939Y-31900465D01*
X104778479Y-31771857D01*
X104758360Y-31680645D01*
X104746897Y-31628243D01*
X104744166Y-31615228D01*
X104765186Y-31614625D01*
X104827658Y-31614028D01*
X104930701Y-31613439D01*
X105073433Y-31612856D01*
X105254974Y-31612282D01*
X105474442Y-31611717D01*
X105730957Y-31611161D01*
X106023636Y-31610614D01*
X106351598Y-31610078D01*
X106713963Y-31609553D01*
X107109849Y-31609039D01*
X107538375Y-31608537D01*
X107998660Y-31608048D01*
X108489822Y-31607572D01*
X109010981Y-31607109D01*
X109561255Y-31606661D01*
X110139762Y-31606227D01*
X110745622Y-31605809D01*
X111377954Y-31605406D01*
X112035875Y-31605020D01*
X112718506Y-31604651D01*
X113424965Y-31604299D01*
X114154369Y-31603966D01*
X114905840Y-31603651D01*
X115678494Y-31603355D01*
X116471451Y-31603079D01*
X117283830Y-31602823D01*
X118114750Y-31602588D01*
X118963328Y-31602374D01*
X119828685Y-31602183D01*
X120709938Y-31602013D01*
X121606207Y-31601867D01*
X122516611Y-31601745D01*
X123440267Y-31601646D01*
X124376296Y-31601572D01*
X125323815Y-31601524D01*
X126281943Y-31601501D01*
X126633269Y-31601500D01*
X148522372Y-31601500D01*
X148510805Y-31670291D01*
G04 #@! TD*
D11*
G04 #@! TO.C,U1*
X140910000Y-211650000D03*
X140910000Y-214190000D03*
X140910000Y-216730000D03*
X140910000Y-219270000D03*
X140910000Y-221810000D03*
X111700000Y-211650000D03*
X111700000Y-214190000D03*
X111700000Y-216730000D03*
X111700000Y-219270000D03*
G04 #@! TD*
D12*
G04 #@! TO.C,U2*
X106940000Y-260160000D03*
X109480000Y-260160000D03*
X112020000Y-260160000D03*
X114560000Y-260160000D03*
X117100000Y-260160000D03*
X119640000Y-260160000D03*
X122180000Y-260160000D03*
X124720000Y-260160000D03*
X127260000Y-260160000D03*
X129800000Y-260160000D03*
X132340000Y-260160000D03*
X134880000Y-260160000D03*
X137420000Y-260160000D03*
X139960000Y-260160000D03*
X142500000Y-260160000D03*
X145040000Y-260160000D03*
X147580000Y-260160000D03*
X150120000Y-260160000D03*
X152660000Y-260160000D03*
X152660000Y-234760000D03*
X150120000Y-234760000D03*
X147580000Y-234760000D03*
X145040000Y-234760000D03*
X142500000Y-234760000D03*
X139960000Y-234760000D03*
X137420000Y-234760000D03*
X134880000Y-234760000D03*
X132340000Y-234760000D03*
X129800000Y-234760000D03*
X127260000Y-234760000D03*
X124720000Y-234760000D03*
X122180000Y-234760000D03*
X119640000Y-234760000D03*
X117100000Y-234760000D03*
X114560000Y-234760000D03*
X112020000Y-234760000D03*
X109480000Y-234760000D03*
X106940000Y-234760000D03*
G04 #@! TD*
M02*
