M48
; DRILL file {KiCad (5.1.10)-1} date 11/11/21 13:48:46
; FORMAT={-:-/ absolute / metric / decimal}
; #@! TF.CreationDate,2021-11-11T13:48:46+02:00
; #@! TF.GenerationSoftware,Kicad,Pcbnew,(5.1.10)-1
; #@! TF.FileFunction,Plated,1,2,PTH
FMAT,2
METRIC
T1C0.400
T2C0.800
T3C0.900
T4C1.000
T5C1.001
T6C1.100
%
G90
G05
T1
X112.09Y-156.77
X112.09Y-161.06
X120.61Y-162.68
X120.7Y-164.51
X122.949Y-256.76
X123.116Y-251.966
X123.718Y-252.779
X123.75Y-249.601
X124.48Y-257.61
X124.63Y-162.62
X124.66Y-164.38
X124.66Y-253.4
X125.39Y-254.308
X125.41Y-219.45
X125.71Y-256.86
X126.07Y-214.77
X127.68Y-248.39
X127.7Y-245.47
X127.93Y-241.65
X128.68Y-244.45
X128.847Y-243.391
X129.05Y-249.87
T2
X90.66Y-163.88
X100.82Y-163.88
X104.07Y-163.91
X114.23Y-163.91
X118.23Y-159.05
X118.23Y-169.21
X123.23Y-158.98
X123.23Y-169.14
X128.22Y-159.01
X128.22Y-169.17
X132.41Y-117.53
X133.23Y-159.07
X133.23Y-169.23
X134.95Y-114.99
X134.95Y-120.07
X138.46Y-163.79
X140.55Y-117.53
X143.09Y-114.99
X143.09Y-120.07
X146.53Y-127.4
X148.45Y-117.57
X148.62Y-163.79
X149.93Y-127.4
X150.99Y-115.03
X150.99Y-120.11
X151.67Y-163.79
X155.69Y-125.86
X155.77Y-132.85
X155.77Y-139.88
X155.87Y-146.87
X156.94Y-117.5
X159.48Y-114.96
X159.48Y-120.04
X161.83Y-163.79
X165.85Y-125.86
X165.93Y-132.85
X165.93Y-139.88
X166.03Y-146.87
T3
X188.42Y-131.15
X188.42Y-151.91
X188.45Y-172.8
X190.96Y-131.15
X190.96Y-151.91
X190.99Y-172.8
T4
X106.94Y-234.76
X106.94Y-260.16
X109.48Y-234.76
X109.48Y-260.16
X111.7Y-211.65
X111.7Y-214.19
X111.7Y-216.73
X111.7Y-219.27
X112.02Y-234.76
X112.02Y-260.16
X114.56Y-234.76
X114.56Y-260.16
X117.1Y-234.76
X117.1Y-260.16
X119.64Y-234.76
X119.64Y-260.16
X122.18Y-234.76
X122.18Y-260.16
X122.6Y-125.1
X124.72Y-234.76
X124.72Y-260.16
X125.14Y-125.1
X127.26Y-234.76
X127.26Y-260.16
X127.68Y-125.1
X129.8Y-234.76
X129.8Y-260.16
X130.22Y-125.1
X132.34Y-234.76
X132.34Y-260.16
X134.88Y-234.76
X134.88Y-260.16
X137.42Y-234.76
X137.42Y-260.16
X139.96Y-234.76
X139.96Y-260.16
X140.91Y-211.65
X140.91Y-214.19
X140.91Y-216.73
X140.91Y-219.27
X140.91Y-221.81
X142.5Y-234.76
X142.5Y-260.16
X145.04Y-234.76
X145.04Y-260.16
X147.58Y-234.76
X147.58Y-260.16
X150.12Y-234.76
X150.12Y-260.16
X152.66Y-234.76
X152.66Y-260.16
T5
X121.5Y-107.45
X131.66Y-107.45
T6
X55.95Y-168.98
X55.95Y-173.48
X62.45Y-168.98
X62.45Y-173.48
T0
M30
