G04 #@! TF.GenerationSoftware,KiCad,Pcbnew,(5.1.10)-1*
G04 #@! TF.CreationDate,2022-01-20T14:21:32+02:00*
G04 #@! TF.ProjectId,gaisa-sargs-rear-2,67616973-612d-4736-9172-67732d726561,rev?*
G04 #@! TF.SameCoordinates,Original*
G04 #@! TF.FileFunction,Copper,L1,Top*
G04 #@! TF.FilePolarity,Positive*
%FSLAX46Y46*%
G04 Gerber Fmt 4.6, Leading zero omitted, Abs format (unit mm)*
G04 Created by KiCad (PCBNEW (5.1.10)-1) date 2022-01-20 14:21:32*
%MOMM*%
%LPD*%
G01*
G04 APERTURE LIST*
G04 #@! TA.AperFunction,EtchedComponent*
%ADD10C,0.010000*%
G04 #@! TD*
G04 APERTURE END LIST*
D10*
G04 #@! TO.C,Ref\u002A\u002A*
G36*
X148387666Y-135912333D02*
G01*
X147837333Y-135912333D01*
X147837333Y-135700666D01*
X148387666Y-135700666D01*
X148387666Y-135912333D01*
G37*
X148387666Y-135912333D02*
X147837333Y-135912333D01*
X147837333Y-135700666D01*
X148387666Y-135700666D01*
X148387666Y-135912333D01*
G36*
X141015095Y-135621682D02*
G01*
X141114429Y-135646318D01*
X141188795Y-135691786D01*
X141233193Y-135752677D01*
X141242625Y-135823581D01*
X141233754Y-135858309D01*
X141186308Y-135924489D01*
X141102826Y-135969428D01*
X141016098Y-135989011D01*
X140952317Y-135994541D01*
X140909981Y-135984717D01*
X140869189Y-135953281D01*
X140853431Y-135937854D01*
X140799620Y-135861852D01*
X140787033Y-135785391D01*
X140815623Y-135712466D01*
X140856650Y-135668532D01*
X140910324Y-135631073D01*
X140962762Y-135618742D01*
X141015095Y-135621682D01*
G37*
X141015095Y-135621682D02*
X141114429Y-135646318D01*
X141188795Y-135691786D01*
X141233193Y-135752677D01*
X141242625Y-135823581D01*
X141233754Y-135858309D01*
X141186308Y-135924489D01*
X141102826Y-135969428D01*
X141016098Y-135989011D01*
X140952317Y-135994541D01*
X140909981Y-135984717D01*
X140869189Y-135953281D01*
X140853431Y-135937854D01*
X140799620Y-135861852D01*
X140787033Y-135785391D01*
X140815623Y-135712466D01*
X140856650Y-135668532D01*
X140910324Y-135631073D01*
X140962762Y-135618742D01*
X141015095Y-135621682D01*
G36*
X155008910Y-136171759D02*
G01*
X155167711Y-136218966D01*
X155298676Y-136298015D01*
X155401745Y-136408873D01*
X155447577Y-136485466D01*
X155499842Y-136626006D01*
X155525145Y-136780487D01*
X155524606Y-136939634D01*
X155499344Y-137094170D01*
X155450476Y-137234821D01*
X155379122Y-137352310D01*
X155337598Y-137397395D01*
X155215101Y-137484825D01*
X155068488Y-137545352D01*
X154908102Y-137576665D01*
X154744287Y-137576449D01*
X154630337Y-137555557D01*
X154470677Y-137491773D01*
X154331538Y-137394412D01*
X154219208Y-137268710D01*
X154157835Y-137162242D01*
X154134779Y-137102110D01*
X154120984Y-137035571D01*
X154114501Y-136949617D01*
X154113265Y-136864833D01*
X154113424Y-136854086D01*
X154483666Y-136854086D01*
X154499291Y-136986591D01*
X154542799Y-137100010D01*
X154609139Y-137190410D01*
X154693260Y-137253856D01*
X154790110Y-137286414D01*
X154894640Y-137284151D01*
X154990928Y-137249185D01*
X155063766Y-137193628D01*
X155113076Y-137115006D01*
X155141003Y-137008123D01*
X155149692Y-136867785D01*
X155149685Y-136864833D01*
X155138290Y-136713630D01*
X155104398Y-136597408D01*
X155046757Y-136514530D01*
X154964116Y-136463362D01*
X154855225Y-136442269D01*
X154825863Y-136441500D01*
X154751662Y-136446379D01*
X154697270Y-136466323D01*
X154641906Y-136508287D01*
X154550673Y-136612097D01*
X154498586Y-136730541D01*
X154483666Y-136854086D01*
X154113424Y-136854086D01*
X154114761Y-136763898D01*
X154120996Y-136691100D01*
X154134561Y-136632296D01*
X154158050Y-136573344D01*
X154172088Y-136543935D01*
X154263673Y-136404814D01*
X154389009Y-136290196D01*
X154523459Y-136212139D01*
X154595672Y-136182578D01*
X154664526Y-136165535D01*
X154746825Y-136157879D01*
X154822333Y-136156424D01*
X155008910Y-136171759D01*
G37*
X155008910Y-136171759D02*
X155167711Y-136218966D01*
X155298676Y-136298015D01*
X155401745Y-136408873D01*
X155447577Y-136485466D01*
X155499842Y-136626006D01*
X155525145Y-136780487D01*
X155524606Y-136939634D01*
X155499344Y-137094170D01*
X155450476Y-137234821D01*
X155379122Y-137352310D01*
X155337598Y-137397395D01*
X155215101Y-137484825D01*
X155068488Y-137545352D01*
X154908102Y-137576665D01*
X154744287Y-137576449D01*
X154630337Y-137555557D01*
X154470677Y-137491773D01*
X154331538Y-137394412D01*
X154219208Y-137268710D01*
X154157835Y-137162242D01*
X154134779Y-137102110D01*
X154120984Y-137035571D01*
X154114501Y-136949617D01*
X154113265Y-136864833D01*
X154113424Y-136854086D01*
X154483666Y-136854086D01*
X154499291Y-136986591D01*
X154542799Y-137100010D01*
X154609139Y-137190410D01*
X154693260Y-137253856D01*
X154790110Y-137286414D01*
X154894640Y-137284151D01*
X154990928Y-137249185D01*
X155063766Y-137193628D01*
X155113076Y-137115006D01*
X155141003Y-137008123D01*
X155149692Y-136867785D01*
X155149685Y-136864833D01*
X155138290Y-136713630D01*
X155104398Y-136597408D01*
X155046757Y-136514530D01*
X154964116Y-136463362D01*
X154855225Y-136442269D01*
X154825863Y-136441500D01*
X154751662Y-136446379D01*
X154697270Y-136466323D01*
X154641906Y-136508287D01*
X154550673Y-136612097D01*
X154498586Y-136730541D01*
X154483666Y-136854086D01*
X154113424Y-136854086D01*
X154114761Y-136763898D01*
X154120996Y-136691100D01*
X154134561Y-136632296D01*
X154158050Y-136573344D01*
X154172088Y-136543935D01*
X154263673Y-136404814D01*
X154389009Y-136290196D01*
X154523459Y-136212139D01*
X154595672Y-136182578D01*
X154664526Y-136165535D01*
X154746825Y-136157879D01*
X154822333Y-136156424D01*
X155008910Y-136171759D01*
G36*
X153409251Y-136153819D02*
G01*
X153538231Y-136192014D01*
X153655677Y-136262078D01*
X153750239Y-136356141D01*
X153789538Y-136417458D01*
X153848666Y-136531000D01*
X153848666Y-137584500D01*
X153488833Y-137584500D01*
X153488833Y-137118153D01*
X153488062Y-136945237D01*
X153485146Y-136809287D01*
X153479185Y-136704953D01*
X153469275Y-136626883D01*
X153454514Y-136569730D01*
X153433999Y-136528143D01*
X153406829Y-136496772D01*
X153380526Y-136476016D01*
X153323807Y-136452887D01*
X153246306Y-136441837D01*
X153230457Y-136441500D01*
X153155663Y-136447874D01*
X153099251Y-136472509D01*
X153060542Y-136503228D01*
X152991416Y-136564956D01*
X152978694Y-137584500D01*
X152599833Y-137584500D01*
X152599833Y-136229833D01*
X152790333Y-136229833D01*
X152882854Y-136231005D01*
X152940477Y-136235367D01*
X152970594Y-136244181D01*
X152980596Y-136258715D01*
X152980833Y-136262439D01*
X152988664Y-136277087D01*
X153015568Y-136261743D01*
X153038282Y-136241777D01*
X153111404Y-136196237D01*
X153210159Y-136164319D01*
X153319028Y-136149699D01*
X153409251Y-136153819D01*
G37*
X153409251Y-136153819D02*
X153538231Y-136192014D01*
X153655677Y-136262078D01*
X153750239Y-136356141D01*
X153789538Y-136417458D01*
X153848666Y-136531000D01*
X153848666Y-137584500D01*
X153488833Y-137584500D01*
X153488833Y-137118153D01*
X153488062Y-136945237D01*
X153485146Y-136809287D01*
X153479185Y-136704953D01*
X153469275Y-136626883D01*
X153454514Y-136569730D01*
X153433999Y-136528143D01*
X153406829Y-136496772D01*
X153380526Y-136476016D01*
X153323807Y-136452887D01*
X153246306Y-136441837D01*
X153230457Y-136441500D01*
X153155663Y-136447874D01*
X153099251Y-136472509D01*
X153060542Y-136503228D01*
X152991416Y-136564956D01*
X152978694Y-137584500D01*
X152599833Y-137584500D01*
X152599833Y-136229833D01*
X152790333Y-136229833D01*
X152882854Y-136231005D01*
X152940477Y-136235367D01*
X152970594Y-136244181D01*
X152980596Y-136258715D01*
X152980833Y-136262439D01*
X152988664Y-136277087D01*
X153015568Y-136261743D01*
X153038282Y-136241777D01*
X153111404Y-136196237D01*
X153210159Y-136164319D01*
X153319028Y-136149699D01*
X153409251Y-136153819D01*
G36*
X151657916Y-136157736D02*
G01*
X151828356Y-136172808D01*
X151968583Y-136216269D01*
X152079790Y-136289350D01*
X152163174Y-136393282D01*
X152219932Y-136529299D01*
X152251257Y-136698632D01*
X152256883Y-136774875D01*
X152266216Y-136970666D01*
X151303127Y-136970666D01*
X151315685Y-137048054D01*
X151348518Y-137133115D01*
X151411907Y-137209920D01*
X151494406Y-137264911D01*
X151501272Y-137267872D01*
X151558851Y-137280698D01*
X151643399Y-137285984D01*
X151713626Y-137284413D01*
X151794209Y-137278512D01*
X151846115Y-137268444D01*
X151882982Y-137248801D01*
X151918449Y-137214174D01*
X151933208Y-137197337D01*
X151973365Y-137154080D01*
X152008721Y-137130579D01*
X152054581Y-137120832D01*
X152126248Y-137118837D01*
X152133412Y-137118833D01*
X152265755Y-137118833D01*
X152251987Y-137177041D01*
X152220615Y-137252910D01*
X152164692Y-137338460D01*
X152094507Y-137419321D01*
X152049500Y-137459874D01*
X151942554Y-137521946D01*
X151810537Y-137562236D01*
X151665798Y-137578752D01*
X151520686Y-137569509D01*
X151455337Y-137555557D01*
X151295677Y-137491773D01*
X151156538Y-137394412D01*
X151044208Y-137268710D01*
X150982835Y-137162242D01*
X150959779Y-137102110D01*
X150945984Y-137035571D01*
X150939501Y-136949617D01*
X150938265Y-136864833D01*
X150939761Y-136763898D01*
X150944287Y-136711044D01*
X151308666Y-136711044D01*
X151309785Y-136729199D01*
X151317279Y-136742074D01*
X151337357Y-136750576D01*
X151376227Y-136755612D01*
X151440096Y-136758090D01*
X151535172Y-136758917D01*
X151636750Y-136759000D01*
X151776592Y-136757599D01*
X151878922Y-136753468D01*
X151942177Y-136746712D01*
X151964795Y-136737434D01*
X151964833Y-136736990D01*
X151951747Y-136689838D01*
X151918365Y-136626157D01*
X151873503Y-136560154D01*
X151825976Y-136506036D01*
X151815970Y-136497079D01*
X151736826Y-136455490D01*
X151638359Y-136439932D01*
X151535156Y-136451093D01*
X151458138Y-136480177D01*
X151392123Y-136533169D01*
X151339543Y-136607000D01*
X151311009Y-136685279D01*
X151308666Y-136711044D01*
X150944287Y-136711044D01*
X150945996Y-136691100D01*
X150959561Y-136632296D01*
X150983050Y-136573344D01*
X150997088Y-136543935D01*
X151088694Y-136404796D01*
X151214182Y-136290016D01*
X151348459Y-136211860D01*
X151415371Y-136183759D01*
X151477246Y-136167142D01*
X151549361Y-136159337D01*
X151646990Y-136157673D01*
X151657916Y-136157736D01*
G37*
X151657916Y-136157736D02*
X151828356Y-136172808D01*
X151968583Y-136216269D01*
X152079790Y-136289350D01*
X152163174Y-136393282D01*
X152219932Y-136529299D01*
X152251257Y-136698632D01*
X152256883Y-136774875D01*
X152266216Y-136970666D01*
X151303127Y-136970666D01*
X151315685Y-137048054D01*
X151348518Y-137133115D01*
X151411907Y-137209920D01*
X151494406Y-137264911D01*
X151501272Y-137267872D01*
X151558851Y-137280698D01*
X151643399Y-137285984D01*
X151713626Y-137284413D01*
X151794209Y-137278512D01*
X151846115Y-137268444D01*
X151882982Y-137248801D01*
X151918449Y-137214174D01*
X151933208Y-137197337D01*
X151973365Y-137154080D01*
X152008721Y-137130579D01*
X152054581Y-137120832D01*
X152126248Y-137118837D01*
X152133412Y-137118833D01*
X152265755Y-137118833D01*
X152251987Y-137177041D01*
X152220615Y-137252910D01*
X152164692Y-137338460D01*
X152094507Y-137419321D01*
X152049500Y-137459874D01*
X151942554Y-137521946D01*
X151810537Y-137562236D01*
X151665798Y-137578752D01*
X151520686Y-137569509D01*
X151455337Y-137555557D01*
X151295677Y-137491773D01*
X151156538Y-137394412D01*
X151044208Y-137268710D01*
X150982835Y-137162242D01*
X150959779Y-137102110D01*
X150945984Y-137035571D01*
X150939501Y-136949617D01*
X150938265Y-136864833D01*
X150939761Y-136763898D01*
X150944287Y-136711044D01*
X151308666Y-136711044D01*
X151309785Y-136729199D01*
X151317279Y-136742074D01*
X151337357Y-136750576D01*
X151376227Y-136755612D01*
X151440096Y-136758090D01*
X151535172Y-136758917D01*
X151636750Y-136759000D01*
X151776592Y-136757599D01*
X151878922Y-136753468D01*
X151942177Y-136746712D01*
X151964795Y-136737434D01*
X151964833Y-136736990D01*
X151951747Y-136689838D01*
X151918365Y-136626157D01*
X151873503Y-136560154D01*
X151825976Y-136506036D01*
X151815970Y-136497079D01*
X151736826Y-136455490D01*
X151638359Y-136439932D01*
X151535156Y-136451093D01*
X151458138Y-136480177D01*
X151392123Y-136533169D01*
X151339543Y-136607000D01*
X151311009Y-136685279D01*
X151308666Y-136711044D01*
X150944287Y-136711044D01*
X150945996Y-136691100D01*
X150959561Y-136632296D01*
X150983050Y-136573344D01*
X150997088Y-136543935D01*
X151088694Y-136404796D01*
X151214182Y-136290016D01*
X151348459Y-136211860D01*
X151415371Y-136183759D01*
X151477246Y-136167142D01*
X151549361Y-136159337D01*
X151646990Y-136157673D01*
X151657916Y-136157736D01*
G36*
X150419666Y-136229833D02*
G01*
X150673666Y-136229833D01*
X150673666Y-136441500D01*
X150419666Y-136441500D01*
X150419666Y-136812878D01*
X150419846Y-136946563D01*
X150420932Y-137044585D01*
X150423742Y-137113612D01*
X150429094Y-137160316D01*
X150437809Y-137191364D01*
X150450702Y-137213428D01*
X150468595Y-137233176D01*
X150471621Y-137236212D01*
X150541173Y-137279894D01*
X150598621Y-137288166D01*
X150673666Y-137288166D01*
X150673666Y-137584500D01*
X150551958Y-137582828D01*
X150481962Y-137580759D01*
X150428811Y-137577169D01*
X150409083Y-137574097D01*
X150373891Y-137564554D01*
X150330096Y-137554295D01*
X150278674Y-137532460D01*
X150218132Y-137492730D01*
X150196723Y-137475218D01*
X150149851Y-137432070D01*
X150114118Y-137391313D01*
X150087884Y-137346411D01*
X150069510Y-137290827D01*
X150057358Y-137218023D01*
X150049788Y-137121464D01*
X150045160Y-136994611D01*
X150042342Y-136859541D01*
X150034838Y-136441500D01*
X149869333Y-136441500D01*
X149869333Y-136229833D01*
X150038666Y-136229833D01*
X150038666Y-135891166D01*
X150419666Y-135891166D01*
X150419666Y-136229833D01*
G37*
X150419666Y-136229833D02*
X150673666Y-136229833D01*
X150673666Y-136441500D01*
X150419666Y-136441500D01*
X150419666Y-136812878D01*
X150419846Y-136946563D01*
X150420932Y-137044585D01*
X150423742Y-137113612D01*
X150429094Y-137160316D01*
X150437809Y-137191364D01*
X150450702Y-137213428D01*
X150468595Y-137233176D01*
X150471621Y-137236212D01*
X150541173Y-137279894D01*
X150598621Y-137288166D01*
X150673666Y-137288166D01*
X150673666Y-137584500D01*
X150551958Y-137582828D01*
X150481962Y-137580759D01*
X150428811Y-137577169D01*
X150409083Y-137574097D01*
X150373891Y-137564554D01*
X150330096Y-137554295D01*
X150278674Y-137532460D01*
X150218132Y-137492730D01*
X150196723Y-137475218D01*
X150149851Y-137432070D01*
X150114118Y-137391313D01*
X150087884Y-137346411D01*
X150069510Y-137290827D01*
X150057358Y-137218023D01*
X150049788Y-137121464D01*
X150045160Y-136994611D01*
X150042342Y-136859541D01*
X150034838Y-136441500D01*
X149869333Y-136441500D01*
X149869333Y-136229833D01*
X150038666Y-136229833D01*
X150038666Y-135891166D01*
X150419666Y-135891166D01*
X150419666Y-136229833D01*
G36*
X149386011Y-136178912D02*
G01*
X149440026Y-136201305D01*
X149515146Y-136259514D01*
X149573537Y-136346576D01*
X149608441Y-136450205D01*
X149615333Y-136520068D01*
X149615333Y-136610833D01*
X149477750Y-136610833D01*
X149402623Y-136609249D01*
X149360724Y-136602848D01*
X149343015Y-136589159D01*
X149340166Y-136573209D01*
X149328434Y-136528280D01*
X149305578Y-136486204D01*
X149281776Y-136458747D01*
X149251557Y-136445324D01*
X149202018Y-136442735D01*
X149143635Y-136446034D01*
X149066122Y-136454796D01*
X149015941Y-136470994D01*
X148978124Y-136500364D01*
X148965474Y-136514311D01*
X148933335Y-136562358D01*
X148920643Y-136603339D01*
X148921042Y-136607980D01*
X148946013Y-136641955D01*
X149002930Y-136678851D01*
X149082003Y-136714510D01*
X149173440Y-136744773D01*
X149267451Y-136765482D01*
X149302680Y-136770070D01*
X149440014Y-136796196D01*
X149556171Y-136842947D01*
X149642925Y-136906623D01*
X149665687Y-136933405D01*
X149696816Y-137005618D01*
X149709196Y-137101355D01*
X149702995Y-137206268D01*
X149678381Y-137306009D01*
X149660846Y-137346351D01*
X149588869Y-137441617D01*
X149486673Y-137513729D01*
X149360640Y-137560803D01*
X149217149Y-137580959D01*
X149062583Y-137572314D01*
X148964322Y-137551756D01*
X148889743Y-137527806D01*
X148824072Y-137500272D01*
X148799413Y-137486646D01*
X148738571Y-137428236D01*
X148685762Y-137345614D01*
X148650624Y-137256521D01*
X148641666Y-137196348D01*
X148641666Y-137118833D01*
X148773958Y-137118967D01*
X148847525Y-137120498D01*
X148891477Y-137128104D01*
X148918511Y-137146587D01*
X148941326Y-137180747D01*
X148942417Y-137182658D01*
X148985289Y-137235972D01*
X149046113Y-137269060D01*
X149133345Y-137285198D01*
X149214544Y-137288166D01*
X149295678Y-137284284D01*
X149348116Y-137270433D01*
X149382500Y-137245833D01*
X149418711Y-137186606D01*
X149419688Y-137125167D01*
X149385891Y-137073927D01*
X149375842Y-137066542D01*
X149324925Y-137042819D01*
X149245575Y-137016189D01*
X149151213Y-136990112D01*
X149055258Y-136968050D01*
X148971131Y-136953463D01*
X148921938Y-136949500D01*
X148829315Y-136934727D01*
X148745103Y-136895416D01*
X148683841Y-136839073D01*
X148672484Y-136820696D01*
X148652988Y-136755702D01*
X148643377Y-136666355D01*
X148643670Y-136569368D01*
X148653886Y-136481452D01*
X148672046Y-136422983D01*
X148746811Y-136322045D01*
X148851005Y-136241822D01*
X148975826Y-136184856D01*
X149112470Y-136153689D01*
X149252133Y-136150860D01*
X149386011Y-136178912D01*
G37*
X149386011Y-136178912D02*
X149440026Y-136201305D01*
X149515146Y-136259514D01*
X149573537Y-136346576D01*
X149608441Y-136450205D01*
X149615333Y-136520068D01*
X149615333Y-136610833D01*
X149477750Y-136610833D01*
X149402623Y-136609249D01*
X149360724Y-136602848D01*
X149343015Y-136589159D01*
X149340166Y-136573209D01*
X149328434Y-136528280D01*
X149305578Y-136486204D01*
X149281776Y-136458747D01*
X149251557Y-136445324D01*
X149202018Y-136442735D01*
X149143635Y-136446034D01*
X149066122Y-136454796D01*
X149015941Y-136470994D01*
X148978124Y-136500364D01*
X148965474Y-136514311D01*
X148933335Y-136562358D01*
X148920643Y-136603339D01*
X148921042Y-136607980D01*
X148946013Y-136641955D01*
X149002930Y-136678851D01*
X149082003Y-136714510D01*
X149173440Y-136744773D01*
X149267451Y-136765482D01*
X149302680Y-136770070D01*
X149440014Y-136796196D01*
X149556171Y-136842947D01*
X149642925Y-136906623D01*
X149665687Y-136933405D01*
X149696816Y-137005618D01*
X149709196Y-137101355D01*
X149702995Y-137206268D01*
X149678381Y-137306009D01*
X149660846Y-137346351D01*
X149588869Y-137441617D01*
X149486673Y-137513729D01*
X149360640Y-137560803D01*
X149217149Y-137580959D01*
X149062583Y-137572314D01*
X148964322Y-137551756D01*
X148889743Y-137527806D01*
X148824072Y-137500272D01*
X148799413Y-137486646D01*
X148738571Y-137428236D01*
X148685762Y-137345614D01*
X148650624Y-137256521D01*
X148641666Y-137196348D01*
X148641666Y-137118833D01*
X148773958Y-137118967D01*
X148847525Y-137120498D01*
X148891477Y-137128104D01*
X148918511Y-137146587D01*
X148941326Y-137180747D01*
X148942417Y-137182658D01*
X148985289Y-137235972D01*
X149046113Y-137269060D01*
X149133345Y-137285198D01*
X149214544Y-137288166D01*
X149295678Y-137284284D01*
X149348116Y-137270433D01*
X149382500Y-137245833D01*
X149418711Y-137186606D01*
X149419688Y-137125167D01*
X149385891Y-137073927D01*
X149375842Y-137066542D01*
X149324925Y-137042819D01*
X149245575Y-137016189D01*
X149151213Y-136990112D01*
X149055258Y-136968050D01*
X148971131Y-136953463D01*
X148921938Y-136949500D01*
X148829315Y-136934727D01*
X148745103Y-136895416D01*
X148683841Y-136839073D01*
X148672484Y-136820696D01*
X148652988Y-136755702D01*
X148643377Y-136666355D01*
X148643670Y-136569368D01*
X148653886Y-136481452D01*
X148672046Y-136422983D01*
X148746811Y-136322045D01*
X148851005Y-136241822D01*
X148975826Y-136184856D01*
X149112470Y-136153689D01*
X149252133Y-136150860D01*
X149386011Y-136178912D01*
G36*
X148303000Y-137584500D02*
G01*
X147922000Y-137584500D01*
X147922000Y-136229833D01*
X148303000Y-136229833D01*
X148303000Y-137584500D01*
G37*
X148303000Y-137584500D02*
X147922000Y-137584500D01*
X147922000Y-136229833D01*
X148303000Y-136229833D01*
X148303000Y-137584500D01*
G36*
X145911671Y-136626708D02*
G01*
X145912941Y-136797195D01*
X145916831Y-136930879D01*
X145924189Y-137033251D01*
X145935864Y-137109806D01*
X145952704Y-137166034D01*
X145975557Y-137207430D01*
X146005273Y-137239486D01*
X146006488Y-137240541D01*
X146081418Y-137279355D01*
X146175468Y-137290908D01*
X146276922Y-137276944D01*
X146374065Y-137239207D01*
X146455179Y-137179441D01*
X146461500Y-137172818D01*
X146479141Y-137152634D01*
X146492447Y-137131477D01*
X146502139Y-137103304D01*
X146508939Y-137062069D01*
X146513568Y-137001728D01*
X146516750Y-136916237D01*
X146519205Y-136799550D01*
X146521240Y-136672673D01*
X146528065Y-136229833D01*
X146800166Y-136229833D01*
X146800166Y-137584500D01*
X146525000Y-137584500D01*
X146525000Y-137358221D01*
X146440290Y-137438803D01*
X146327409Y-137519200D01*
X146197510Y-137566883D01*
X146061027Y-137579527D01*
X145928394Y-137554807D01*
X145925034Y-137553625D01*
X145818352Y-137496364D01*
X145732312Y-137406073D01*
X145692148Y-137341083D01*
X145677768Y-137311882D01*
X145666642Y-137280500D01*
X145658258Y-137241094D01*
X145652107Y-137187817D01*
X145647678Y-137114827D01*
X145644461Y-137016280D01*
X145641945Y-136886330D01*
X145639928Y-136743125D01*
X145633274Y-136229833D01*
X145911166Y-136229833D01*
X145911671Y-136626708D01*
G37*
X145911671Y-136626708D02*
X145912941Y-136797195D01*
X145916831Y-136930879D01*
X145924189Y-137033251D01*
X145935864Y-137109806D01*
X145952704Y-137166034D01*
X145975557Y-137207430D01*
X146005273Y-137239486D01*
X146006488Y-137240541D01*
X146081418Y-137279355D01*
X146175468Y-137290908D01*
X146276922Y-137276944D01*
X146374065Y-137239207D01*
X146455179Y-137179441D01*
X146461500Y-137172818D01*
X146479141Y-137152634D01*
X146492447Y-137131477D01*
X146502139Y-137103304D01*
X146508939Y-137062069D01*
X146513568Y-137001728D01*
X146516750Y-136916237D01*
X146519205Y-136799550D01*
X146521240Y-136672673D01*
X146528065Y-136229833D01*
X146800166Y-136229833D01*
X146800166Y-137584500D01*
X146525000Y-137584500D01*
X146525000Y-137358221D01*
X146440290Y-137438803D01*
X146327409Y-137519200D01*
X146197510Y-137566883D01*
X146061027Y-137579527D01*
X145928394Y-137554807D01*
X145925034Y-137553625D01*
X145818352Y-137496364D01*
X145732312Y-137406073D01*
X145692148Y-137341083D01*
X145677768Y-137311882D01*
X145666642Y-137280500D01*
X145658258Y-137241094D01*
X145652107Y-137187817D01*
X145647678Y-137114827D01*
X145644461Y-137016280D01*
X145641945Y-136886330D01*
X145639928Y-136743125D01*
X145633274Y-136229833D01*
X145911166Y-136229833D01*
X145911671Y-136626708D01*
G36*
X145043333Y-136229833D02*
G01*
X145297333Y-136229833D01*
X145297333Y-136441500D01*
X145043333Y-136441500D01*
X145043333Y-136831352D01*
X145044007Y-136957428D01*
X145045879Y-137070240D01*
X145048725Y-137162408D01*
X145052322Y-137226552D01*
X145056181Y-137254685D01*
X145077514Y-137275847D01*
X145126142Y-137286185D01*
X145183181Y-137288166D01*
X145297333Y-137288166D01*
X145297333Y-137584500D01*
X145165041Y-137582680D01*
X145084068Y-137578895D01*
X145011987Y-137570995D01*
X144974838Y-137563424D01*
X144862507Y-137511887D01*
X144769584Y-137434755D01*
X144719883Y-137365408D01*
X144703587Y-137331985D01*
X144691356Y-137296649D01*
X144682469Y-137252625D01*
X144676206Y-137193142D01*
X144671846Y-137111427D01*
X144668667Y-137000707D01*
X144666036Y-136859541D01*
X144659155Y-136441500D01*
X144493000Y-136441500D01*
X144493000Y-136229833D01*
X144662333Y-136229833D01*
X144662333Y-135891166D01*
X145043333Y-135891166D01*
X145043333Y-136229833D01*
G37*
X145043333Y-136229833D02*
X145297333Y-136229833D01*
X145297333Y-136441500D01*
X145043333Y-136441500D01*
X145043333Y-136831352D01*
X145044007Y-136957428D01*
X145045879Y-137070240D01*
X145048725Y-137162408D01*
X145052322Y-137226552D01*
X145056181Y-137254685D01*
X145077514Y-137275847D01*
X145126142Y-137286185D01*
X145183181Y-137288166D01*
X145297333Y-137288166D01*
X145297333Y-137584500D01*
X145165041Y-137582680D01*
X145084068Y-137578895D01*
X145011987Y-137570995D01*
X144974838Y-137563424D01*
X144862507Y-137511887D01*
X144769584Y-137434755D01*
X144719883Y-137365408D01*
X144703587Y-137331985D01*
X144691356Y-137296649D01*
X144682469Y-137252625D01*
X144676206Y-137193142D01*
X144671846Y-137111427D01*
X144668667Y-137000707D01*
X144666036Y-136859541D01*
X144659155Y-136441500D01*
X144493000Y-136441500D01*
X144493000Y-136229833D01*
X144662333Y-136229833D01*
X144662333Y-135891166D01*
X145043333Y-135891166D01*
X145043333Y-136229833D01*
G36*
X143455833Y-136747781D02*
G01*
X143975027Y-136229833D01*
X144149347Y-136229833D01*
X144229252Y-136231576D01*
X144289879Y-136236218D01*
X144321357Y-136242876D01*
X144323666Y-136245402D01*
X144309430Y-136264779D01*
X144269977Y-136308730D01*
X144210191Y-136372063D01*
X144134956Y-136449584D01*
X144067500Y-136517754D01*
X143811335Y-136774536D01*
X144067500Y-137157925D01*
X144142575Y-137271237D01*
X144208961Y-137373256D01*
X144263240Y-137458580D01*
X144301995Y-137521806D01*
X144321809Y-137557530D01*
X144323666Y-137562907D01*
X144303625Y-137573699D01*
X144247847Y-137581127D01*
X144162849Y-137584409D01*
X144143994Y-137584500D01*
X143964322Y-137584500D01*
X143715369Y-137252775D01*
X143466416Y-136921051D01*
X143460587Y-137252775D01*
X143454758Y-137584500D01*
X143159500Y-137584500D01*
X143159500Y-135616000D01*
X143455833Y-135616000D01*
X143455833Y-136747781D01*
G37*
X143455833Y-136747781D02*
X143975027Y-136229833D01*
X144149347Y-136229833D01*
X144229252Y-136231576D01*
X144289879Y-136236218D01*
X144321357Y-136242876D01*
X144323666Y-136245402D01*
X144309430Y-136264779D01*
X144269977Y-136308730D01*
X144210191Y-136372063D01*
X144134956Y-136449584D01*
X144067500Y-136517754D01*
X143811335Y-136774536D01*
X144067500Y-137157925D01*
X144142575Y-137271237D01*
X144208961Y-137373256D01*
X144263240Y-137458580D01*
X144301995Y-137521806D01*
X144321809Y-137557530D01*
X144323666Y-137562907D01*
X144303625Y-137573699D01*
X144247847Y-137581127D01*
X144162849Y-137584409D01*
X144143994Y-137584500D01*
X143964322Y-137584500D01*
X143715369Y-137252775D01*
X143466416Y-136921051D01*
X143460587Y-137252775D01*
X143454758Y-137584500D01*
X143159500Y-137584500D01*
X143159500Y-135616000D01*
X143455833Y-135616000D01*
X143455833Y-136747781D01*
G36*
X142375359Y-136168939D02*
G01*
X142514772Y-136209117D01*
X142626970Y-136278696D01*
X142713684Y-136379474D01*
X142776647Y-136513252D01*
X142817589Y-136681827D01*
X142832849Y-136806625D01*
X142846973Y-136970666D01*
X141868333Y-136970666D01*
X141868412Y-137018291D01*
X141885433Y-137086453D01*
X141929634Y-137160017D01*
X141991020Y-137224130D01*
X142021598Y-137245947D01*
X142076004Y-137270763D01*
X142144956Y-137283977D01*
X142241779Y-137288077D01*
X142247319Y-137288087D01*
X142328386Y-137287224D01*
X142380844Y-137281249D01*
X142418415Y-137265232D01*
X142454824Y-137234245D01*
X142485514Y-137202534D01*
X142531225Y-137156482D01*
X142567510Y-137131410D01*
X142609778Y-137121723D01*
X142673439Y-137121824D01*
X142704115Y-137123159D01*
X142841257Y-137129416D01*
X142791919Y-137235250D01*
X142733999Y-137329775D01*
X142655186Y-137418825D01*
X142566914Y-137491588D01*
X142480614Y-137537252D01*
X142468507Y-137541107D01*
X142362196Y-137562578D01*
X142240626Y-137573623D01*
X142123319Y-137573224D01*
X142042376Y-137563304D01*
X141929540Y-137526331D01*
X141814467Y-137466777D01*
X141714664Y-137394580D01*
X141673224Y-137353766D01*
X141581289Y-137219981D01*
X141522062Y-137070441D01*
X141495185Y-136912462D01*
X141500300Y-136753359D01*
X141510390Y-136711375D01*
X141868412Y-136711375D01*
X141869543Y-136729405D01*
X141877143Y-136742191D01*
X141897419Y-136750634D01*
X141936577Y-136755635D01*
X142000822Y-136758096D01*
X142096362Y-136758917D01*
X142196416Y-136759000D01*
X142336622Y-136757759D01*
X142436557Y-136753943D01*
X142498214Y-136747407D01*
X142523587Y-136738008D01*
X142524500Y-136735406D01*
X142511494Y-136689395D01*
X142478499Y-136626404D01*
X142434546Y-136560273D01*
X142388667Y-136504840D01*
X142355895Y-136477047D01*
X142273716Y-136448578D01*
X142174841Y-136442722D01*
X142078120Y-136459104D01*
X142021598Y-136483718D01*
X141955738Y-136538729D01*
X141902565Y-136609877D01*
X141872072Y-136682309D01*
X141868412Y-136711375D01*
X141510390Y-136711375D01*
X141537052Y-136600446D01*
X141605080Y-136461039D01*
X141704030Y-136342453D01*
X141723491Y-136325236D01*
X141856758Y-136234464D01*
X142002826Y-136179348D01*
X142169647Y-136157111D01*
X142207000Y-136156361D01*
X142375359Y-136168939D01*
G37*
X142375359Y-136168939D02*
X142514772Y-136209117D01*
X142626970Y-136278696D01*
X142713684Y-136379474D01*
X142776647Y-136513252D01*
X142817589Y-136681827D01*
X142832849Y-136806625D01*
X142846973Y-136970666D01*
X141868333Y-136970666D01*
X141868412Y-137018291D01*
X141885433Y-137086453D01*
X141929634Y-137160017D01*
X141991020Y-137224130D01*
X142021598Y-137245947D01*
X142076004Y-137270763D01*
X142144956Y-137283977D01*
X142241779Y-137288077D01*
X142247319Y-137288087D01*
X142328386Y-137287224D01*
X142380844Y-137281249D01*
X142418415Y-137265232D01*
X142454824Y-137234245D01*
X142485514Y-137202534D01*
X142531225Y-137156482D01*
X142567510Y-137131410D01*
X142609778Y-137121723D01*
X142673439Y-137121824D01*
X142704115Y-137123159D01*
X142841257Y-137129416D01*
X142791919Y-137235250D01*
X142733999Y-137329775D01*
X142655186Y-137418825D01*
X142566914Y-137491588D01*
X142480614Y-137537252D01*
X142468507Y-137541107D01*
X142362196Y-137562578D01*
X142240626Y-137573623D01*
X142123319Y-137573224D01*
X142042376Y-137563304D01*
X141929540Y-137526331D01*
X141814467Y-137466777D01*
X141714664Y-137394580D01*
X141673224Y-137353766D01*
X141581289Y-137219981D01*
X141522062Y-137070441D01*
X141495185Y-136912462D01*
X141500300Y-136753359D01*
X141510390Y-136711375D01*
X141868412Y-136711375D01*
X141869543Y-136729405D01*
X141877143Y-136742191D01*
X141897419Y-136750634D01*
X141936577Y-136755635D01*
X142000822Y-136758096D01*
X142096362Y-136758917D01*
X142196416Y-136759000D01*
X142336622Y-136757759D01*
X142436557Y-136753943D01*
X142498214Y-136747407D01*
X142523587Y-136738008D01*
X142524500Y-136735406D01*
X142511494Y-136689395D01*
X142478499Y-136626404D01*
X142434546Y-136560273D01*
X142388667Y-136504840D01*
X142355895Y-136477047D01*
X142273716Y-136448578D01*
X142174841Y-136442722D01*
X142078120Y-136459104D01*
X142021598Y-136483718D01*
X141955738Y-136538729D01*
X141902565Y-136609877D01*
X141872072Y-136682309D01*
X141868412Y-136711375D01*
X141510390Y-136711375D01*
X141537052Y-136600446D01*
X141605080Y-136461039D01*
X141704030Y-136342453D01*
X141723491Y-136325236D01*
X141856758Y-136234464D01*
X142002826Y-136179348D01*
X142169647Y-136157111D01*
X142207000Y-136156361D01*
X142375359Y-136168939D01*
G36*
X140025216Y-136179341D02*
G01*
X140179473Y-136242610D01*
X140314059Y-136338640D01*
X140423561Y-136464849D01*
X140466328Y-136536750D01*
X140510359Y-136658387D01*
X140532097Y-136800844D01*
X140530822Y-136948514D01*
X140505812Y-137085793D01*
X140493392Y-137123101D01*
X140417422Y-137267380D01*
X140310407Y-137387963D01*
X140178226Y-137481864D01*
X140026757Y-137546096D01*
X139861876Y-137577672D01*
X139689463Y-137573605D01*
X139627575Y-137563030D01*
X139507054Y-137522602D01*
X139388364Y-137456835D01*
X139287699Y-137375606D01*
X139249140Y-137332220D01*
X139179373Y-137216427D01*
X139136763Y-137082680D01*
X139119622Y-136924161D01*
X139120293Y-136864833D01*
X139489238Y-136864833D01*
X139494760Y-136987104D01*
X139512957Y-137078636D01*
X139547370Y-137150027D01*
X139601538Y-137211874D01*
X139606780Y-137216680D01*
X139653174Y-137253796D01*
X139699017Y-137274620D01*
X139759658Y-137283997D01*
X139827911Y-137286495D01*
X139920843Y-137278631D01*
X139995296Y-137248222D01*
X140007828Y-137240262D01*
X140083915Y-137169491D01*
X140132853Y-137074360D01*
X140156621Y-136950163D01*
X140159668Y-136879262D01*
X140150192Y-136727667D01*
X140118591Y-136610854D01*
X140063350Y-136526628D01*
X139982952Y-136472792D01*
X139875881Y-136447150D01*
X139860357Y-136445804D01*
X139739001Y-136449331D01*
X139645035Y-136481627D01*
X139572397Y-136545521D01*
X139539020Y-136595725D01*
X139512928Y-136649376D01*
X139497662Y-136704733D01*
X139490641Y-136775747D01*
X139489238Y-136864833D01*
X139120293Y-136864833D01*
X139120867Y-136814150D01*
X139144193Y-136631117D01*
X139196259Y-136478915D01*
X139277994Y-136356456D01*
X139390331Y-136262653D01*
X139534198Y-136196418D01*
X139679346Y-136161414D01*
X139856703Y-136151415D01*
X140025216Y-136179341D01*
G37*
X140025216Y-136179341D02*
X140179473Y-136242610D01*
X140314059Y-136338640D01*
X140423561Y-136464849D01*
X140466328Y-136536750D01*
X140510359Y-136658387D01*
X140532097Y-136800844D01*
X140530822Y-136948514D01*
X140505812Y-137085793D01*
X140493392Y-137123101D01*
X140417422Y-137267380D01*
X140310407Y-137387963D01*
X140178226Y-137481864D01*
X140026757Y-137546096D01*
X139861876Y-137577672D01*
X139689463Y-137573605D01*
X139627575Y-137563030D01*
X139507054Y-137522602D01*
X139388364Y-137456835D01*
X139287699Y-137375606D01*
X139249140Y-137332220D01*
X139179373Y-137216427D01*
X139136763Y-137082680D01*
X139119622Y-136924161D01*
X139120293Y-136864833D01*
X139489238Y-136864833D01*
X139494760Y-136987104D01*
X139512957Y-137078636D01*
X139547370Y-137150027D01*
X139601538Y-137211874D01*
X139606780Y-137216680D01*
X139653174Y-137253796D01*
X139699017Y-137274620D01*
X139759658Y-137283997D01*
X139827911Y-137286495D01*
X139920843Y-137278631D01*
X139995296Y-137248222D01*
X140007828Y-137240262D01*
X140083915Y-137169491D01*
X140132853Y-137074360D01*
X140156621Y-136950163D01*
X140159668Y-136879262D01*
X140150192Y-136727667D01*
X140118591Y-136610854D01*
X140063350Y-136526628D01*
X139982952Y-136472792D01*
X139875881Y-136447150D01*
X139860357Y-136445804D01*
X139739001Y-136449331D01*
X139645035Y-136481627D01*
X139572397Y-136545521D01*
X139539020Y-136595725D01*
X139512928Y-136649376D01*
X139497662Y-136704733D01*
X139490641Y-136775747D01*
X139489238Y-136864833D01*
X139120293Y-136864833D01*
X139120867Y-136814150D01*
X139144193Y-136631117D01*
X139196259Y-136478915D01*
X139277994Y-136356456D01*
X139390331Y-136262653D01*
X139534198Y-136196418D01*
X139679346Y-136161414D01*
X139856703Y-136151415D01*
X140025216Y-136179341D01*
G36*
X138921645Y-136147195D02*
G01*
X138936100Y-136158746D01*
X138943770Y-136188019D01*
X138946799Y-136243211D01*
X138947333Y-136332522D01*
X138947333Y-136520287D01*
X138825625Y-136531564D01*
X138735671Y-136542084D01*
X138665047Y-136558245D01*
X138611292Y-136584863D01*
X138571947Y-136626754D01*
X138544552Y-136688738D01*
X138526645Y-136775630D01*
X138515767Y-136892247D01*
X138509457Y-137043408D01*
X138506775Y-137155875D01*
X138497963Y-137584500D01*
X138143000Y-137584500D01*
X138143000Y-136229833D01*
X138502833Y-136229833D01*
X138502833Y-136384351D01*
X138565745Y-136297503D01*
X138620107Y-136235930D01*
X138684188Y-136197060D01*
X138738920Y-136177911D01*
X138811089Y-136159132D01*
X138873787Y-136147287D01*
X138898258Y-136145166D01*
X138921645Y-136147195D01*
G37*
X138921645Y-136147195D02*
X138936100Y-136158746D01*
X138943770Y-136188019D01*
X138946799Y-136243211D01*
X138947333Y-136332522D01*
X138947333Y-136520287D01*
X138825625Y-136531564D01*
X138735671Y-136542084D01*
X138665047Y-136558245D01*
X138611292Y-136584863D01*
X138571947Y-136626754D01*
X138544552Y-136688738D01*
X138526645Y-136775630D01*
X138515767Y-136892247D01*
X138509457Y-137043408D01*
X138506775Y-137155875D01*
X138497963Y-137584500D01*
X138143000Y-137584500D01*
X138143000Y-136229833D01*
X138502833Y-136229833D01*
X138502833Y-136384351D01*
X138565745Y-136297503D01*
X138620107Y-136235930D01*
X138684188Y-136197060D01*
X138738920Y-136177911D01*
X138811089Y-136159132D01*
X138873787Y-136147287D01*
X138898258Y-136145166D01*
X138921645Y-136147195D01*
G36*
X136962958Y-135705672D02*
G01*
X137129346Y-135710693D01*
X137260331Y-135718009D01*
X137362830Y-135729028D01*
X137443765Y-135745160D01*
X137510055Y-135767814D01*
X137568619Y-135798400D01*
X137626378Y-135838327D01*
X137630811Y-135841692D01*
X137684142Y-135896466D01*
X137735633Y-135972360D01*
X137756413Y-136012551D01*
X137782057Y-136073693D01*
X137796900Y-136128033D01*
X137802948Y-136189745D01*
X137802209Y-136273004D01*
X137800176Y-136321731D01*
X137790328Y-136444693D01*
X137771277Y-136537164D01*
X137738897Y-136610685D01*
X137689061Y-136676792D01*
X137663701Y-136703359D01*
X137597392Y-136762424D01*
X137529323Y-136804516D01*
X137450098Y-136832664D01*
X137350323Y-136849895D01*
X137220603Y-136859235D01*
X137174625Y-136860945D01*
X136915333Y-136869186D01*
X136915333Y-137584500D01*
X136555500Y-137584500D01*
X136555500Y-135997000D01*
X136915333Y-135997000D01*
X136915333Y-136589666D01*
X137090765Y-136589666D01*
X137192654Y-136586836D01*
X137267468Y-136576584D01*
X137330193Y-136556264D01*
X137360640Y-136542041D01*
X137452307Y-136476610D01*
X137506305Y-136391975D01*
X137522394Y-136288568D01*
X137519576Y-136252197D01*
X137492730Y-136154885D01*
X137438275Y-136082328D01*
X137353532Y-136032913D01*
X137235822Y-136005027D01*
X137095929Y-135997000D01*
X136915333Y-135997000D01*
X136555500Y-135997000D01*
X136555500Y-135696176D01*
X136962958Y-135705672D01*
G37*
X136962958Y-135705672D02*
X137129346Y-135710693D01*
X137260331Y-135718009D01*
X137362830Y-135729028D01*
X137443765Y-135745160D01*
X137510055Y-135767814D01*
X137568619Y-135798400D01*
X137626378Y-135838327D01*
X137630811Y-135841692D01*
X137684142Y-135896466D01*
X137735633Y-135972360D01*
X137756413Y-136012551D01*
X137782057Y-136073693D01*
X137796900Y-136128033D01*
X137802948Y-136189745D01*
X137802209Y-136273004D01*
X137800176Y-136321731D01*
X137790328Y-136444693D01*
X137771277Y-136537164D01*
X137738897Y-136610685D01*
X137689061Y-136676792D01*
X137663701Y-136703359D01*
X137597392Y-136762424D01*
X137529323Y-136804516D01*
X137450098Y-136832664D01*
X137350323Y-136849895D01*
X137220603Y-136859235D01*
X137174625Y-136860945D01*
X136915333Y-136869186D01*
X136915333Y-137584500D01*
X136555500Y-137584500D01*
X136555500Y-135997000D01*
X136915333Y-135997000D01*
X136915333Y-136589666D01*
X137090765Y-136589666D01*
X137192654Y-136586836D01*
X137267468Y-136576584D01*
X137330193Y-136556264D01*
X137360640Y-136542041D01*
X137452307Y-136476610D01*
X137506305Y-136391975D01*
X137522394Y-136288568D01*
X137519576Y-136252197D01*
X137492730Y-136154885D01*
X137438275Y-136082328D01*
X137353532Y-136032913D01*
X137235822Y-136005027D01*
X137095929Y-135997000D01*
X136915333Y-135997000D01*
X136555500Y-135997000D01*
X136555500Y-135696176D01*
X136962958Y-135705672D01*
G36*
X141148666Y-136985150D02*
G01*
X141148578Y-137184399D01*
X141148148Y-137345937D01*
X141147128Y-137474388D01*
X141145272Y-137574374D01*
X141142332Y-137650519D01*
X141138059Y-137707444D01*
X141132208Y-137749774D01*
X141124530Y-137782130D01*
X141114777Y-137809136D01*
X141103197Y-137834394D01*
X141047340Y-137913151D01*
X140964414Y-137969434D01*
X140849209Y-138006308D01*
X140794125Y-138016131D01*
X140704166Y-138029500D01*
X140704166Y-137881083D01*
X140704975Y-137803575D01*
X140709542Y-137759186D01*
X140721076Y-137738707D01*
X140742786Y-137732926D01*
X140755883Y-137732666D01*
X140786059Y-137731093D01*
X140810584Y-137723726D01*
X140830043Y-137706599D01*
X140845019Y-137675742D01*
X140856098Y-137627186D01*
X140863865Y-137556963D01*
X140868903Y-137461106D01*
X140871797Y-137335644D01*
X140873132Y-137176609D01*
X140873493Y-136980034D01*
X140873500Y-136934206D01*
X140873500Y-136229833D01*
X141148666Y-136229833D01*
X141148666Y-136985150D01*
G37*
X141148666Y-136985150D02*
X141148578Y-137184399D01*
X141148148Y-137345937D01*
X141147128Y-137474388D01*
X141145272Y-137574374D01*
X141142332Y-137650519D01*
X141138059Y-137707444D01*
X141132208Y-137749774D01*
X141124530Y-137782130D01*
X141114777Y-137809136D01*
X141103197Y-137834394D01*
X141047340Y-137913151D01*
X140964414Y-137969434D01*
X140849209Y-138006308D01*
X140794125Y-138016131D01*
X140704166Y-138029500D01*
X140704166Y-137881083D01*
X140704975Y-137803575D01*
X140709542Y-137759186D01*
X140721076Y-137738707D01*
X140742786Y-137732926D01*
X140755883Y-137732666D01*
X140786059Y-137731093D01*
X140810584Y-137723726D01*
X140830043Y-137706599D01*
X140845019Y-137675742D01*
X140856098Y-137627186D01*
X140863865Y-137556963D01*
X140868903Y-137461106D01*
X140871797Y-137335644D01*
X140873132Y-137176609D01*
X140873493Y-136980034D01*
X140873500Y-136934206D01*
X140873500Y-136229833D01*
X141148666Y-136229833D01*
X141148666Y-136985150D01*
G36*
X160394487Y-138539208D02*
G01*
X160551461Y-138552811D01*
X160635421Y-138568244D01*
X160851359Y-138638901D01*
X161043393Y-138741985D01*
X161208728Y-138874736D01*
X161344564Y-139034393D01*
X161448103Y-139218193D01*
X161516548Y-139423376D01*
X161520692Y-139441875D01*
X161535530Y-139510666D01*
X160984936Y-139510666D01*
X160929322Y-139388958D01*
X160842497Y-139243655D01*
X160729889Y-139131838D01*
X160590982Y-139053120D01*
X160425260Y-139007115D01*
X160417993Y-139005938D01*
X160232129Y-138995941D01*
X160058669Y-139024566D01*
X159900325Y-139089226D01*
X159759808Y-139187333D01*
X159639830Y-139316300D01*
X159543102Y-139473541D01*
X159472335Y-139656469D01*
X159430242Y-139862495D01*
X159421694Y-139956510D01*
X159422231Y-140190682D01*
X159452865Y-140395779D01*
X159513236Y-140571367D01*
X159602985Y-140717016D01*
X159721751Y-140832295D01*
X159869176Y-140916772D01*
X160044900Y-140970016D01*
X160248564Y-140991594D01*
X160284783Y-140992082D01*
X160476573Y-140978101D01*
X160638772Y-140934575D01*
X160773508Y-140859990D01*
X160882911Y-140752833D01*
X160969113Y-140611590D01*
X161024925Y-140466228D01*
X161046004Y-140396862D01*
X161060963Y-140345418D01*
X161066500Y-140323353D01*
X161046496Y-140320573D01*
X160991136Y-140318185D01*
X160907395Y-140316355D01*
X160802251Y-140315251D01*
X160717250Y-140315000D01*
X160368000Y-140315000D01*
X160368000Y-139934000D01*
X161538087Y-139934000D01*
X161526238Y-140225041D01*
X161510382Y-140443353D01*
X161480520Y-140627816D01*
X161434202Y-140785310D01*
X161368978Y-140922712D01*
X161282397Y-141046900D01*
X161201766Y-141135713D01*
X161069636Y-141249213D01*
X160923675Y-141334881D01*
X160751608Y-141399682D01*
X160720664Y-141408626D01*
X160628598Y-141426619D01*
X160507231Y-141439574D01*
X160369331Y-141447175D01*
X160227668Y-141449107D01*
X160095010Y-141445050D01*
X159984124Y-141434690D01*
X159944666Y-141427873D01*
X159730582Y-141365163D01*
X159530955Y-141272303D01*
X159353329Y-141153763D01*
X159205244Y-141014014D01*
X159165923Y-140966317D01*
X159042194Y-140772268D01*
X158950016Y-140554663D01*
X158890792Y-140319668D01*
X158865929Y-140073450D01*
X158876831Y-139822174D01*
X158887584Y-139744883D01*
X158946324Y-139503347D01*
X159039475Y-139281446D01*
X159164268Y-139082320D01*
X159317935Y-138909112D01*
X159497708Y-138764963D01*
X159700818Y-138653013D01*
X159915234Y-138578740D01*
X160059523Y-138552418D01*
X160224891Y-138539159D01*
X160394487Y-138539208D01*
G37*
X160394487Y-138539208D02*
X160551461Y-138552811D01*
X160635421Y-138568244D01*
X160851359Y-138638901D01*
X161043393Y-138741985D01*
X161208728Y-138874736D01*
X161344564Y-139034393D01*
X161448103Y-139218193D01*
X161516548Y-139423376D01*
X161520692Y-139441875D01*
X161535530Y-139510666D01*
X160984936Y-139510666D01*
X160929322Y-139388958D01*
X160842497Y-139243655D01*
X160729889Y-139131838D01*
X160590982Y-139053120D01*
X160425260Y-139007115D01*
X160417993Y-139005938D01*
X160232129Y-138995941D01*
X160058669Y-139024566D01*
X159900325Y-139089226D01*
X159759808Y-139187333D01*
X159639830Y-139316300D01*
X159543102Y-139473541D01*
X159472335Y-139656469D01*
X159430242Y-139862495D01*
X159421694Y-139956510D01*
X159422231Y-140190682D01*
X159452865Y-140395779D01*
X159513236Y-140571367D01*
X159602985Y-140717016D01*
X159721751Y-140832295D01*
X159869176Y-140916772D01*
X160044900Y-140970016D01*
X160248564Y-140991594D01*
X160284783Y-140992082D01*
X160476573Y-140978101D01*
X160638772Y-140934575D01*
X160773508Y-140859990D01*
X160882911Y-140752833D01*
X160969113Y-140611590D01*
X161024925Y-140466228D01*
X161046004Y-140396862D01*
X161060963Y-140345418D01*
X161066500Y-140323353D01*
X161046496Y-140320573D01*
X160991136Y-140318185D01*
X160907395Y-140316355D01*
X160802251Y-140315251D01*
X160717250Y-140315000D01*
X160368000Y-140315000D01*
X160368000Y-139934000D01*
X161538087Y-139934000D01*
X161526238Y-140225041D01*
X161510382Y-140443353D01*
X161480520Y-140627816D01*
X161434202Y-140785310D01*
X161368978Y-140922712D01*
X161282397Y-141046900D01*
X161201766Y-141135713D01*
X161069636Y-141249213D01*
X160923675Y-141334881D01*
X160751608Y-141399682D01*
X160720664Y-141408626D01*
X160628598Y-141426619D01*
X160507231Y-141439574D01*
X160369331Y-141447175D01*
X160227668Y-141449107D01*
X160095010Y-141445050D01*
X159984124Y-141434690D01*
X159944666Y-141427873D01*
X159730582Y-141365163D01*
X159530955Y-141272303D01*
X159353329Y-141153763D01*
X159205244Y-141014014D01*
X159165923Y-140966317D01*
X159042194Y-140772268D01*
X158950016Y-140554663D01*
X158890792Y-140319668D01*
X158865929Y-140073450D01*
X158876831Y-139822174D01*
X158887584Y-139744883D01*
X158946324Y-139503347D01*
X159039475Y-139281446D01*
X159164268Y-139082320D01*
X159317935Y-138909112D01*
X159497708Y-138764963D01*
X159700818Y-138653013D01*
X159915234Y-138578740D01*
X160059523Y-138552418D01*
X160224891Y-138539159D01*
X160394487Y-138539208D01*
G36*
X156944291Y-138622034D02*
G01*
X157148872Y-138623095D01*
X157317181Y-138626466D01*
X157455248Y-138632872D01*
X157569106Y-138643038D01*
X157664785Y-138657690D01*
X157748318Y-138677554D01*
X157825734Y-138703354D01*
X157903065Y-138735818D01*
X157907690Y-138737927D01*
X158057719Y-138822274D01*
X158172889Y-138923764D01*
X158258993Y-139047715D01*
X158271455Y-139072011D01*
X158330038Y-139237858D01*
X158352338Y-139415749D01*
X158338484Y-139596133D01*
X158288604Y-139769459D01*
X158261289Y-139829403D01*
X158198465Y-139923628D01*
X158109828Y-140018554D01*
X158008301Y-140102595D01*
X157906803Y-140164164D01*
X157871355Y-140179104D01*
X157811934Y-140203097D01*
X157773138Y-140223798D01*
X157764500Y-140232970D01*
X157775568Y-140253861D01*
X157806967Y-140305952D01*
X157855985Y-140384925D01*
X157919912Y-140486467D01*
X157996037Y-140606262D01*
X158081649Y-140739995D01*
X158137486Y-140826747D01*
X158228078Y-140967529D01*
X158311358Y-141097549D01*
X158384520Y-141212379D01*
X158444758Y-141307592D01*
X158489267Y-141378762D01*
X158515242Y-141421461D01*
X158520751Y-141431541D01*
X158515322Y-141442827D01*
X158485487Y-141450612D01*
X158426305Y-141455388D01*
X158332839Y-141457647D01*
X158255183Y-141458000D01*
X157979337Y-141458000D01*
X157189829Y-140315000D01*
X156939000Y-140315000D01*
X156939000Y-141458000D01*
X156388666Y-141458000D01*
X156388666Y-139938153D01*
X156939000Y-139938153D01*
X157219458Y-139930167D01*
X157339847Y-139925817D01*
X157427175Y-139919819D01*
X157490711Y-139910785D01*
X157539725Y-139897328D01*
X157583489Y-139878061D01*
X157589851Y-139874755D01*
X157691112Y-139799204D01*
X157760048Y-139696364D01*
X157796699Y-139566166D01*
X157800996Y-139527187D01*
X157799757Y-139377525D01*
X157769037Y-139255233D01*
X157707587Y-139156137D01*
X157681829Y-139129214D01*
X157623191Y-139080805D01*
X157558490Y-139045173D01*
X157479428Y-139019945D01*
X157377707Y-139002749D01*
X157245028Y-138991214D01*
X157187708Y-138987970D01*
X156939000Y-138975271D01*
X156939000Y-139938153D01*
X156388666Y-139938153D01*
X156388666Y-138621666D01*
X156944291Y-138622034D01*
G37*
X156944291Y-138622034D02*
X157148872Y-138623095D01*
X157317181Y-138626466D01*
X157455248Y-138632872D01*
X157569106Y-138643038D01*
X157664785Y-138657690D01*
X157748318Y-138677554D01*
X157825734Y-138703354D01*
X157903065Y-138735818D01*
X157907690Y-138737927D01*
X158057719Y-138822274D01*
X158172889Y-138923764D01*
X158258993Y-139047715D01*
X158271455Y-139072011D01*
X158330038Y-139237858D01*
X158352338Y-139415749D01*
X158338484Y-139596133D01*
X158288604Y-139769459D01*
X158261289Y-139829403D01*
X158198465Y-139923628D01*
X158109828Y-140018554D01*
X158008301Y-140102595D01*
X157906803Y-140164164D01*
X157871355Y-140179104D01*
X157811934Y-140203097D01*
X157773138Y-140223798D01*
X157764500Y-140232970D01*
X157775568Y-140253861D01*
X157806967Y-140305952D01*
X157855985Y-140384925D01*
X157919912Y-140486467D01*
X157996037Y-140606262D01*
X158081649Y-140739995D01*
X158137486Y-140826747D01*
X158228078Y-140967529D01*
X158311358Y-141097549D01*
X158384520Y-141212379D01*
X158444758Y-141307592D01*
X158489267Y-141378762D01*
X158515242Y-141421461D01*
X158520751Y-141431541D01*
X158515322Y-141442827D01*
X158485487Y-141450612D01*
X158426305Y-141455388D01*
X158332839Y-141457647D01*
X158255183Y-141458000D01*
X157979337Y-141458000D01*
X157189829Y-140315000D01*
X156939000Y-140315000D01*
X156939000Y-141458000D01*
X156388666Y-141458000D01*
X156388666Y-139938153D01*
X156939000Y-139938153D01*
X157219458Y-139930167D01*
X157339847Y-139925817D01*
X157427175Y-139919819D01*
X157490711Y-139910785D01*
X157539725Y-139897328D01*
X157583489Y-139878061D01*
X157589851Y-139874755D01*
X157691112Y-139799204D01*
X157760048Y-139696364D01*
X157796699Y-139566166D01*
X157800996Y-139527187D01*
X157799757Y-139377525D01*
X157769037Y-139255233D01*
X157707587Y-139156137D01*
X157681829Y-139129214D01*
X157623191Y-139080805D01*
X157558490Y-139045173D01*
X157479428Y-139019945D01*
X157377707Y-139002749D01*
X157245028Y-138991214D01*
X157187708Y-138987970D01*
X156939000Y-138975271D01*
X156939000Y-139938153D01*
X156388666Y-139938153D01*
X156388666Y-138621666D01*
X156944291Y-138622034D01*
G36*
X154615168Y-138553548D02*
G01*
X154838574Y-138604146D01*
X155043688Y-138690908D01*
X155234825Y-138815579D01*
X155385602Y-138948757D01*
X155537507Y-139123844D01*
X155652974Y-139313002D01*
X155733206Y-139519593D01*
X155779406Y-139746977D01*
X155792775Y-139998516D01*
X155790486Y-140080929D01*
X155761442Y-140337957D01*
X155698187Y-140570310D01*
X155600188Y-140778963D01*
X155466913Y-140964891D01*
X155297830Y-141129066D01*
X155163762Y-141227699D01*
X154991188Y-141325783D01*
X154812775Y-141393300D01*
X154617949Y-141433391D01*
X154420166Y-141448612D01*
X154311123Y-141449914D01*
X154206835Y-141447863D01*
X154120909Y-141442902D01*
X154076360Y-141437474D01*
X153901140Y-141392340D01*
X153725726Y-141323118D01*
X153561048Y-141235531D01*
X153418031Y-141135302D01*
X153318001Y-141040309D01*
X153178838Y-140856114D01*
X153076007Y-140659817D01*
X153007362Y-140445843D01*
X152970754Y-140208615D01*
X152965348Y-140124500D01*
X152966308Y-140030094D01*
X153510367Y-140030094D01*
X153525925Y-140253211D01*
X153573420Y-140448832D01*
X153652722Y-140616753D01*
X153763698Y-140756771D01*
X153906218Y-140868681D01*
X154080150Y-140952281D01*
X154113250Y-140963801D01*
X154190439Y-140979028D01*
X154301596Y-140986217D01*
X154409583Y-140985801D01*
X154517676Y-140980914D01*
X154598086Y-140971564D01*
X154665429Y-140954950D01*
X154734324Y-140928266D01*
X154752956Y-140919942D01*
X154877274Y-140845460D01*
X154995602Y-140742309D01*
X155094413Y-140623473D01*
X155139070Y-140549327D01*
X155199260Y-140390680D01*
X155233270Y-140209104D01*
X155241355Y-140014740D01*
X155223769Y-139817728D01*
X155180765Y-139628206D01*
X155112597Y-139456313D01*
X155111673Y-139454487D01*
X155008913Y-139295394D01*
X154880184Y-139168704D01*
X154728491Y-139075956D01*
X154556839Y-139018687D01*
X154368233Y-138998437D01*
X154235899Y-139006101D01*
X154056146Y-139046619D01*
X153900339Y-139121387D01*
X153769364Y-139229154D01*
X153664108Y-139368667D01*
X153585460Y-139538673D01*
X153534305Y-139737919D01*
X153511533Y-139965155D01*
X153510367Y-140030094D01*
X152966308Y-140030094D01*
X152968160Y-139848154D01*
X153002951Y-139598062D01*
X153070529Y-139371830D01*
X153171705Y-139167065D01*
X153307289Y-138981373D01*
X153378006Y-138905144D01*
X153548157Y-138763358D01*
X153742985Y-138655935D01*
X153962519Y-138582864D01*
X154206785Y-138544135D01*
X154369155Y-138537367D01*
X154615168Y-138553548D01*
G37*
X154615168Y-138553548D02*
X154838574Y-138604146D01*
X155043688Y-138690908D01*
X155234825Y-138815579D01*
X155385602Y-138948757D01*
X155537507Y-139123844D01*
X155652974Y-139313002D01*
X155733206Y-139519593D01*
X155779406Y-139746977D01*
X155792775Y-139998516D01*
X155790486Y-140080929D01*
X155761442Y-140337957D01*
X155698187Y-140570310D01*
X155600188Y-140778963D01*
X155466913Y-140964891D01*
X155297830Y-141129066D01*
X155163762Y-141227699D01*
X154991188Y-141325783D01*
X154812775Y-141393300D01*
X154617949Y-141433391D01*
X154420166Y-141448612D01*
X154311123Y-141449914D01*
X154206835Y-141447863D01*
X154120909Y-141442902D01*
X154076360Y-141437474D01*
X153901140Y-141392340D01*
X153725726Y-141323118D01*
X153561048Y-141235531D01*
X153418031Y-141135302D01*
X153318001Y-141040309D01*
X153178838Y-140856114D01*
X153076007Y-140659817D01*
X153007362Y-140445843D01*
X152970754Y-140208615D01*
X152965348Y-140124500D01*
X152966308Y-140030094D01*
X153510367Y-140030094D01*
X153525925Y-140253211D01*
X153573420Y-140448832D01*
X153652722Y-140616753D01*
X153763698Y-140756771D01*
X153906218Y-140868681D01*
X154080150Y-140952281D01*
X154113250Y-140963801D01*
X154190439Y-140979028D01*
X154301596Y-140986217D01*
X154409583Y-140985801D01*
X154517676Y-140980914D01*
X154598086Y-140971564D01*
X154665429Y-140954950D01*
X154734324Y-140928266D01*
X154752956Y-140919942D01*
X154877274Y-140845460D01*
X154995602Y-140742309D01*
X155094413Y-140623473D01*
X155139070Y-140549327D01*
X155199260Y-140390680D01*
X155233270Y-140209104D01*
X155241355Y-140014740D01*
X155223769Y-139817728D01*
X155180765Y-139628206D01*
X155112597Y-139456313D01*
X155111673Y-139454487D01*
X155008913Y-139295394D01*
X154880184Y-139168704D01*
X154728491Y-139075956D01*
X154556839Y-139018687D01*
X154368233Y-138998437D01*
X154235899Y-139006101D01*
X154056146Y-139046619D01*
X153900339Y-139121387D01*
X153769364Y-139229154D01*
X153664108Y-139368667D01*
X153585460Y-139538673D01*
X153534305Y-139737919D01*
X153511533Y-139965155D01*
X153510367Y-140030094D01*
X152966308Y-140030094D01*
X152968160Y-139848154D01*
X153002951Y-139598062D01*
X153070529Y-139371830D01*
X153171705Y-139167065D01*
X153307289Y-138981373D01*
X153378006Y-138905144D01*
X153548157Y-138763358D01*
X153742985Y-138655935D01*
X153962519Y-138582864D01*
X154206785Y-138544135D01*
X154369155Y-138537367D01*
X154615168Y-138553548D01*
G36*
X152302908Y-140828702D02*
G01*
X152410463Y-140863179D01*
X152504072Y-140930678D01*
X152574710Y-141022174D01*
X152613357Y-141128642D01*
X152615309Y-141141184D01*
X152606913Y-141230400D01*
X152559565Y-141313044D01*
X152476610Y-141384347D01*
X152424392Y-141413499D01*
X152307467Y-141451936D01*
X152200321Y-141449541D01*
X152119319Y-141416523D01*
X152041611Y-141348071D01*
X151999127Y-141257929D01*
X151990952Y-141143999D01*
X151992534Y-141125636D01*
X152020092Y-141002122D01*
X152072657Y-140909511D01*
X152147859Y-140850071D01*
X152243326Y-140826070D01*
X152302908Y-140828702D01*
G37*
X152302908Y-140828702D02*
X152410463Y-140863179D01*
X152504072Y-140930678D01*
X152574710Y-141022174D01*
X152613357Y-141128642D01*
X152615309Y-141141184D01*
X152606913Y-141230400D01*
X152559565Y-141313044D01*
X152476610Y-141384347D01*
X152424392Y-141413499D01*
X152307467Y-141451936D01*
X152200321Y-141449541D01*
X152119319Y-141416523D01*
X152041611Y-141348071D01*
X151999127Y-141257929D01*
X151990952Y-141143999D01*
X151992534Y-141125636D01*
X152020092Y-141002122D01*
X152072657Y-140909511D01*
X152147859Y-140850071D01*
X152243326Y-140826070D01*
X152302908Y-140828702D01*
G36*
X150983680Y-140008083D02*
G01*
X151063469Y-140239969D01*
X151139379Y-140460658D01*
X151210261Y-140666798D01*
X151274962Y-140855040D01*
X151332332Y-141022032D01*
X151381220Y-141164423D01*
X151420475Y-141278864D01*
X151448946Y-141362004D01*
X151465483Y-141410491D01*
X151469206Y-141421584D01*
X151471257Y-141436786D01*
X151461713Y-141446997D01*
X151434243Y-141452964D01*
X151382518Y-141455438D01*
X151300209Y-141455168D01*
X151201116Y-141453334D01*
X150920982Y-141447416D01*
X150792272Y-141103458D01*
X150663563Y-140759500D01*
X149620574Y-140759500D01*
X149553415Y-141029375D01*
X149526162Y-141138522D01*
X149500671Y-141239960D01*
X149479683Y-141322821D01*
X149465941Y-141376233D01*
X149465312Y-141378625D01*
X149444368Y-141458000D01*
X149168591Y-141458000D01*
X149056124Y-141457573D01*
X148979642Y-141455699D01*
X148932800Y-141451486D01*
X148909254Y-141444044D01*
X148902659Y-141432480D01*
X148904891Y-141420958D01*
X148913661Y-141395137D01*
X148935055Y-141332636D01*
X148967922Y-141236803D01*
X149011112Y-141110987D01*
X149063474Y-140958537D01*
X149123858Y-140782803D01*
X149191113Y-140587132D01*
X149264090Y-140374875D01*
X149298168Y-140275778D01*
X149724694Y-140275778D01*
X149742593Y-140281252D01*
X149796632Y-140286059D01*
X149880619Y-140289930D01*
X149988362Y-140292598D01*
X150113669Y-140293794D01*
X150141596Y-140293833D01*
X150565553Y-140293833D01*
X150526547Y-140182708D01*
X150458839Y-139990596D01*
X150394077Y-139808338D01*
X150333753Y-139640025D01*
X150279360Y-139489746D01*
X150232389Y-139361591D01*
X150194334Y-139259649D01*
X150166687Y-139188010D01*
X150150940Y-139150764D01*
X150148451Y-139146542D01*
X150137884Y-139161747D01*
X150115274Y-139212054D01*
X150082534Y-139292599D01*
X150041580Y-139398518D01*
X149994324Y-139524947D01*
X149942681Y-139667021D01*
X149932776Y-139694696D01*
X149880519Y-139840995D01*
X149832822Y-139974419D01*
X149791560Y-140089729D01*
X149758610Y-140181685D01*
X149735847Y-140245047D01*
X149725147Y-140274577D01*
X149724694Y-140275778D01*
X149298168Y-140275778D01*
X149341637Y-140149379D01*
X149390237Y-140008083D01*
X149863506Y-138632250D01*
X150510197Y-138632250D01*
X150983680Y-140008083D01*
G37*
X150983680Y-140008083D02*
X151063469Y-140239969D01*
X151139379Y-140460658D01*
X151210261Y-140666798D01*
X151274962Y-140855040D01*
X151332332Y-141022032D01*
X151381220Y-141164423D01*
X151420475Y-141278864D01*
X151448946Y-141362004D01*
X151465483Y-141410491D01*
X151469206Y-141421584D01*
X151471257Y-141436786D01*
X151461713Y-141446997D01*
X151434243Y-141452964D01*
X151382518Y-141455438D01*
X151300209Y-141455168D01*
X151201116Y-141453334D01*
X150920982Y-141447416D01*
X150792272Y-141103458D01*
X150663563Y-140759500D01*
X149620574Y-140759500D01*
X149553415Y-141029375D01*
X149526162Y-141138522D01*
X149500671Y-141239960D01*
X149479683Y-141322821D01*
X149465941Y-141376233D01*
X149465312Y-141378625D01*
X149444368Y-141458000D01*
X149168591Y-141458000D01*
X149056124Y-141457573D01*
X148979642Y-141455699D01*
X148932800Y-141451486D01*
X148909254Y-141444044D01*
X148902659Y-141432480D01*
X148904891Y-141420958D01*
X148913661Y-141395137D01*
X148935055Y-141332636D01*
X148967922Y-141236803D01*
X149011112Y-141110987D01*
X149063474Y-140958537D01*
X149123858Y-140782803D01*
X149191113Y-140587132D01*
X149264090Y-140374875D01*
X149298168Y-140275778D01*
X149724694Y-140275778D01*
X149742593Y-140281252D01*
X149796632Y-140286059D01*
X149880619Y-140289930D01*
X149988362Y-140292598D01*
X150113669Y-140293794D01*
X150141596Y-140293833D01*
X150565553Y-140293833D01*
X150526547Y-140182708D01*
X150458839Y-139990596D01*
X150394077Y-139808338D01*
X150333753Y-139640025D01*
X150279360Y-139489746D01*
X150232389Y-139361591D01*
X150194334Y-139259649D01*
X150166687Y-139188010D01*
X150150940Y-139150764D01*
X150148451Y-139146542D01*
X150137884Y-139161747D01*
X150115274Y-139212054D01*
X150082534Y-139292599D01*
X150041580Y-139398518D01*
X149994324Y-139524947D01*
X149942681Y-139667021D01*
X149932776Y-139694696D01*
X149880519Y-139840995D01*
X149832822Y-139974419D01*
X149791560Y-140089729D01*
X149758610Y-140181685D01*
X149735847Y-140245047D01*
X149725147Y-140274577D01*
X149724694Y-140275778D01*
X149298168Y-140275778D01*
X149341637Y-140149379D01*
X149390237Y-140008083D01*
X149863506Y-138632250D01*
X150510197Y-138632250D01*
X150983680Y-140008083D01*
G36*
X147638281Y-138553485D02*
G01*
X147860841Y-138602373D01*
X148058648Y-138682807D01*
X148229840Y-138793931D01*
X148372555Y-138934892D01*
X148430938Y-139013711D01*
X148469503Y-139088187D01*
X148506463Y-139187080D01*
X148536509Y-139292930D01*
X148554328Y-139388272D01*
X148557000Y-139428229D01*
X148557000Y-139510666D01*
X148101269Y-139510666D01*
X148065376Y-139409607D01*
X147996345Y-139275680D01*
X147895467Y-139164643D01*
X147768188Y-139079346D01*
X147619951Y-139022638D01*
X147456198Y-138997369D01*
X147292294Y-139004925D01*
X147134035Y-139042054D01*
X146995821Y-139108555D01*
X146866301Y-139210208D01*
X146841144Y-139234564D01*
X146719038Y-139382522D01*
X146630152Y-139551147D01*
X146573458Y-139743257D01*
X146547929Y-139961666D01*
X146546166Y-140043238D01*
X146554507Y-140241464D01*
X146580956Y-140407367D01*
X146627655Y-140547832D01*
X146696743Y-140669744D01*
X146768077Y-140756947D01*
X146879697Y-140855378D01*
X147006236Y-140924679D01*
X147155139Y-140967881D01*
X147333845Y-140988017D01*
X147335387Y-140988092D01*
X147536052Y-140984421D01*
X147705492Y-140952337D01*
X147844165Y-140891500D01*
X147952532Y-140801570D01*
X148031054Y-140682208D01*
X148080190Y-140533073D01*
X148096042Y-140426125D01*
X148106285Y-140315000D01*
X147392833Y-140315000D01*
X147392833Y-139934000D01*
X148662833Y-139934000D01*
X148662466Y-140066291D01*
X148649925Y-140340881D01*
X148613240Y-140581713D01*
X148551386Y-140790493D01*
X148463338Y-140968926D01*
X148348072Y-141118718D01*
X148204564Y-141241573D01*
X148031789Y-141339196D01*
X147858500Y-141404430D01*
X147766561Y-141424373D01*
X147645146Y-141439025D01*
X147506824Y-141448012D01*
X147364164Y-141450961D01*
X147229738Y-141447497D01*
X147116114Y-141437246D01*
X147064750Y-141428055D01*
X146825527Y-141353291D01*
X146613190Y-141246898D01*
X146429286Y-141110425D01*
X146275363Y-140945417D01*
X146152970Y-140753424D01*
X146063653Y-140535992D01*
X146025560Y-140389054D01*
X146004568Y-140240053D01*
X145996433Y-140069249D01*
X146000567Y-139890331D01*
X146016383Y-139716987D01*
X146043292Y-139562905D01*
X146064330Y-139485972D01*
X146159811Y-139253090D01*
X146283692Y-139051321D01*
X146434736Y-138881548D01*
X146611711Y-138744652D01*
X146813382Y-138641515D01*
X147038513Y-138573019D01*
X147285872Y-138540046D01*
X147392833Y-138537000D01*
X147638281Y-138553485D01*
G37*
X147638281Y-138553485D02*
X147860841Y-138602373D01*
X148058648Y-138682807D01*
X148229840Y-138793931D01*
X148372555Y-138934892D01*
X148430938Y-139013711D01*
X148469503Y-139088187D01*
X148506463Y-139187080D01*
X148536509Y-139292930D01*
X148554328Y-139388272D01*
X148557000Y-139428229D01*
X148557000Y-139510666D01*
X148101269Y-139510666D01*
X148065376Y-139409607D01*
X147996345Y-139275680D01*
X147895467Y-139164643D01*
X147768188Y-139079346D01*
X147619951Y-139022638D01*
X147456198Y-138997369D01*
X147292294Y-139004925D01*
X147134035Y-139042054D01*
X146995821Y-139108555D01*
X146866301Y-139210208D01*
X146841144Y-139234564D01*
X146719038Y-139382522D01*
X146630152Y-139551147D01*
X146573458Y-139743257D01*
X146547929Y-139961666D01*
X146546166Y-140043238D01*
X146554507Y-140241464D01*
X146580956Y-140407367D01*
X146627655Y-140547832D01*
X146696743Y-140669744D01*
X146768077Y-140756947D01*
X146879697Y-140855378D01*
X147006236Y-140924679D01*
X147155139Y-140967881D01*
X147333845Y-140988017D01*
X147335387Y-140988092D01*
X147536052Y-140984421D01*
X147705492Y-140952337D01*
X147844165Y-140891500D01*
X147952532Y-140801570D01*
X148031054Y-140682208D01*
X148080190Y-140533073D01*
X148096042Y-140426125D01*
X148106285Y-140315000D01*
X147392833Y-140315000D01*
X147392833Y-139934000D01*
X148662833Y-139934000D01*
X148662466Y-140066291D01*
X148649925Y-140340881D01*
X148613240Y-140581713D01*
X148551386Y-140790493D01*
X148463338Y-140968926D01*
X148348072Y-141118718D01*
X148204564Y-141241573D01*
X148031789Y-141339196D01*
X147858500Y-141404430D01*
X147766561Y-141424373D01*
X147645146Y-141439025D01*
X147506824Y-141448012D01*
X147364164Y-141450961D01*
X147229738Y-141447497D01*
X147116114Y-141437246D01*
X147064750Y-141428055D01*
X146825527Y-141353291D01*
X146613190Y-141246898D01*
X146429286Y-141110425D01*
X146275363Y-140945417D01*
X146152970Y-140753424D01*
X146063653Y-140535992D01*
X146025560Y-140389054D01*
X146004568Y-140240053D01*
X145996433Y-140069249D01*
X146000567Y-139890331D01*
X146016383Y-139716987D01*
X146043292Y-139562905D01*
X146064330Y-139485972D01*
X146159811Y-139253090D01*
X146283692Y-139051321D01*
X146434736Y-138881548D01*
X146611711Y-138744652D01*
X146813382Y-138641515D01*
X147038513Y-138573019D01*
X147285872Y-138540046D01*
X147392833Y-138537000D01*
X147638281Y-138553485D01*
G36*
X145382000Y-141458000D02*
G01*
X144831666Y-141458000D01*
X144831666Y-138621666D01*
X145382000Y-138621666D01*
X145382000Y-141458000D01*
G37*
X145382000Y-141458000D02*
X144831666Y-141458000D01*
X144831666Y-138621666D01*
X145382000Y-138621666D01*
X145382000Y-141458000D01*
G36*
X142891225Y-138622286D02*
G01*
X143050867Y-138624304D01*
X143179111Y-138627960D01*
X143281414Y-138633494D01*
X143363238Y-138641145D01*
X143430041Y-138651152D01*
X143448324Y-138654723D01*
X143651195Y-138712493D01*
X143819749Y-138794851D01*
X143953884Y-138901691D01*
X144053498Y-139032909D01*
X144118487Y-139188399D01*
X144148751Y-139368056D01*
X144149060Y-139372842D01*
X144144102Y-139563598D01*
X144103122Y-139735703D01*
X144024762Y-139894807D01*
X144022912Y-139897726D01*
X143954366Y-139982113D01*
X143861568Y-140065611D01*
X143758854Y-140137142D01*
X143660564Y-140185631D01*
X143642448Y-140191664D01*
X143591517Y-140210419D01*
X143563525Y-140227521D01*
X143561666Y-140231384D01*
X143571804Y-140252916D01*
X143600531Y-140306596D01*
X143645316Y-140387882D01*
X143703629Y-140492232D01*
X143772941Y-140615107D01*
X143850719Y-140751963D01*
X143891293Y-140822992D01*
X143972890Y-140965899D01*
X144047853Y-141097763D01*
X144113542Y-141213893D01*
X144167317Y-141309600D01*
X144206536Y-141380194D01*
X144228558Y-141420983D01*
X144232224Y-141428541D01*
X144230186Y-141440814D01*
X144209170Y-141449253D01*
X144163410Y-141454501D01*
X144087141Y-141457202D01*
X143974596Y-141457998D01*
X143968264Y-141458000D01*
X143692998Y-141458000D01*
X143345077Y-140891791D01*
X142997156Y-140325583D01*
X142651500Y-140313287D01*
X142651500Y-141458000D01*
X142101166Y-141458000D01*
X142101166Y-139934000D01*
X142651500Y-139934000D01*
X142931958Y-139933881D01*
X143044173Y-139932236D01*
X143147795Y-139927829D01*
X143231938Y-139921313D01*
X143285720Y-139913340D01*
X143288989Y-139912493D01*
X143414188Y-139858753D01*
X143508553Y-139776368D01*
X143571133Y-139666678D01*
X143600978Y-139531023D01*
X143603535Y-139469140D01*
X143586623Y-139321864D01*
X143538189Y-139199024D01*
X143460088Y-139103461D01*
X143354175Y-139038014D01*
X143312301Y-139023170D01*
X143261825Y-139013546D01*
X143179679Y-139003885D01*
X143076514Y-138995209D01*
X142962980Y-138988543D01*
X142942541Y-138987646D01*
X142651500Y-138975578D01*
X142651500Y-139934000D01*
X142101166Y-139934000D01*
X142101166Y-138621666D01*
X142694725Y-138621666D01*
X142891225Y-138622286D01*
G37*
X142891225Y-138622286D02*
X143050867Y-138624304D01*
X143179111Y-138627960D01*
X143281414Y-138633494D01*
X143363238Y-138641145D01*
X143430041Y-138651152D01*
X143448324Y-138654723D01*
X143651195Y-138712493D01*
X143819749Y-138794851D01*
X143953884Y-138901691D01*
X144053498Y-139032909D01*
X144118487Y-139188399D01*
X144148751Y-139368056D01*
X144149060Y-139372842D01*
X144144102Y-139563598D01*
X144103122Y-139735703D01*
X144024762Y-139894807D01*
X144022912Y-139897726D01*
X143954366Y-139982113D01*
X143861568Y-140065611D01*
X143758854Y-140137142D01*
X143660564Y-140185631D01*
X143642448Y-140191664D01*
X143591517Y-140210419D01*
X143563525Y-140227521D01*
X143561666Y-140231384D01*
X143571804Y-140252916D01*
X143600531Y-140306596D01*
X143645316Y-140387882D01*
X143703629Y-140492232D01*
X143772941Y-140615107D01*
X143850719Y-140751963D01*
X143891293Y-140822992D01*
X143972890Y-140965899D01*
X144047853Y-141097763D01*
X144113542Y-141213893D01*
X144167317Y-141309600D01*
X144206536Y-141380194D01*
X144228558Y-141420983D01*
X144232224Y-141428541D01*
X144230186Y-141440814D01*
X144209170Y-141449253D01*
X144163410Y-141454501D01*
X144087141Y-141457202D01*
X143974596Y-141457998D01*
X143968264Y-141458000D01*
X143692998Y-141458000D01*
X143345077Y-140891791D01*
X142997156Y-140325583D01*
X142651500Y-140313287D01*
X142651500Y-141458000D01*
X142101166Y-141458000D01*
X142101166Y-139934000D01*
X142651500Y-139934000D01*
X142931958Y-139933881D01*
X143044173Y-139932236D01*
X143147795Y-139927829D01*
X143231938Y-139921313D01*
X143285720Y-139913340D01*
X143288989Y-139912493D01*
X143414188Y-139858753D01*
X143508553Y-139776368D01*
X143571133Y-139666678D01*
X143600978Y-139531023D01*
X143603535Y-139469140D01*
X143586623Y-139321864D01*
X143538189Y-139199024D01*
X143460088Y-139103461D01*
X143354175Y-139038014D01*
X143312301Y-139023170D01*
X143261825Y-139013546D01*
X143179679Y-139003885D01*
X143076514Y-138995209D01*
X142962980Y-138988543D01*
X142942541Y-138987646D01*
X142651500Y-138975578D01*
X142651500Y-139934000D01*
X142101166Y-139934000D01*
X142101166Y-138621666D01*
X142694725Y-138621666D01*
X142891225Y-138622286D01*
G36*
X141508500Y-139087333D02*
G01*
X140280833Y-139087333D01*
X140280833Y-139764666D01*
X141254500Y-139764666D01*
X141254500Y-140230333D01*
X140280833Y-140230333D01*
X140280833Y-140992333D01*
X141508500Y-140992333D01*
X141508500Y-141458000D01*
X139730500Y-141458000D01*
X139730500Y-138621666D01*
X141508500Y-138621666D01*
X141508500Y-139087333D01*
G37*
X141508500Y-139087333D02*
X140280833Y-139087333D01*
X140280833Y-139764666D01*
X141254500Y-139764666D01*
X141254500Y-140230333D01*
X140280833Y-140230333D01*
X140280833Y-140992333D01*
X141508500Y-140992333D01*
X141508500Y-141458000D01*
X139730500Y-141458000D01*
X139730500Y-138621666D01*
X141508500Y-138621666D01*
X141508500Y-139087333D01*
G36*
X137560916Y-139806324D02*
G01*
X138067711Y-139213995D01*
X138574505Y-138621666D01*
X139231091Y-138621666D01*
X139156510Y-138701041D01*
X139123558Y-138736293D01*
X139066048Y-138798016D01*
X138988218Y-138881652D01*
X138894308Y-138982643D01*
X138788558Y-139096431D01*
X138675205Y-139218458D01*
X138629897Y-139267250D01*
X138513562Y-139392453D01*
X138402109Y-139512237D01*
X138299998Y-139621822D01*
X138211689Y-139716427D01*
X138141642Y-139791270D01*
X138094317Y-139841569D01*
X138083723Y-139852726D01*
X137989581Y-139951369D01*
X138587871Y-140678226D01*
X138712764Y-140829984D01*
X138829743Y-140972179D01*
X138935982Y-141101370D01*
X139028652Y-141214115D01*
X139104926Y-141306975D01*
X139161976Y-141376506D01*
X139196974Y-141419270D01*
X139206922Y-141431541D01*
X139206772Y-141441902D01*
X139184365Y-141449295D01*
X139134969Y-141454127D01*
X139053852Y-141456805D01*
X138936282Y-141457736D01*
X138902300Y-141457745D01*
X138576916Y-141457491D01*
X137560916Y-140184483D01*
X137555314Y-140821241D01*
X137549712Y-141458000D01*
X137000000Y-141458000D01*
X137000000Y-138621666D01*
X137549674Y-138621666D01*
X137560916Y-139806324D01*
G37*
X137560916Y-139806324D02*
X138067711Y-139213995D01*
X138574505Y-138621666D01*
X139231091Y-138621666D01*
X139156510Y-138701041D01*
X139123558Y-138736293D01*
X139066048Y-138798016D01*
X138988218Y-138881652D01*
X138894308Y-138982643D01*
X138788558Y-139096431D01*
X138675205Y-139218458D01*
X138629897Y-139267250D01*
X138513562Y-139392453D01*
X138402109Y-139512237D01*
X138299998Y-139621822D01*
X138211689Y-139716427D01*
X138141642Y-139791270D01*
X138094317Y-139841569D01*
X138083723Y-139852726D01*
X137989581Y-139951369D01*
X138587871Y-140678226D01*
X138712764Y-140829984D01*
X138829743Y-140972179D01*
X138935982Y-141101370D01*
X139028652Y-141214115D01*
X139104926Y-141306975D01*
X139161976Y-141376506D01*
X139196974Y-141419270D01*
X139206922Y-141431541D01*
X139206772Y-141441902D01*
X139184365Y-141449295D01*
X139134969Y-141454127D01*
X139053852Y-141456805D01*
X138936282Y-141457736D01*
X138902300Y-141457745D01*
X138576916Y-141457491D01*
X137560916Y-140184483D01*
X137555314Y-140821241D01*
X137549712Y-141458000D01*
X137000000Y-141458000D01*
X137000000Y-138621666D01*
X137549674Y-138621666D01*
X137560916Y-139806324D01*
G36*
X135642621Y-138753958D02*
G01*
X135656745Y-138798223D01*
X135682171Y-138878857D01*
X135717630Y-138991804D01*
X135761853Y-139133008D01*
X135813572Y-139298414D01*
X135871518Y-139483965D01*
X135934425Y-139685607D01*
X136001023Y-139899282D01*
X136057975Y-140082166D01*
X136126171Y-140301152D01*
X136191327Y-140510215D01*
X136252231Y-140705476D01*
X136307672Y-140883056D01*
X136356436Y-141039075D01*
X136397312Y-141169655D01*
X136429086Y-141270915D01*
X136450547Y-141338977D01*
X136459844Y-141368041D01*
X136489430Y-141458000D01*
X136210256Y-141457769D01*
X135931083Y-141457538D01*
X135803662Y-141113810D01*
X135676241Y-140770083D01*
X135153702Y-140764423D01*
X134631163Y-140758764D01*
X134610120Y-140838507D01*
X134596956Y-140889562D01*
X134576358Y-140970822D01*
X134551069Y-141071399D01*
X134523838Y-141180409D01*
X134521918Y-141188125D01*
X134454759Y-141458000D01*
X134182212Y-141458000D01*
X134080375Y-141456854D01*
X133995841Y-141453721D01*
X133936507Y-141449056D01*
X133910267Y-141443315D01*
X133909666Y-141442269D01*
X133916372Y-141420124D01*
X133935755Y-141361201D01*
X133966712Y-141268749D01*
X134008138Y-141146016D01*
X134058931Y-140996253D01*
X134117987Y-140822707D01*
X134184202Y-140628629D01*
X134256474Y-140417268D01*
X134306894Y-140270107D01*
X134824121Y-140270107D01*
X134833813Y-140279797D01*
X134859546Y-140286432D01*
X134906903Y-140290582D01*
X134981468Y-140292817D01*
X135088825Y-140293706D01*
X135187781Y-140293833D01*
X135308152Y-140292979D01*
X135412403Y-140290611D01*
X135493772Y-140287015D01*
X135545497Y-140282478D01*
X135561122Y-140277958D01*
X135554427Y-140253463D01*
X135535502Y-140195472D01*
X135506582Y-140110277D01*
X135469899Y-140004168D01*
X135427685Y-139883438D01*
X135382173Y-139754377D01*
X135335596Y-139623276D01*
X135290185Y-139496426D01*
X135248173Y-139380119D01*
X135211794Y-139280647D01*
X135183279Y-139204299D01*
X135164861Y-139157368D01*
X135159240Y-139145464D01*
X135150746Y-139161370D01*
X135132435Y-139212616D01*
X135105937Y-139293790D01*
X135072880Y-139399474D01*
X135034894Y-139524255D01*
X134993608Y-139662716D01*
X134950652Y-139809443D01*
X134907654Y-139959021D01*
X134866244Y-140106035D01*
X134828051Y-140245069D01*
X134824885Y-140256791D01*
X134824121Y-140270107D01*
X134306894Y-140270107D01*
X134333699Y-140191872D01*
X134391208Y-140024294D01*
X134872750Y-138622050D01*
X135599548Y-138621666D01*
X135642621Y-138753958D01*
G37*
X135642621Y-138753958D02*
X135656745Y-138798223D01*
X135682171Y-138878857D01*
X135717630Y-138991804D01*
X135761853Y-139133008D01*
X135813572Y-139298414D01*
X135871518Y-139483965D01*
X135934425Y-139685607D01*
X136001023Y-139899282D01*
X136057975Y-140082166D01*
X136126171Y-140301152D01*
X136191327Y-140510215D01*
X136252231Y-140705476D01*
X136307672Y-140883056D01*
X136356436Y-141039075D01*
X136397312Y-141169655D01*
X136429086Y-141270915D01*
X136450547Y-141338977D01*
X136459844Y-141368041D01*
X136489430Y-141458000D01*
X136210256Y-141457769D01*
X135931083Y-141457538D01*
X135803662Y-141113810D01*
X135676241Y-140770083D01*
X135153702Y-140764423D01*
X134631163Y-140758764D01*
X134610120Y-140838507D01*
X134596956Y-140889562D01*
X134576358Y-140970822D01*
X134551069Y-141071399D01*
X134523838Y-141180409D01*
X134521918Y-141188125D01*
X134454759Y-141458000D01*
X134182212Y-141458000D01*
X134080375Y-141456854D01*
X133995841Y-141453721D01*
X133936507Y-141449056D01*
X133910267Y-141443315D01*
X133909666Y-141442269D01*
X133916372Y-141420124D01*
X133935755Y-141361201D01*
X133966712Y-141268749D01*
X134008138Y-141146016D01*
X134058931Y-140996253D01*
X134117987Y-140822707D01*
X134184202Y-140628629D01*
X134256474Y-140417268D01*
X134306894Y-140270107D01*
X134824121Y-140270107D01*
X134833813Y-140279797D01*
X134859546Y-140286432D01*
X134906903Y-140290582D01*
X134981468Y-140292817D01*
X135088825Y-140293706D01*
X135187781Y-140293833D01*
X135308152Y-140292979D01*
X135412403Y-140290611D01*
X135493772Y-140287015D01*
X135545497Y-140282478D01*
X135561122Y-140277958D01*
X135554427Y-140253463D01*
X135535502Y-140195472D01*
X135506582Y-140110277D01*
X135469899Y-140004168D01*
X135427685Y-139883438D01*
X135382173Y-139754377D01*
X135335596Y-139623276D01*
X135290185Y-139496426D01*
X135248173Y-139380119D01*
X135211794Y-139280647D01*
X135183279Y-139204299D01*
X135164861Y-139157368D01*
X135159240Y-139145464D01*
X135150746Y-139161370D01*
X135132435Y-139212616D01*
X135105937Y-139293790D01*
X135072880Y-139399474D01*
X135034894Y-139524255D01*
X134993608Y-139662716D01*
X134950652Y-139809443D01*
X134907654Y-139959021D01*
X134866244Y-140106035D01*
X134828051Y-140245069D01*
X134824885Y-140256791D01*
X134824121Y-140270107D01*
X134306894Y-140270107D01*
X134333699Y-140191872D01*
X134391208Y-140024294D01*
X134872750Y-138622050D01*
X135599548Y-138621666D01*
X135642621Y-138753958D01*
G36*
X131301756Y-138679875D02*
G01*
X131313376Y-138711936D01*
X131337852Y-138779239D01*
X131373533Y-138877254D01*
X131418771Y-139001451D01*
X131471914Y-139147301D01*
X131531313Y-139310275D01*
X131595318Y-139485843D01*
X131623664Y-139563583D01*
X131689345Y-139743754D01*
X131751295Y-139913779D01*
X131807835Y-140069040D01*
X131857283Y-140204920D01*
X131897960Y-140316799D01*
X131928185Y-140400060D01*
X131946278Y-140450084D01*
X131949824Y-140459985D01*
X131956042Y-140475059D01*
X131962982Y-140482796D01*
X131971928Y-140480141D01*
X131984166Y-140464037D01*
X132000980Y-140431427D01*
X132023657Y-140379254D01*
X132053482Y-140304461D01*
X132091739Y-140203993D01*
X132139715Y-140074791D01*
X132198694Y-139913800D01*
X132269962Y-139717962D01*
X132321400Y-139576277D01*
X132667827Y-138621666D01*
X133401666Y-138621666D01*
X133401666Y-141458000D01*
X132851333Y-141458000D01*
X132850378Y-140426125D01*
X132849424Y-139394250D01*
X132463444Y-140420833D01*
X132077465Y-141447416D01*
X131871111Y-141447416D01*
X131445764Y-140425459D01*
X131020416Y-139403502D01*
X131009430Y-141458000D01*
X130544166Y-141458000D01*
X130544166Y-138621666D01*
X131280858Y-138621666D01*
X131301756Y-138679875D01*
G37*
X131301756Y-138679875D02*
X131313376Y-138711936D01*
X131337852Y-138779239D01*
X131373533Y-138877254D01*
X131418771Y-139001451D01*
X131471914Y-139147301D01*
X131531313Y-139310275D01*
X131595318Y-139485843D01*
X131623664Y-139563583D01*
X131689345Y-139743754D01*
X131751295Y-139913779D01*
X131807835Y-140069040D01*
X131857283Y-140204920D01*
X131897960Y-140316799D01*
X131928185Y-140400060D01*
X131946278Y-140450084D01*
X131949824Y-140459985D01*
X131956042Y-140475059D01*
X131962982Y-140482796D01*
X131971928Y-140480141D01*
X131984166Y-140464037D01*
X132000980Y-140431427D01*
X132023657Y-140379254D01*
X132053482Y-140304461D01*
X132091739Y-140203993D01*
X132139715Y-140074791D01*
X132198694Y-139913800D01*
X132269962Y-139717962D01*
X132321400Y-139576277D01*
X132667827Y-138621666D01*
X133401666Y-138621666D01*
X133401666Y-141458000D01*
X132851333Y-141458000D01*
X132850378Y-140426125D01*
X132849424Y-139394250D01*
X132463444Y-140420833D01*
X132077465Y-141447416D01*
X131871111Y-141447416D01*
X131445764Y-140425459D01*
X131020416Y-139403502D01*
X131009430Y-141458000D01*
X130544166Y-141458000D01*
X130544166Y-138621666D01*
X131280858Y-138621666D01*
X131301756Y-138679875D01*
G04 #@! TD*
M02*
