%TF.GenerationSoftware,KiCad,Pcbnew,(5.1.10)-1*%
%TF.CreationDate,2021-12-01T22:35:20+02:00*%
%TF.ProjectId,gaisa-sargs-rear-2,67616973-612d-4736-9172-67732d726561,rev?*%
%TF.SameCoordinates,Original*%
%TF.FileFunction,Copper,L2,Bot*%
%TF.FilePolarity,Positive*%
%FSLAX46Y46*%
G04 Gerber Fmt 4.6, Leading zero omitted, Abs format (unit mm)*
G04 Created by KiCad (PCBNEW (5.1.10)-1) date 2021-12-01 22:35:20*
%MOMM*%
%LPD*%
G01*
G04 APERTURE LIST*
%TA.AperFunction,EtchedComponent*%
%ADD10C,0.010000*%
%TD*%
G04 APERTURE END LIST*
D10*
%TO.C,Ref\u002A\u002A*%
G36*
X177686550Y-120396749D02*
G01*
X177973954Y-120457535D01*
X178253628Y-120556164D01*
X178523181Y-120690440D01*
X178780218Y-120858169D01*
X179022347Y-121057157D01*
X179247174Y-121285209D01*
X179452307Y-121540131D01*
X179635352Y-121819729D01*
X179793916Y-122121808D01*
X179925606Y-122444173D01*
X180028029Y-122784631D01*
X180030243Y-122793555D01*
X180072499Y-122978750D01*
X180102778Y-123148375D01*
X180122666Y-123316327D01*
X180133748Y-123496503D01*
X180137611Y-123702802D01*
X180137666Y-123734925D01*
X180119431Y-124132975D01*
X180065453Y-124518628D01*
X179976820Y-124889026D01*
X179854621Y-125241310D01*
X179699947Y-125572623D01*
X179513885Y-125880107D01*
X179297526Y-126160904D01*
X179154579Y-126314426D01*
X178915398Y-126529764D01*
X178668340Y-126704348D01*
X178410782Y-126839431D01*
X178140098Y-126936266D01*
X177853666Y-126996104D01*
X177689727Y-127013607D01*
X177488981Y-127028342D01*
X177595161Y-126888059D01*
X177647839Y-126813131D01*
X177691311Y-126741578D01*
X177717619Y-126686728D01*
X177720191Y-126678679D01*
X177721879Y-126650296D01*
X177720661Y-126587598D01*
X177716492Y-126489900D01*
X177709327Y-126356518D01*
X177699120Y-126186768D01*
X177685826Y-125979966D01*
X177669400Y-125735427D01*
X177649794Y-125452468D01*
X177626965Y-125130404D01*
X177600867Y-124768551D01*
X177571453Y-124366224D01*
X177538679Y-123922740D01*
X177520470Y-123678000D01*
X177489636Y-123264915D01*
X177461708Y-122891958D01*
X177436502Y-122557036D01*
X177413839Y-122258055D01*
X177393535Y-121992923D01*
X177375409Y-121759545D01*
X177359279Y-121555830D01*
X177344964Y-121379683D01*
X177332282Y-121229013D01*
X177321051Y-121101725D01*
X177311090Y-120995727D01*
X177302217Y-120908926D01*
X177294250Y-120839228D01*
X177287007Y-120784541D01*
X177280306Y-120742770D01*
X177273967Y-120711824D01*
X177267807Y-120689610D01*
X177261644Y-120674033D01*
X177259282Y-120669451D01*
X177224961Y-120570951D01*
X177216666Y-120484243D01*
X177216666Y-120376000D01*
X177393810Y-120376000D01*
X177686550Y-120396749D01*
G37*
X177686550Y-120396749D02*
X177973954Y-120457535D01*
X178253628Y-120556164D01*
X178523181Y-120690440D01*
X178780218Y-120858169D01*
X179022347Y-121057157D01*
X179247174Y-121285209D01*
X179452307Y-121540131D01*
X179635352Y-121819729D01*
X179793916Y-122121808D01*
X179925606Y-122444173D01*
X180028029Y-122784631D01*
X180030243Y-122793555D01*
X180072499Y-122978750D01*
X180102778Y-123148375D01*
X180122666Y-123316327D01*
X180133748Y-123496503D01*
X180137611Y-123702802D01*
X180137666Y-123734925D01*
X180119431Y-124132975D01*
X180065453Y-124518628D01*
X179976820Y-124889026D01*
X179854621Y-125241310D01*
X179699947Y-125572623D01*
X179513885Y-125880107D01*
X179297526Y-126160904D01*
X179154579Y-126314426D01*
X178915398Y-126529764D01*
X178668340Y-126704348D01*
X178410782Y-126839431D01*
X178140098Y-126936266D01*
X177853666Y-126996104D01*
X177689727Y-127013607D01*
X177488981Y-127028342D01*
X177595161Y-126888059D01*
X177647839Y-126813131D01*
X177691311Y-126741578D01*
X177717619Y-126686728D01*
X177720191Y-126678679D01*
X177721879Y-126650296D01*
X177720661Y-126587598D01*
X177716492Y-126489900D01*
X177709327Y-126356518D01*
X177699120Y-126186768D01*
X177685826Y-125979966D01*
X177669400Y-125735427D01*
X177649794Y-125452468D01*
X177626965Y-125130404D01*
X177600867Y-124768551D01*
X177571453Y-124366224D01*
X177538679Y-123922740D01*
X177520470Y-123678000D01*
X177489636Y-123264915D01*
X177461708Y-122891958D01*
X177436502Y-122557036D01*
X177413839Y-122258055D01*
X177393535Y-121992923D01*
X177375409Y-121759545D01*
X177359279Y-121555830D01*
X177344964Y-121379683D01*
X177332282Y-121229013D01*
X177321051Y-121101725D01*
X177311090Y-120995727D01*
X177302217Y-120908926D01*
X177294250Y-120839228D01*
X177287007Y-120784541D01*
X177280306Y-120742770D01*
X177273967Y-120711824D01*
X177267807Y-120689610D01*
X177261644Y-120674033D01*
X177259282Y-120669451D01*
X177224961Y-120570951D01*
X177216666Y-120484243D01*
X177216666Y-120376000D01*
X177393810Y-120376000D01*
X177686550Y-120396749D01*
G36*
X112552533Y-120317808D02*
G01*
X112633665Y-120330612D01*
X112683081Y-120344505D01*
X112619166Y-120424932D01*
X112567190Y-120512529D01*
X112543533Y-120615304D01*
X112539131Y-120663262D01*
X112532017Y-120749366D01*
X112522407Y-120870630D01*
X112510520Y-121024065D01*
X112496573Y-121206687D01*
X112480783Y-121415508D01*
X112463369Y-121647542D01*
X112444549Y-121899803D01*
X112424539Y-122169303D01*
X112403558Y-122453057D01*
X112381822Y-122748078D01*
X112359551Y-123051379D01*
X112336961Y-123359974D01*
X112314271Y-123670876D01*
X112291697Y-123981099D01*
X112269458Y-124287656D01*
X112247771Y-124587561D01*
X112226853Y-124877827D01*
X112206924Y-125155468D01*
X112188199Y-125417498D01*
X112170898Y-125660928D01*
X112155237Y-125882774D01*
X112141434Y-126080049D01*
X112129707Y-126249766D01*
X112120274Y-126388938D01*
X112113352Y-126494579D01*
X112109159Y-126563703D01*
X112107898Y-126592330D01*
X112114917Y-126708992D01*
X112138500Y-126797771D01*
X112182755Y-126871241D01*
X112208556Y-126900625D01*
X112264086Y-126958833D01*
X112159585Y-126956252D01*
X112076360Y-126951407D01*
X111979864Y-126941909D01*
X111929877Y-126935409D01*
X111676753Y-126880774D01*
X111419386Y-126792348D01*
X111170058Y-126675314D01*
X110941048Y-126534856D01*
X110885813Y-126494736D01*
X110630556Y-126276308D01*
X110400344Y-126026091D01*
X110196651Y-125747457D01*
X110020950Y-125443780D01*
X109874715Y-125118435D01*
X109759419Y-124774794D01*
X109676535Y-124416232D01*
X109627537Y-124046121D01*
X109613898Y-123667835D01*
X109615702Y-123586495D01*
X109644503Y-123233992D01*
X109706453Y-122887869D01*
X109799436Y-122551158D01*
X109921335Y-122226894D01*
X110070030Y-121918109D01*
X110243406Y-121627837D01*
X110439343Y-121359110D01*
X110655725Y-121114961D01*
X110890434Y-120898424D01*
X111141353Y-120712532D01*
X111406363Y-120560318D01*
X111683348Y-120444814D01*
X111842152Y-120397489D01*
X111991554Y-120364428D01*
X112146660Y-120339138D01*
X112298102Y-120322411D01*
X112436516Y-120315037D01*
X112552533Y-120317808D01*
G37*
X112552533Y-120317808D02*
X112633665Y-120330612D01*
X112683081Y-120344505D01*
X112619166Y-120424932D01*
X112567190Y-120512529D01*
X112543533Y-120615304D01*
X112539131Y-120663262D01*
X112532017Y-120749366D01*
X112522407Y-120870630D01*
X112510520Y-121024065D01*
X112496573Y-121206687D01*
X112480783Y-121415508D01*
X112463369Y-121647542D01*
X112444549Y-121899803D01*
X112424539Y-122169303D01*
X112403558Y-122453057D01*
X112381822Y-122748078D01*
X112359551Y-123051379D01*
X112336961Y-123359974D01*
X112314271Y-123670876D01*
X112291697Y-123981099D01*
X112269458Y-124287656D01*
X112247771Y-124587561D01*
X112226853Y-124877827D01*
X112206924Y-125155468D01*
X112188199Y-125417498D01*
X112170898Y-125660928D01*
X112155237Y-125882774D01*
X112141434Y-126080049D01*
X112129707Y-126249766D01*
X112120274Y-126388938D01*
X112113352Y-126494579D01*
X112109159Y-126563703D01*
X112107898Y-126592330D01*
X112114917Y-126708992D01*
X112138500Y-126797771D01*
X112182755Y-126871241D01*
X112208556Y-126900625D01*
X112264086Y-126958833D01*
X112159585Y-126956252D01*
X112076360Y-126951407D01*
X111979864Y-126941909D01*
X111929877Y-126935409D01*
X111676753Y-126880774D01*
X111419386Y-126792348D01*
X111170058Y-126675314D01*
X110941048Y-126534856D01*
X110885813Y-126494736D01*
X110630556Y-126276308D01*
X110400344Y-126026091D01*
X110196651Y-125747457D01*
X110020950Y-125443780D01*
X109874715Y-125118435D01*
X109759419Y-124774794D01*
X109676535Y-124416232D01*
X109627537Y-124046121D01*
X109613898Y-123667835D01*
X109615702Y-123586495D01*
X109644503Y-123233992D01*
X109706453Y-122887869D01*
X109799436Y-122551158D01*
X109921335Y-122226894D01*
X110070030Y-121918109D01*
X110243406Y-121627837D01*
X110439343Y-121359110D01*
X110655725Y-121114961D01*
X110890434Y-120898424D01*
X111141353Y-120712532D01*
X111406363Y-120560318D01*
X111683348Y-120444814D01*
X111842152Y-120397489D01*
X111991554Y-120364428D01*
X112146660Y-120339138D01*
X112298102Y-120322411D01*
X112436516Y-120315037D01*
X112552533Y-120317808D01*
G36*
X114485736Y-93534232D02*
G01*
X114609223Y-93536666D01*
X114540187Y-93623831D01*
X114490511Y-93700708D01*
X114467152Y-93781145D01*
X114462966Y-93819623D01*
X114415083Y-94455875D01*
X114370428Y-95050965D01*
X114328928Y-95605934D01*
X114290509Y-96121826D01*
X114255099Y-96599682D01*
X114222625Y-97040544D01*
X114193015Y-97445455D01*
X114166194Y-97815456D01*
X114142090Y-98151590D01*
X114120630Y-98454899D01*
X114101742Y-98726426D01*
X114085353Y-98967211D01*
X114071388Y-99178298D01*
X114059777Y-99360729D01*
X114050444Y-99515546D01*
X114043319Y-99643790D01*
X114038328Y-99746505D01*
X114035397Y-99824732D01*
X114034454Y-99879513D01*
X114035426Y-99911891D01*
X114036246Y-99918344D01*
X114073494Y-100025793D01*
X114123185Y-100092239D01*
X114190637Y-100161833D01*
X114054193Y-100159343D01*
X113962873Y-100155238D01*
X113871708Y-100147292D01*
X113820793Y-100140444D01*
X113524058Y-100069239D01*
X113241023Y-99959715D01*
X112973432Y-99814164D01*
X112723027Y-99634876D01*
X112491550Y-99424141D01*
X112280742Y-99184251D01*
X112092346Y-98917497D01*
X111928104Y-98626168D01*
X111789757Y-98312555D01*
X111679049Y-97978949D01*
X111597720Y-97627641D01*
X111547514Y-97260922D01*
X111538200Y-97139001D01*
X111534787Y-96752099D01*
X111572772Y-96369630D01*
X111652395Y-95990415D01*
X111773896Y-95613280D01*
X111918206Y-95276842D01*
X112096636Y-94944841D01*
X112298200Y-94643984D01*
X112521370Y-94375709D01*
X112764614Y-94141454D01*
X113026403Y-93942657D01*
X113305205Y-93780756D01*
X113599491Y-93657188D01*
X113664685Y-93635752D01*
X113816809Y-93592381D01*
X113959573Y-93562015D01*
X114105317Y-93543129D01*
X114266379Y-93534196D01*
X114455102Y-93533691D01*
X114485736Y-93534232D01*
G37*
X114485736Y-93534232D02*
X114609223Y-93536666D01*
X114540187Y-93623831D01*
X114490511Y-93700708D01*
X114467152Y-93781145D01*
X114462966Y-93819623D01*
X114415083Y-94455875D01*
X114370428Y-95050965D01*
X114328928Y-95605934D01*
X114290509Y-96121826D01*
X114255099Y-96599682D01*
X114222625Y-97040544D01*
X114193015Y-97445455D01*
X114166194Y-97815456D01*
X114142090Y-98151590D01*
X114120630Y-98454899D01*
X114101742Y-98726426D01*
X114085353Y-98967211D01*
X114071388Y-99178298D01*
X114059777Y-99360729D01*
X114050444Y-99515546D01*
X114043319Y-99643790D01*
X114038328Y-99746505D01*
X114035397Y-99824732D01*
X114034454Y-99879513D01*
X114035426Y-99911891D01*
X114036246Y-99918344D01*
X114073494Y-100025793D01*
X114123185Y-100092239D01*
X114190637Y-100161833D01*
X114054193Y-100159343D01*
X113962873Y-100155238D01*
X113871708Y-100147292D01*
X113820793Y-100140444D01*
X113524058Y-100069239D01*
X113241023Y-99959715D01*
X112973432Y-99814164D01*
X112723027Y-99634876D01*
X112491550Y-99424141D01*
X112280742Y-99184251D01*
X112092346Y-98917497D01*
X111928104Y-98626168D01*
X111789757Y-98312555D01*
X111679049Y-97978949D01*
X111597720Y-97627641D01*
X111547514Y-97260922D01*
X111538200Y-97139001D01*
X111534787Y-96752099D01*
X111572772Y-96369630D01*
X111652395Y-95990415D01*
X111773896Y-95613280D01*
X111918206Y-95276842D01*
X112096636Y-94944841D01*
X112298200Y-94643984D01*
X112521370Y-94375709D01*
X112764614Y-94141454D01*
X113026403Y-93942657D01*
X113305205Y-93780756D01*
X113599491Y-93657188D01*
X113664685Y-93635752D01*
X113816809Y-93592381D01*
X113959573Y-93562015D01*
X114105317Y-93543129D01*
X114266379Y-93534196D01*
X114455102Y-93533691D01*
X114485736Y-93534232D01*
G36*
X175790400Y-93367087D02*
G01*
X176085656Y-93429204D01*
X176372900Y-93531550D01*
X176650018Y-93673157D01*
X176914896Y-93853058D01*
X177165419Y-94070286D01*
X177243729Y-94149108D01*
X177477488Y-94422959D01*
X177679200Y-94721193D01*
X177848616Y-95040242D01*
X177985483Y-95376540D01*
X178089550Y-95726520D01*
X178160567Y-96086615D01*
X178198283Y-96453257D01*
X178202445Y-96822881D01*
X178172805Y-97191919D01*
X178109109Y-97556804D01*
X178011108Y-97913970D01*
X177878550Y-98259849D01*
X177711184Y-98590874D01*
X177572016Y-98813562D01*
X177478913Y-98938452D01*
X177363711Y-99074258D01*
X177235148Y-99212087D01*
X177101956Y-99343048D01*
X176972873Y-99458247D01*
X176856631Y-99548793D01*
X176835666Y-99563179D01*
X176617972Y-99694431D01*
X176393835Y-99803396D01*
X176170686Y-99887400D01*
X175955955Y-99943768D01*
X175757072Y-99969826D01*
X175701631Y-99971333D01*
X175586363Y-99971333D01*
X175803445Y-99555351D01*
X175580596Y-96583050D01*
X175549415Y-96167571D01*
X175521162Y-95792218D01*
X175495656Y-95454901D01*
X175472713Y-95153528D01*
X175452150Y-94886007D01*
X175433786Y-94650247D01*
X175417437Y-94444156D01*
X175402921Y-94265642D01*
X175390054Y-94112614D01*
X175378654Y-93982981D01*
X175368538Y-93874650D01*
X175359523Y-93785530D01*
X175351427Y-93713530D01*
X175344066Y-93656558D01*
X175337259Y-93612521D01*
X175330822Y-93579329D01*
X175324573Y-93554890D01*
X175318328Y-93537113D01*
X175313540Y-93526899D01*
X175285940Y-93463878D01*
X175270510Y-93407932D01*
X175269333Y-93394607D01*
X175271086Y-93372955D01*
X175281396Y-93358958D01*
X175307840Y-93350949D01*
X175357994Y-93347258D01*
X175439435Y-93346216D01*
X175489245Y-93346166D01*
X175790400Y-93367087D01*
G37*
X175790400Y-93367087D02*
X176085656Y-93429204D01*
X176372900Y-93531550D01*
X176650018Y-93673157D01*
X176914896Y-93853058D01*
X177165419Y-94070286D01*
X177243729Y-94149108D01*
X177477488Y-94422959D01*
X177679200Y-94721193D01*
X177848616Y-95040242D01*
X177985483Y-95376540D01*
X178089550Y-95726520D01*
X178160567Y-96086615D01*
X178198283Y-96453257D01*
X178202445Y-96822881D01*
X178172805Y-97191919D01*
X178109109Y-97556804D01*
X178011108Y-97913970D01*
X177878550Y-98259849D01*
X177711184Y-98590874D01*
X177572016Y-98813562D01*
X177478913Y-98938452D01*
X177363711Y-99074258D01*
X177235148Y-99212087D01*
X177101956Y-99343048D01*
X176972873Y-99458247D01*
X176856631Y-99548793D01*
X176835666Y-99563179D01*
X176617972Y-99694431D01*
X176393835Y-99803396D01*
X176170686Y-99887400D01*
X175955955Y-99943768D01*
X175757072Y-99969826D01*
X175701631Y-99971333D01*
X175586363Y-99971333D01*
X175803445Y-99555351D01*
X175580596Y-96583050D01*
X175549415Y-96167571D01*
X175521162Y-95792218D01*
X175495656Y-95454901D01*
X175472713Y-95153528D01*
X175452150Y-94886007D01*
X175433786Y-94650247D01*
X175417437Y-94444156D01*
X175402921Y-94265642D01*
X175390054Y-94112614D01*
X175378654Y-93982981D01*
X175368538Y-93874650D01*
X175359523Y-93785530D01*
X175351427Y-93713530D01*
X175344066Y-93656558D01*
X175337259Y-93612521D01*
X175330822Y-93579329D01*
X175324573Y-93554890D01*
X175318328Y-93537113D01*
X175313540Y-93526899D01*
X175285940Y-93463878D01*
X175270510Y-93407932D01*
X175269333Y-93394607D01*
X175271086Y-93372955D01*
X175281396Y-93358958D01*
X175307840Y-93350949D01*
X175357994Y-93347258D01*
X175439435Y-93346216D01*
X175489245Y-93346166D01*
X175790400Y-93367087D01*
G36*
X117189463Y-55505439D02*
G01*
X117207919Y-55528403D01*
X117209166Y-55542787D01*
X117199413Y-55598246D01*
X117189792Y-55622162D01*
X117186002Y-55647224D01*
X117179342Y-55712120D01*
X117170002Y-55814457D01*
X117158170Y-55951847D01*
X117144036Y-56121898D01*
X117127788Y-56322221D01*
X117109616Y-56550425D01*
X117089708Y-56804120D01*
X117068254Y-57080917D01*
X117045442Y-57378424D01*
X117021461Y-57694251D01*
X116996500Y-58026009D01*
X116970749Y-58371306D01*
X116945930Y-58706916D01*
X116915053Y-59126393D01*
X116887186Y-59505763D01*
X116862200Y-59847133D01*
X116839967Y-60152614D01*
X116820360Y-60424314D01*
X116803250Y-60664342D01*
X116788510Y-60874807D01*
X116776011Y-61057819D01*
X116765627Y-61215487D01*
X116757228Y-61349919D01*
X116750688Y-61463224D01*
X116745877Y-61557513D01*
X116742669Y-61634892D01*
X116740935Y-61697473D01*
X116740548Y-61747363D01*
X116741379Y-61786673D01*
X116743301Y-61817510D01*
X116746186Y-61841984D01*
X116749905Y-61862204D01*
X116753647Y-61877694D01*
X116777355Y-61957336D01*
X116803733Y-62030305D01*
X116819153Y-62064870D01*
X116839654Y-62109403D01*
X116846153Y-62133953D01*
X116845602Y-62134964D01*
X116823224Y-62134012D01*
X116768276Y-62126919D01*
X116689868Y-62114954D01*
X116625933Y-62104365D01*
X116306667Y-62029030D01*
X116003664Y-61915612D01*
X115718547Y-61765749D01*
X115452940Y-61581079D01*
X115208464Y-61363241D01*
X114986744Y-61113873D01*
X114789404Y-60834613D01*
X114618065Y-60527099D01*
X114474351Y-60192970D01*
X114359887Y-59833864D01*
X114353924Y-59811327D01*
X114288228Y-59494083D01*
X114250366Y-59158427D01*
X114240796Y-58817126D01*
X114259974Y-58482947D01*
X114297163Y-58224819D01*
X114385605Y-57846783D01*
X114503901Y-57488419D01*
X114650343Y-57152021D01*
X114823224Y-56839883D01*
X115020834Y-56554298D01*
X115241467Y-56297560D01*
X115483415Y-56071962D01*
X115744968Y-55879799D01*
X116024420Y-55723365D01*
X116222798Y-55638941D01*
X116448525Y-55570464D01*
X116697044Y-55523065D01*
X116953189Y-55499074D01*
X117140375Y-55497818D01*
X117189463Y-55505439D01*
G37*
X117189463Y-55505439D02*
X117207919Y-55528403D01*
X117209166Y-55542787D01*
X117199413Y-55598246D01*
X117189792Y-55622162D01*
X117186002Y-55647224D01*
X117179342Y-55712120D01*
X117170002Y-55814457D01*
X117158170Y-55951847D01*
X117144036Y-56121898D01*
X117127788Y-56322221D01*
X117109616Y-56550425D01*
X117089708Y-56804120D01*
X117068254Y-57080917D01*
X117045442Y-57378424D01*
X117021461Y-57694251D01*
X116996500Y-58026009D01*
X116970749Y-58371306D01*
X116945930Y-58706916D01*
X116915053Y-59126393D01*
X116887186Y-59505763D01*
X116862200Y-59847133D01*
X116839967Y-60152614D01*
X116820360Y-60424314D01*
X116803250Y-60664342D01*
X116788510Y-60874807D01*
X116776011Y-61057819D01*
X116765627Y-61215487D01*
X116757228Y-61349919D01*
X116750688Y-61463224D01*
X116745877Y-61557513D01*
X116742669Y-61634892D01*
X116740935Y-61697473D01*
X116740548Y-61747363D01*
X116741379Y-61786673D01*
X116743301Y-61817510D01*
X116746186Y-61841984D01*
X116749905Y-61862204D01*
X116753647Y-61877694D01*
X116777355Y-61957336D01*
X116803733Y-62030305D01*
X116819153Y-62064870D01*
X116839654Y-62109403D01*
X116846153Y-62133953D01*
X116845602Y-62134964D01*
X116823224Y-62134012D01*
X116768276Y-62126919D01*
X116689868Y-62114954D01*
X116625933Y-62104365D01*
X116306667Y-62029030D01*
X116003664Y-61915612D01*
X115718547Y-61765749D01*
X115452940Y-61581079D01*
X115208464Y-61363241D01*
X114986744Y-61113873D01*
X114789404Y-60834613D01*
X114618065Y-60527099D01*
X114474351Y-60192970D01*
X114359887Y-59833864D01*
X114353924Y-59811327D01*
X114288228Y-59494083D01*
X114250366Y-59158427D01*
X114240796Y-58817126D01*
X114259974Y-58482947D01*
X114297163Y-58224819D01*
X114385605Y-57846783D01*
X114503901Y-57488419D01*
X114650343Y-57152021D01*
X114823224Y-56839883D01*
X115020834Y-56554298D01*
X115241467Y-56297560D01*
X115483415Y-56071962D01*
X115744968Y-55879799D01*
X116024420Y-55723365D01*
X116222798Y-55638941D01*
X116448525Y-55570464D01*
X116697044Y-55523065D01*
X116953189Y-55499074D01*
X117140375Y-55497818D01*
X117189463Y-55505439D01*
G36*
X173018885Y-55503700D02*
G01*
X173255803Y-55530324D01*
X173477856Y-55580248D01*
X173671250Y-55645398D01*
X173962943Y-55780787D01*
X174236813Y-55952534D01*
X174490969Y-56157772D01*
X174723520Y-56393638D01*
X174932572Y-56657267D01*
X175116235Y-56945794D01*
X175272617Y-57256355D01*
X175399826Y-57586085D01*
X175495970Y-57932119D01*
X175559158Y-58291593D01*
X175582149Y-58539094D01*
X175589834Y-58955880D01*
X175561326Y-59352696D01*
X175496096Y-59732374D01*
X175393615Y-60097751D01*
X175253355Y-60451660D01*
X175207568Y-60548416D01*
X175056728Y-60824582D01*
X174886274Y-61073568D01*
X174686732Y-61308642D01*
X174602583Y-61395805D01*
X174376112Y-61599668D01*
X174134287Y-61773631D01*
X173881947Y-61915275D01*
X173623933Y-62022177D01*
X173365089Y-62091916D01*
X173155246Y-62119697D01*
X172977909Y-62131638D01*
X173064318Y-61964444D01*
X173106321Y-61881341D01*
X173142795Y-61805893D01*
X173167633Y-61750839D01*
X173172305Y-61739132D01*
X173174664Y-61718792D01*
X173174914Y-61675046D01*
X173172960Y-61606470D01*
X173168707Y-61511637D01*
X173162062Y-61389124D01*
X173152930Y-61237505D01*
X173141217Y-61055355D01*
X173126828Y-60841249D01*
X173109670Y-60593762D01*
X173089648Y-60311469D01*
X173066668Y-59992945D01*
X173040636Y-59636765D01*
X173011457Y-59241505D01*
X172979038Y-58805739D01*
X172972536Y-58718668D01*
X172941504Y-58303792D01*
X172913389Y-57929054D01*
X172888011Y-57592374D01*
X172865188Y-57291669D01*
X172844739Y-57024858D01*
X172826482Y-56789861D01*
X172810237Y-56584595D01*
X172795823Y-56406980D01*
X172783058Y-56254933D01*
X172771761Y-56126375D01*
X172761751Y-56019223D01*
X172752846Y-55931396D01*
X172744866Y-55860812D01*
X172737629Y-55805391D01*
X172730955Y-55763051D01*
X172724662Y-55731711D01*
X172718568Y-55709289D01*
X172712493Y-55693704D01*
X172708590Y-55686453D01*
X172679924Y-55624249D01*
X172666129Y-55564486D01*
X172665912Y-55558375D01*
X172669541Y-55521703D01*
X172688375Y-55504543D01*
X172734136Y-55499094D01*
X172755791Y-55498560D01*
X173018885Y-55503700D01*
G37*
X173018885Y-55503700D02*
X173255803Y-55530324D01*
X173477856Y-55580248D01*
X173671250Y-55645398D01*
X173962943Y-55780787D01*
X174236813Y-55952534D01*
X174490969Y-56157772D01*
X174723520Y-56393638D01*
X174932572Y-56657267D01*
X175116235Y-56945794D01*
X175272617Y-57256355D01*
X175399826Y-57586085D01*
X175495970Y-57932119D01*
X175559158Y-58291593D01*
X175582149Y-58539094D01*
X175589834Y-58955880D01*
X175561326Y-59352696D01*
X175496096Y-59732374D01*
X175393615Y-60097751D01*
X175253355Y-60451660D01*
X175207568Y-60548416D01*
X175056728Y-60824582D01*
X174886274Y-61073568D01*
X174686732Y-61308642D01*
X174602583Y-61395805D01*
X174376112Y-61599668D01*
X174134287Y-61773631D01*
X173881947Y-61915275D01*
X173623933Y-62022177D01*
X173365089Y-62091916D01*
X173155246Y-62119697D01*
X172977909Y-62131638D01*
X173064318Y-61964444D01*
X173106321Y-61881341D01*
X173142795Y-61805893D01*
X173167633Y-61750839D01*
X173172305Y-61739132D01*
X173174664Y-61718792D01*
X173174914Y-61675046D01*
X173172960Y-61606470D01*
X173168707Y-61511637D01*
X173162062Y-61389124D01*
X173152930Y-61237505D01*
X173141217Y-61055355D01*
X173126828Y-60841249D01*
X173109670Y-60593762D01*
X173089648Y-60311469D01*
X173066668Y-59992945D01*
X173040636Y-59636765D01*
X173011457Y-59241505D01*
X172979038Y-58805739D01*
X172972536Y-58718668D01*
X172941504Y-58303792D01*
X172913389Y-57929054D01*
X172888011Y-57592374D01*
X172865188Y-57291669D01*
X172844739Y-57024858D01*
X172826482Y-56789861D01*
X172810237Y-56584595D01*
X172795823Y-56406980D01*
X172783058Y-56254933D01*
X172771761Y-56126375D01*
X172761751Y-56019223D01*
X172752846Y-55931396D01*
X172744866Y-55860812D01*
X172737629Y-55805391D01*
X172730955Y-55763051D01*
X172724662Y-55731711D01*
X172718568Y-55709289D01*
X172712493Y-55693704D01*
X172708590Y-55686453D01*
X172679924Y-55624249D01*
X172666129Y-55564486D01*
X172665912Y-55558375D01*
X172669541Y-55521703D01*
X172688375Y-55504543D01*
X172734136Y-55499094D01*
X172755791Y-55498560D01*
X173018885Y-55503700D01*
%TD*%
M02*
